G04*
G04 #@! TF.GenerationSoftware,Altium Limited,Altium Designer,22.1.2 (22)*
G04*
G04 Layer_Color=8421504*
%FSLAX25Y25*%
%MOIN*%
G70*
G04*
G04 #@! TF.SameCoordinates,AD3CF4ED-2F77-40B5-8B07-5FF5FC0119D8*
G04*
G04*
G04 #@! TF.FilePolarity,Positive*
G04*
G01*
G75*
%ADD18R,0.05709X0.03937*%
%ADD19O,0.08661X0.02400*%
%ADD20R,0.02000X0.05800*%
%ADD21R,0.05800X0.02000*%
%ADD22R,0.04724X0.05511*%
%ADD23R,0.02362X0.02756*%
%ADD24R,0.04724X0.05906*%
%ADD25R,0.03150X0.03150*%
%ADD26R,0.02953X0.03937*%
%ADD27R,0.06300X0.12200*%
%ADD28R,0.06300X0.03300*%
%ADD29R,0.05511X0.04724*%
%ADD30R,0.03150X0.03150*%
%ADD31R,0.02756X0.02362*%
%ADD32R,0.03937X0.02756*%
%ADD33R,0.04400X0.07100*%
%ADD34R,0.07100X0.04400*%
%ADD35R,0.03937X0.02953*%
D18*
X239700Y100460D02*
D03*
Y107940D02*
D03*
X29500Y101260D02*
D03*
Y108740D02*
D03*
X234500Y85360D02*
D03*
Y92840D02*
D03*
X44500Y158740D02*
D03*
Y151260D02*
D03*
D19*
X64700Y175500D02*
D03*
Y180500D02*
D03*
Y185500D02*
D03*
Y190500D02*
D03*
Y195500D02*
D03*
Y200500D02*
D03*
Y205500D02*
D03*
Y210500D02*
D03*
X41300D02*
D03*
Y205500D02*
D03*
Y200500D02*
D03*
Y195500D02*
D03*
Y190500D02*
D03*
Y185500D02*
D03*
Y180500D02*
D03*
Y175500D02*
D03*
D20*
X204193Y113800D02*
D03*
X201093D02*
D03*
X197893D02*
D03*
X194793D02*
D03*
X191593D02*
D03*
X188493D02*
D03*
X185293D02*
D03*
X182193D02*
D03*
Y146200D02*
D03*
X185293D02*
D03*
X188493D02*
D03*
X191593D02*
D03*
X194793D02*
D03*
X197893D02*
D03*
X201093D02*
D03*
X204193D02*
D03*
D21*
X176993Y119000D02*
D03*
Y122100D02*
D03*
Y125300D02*
D03*
Y128400D02*
D03*
Y131600D02*
D03*
Y134700D02*
D03*
Y137900D02*
D03*
Y141000D02*
D03*
X209393D02*
D03*
Y137900D02*
D03*
Y134700D02*
D03*
Y131600D02*
D03*
Y128400D02*
D03*
Y125300D02*
D03*
Y122100D02*
D03*
Y119000D02*
D03*
D22*
X221150Y148932D02*
D03*
Y140270D02*
D03*
X227843Y148931D02*
D03*
Y140270D02*
D03*
D23*
X225368Y155900D02*
D03*
X221431D02*
D03*
X91969Y128500D02*
D03*
X88032D02*
D03*
X117469Y196000D02*
D03*
X113531D02*
D03*
X85431Y190000D02*
D03*
X89368D02*
D03*
X96469Y206500D02*
D03*
X92532D02*
D03*
X137331Y178400D02*
D03*
X141269D02*
D03*
X225731Y79200D02*
D03*
X229668D02*
D03*
X153469Y195500D02*
D03*
X149531D02*
D03*
X111969Y160000D02*
D03*
X108031D02*
D03*
X111969Y170000D02*
D03*
X108031D02*
D03*
D24*
X253095Y87992D02*
D03*
X264906Y62008D02*
D03*
X253095D02*
D03*
X264906Y87992D02*
D03*
D25*
X133047Y195500D02*
D03*
X138953D02*
D03*
X88547Y160000D02*
D03*
X94453D02*
D03*
X88547Y170000D02*
D03*
X94453D02*
D03*
D26*
X32256Y119400D02*
D03*
X26744D02*
D03*
D27*
X72100Y128500D02*
D03*
D28*
X46900Y137600D02*
D03*
Y128500D02*
D03*
Y119400D02*
D03*
D29*
X105332Y196650D02*
D03*
X96670D02*
D03*
X105331Y189957D02*
D03*
X96670D02*
D03*
D30*
X112000Y129047D02*
D03*
Y134953D02*
D03*
D31*
Y116469D02*
D03*
Y112531D02*
D03*
X242800Y89231D02*
D03*
Y93168D02*
D03*
X234700Y143769D02*
D03*
Y139831D02*
D03*
X164500Y142931D02*
D03*
Y146869D02*
D03*
D32*
X47923Y243240D02*
D03*
Y239500D02*
D03*
Y235760D02*
D03*
X57224D02*
D03*
Y239500D02*
D03*
Y243240D02*
D03*
D33*
X130200Y177200D02*
D03*
X118400D02*
D03*
D34*
X240000Y161800D02*
D03*
Y150000D02*
D03*
D35*
X164400Y132144D02*
D03*
Y137656D02*
D03*
M02*
