M48
;Layer_Color=9474304
;FILE_FORMAT=2:5
INCH,LZ
;TYPE=PLATED
T1F00S00C0.01300
T2F00S00C0.02800
T3F00S00C0.03150
T6F00S00C0.04000
T7F00S00C0.04331
%
T01
X02424Y0079
X02497Y00992
X02574Y00997
X02325Y01003
X02225Y012745
X02469Y01306
X02601Y014
X02671Y01536
X02326Y01558
X02015Y0128
X0183Y01281
X01574Y0128894
X01568Y01367
X01448Y01308
X01311Y01252
X01278Y01581
X01388Y01592
X01389Y01865
X01231Y01866
X01142Y02067
X0085568Y0197
X00843Y01811
X00849Y01756
X00838Y01658
X00712Y01708
X00721Y01803
X00726Y01874
X00655Y01634
X00698Y01445
X00921Y01444
X01009Y01135
X00859Y0102
X00677Y01018
X01373Y0062
X0154Y00621
X0187Y00741
X01931Y00692
X02043Y00802
X02002Y00855
X02066Y00914
X01983Y00959
X01719Y00908
X01645Y01535
X00371Y01513
X00393Y01373
X00453Y00938
X00324Y00937
X0019Y01012
X0054Y0196
X00556Y021
X00525Y02285
X00423Y02327
X004242Y0240276
X0038Y02436
X00379Y02293
X00746Y02126
X00945Y02125
X01219Y02394
X01395Y02395
T02
X02651Y00505
T03
X0026512Y0237127
Y0243426
X0031251Y0246575
Y0240276
Y0233977
T06
X0012Y00365
X0022
X0032
X0042
X00595
X00695
X00795
X00895
X00885Y0017
X00785
X00685
X00585
X00153Y0178
Y0188
Y0198
Y0208
T07
X011Y001
X012
X013
X014
X015
X016
X017
X018
X02
X021
Y004
X02
X018
X017
X016
X015
X014
X013
X012
X011
X022
X023
X024
X025
Y001
X024
X023
X022
X02555Y0109
X02655
Y0119
X02555
Y0129
X02655
X0012Y0127
Y0137
Y0117
X0074Y023
X0084
X0094
X0104
X0114
X0124
X0134
X0144
X0154
X0164
X018
X019
X02
X021
Y026
X02
X019
X018
X0164
X0154
X0144
X0134
X0124
X0114
X0104
X0094
X0084
X0074
X022
X023
X024
X025
Y023
X024
X023
X022
M30
