G04*
G04 #@! TF.GenerationSoftware,Altium Limited,Altium Designer,22.1.2 (22)*
G04*
G04 Layer_Color=8388736*
%FSLAX25Y25*%
%MOIN*%
G70*
G04*
G04 #@! TF.SameCoordinates,AD3CF4ED-2F77-40B5-8B07-5FF5FC0119D8*
G04*
G04*
G04 #@! TF.FilePolarity,Negative*
G04*
G01*
G75*
%ADD18R,0.05709X0.03937*%
%ADD23R,0.02362X0.02756*%
%ADD26R,0.02953X0.03937*%
%ADD31R,0.02756X0.02362*%
%ADD35R,0.03937X0.02953*%
%ADD36O,0.09461X0.03200*%
%ADD37R,0.02200X0.06000*%
%ADD38R,0.06000X0.02200*%
%ADD39R,0.05524X0.06311*%
%ADD40R,0.05524X0.06706*%
%ADD41R,0.03950X0.03950*%
%ADD42R,0.07100X0.13000*%
%ADD43R,0.07100X0.04100*%
%ADD44R,0.06311X0.05524*%
%ADD45R,0.03950X0.03950*%
%ADD46R,0.04137X0.02956*%
%ADD47R,0.05200X0.07900*%
%ADD48R,0.07900X0.05200*%
%ADD49O,0.08674X0.15761*%
%ADD50O,0.13792X0.07887*%
%ADD51C,0.07800*%
%ADD52O,0.10249X0.05524*%
%ADD53C,0.05524*%
%ADD54C,0.07296*%
%ADD55C,0.06800*%
%ADD56C,0.03300*%
%ADD57C,0.05800*%
D18*
X239700Y100460D02*
D03*
Y107940D02*
D03*
X29500Y101260D02*
D03*
Y108740D02*
D03*
X234500Y85360D02*
D03*
Y92840D02*
D03*
X44500Y158740D02*
D03*
Y151260D02*
D03*
D23*
X225368Y155900D02*
D03*
X221431D02*
D03*
X91969Y128500D02*
D03*
X88032D02*
D03*
X117469Y196000D02*
D03*
X113531D02*
D03*
X85431Y190000D02*
D03*
X89368D02*
D03*
X96469Y206500D02*
D03*
X92532D02*
D03*
X137331Y178400D02*
D03*
X141269D02*
D03*
X225731Y79200D02*
D03*
X229668D02*
D03*
X153469Y195500D02*
D03*
X149531D02*
D03*
X111969Y160000D02*
D03*
X108031D02*
D03*
X111969Y170000D02*
D03*
X108031D02*
D03*
D26*
X32256Y119400D02*
D03*
X26744D02*
D03*
D31*
X112000Y116469D02*
D03*
Y112531D02*
D03*
X242800Y89231D02*
D03*
Y93168D02*
D03*
X234700Y143769D02*
D03*
Y139831D02*
D03*
X164500Y142931D02*
D03*
Y146869D02*
D03*
D35*
X164400Y132144D02*
D03*
Y137656D02*
D03*
D36*
X64700Y175500D02*
D03*
Y180500D02*
D03*
Y185500D02*
D03*
Y190500D02*
D03*
Y195500D02*
D03*
Y200500D02*
D03*
Y205500D02*
D03*
Y210500D02*
D03*
X41300D02*
D03*
Y205500D02*
D03*
Y200500D02*
D03*
Y195500D02*
D03*
Y190500D02*
D03*
Y185500D02*
D03*
Y180500D02*
D03*
Y175500D02*
D03*
D37*
X204193Y113800D02*
D03*
X201093D02*
D03*
X197893D02*
D03*
X194793D02*
D03*
X191593D02*
D03*
X188493D02*
D03*
X185293D02*
D03*
X182193D02*
D03*
Y146200D02*
D03*
X185293D02*
D03*
X188493D02*
D03*
X191593D02*
D03*
X194793D02*
D03*
X197893D02*
D03*
X201093D02*
D03*
X204193D02*
D03*
D38*
X176993Y119000D02*
D03*
Y122100D02*
D03*
Y125300D02*
D03*
Y128400D02*
D03*
Y131600D02*
D03*
Y134700D02*
D03*
Y137900D02*
D03*
Y141000D02*
D03*
X209393D02*
D03*
Y137900D02*
D03*
Y134700D02*
D03*
Y131600D02*
D03*
Y128400D02*
D03*
Y125300D02*
D03*
Y122100D02*
D03*
Y119000D02*
D03*
D39*
X221150Y148932D02*
D03*
Y140270D02*
D03*
X227843Y148931D02*
D03*
Y140270D02*
D03*
D40*
X253095Y87992D02*
D03*
X264906Y62008D02*
D03*
X253095D02*
D03*
X264906Y87992D02*
D03*
D41*
X133047Y195500D02*
D03*
X138953D02*
D03*
X88547Y160000D02*
D03*
X94453D02*
D03*
X88547Y170000D02*
D03*
X94453D02*
D03*
D42*
X72100Y128500D02*
D03*
D43*
X46900Y137600D02*
D03*
Y128500D02*
D03*
Y119400D02*
D03*
D44*
X105332Y196650D02*
D03*
X96670D02*
D03*
X105331Y189957D02*
D03*
X96670D02*
D03*
D45*
X112000Y129047D02*
D03*
Y134953D02*
D03*
D46*
X47923Y243240D02*
D03*
Y239500D02*
D03*
Y235760D02*
D03*
X57224D02*
D03*
Y239500D02*
D03*
Y243240D02*
D03*
D47*
X130200Y177200D02*
D03*
X118400D02*
D03*
D48*
X240000Y161800D02*
D03*
Y150000D02*
D03*
D49*
X55622Y71000D02*
D03*
X32000D02*
D03*
D50*
X45779Y52693D02*
D03*
D51*
X265500Y109000D02*
D03*
X255500D02*
D03*
X265500Y119000D02*
D03*
X255500D02*
D03*
X265500Y129000D02*
D03*
X255500D02*
D03*
X78500Y17000D02*
D03*
X88500D02*
D03*
X58500D02*
D03*
X68500D02*
D03*
X32000Y36500D02*
D03*
X42000D02*
D03*
X12000D02*
D03*
X22000D02*
D03*
X79500D02*
D03*
X89500D02*
D03*
X59500D02*
D03*
X69500D02*
D03*
X15300Y198000D02*
D03*
Y208000D02*
D03*
Y178000D02*
D03*
Y188000D02*
D03*
D52*
X9000Y225709D02*
D03*
X27701D02*
D03*
Y255000D02*
D03*
X9000D02*
D03*
D53*
X31251Y246575D02*
D03*
X26512Y243426D02*
D03*
Y237127D02*
D03*
X31251Y240276D02*
D03*
Y233977D02*
D03*
D54*
X12000Y137000D02*
D03*
Y127000D02*
D03*
Y117000D02*
D03*
D55*
X164000Y230000D02*
D03*
X154000D02*
D03*
X144000D02*
D03*
X134000D02*
D03*
X124000D02*
D03*
X114000D02*
D03*
X104000D02*
D03*
X94000D02*
D03*
X84000D02*
D03*
X74000D02*
D03*
X250000Y40000D02*
D03*
X240000D02*
D03*
X230000D02*
D03*
X220000D02*
D03*
X210000D02*
D03*
X200000D02*
D03*
X164000Y260000D02*
D03*
X154000D02*
D03*
X144000D02*
D03*
X134000D02*
D03*
X124000D02*
D03*
X114000D02*
D03*
X104000D02*
D03*
X94000D02*
D03*
X84000D02*
D03*
X74000D02*
D03*
X250000Y10000D02*
D03*
X240000D02*
D03*
X230000D02*
D03*
X220000D02*
D03*
X210000D02*
D03*
X200000D02*
D03*
X180000Y230000D02*
D03*
X190000D02*
D03*
X200000D02*
D03*
X210000D02*
D03*
X220000D02*
D03*
X230000D02*
D03*
X240000D02*
D03*
X250000D02*
D03*
X180000Y40000D02*
D03*
X170000D02*
D03*
X160000D02*
D03*
X150000D02*
D03*
X140000D02*
D03*
X130000D02*
D03*
X120000D02*
D03*
X110000D02*
D03*
X250000Y260000D02*
D03*
X240000D02*
D03*
X230000D02*
D03*
X220000D02*
D03*
X210000D02*
D03*
X200000D02*
D03*
X190000D02*
D03*
X180000D02*
D03*
Y10000D02*
D03*
X170000D02*
D03*
X160000D02*
D03*
X150000D02*
D03*
X140000D02*
D03*
X130000D02*
D03*
X120000D02*
D03*
X110000D02*
D03*
D56*
X232500Y100300D02*
D03*
X69800Y144500D02*
D03*
X74600Y212600D02*
D03*
X52500Y228500D02*
D03*
X19000Y101200D02*
D03*
X267100Y153600D02*
D03*
X201500Y128000D02*
D03*
X183000Y128100D02*
D03*
X121900Y239400D02*
D03*
X139500Y239500D02*
D03*
X94500Y212500D02*
D03*
X85568Y197000D02*
D03*
X54000Y196000D02*
D03*
X42300Y232700D02*
D03*
X37900Y229300D02*
D03*
X42420Y240276D02*
D03*
X38000Y243600D02*
D03*
X37100Y151300D02*
D03*
X55600Y210000D02*
D03*
X144800Y130800D02*
D03*
X131100Y125200D02*
D03*
X137300Y62000D02*
D03*
X72100Y180300D02*
D03*
X72600Y187400D02*
D03*
X71200Y170800D02*
D03*
X83800Y165800D02*
D03*
X84900Y175600D02*
D03*
X45300Y93800D02*
D03*
X206600Y91400D02*
D03*
X204300Y80200D02*
D03*
X260100Y140000D02*
D03*
X246900Y130600D02*
D03*
X222500Y127450D02*
D03*
X156800Y136700D02*
D03*
X157400Y128894D02*
D03*
X164500Y153500D02*
D03*
X200200Y85500D02*
D03*
X138800Y159200D02*
D03*
X127800Y158100D02*
D03*
X84300Y181100D02*
D03*
X242400Y79000D02*
D03*
X92100Y144400D02*
D03*
X100900Y113500D02*
D03*
X232600Y155800D02*
D03*
X171900Y90800D02*
D03*
X249700Y99200D02*
D03*
X257400Y99700D02*
D03*
X114200Y206700D02*
D03*
X123100Y186600D02*
D03*
X154000Y62100D02*
D03*
X85900Y102000D02*
D03*
X67700Y101800D02*
D03*
X32400Y93700D02*
D03*
X65500Y163400D02*
D03*
X193100Y69200D02*
D03*
X187000Y74100D02*
D03*
X198300Y95900D02*
D03*
X138900Y186500D02*
D03*
X39300Y137300D02*
D03*
D57*
X265100Y50500D02*
D03*
M02*
