G04*
G04 #@! TF.GenerationSoftware,Altium Limited,Altium Designer,22.1.2 (22)*
G04*
G04 Layer_Color=16711935*
%FSLAX25Y25*%
%MOIN*%
G70*
G04*
G04 #@! TF.SameCoordinates,AD3CF4ED-2F77-40B5-8B07-5FF5FC0119D8*
G04*
G04*
G04 #@! TF.FilePolarity,Negative*
G04*
G01*
G75*
%ADD49O,0.08674X0.15761*%
%ADD50O,0.13792X0.07887*%
%ADD51C,0.07800*%
%ADD52O,0.10249X0.05524*%
%ADD53C,0.05524*%
%ADD54C,0.07296*%
%ADD55C,0.06800*%
%ADD56C,0.03300*%
%ADD57C,0.05800*%
D49*
X55622Y71000D02*
D03*
X32000D02*
D03*
D50*
X45779Y52693D02*
D03*
D51*
X265500Y109000D02*
D03*
X255500D02*
D03*
X265500Y119000D02*
D03*
X255500D02*
D03*
X265500Y129000D02*
D03*
X255500D02*
D03*
X78500Y17000D02*
D03*
X88500D02*
D03*
X58500D02*
D03*
X68500D02*
D03*
X32000Y36500D02*
D03*
X42000D02*
D03*
X12000D02*
D03*
X22000D02*
D03*
X79500D02*
D03*
X89500D02*
D03*
X59500D02*
D03*
X69500D02*
D03*
X15300Y198000D02*
D03*
Y208000D02*
D03*
Y178000D02*
D03*
Y188000D02*
D03*
D52*
X9000Y225709D02*
D03*
X27701D02*
D03*
Y255000D02*
D03*
X9000D02*
D03*
D53*
X31251Y246575D02*
D03*
X26512Y243426D02*
D03*
Y237127D02*
D03*
X31251Y240276D02*
D03*
Y233977D02*
D03*
D54*
X12000Y137000D02*
D03*
Y127000D02*
D03*
Y117000D02*
D03*
D55*
X164000Y230000D02*
D03*
X154000D02*
D03*
X144000D02*
D03*
X134000D02*
D03*
X124000D02*
D03*
X114000D02*
D03*
X104000D02*
D03*
X94000D02*
D03*
X84000D02*
D03*
X74000D02*
D03*
X250000Y40000D02*
D03*
X240000D02*
D03*
X230000D02*
D03*
X220000D02*
D03*
X210000D02*
D03*
X200000D02*
D03*
X164000Y260000D02*
D03*
X154000D02*
D03*
X144000D02*
D03*
X134000D02*
D03*
X124000D02*
D03*
X114000D02*
D03*
X104000D02*
D03*
X94000D02*
D03*
X84000D02*
D03*
X74000D02*
D03*
X250000Y10000D02*
D03*
X240000D02*
D03*
X230000D02*
D03*
X220000D02*
D03*
X210000D02*
D03*
X200000D02*
D03*
X180000Y230000D02*
D03*
X190000D02*
D03*
X200000D02*
D03*
X210000D02*
D03*
X220000D02*
D03*
X230000D02*
D03*
X240000D02*
D03*
X250000D02*
D03*
X180000Y40000D02*
D03*
X170000D02*
D03*
X160000D02*
D03*
X150000D02*
D03*
X140000D02*
D03*
X130000D02*
D03*
X120000D02*
D03*
X110000D02*
D03*
X250000Y260000D02*
D03*
X240000D02*
D03*
X230000D02*
D03*
X220000D02*
D03*
X210000D02*
D03*
X200000D02*
D03*
X190000D02*
D03*
X180000D02*
D03*
Y10000D02*
D03*
X170000D02*
D03*
X160000D02*
D03*
X150000D02*
D03*
X140000D02*
D03*
X130000D02*
D03*
X120000D02*
D03*
X110000D02*
D03*
D56*
X232500Y100300D02*
D03*
X69800Y144500D02*
D03*
X74600Y212600D02*
D03*
X52500Y228500D02*
D03*
X19000Y101200D02*
D03*
X267100Y153600D02*
D03*
X201500Y128000D02*
D03*
X183000Y128100D02*
D03*
X121900Y239400D02*
D03*
X139500Y239500D02*
D03*
X94500Y212500D02*
D03*
X85568Y197000D02*
D03*
X54000Y196000D02*
D03*
X42300Y232700D02*
D03*
X37900Y229300D02*
D03*
X42420Y240276D02*
D03*
X38000Y243600D02*
D03*
X37100Y151300D02*
D03*
X55600Y210000D02*
D03*
X144800Y130800D02*
D03*
X131100Y125200D02*
D03*
X137300Y62000D02*
D03*
X72100Y180300D02*
D03*
X72600Y187400D02*
D03*
X71200Y170800D02*
D03*
X83800Y165800D02*
D03*
X84900Y175600D02*
D03*
X45300Y93800D02*
D03*
X206600Y91400D02*
D03*
X204300Y80200D02*
D03*
X260100Y140000D02*
D03*
X246900Y130600D02*
D03*
X222500Y127450D02*
D03*
X156800Y136700D02*
D03*
X157400Y128894D02*
D03*
X164500Y153500D02*
D03*
X200200Y85500D02*
D03*
X138800Y159200D02*
D03*
X127800Y158100D02*
D03*
X84300Y181100D02*
D03*
X242400Y79000D02*
D03*
X92100Y144400D02*
D03*
X100900Y113500D02*
D03*
X232600Y155800D02*
D03*
X171900Y90800D02*
D03*
X249700Y99200D02*
D03*
X257400Y99700D02*
D03*
X114200Y206700D02*
D03*
X123100Y186600D02*
D03*
X154000Y62100D02*
D03*
X85900Y102000D02*
D03*
X67700Y101800D02*
D03*
X32400Y93700D02*
D03*
X65500Y163400D02*
D03*
X193100Y69200D02*
D03*
X187000Y74100D02*
D03*
X198300Y95900D02*
D03*
X138900Y186500D02*
D03*
X39300Y137300D02*
D03*
D57*
X265100Y50500D02*
D03*
M02*
