G04*
G04 #@! TF.GenerationSoftware,Altium Limited,Altium Designer,22.1.2 (22)*
G04*
G04 Layer_Color=65535*
%FSLAX25Y25*%
%MOIN*%
G70*
G04*
G04 #@! TF.SameCoordinates,9C9567F8-7803-4A2A-AD9E-191CB7A9E8FD*
G04*
G04*
G04 #@! TF.FilePolarity,Positive*
G04*
G01*
G75*
%ADD10C,0.00787*%
%ADD11C,0.00600*%
%ADD12C,0.00500*%
%ADD13C,0.01500*%
%ADD14C,0.01000*%
G36*
X50792Y158331D02*
X50952D01*
Y158315D01*
X51048D01*
Y158299D01*
X51145D01*
Y158283D01*
X51241D01*
Y158267D01*
X51321D01*
Y158251D01*
X51401D01*
Y158235D01*
X51449D01*
Y158219D01*
X51513D01*
Y158203D01*
X51562D01*
Y158187D01*
X51594D01*
Y158171D01*
X51642D01*
Y158155D01*
X51674D01*
Y158139D01*
X51722D01*
Y158123D01*
X51754D01*
Y158107D01*
X51770D01*
Y158090D01*
X51818D01*
Y158074D01*
X51834D01*
Y158058D01*
X51867D01*
Y158042D01*
X51898D01*
Y158026D01*
X51915D01*
Y158010D01*
X51947D01*
Y157994D01*
X51979D01*
Y157978D01*
X52011D01*
Y157962D01*
X52027D01*
Y157946D01*
X52059D01*
Y157930D01*
X52075D01*
Y157914D01*
X52107D01*
Y157898D01*
X52123D01*
Y157882D01*
X52139D01*
Y157866D01*
X52171D01*
Y157850D01*
X52187D01*
Y157834D01*
X52219D01*
Y157818D01*
X52235D01*
Y157802D01*
X52251D01*
Y157786D01*
X52284D01*
Y157770D01*
X52300D01*
Y157754D01*
X52332D01*
Y157738D01*
X52348D01*
Y157721D01*
X52364D01*
Y157705D01*
X52380D01*
Y157689D01*
X52396D01*
Y157673D01*
X52428D01*
Y157657D01*
X52444D01*
Y157641D01*
X52460D01*
Y157625D01*
X52492D01*
Y157609D01*
X52508D01*
Y157593D01*
X52524D01*
Y157577D01*
X52540D01*
Y157561D01*
X52556D01*
Y157545D01*
X52588D01*
Y157529D01*
X52604D01*
Y157513D01*
X52620D01*
Y157497D01*
X52636D01*
Y157481D01*
X52653D01*
Y157465D01*
X52668D01*
Y157449D01*
X52701D01*
Y157433D01*
X52717D01*
Y157417D01*
X52733D01*
Y157401D01*
X52749D01*
Y157385D01*
X52765D01*
Y157369D01*
X52781D01*
Y157352D01*
X52797D01*
Y157336D01*
X52813D01*
Y157320D01*
X52845D01*
Y157304D01*
X52861D01*
Y157288D01*
X52877D01*
Y157272D01*
X52893D01*
Y157256D01*
X52909D01*
Y157240D01*
X52925D01*
Y157224D01*
X52941D01*
Y157208D01*
X52957D01*
Y157192D01*
X52973D01*
Y157176D01*
X53005D01*
Y157160D01*
X53022D01*
Y157144D01*
X53038D01*
Y157128D01*
X53053D01*
Y157112D01*
X53070D01*
Y157096D01*
X53086D01*
Y157080D01*
X53102D01*
Y157064D01*
X53118D01*
Y157048D01*
X53134D01*
Y157032D01*
X53150D01*
Y157016D01*
X53166D01*
Y157000D01*
X53182D01*
Y156983D01*
X53198D01*
Y156967D01*
X53214D01*
Y156951D01*
X53230D01*
Y156935D01*
X53246D01*
Y156919D01*
X53262D01*
Y156903D01*
X53278D01*
Y156887D01*
X53294D01*
Y156871D01*
X53310D01*
Y156855D01*
X53342D01*
Y156839D01*
X53358D01*
Y156823D01*
X53374D01*
Y156807D01*
X53390D01*
Y156791D01*
X53407D01*
Y156775D01*
X53422D01*
Y156759D01*
X53439D01*
Y156743D01*
X53455D01*
Y156727D01*
X53471D01*
Y156711D01*
X53487D01*
Y156695D01*
X53503D01*
Y156679D01*
X53519D01*
Y156663D01*
X53535D01*
Y156647D01*
X53551D01*
Y156631D01*
X53567D01*
Y156615D01*
X53583D01*
Y156599D01*
X53599D01*
Y156582D01*
X53615D01*
Y156567D01*
X53631D01*
Y156550D01*
X53647D01*
Y156534D01*
X53663D01*
Y156518D01*
X53679D01*
Y156502D01*
X53695D01*
Y156486D01*
X53711D01*
Y156470D01*
X53727D01*
Y156454D01*
X53743D01*
Y156438D01*
X53759D01*
Y156422D01*
X53775D01*
Y156406D01*
X53791D01*
Y156390D01*
X53807D01*
Y156358D01*
X53824D01*
Y156342D01*
X53840D01*
Y156326D01*
X53856D01*
Y156310D01*
X53872D01*
Y156294D01*
X53888D01*
Y156278D01*
X53904D01*
Y156262D01*
X53920D01*
Y156246D01*
X53936D01*
Y156230D01*
X53952D01*
Y156214D01*
X53968D01*
Y156198D01*
X53984D01*
Y156182D01*
X54000D01*
Y156165D01*
X54016D01*
Y156149D01*
X54032D01*
Y156133D01*
X54048D01*
Y156117D01*
X54064D01*
Y156101D01*
X54080D01*
Y156085D01*
X54096D01*
Y156069D01*
X54112D01*
Y156053D01*
X54128D01*
Y156037D01*
X54144D01*
Y156021D01*
X54160D01*
Y156005D01*
X54176D01*
Y155989D01*
X54193D01*
Y155957D01*
X54208D01*
Y155941D01*
X54225D01*
Y155925D01*
X54241D01*
Y155909D01*
X54257D01*
Y155893D01*
X54273D01*
Y155877D01*
X54289D01*
Y155861D01*
X54305D01*
Y155845D01*
X54321D01*
Y155828D01*
X54337D01*
Y155813D01*
X54353D01*
Y155797D01*
X54369D01*
Y155780D01*
X54385D01*
Y155764D01*
X54401D01*
Y155748D01*
X54417D01*
Y155716D01*
X54433D01*
Y155700D01*
X54449D01*
Y155684D01*
X54465D01*
Y155668D01*
X54481D01*
Y155652D01*
X54497D01*
Y155636D01*
X54513D01*
Y155620D01*
X54529D01*
Y155604D01*
X54545D01*
Y155572D01*
X54562D01*
Y155556D01*
X54577D01*
Y155524D01*
X54593D01*
Y155476D01*
X54610D01*
Y155363D01*
X54626D01*
Y155251D01*
X54642D01*
Y155203D01*
X54658D01*
Y155139D01*
X54674D01*
Y155107D01*
X54690D01*
Y155059D01*
X54706D01*
Y155043D01*
X54722D01*
Y155010D01*
X54738D01*
Y154978D01*
X54754D01*
Y154962D01*
X54770D01*
Y154930D01*
X54786D01*
Y154914D01*
X54802D01*
Y154882D01*
X54818D01*
Y154850D01*
X54834D01*
Y154834D01*
X54850D01*
Y154802D01*
X54866D01*
Y154770D01*
X54882D01*
Y154738D01*
X54898D01*
Y154722D01*
X54914D01*
Y154690D01*
X54930D01*
Y154657D01*
X54947D01*
Y154641D01*
X54962D01*
Y154593D01*
X54979D01*
Y154577D01*
X54995D01*
Y154545D01*
X55011D01*
Y154513D01*
X55027D01*
Y154497D01*
X55043D01*
Y154449D01*
X55059D01*
Y154433D01*
X55075D01*
Y154305D01*
X55059D01*
Y154289D01*
X55043D01*
Y154256D01*
X55027D01*
Y154240D01*
X55011D01*
Y154224D01*
X54995D01*
Y154208D01*
X54962D01*
Y154192D01*
X54947D01*
Y154176D01*
X54930D01*
Y154160D01*
X54914D01*
Y154144D01*
X54898D01*
Y154128D01*
X54882D01*
Y154112D01*
X54866D01*
Y154096D01*
X54850D01*
Y154080D01*
X54818D01*
Y154064D01*
X54802D01*
Y154048D01*
X54786D01*
Y154032D01*
X54770D01*
Y154016D01*
X54754D01*
Y154000D01*
X54722D01*
Y153984D01*
X54706D01*
Y153968D01*
X54690D01*
Y153952D01*
X54658D01*
Y153936D01*
X54642D01*
Y153920D01*
X54626D01*
Y153903D01*
X54593D01*
Y153887D01*
X54562D01*
Y153872D01*
X54545D01*
Y153855D01*
X54497D01*
Y153839D01*
X54465D01*
Y153823D01*
X54417D01*
Y153807D01*
X54401D01*
Y153791D01*
X54385D01*
Y153775D01*
X54353D01*
Y153743D01*
X54337D01*
Y153711D01*
X54321D01*
Y153631D01*
X54337D01*
Y153599D01*
X54353D01*
Y153583D01*
X54369D01*
Y153567D01*
X54385D01*
Y153551D01*
X54401D01*
Y153535D01*
X54417D01*
Y153519D01*
X54449D01*
Y153503D01*
X54465D01*
Y153487D01*
X54497D01*
Y153470D01*
X54513D01*
Y153454D01*
X54529D01*
Y153438D01*
X54562D01*
Y153422D01*
X54577D01*
Y153406D01*
X54593D01*
Y153390D01*
X54610D01*
Y153374D01*
X54642D01*
Y153358D01*
X54658D01*
Y153342D01*
X54674D01*
Y153326D01*
X54690D01*
Y153310D01*
X54722D01*
Y153294D01*
X54738D01*
Y153278D01*
X54754D01*
Y153262D01*
X54770D01*
Y153246D01*
X54802D01*
Y153230D01*
X54818D01*
Y153214D01*
X54834D01*
Y153198D01*
X54850D01*
Y153182D01*
X54866D01*
Y153166D01*
X54898D01*
Y153150D01*
X54914D01*
Y153133D01*
X54930D01*
Y153118D01*
X54947D01*
Y153102D01*
X54962D01*
Y153085D01*
X54979D01*
Y153069D01*
X54995D01*
Y153053D01*
X55027D01*
Y153037D01*
X55043D01*
Y153021D01*
X55059D01*
Y153005D01*
X55075D01*
Y152989D01*
X55091D01*
Y152973D01*
X55107D01*
Y152957D01*
X55123D01*
Y152941D01*
X55139D01*
Y152925D01*
X55155D01*
Y152893D01*
X55171D01*
Y152877D01*
X55187D01*
Y152861D01*
X55203D01*
Y152845D01*
X55219D01*
Y152829D01*
X55235D01*
Y152813D01*
X55251D01*
Y152781D01*
X55267D01*
Y152765D01*
X55283D01*
Y152749D01*
X55299D01*
Y152733D01*
X55315D01*
Y152700D01*
X55331D01*
Y152684D01*
X55348D01*
Y152668D01*
X55364D01*
Y152652D01*
X55380D01*
Y152636D01*
X55396D01*
Y152604D01*
X55412D01*
Y152588D01*
X55428D01*
Y152572D01*
X55444D01*
Y152540D01*
X55460D01*
Y152524D01*
X55476D01*
Y152508D01*
X55492D01*
Y152492D01*
X55508D01*
Y152460D01*
X55524D01*
Y152444D01*
X55540D01*
Y152428D01*
X55556D01*
Y152396D01*
X55572D01*
Y152380D01*
X55588D01*
Y152364D01*
X55604D01*
Y152331D01*
X55620D01*
Y152315D01*
X55636D01*
Y152283D01*
X55652D01*
Y152267D01*
X55668D01*
Y152235D01*
X55684D01*
Y152203D01*
X55700D01*
Y152155D01*
X55717D01*
Y152139D01*
X55733D01*
Y152091D01*
X55748D01*
Y152059D01*
X55765D01*
Y152027D01*
X55781D01*
Y151995D01*
X55797D01*
Y151962D01*
X55813D01*
Y151930D01*
X55829D01*
Y151898D01*
X55845D01*
Y151882D01*
X55861D01*
Y151866D01*
X55877D01*
Y151834D01*
X55893D01*
Y151818D01*
X55909D01*
Y151802D01*
X55925D01*
Y151770D01*
X55941D01*
Y151754D01*
X55957D01*
Y151722D01*
X55973D01*
Y151706D01*
X55989D01*
Y151690D01*
X56005D01*
Y151658D01*
X56021D01*
Y151642D01*
X56037D01*
Y151626D01*
X56053D01*
Y151610D01*
X56069D01*
Y151577D01*
X56085D01*
Y151561D01*
X56102D01*
Y151545D01*
X56117D01*
Y151529D01*
X56134D01*
Y151497D01*
X56150D01*
Y151481D01*
X56166D01*
Y151465D01*
X56182D01*
Y151449D01*
X56198D01*
Y151433D01*
X56214D01*
Y151417D01*
X56230D01*
Y151401D01*
X56246D01*
Y151385D01*
X56262D01*
Y151369D01*
X56278D01*
Y151353D01*
X56310D01*
Y151337D01*
X56326D01*
Y151321D01*
X56342D01*
Y151305D01*
X56358D01*
Y151289D01*
X56374D01*
Y151273D01*
X56390D01*
Y151257D01*
X56406D01*
Y151241D01*
X56438D01*
Y151225D01*
X56454D01*
Y151208D01*
X56470D01*
Y151192D01*
X56486D01*
Y151177D01*
X56502D01*
Y151160D01*
X56519D01*
Y151128D01*
X56535D01*
Y151112D01*
X56551D01*
Y151096D01*
X56567D01*
Y151080D01*
X56583D01*
Y151064D01*
X56599D01*
Y151048D01*
X56615D01*
Y151016D01*
X56631D01*
Y151000D01*
X56647D01*
Y150984D01*
X56663D01*
Y150952D01*
X56679D01*
Y150920D01*
X56695D01*
Y150888D01*
X56711D01*
Y150872D01*
X56727D01*
Y150824D01*
X56743D01*
Y150792D01*
X56759D01*
Y150759D01*
X56775D01*
Y150695D01*
X56791D01*
Y150647D01*
X56807D01*
Y150599D01*
X56823D01*
Y150535D01*
X56839D01*
Y150471D01*
X56855D01*
Y150342D01*
X56871D01*
Y149925D01*
X56888D01*
Y149765D01*
X56903D01*
Y149685D01*
X56920D01*
Y149588D01*
X56936D01*
Y149476D01*
X56952D01*
Y149412D01*
X56968D01*
Y149300D01*
X56984D01*
Y149203D01*
X57000D01*
Y149091D01*
X57016D01*
Y149027D01*
X57000D01*
Y149011D01*
X56615D01*
Y149027D01*
X56583D01*
Y149011D01*
X56567D01*
Y149027D01*
X56358D01*
Y149043D01*
X56134D01*
Y149059D01*
X55989D01*
Y149075D01*
X55845D01*
Y149091D01*
X55765D01*
Y149107D01*
X55652D01*
Y149123D01*
X55556D01*
Y149139D01*
X55508D01*
Y149155D01*
X55428D01*
Y149171D01*
X55364D01*
Y149187D01*
X55315D01*
Y149203D01*
X55267D01*
Y149219D01*
X55219D01*
Y149235D01*
X55171D01*
Y149251D01*
X55139D01*
Y149267D01*
X55091D01*
Y149284D01*
X55059D01*
Y149300D01*
X55027D01*
Y149316D01*
X54995D01*
Y149332D01*
X54979D01*
Y149348D01*
X54947D01*
Y149364D01*
X54914D01*
Y149380D01*
X54882D01*
Y149396D01*
X54866D01*
Y149412D01*
X54850D01*
Y149428D01*
X54818D01*
Y149444D01*
X54802D01*
Y149460D01*
X54770D01*
Y149476D01*
X54754D01*
Y149492D01*
X54738D01*
Y149508D01*
X54722D01*
Y149524D01*
X54706D01*
Y149540D01*
X54690D01*
Y149556D01*
X54674D01*
Y149572D01*
X54658D01*
Y149588D01*
X54642D01*
Y149604D01*
X54626D01*
Y149620D01*
X54610D01*
Y149636D01*
X54593D01*
Y149653D01*
X54577D01*
Y149669D01*
X54562D01*
Y149701D01*
X54545D01*
Y149717D01*
X54529D01*
Y149733D01*
X54513D01*
Y149765D01*
X54497D01*
Y149781D01*
X54481D01*
Y149813D01*
X54465D01*
Y149829D01*
X54449D01*
Y149861D01*
X54433D01*
Y149893D01*
X54417D01*
Y149925D01*
X54401D01*
Y151433D01*
X54385D01*
Y151465D01*
X54369D01*
Y151481D01*
X54353D01*
Y151497D01*
X54337D01*
Y151513D01*
X54321D01*
Y151529D01*
X54305D01*
Y151545D01*
X54289D01*
Y151561D01*
X54273D01*
Y151577D01*
X54257D01*
Y151594D01*
X54241D01*
Y151610D01*
X54225D01*
Y151626D01*
X54208D01*
Y151642D01*
X54193D01*
Y151658D01*
X54176D01*
Y151674D01*
X54160D01*
Y151690D01*
X54144D01*
Y151706D01*
X54128D01*
Y151722D01*
X54112D01*
Y151738D01*
X54096D01*
Y151770D01*
X54080D01*
Y151786D01*
X54064D01*
Y151802D01*
X54048D01*
Y151818D01*
X54032D01*
Y151834D01*
X54016D01*
Y151850D01*
X54000D01*
Y151866D01*
X53984D01*
Y151882D01*
X53968D01*
Y151898D01*
X53952D01*
Y151914D01*
X53936D01*
Y151930D01*
X53920D01*
Y151946D01*
X53904D01*
Y151962D01*
X53888D01*
Y151979D01*
X53872D01*
Y151995D01*
X53856D01*
Y152011D01*
X53840D01*
Y152027D01*
X53824D01*
Y152043D01*
X53807D01*
Y152059D01*
X53791D01*
Y152075D01*
X53775D01*
Y152091D01*
X53759D01*
Y152107D01*
X53743D01*
Y152123D01*
X53727D01*
Y152139D01*
X53711D01*
Y152155D01*
X53695D01*
Y152171D01*
X53679D01*
Y152187D01*
X53663D01*
Y152203D01*
X53647D01*
Y152235D01*
X53615D01*
Y152267D01*
X53599D01*
Y152283D01*
X53583D01*
Y152299D01*
X53567D01*
Y152315D01*
X53551D01*
Y152331D01*
X53535D01*
Y152348D01*
X53519D01*
Y152364D01*
X53503D01*
Y152380D01*
X53487D01*
Y152396D01*
X53471D01*
Y152412D01*
X53455D01*
Y152428D01*
X53439D01*
Y152444D01*
X53422D01*
Y152460D01*
X53390D01*
Y152476D01*
X53278D01*
Y152492D01*
X53182D01*
Y152508D01*
X53053D01*
Y152524D01*
X52957D01*
Y152540D01*
X52829D01*
Y152556D01*
X52749D01*
Y152572D01*
X52636D01*
Y152588D01*
X52508D01*
Y152604D01*
X52428D01*
Y152620D01*
X52300D01*
Y152636D01*
X52203D01*
Y152652D01*
X52075D01*
Y152668D01*
X51963D01*
Y152684D01*
X51882D01*
Y152700D01*
X51754D01*
Y152717D01*
X51658D01*
Y152733D01*
X51530D01*
Y152749D01*
X51449D01*
Y152765D01*
X51321D01*
Y152781D01*
X51209D01*
Y152797D01*
X51129D01*
Y152813D01*
X50984D01*
Y152829D01*
X50904D01*
Y152845D01*
X50776D01*
Y152861D01*
X50663D01*
Y152877D01*
X50583D01*
Y152893D01*
X50455D01*
Y152909D01*
X50358D01*
Y152925D01*
X50230D01*
Y152941D01*
X50134D01*
Y152957D01*
X50022D01*
Y152973D01*
X49909D01*
Y152989D01*
X49813D01*
Y153005D01*
X49685D01*
Y153021D01*
X49621D01*
Y153053D01*
X49605D01*
Y153390D01*
X49621D01*
Y153406D01*
X49605D01*
Y153438D01*
X49573D01*
Y153454D01*
X49476D01*
Y153470D01*
X49348D01*
Y153487D01*
X49252D01*
Y153503D01*
X49123D01*
Y153519D01*
X49043D01*
Y153535D01*
X48931D01*
Y153551D01*
X48803D01*
Y153567D01*
X48722D01*
Y153583D01*
X48594D01*
Y153599D01*
X48546D01*
Y153567D01*
X48530D01*
Y153535D01*
X48546D01*
Y151898D01*
X48530D01*
Y151850D01*
X48546D01*
Y151834D01*
X48562D01*
Y151818D01*
X48674D01*
Y151802D01*
X48770D01*
Y151786D01*
X48899D01*
Y151770D01*
X48995D01*
Y151754D01*
X49091D01*
Y151738D01*
X49220D01*
Y151722D01*
X49300D01*
Y151706D01*
X49444D01*
Y151690D01*
X49524D01*
Y151674D01*
X49637D01*
Y151658D01*
X49765D01*
Y151642D01*
X49845D01*
Y151626D01*
X49990D01*
Y151610D01*
X50070D01*
Y151594D01*
X50198D01*
Y151577D01*
X50310D01*
Y151561D01*
X50391D01*
Y151545D01*
X50519D01*
Y151529D01*
X50615D01*
Y151513D01*
X50744D01*
Y151497D01*
X50824D01*
Y151481D01*
X50952D01*
Y151465D01*
X51064D01*
Y151449D01*
X51145D01*
Y151433D01*
X51289D01*
Y151417D01*
X51369D01*
Y151401D01*
X51498D01*
Y151385D01*
X51610D01*
Y151369D01*
X51706D01*
Y151353D01*
X51818D01*
Y151337D01*
X51915D01*
Y151321D01*
X52043D01*
Y151305D01*
X52139D01*
Y151289D01*
X52251D01*
Y151273D01*
X52364D01*
Y151257D01*
X52460D01*
Y151241D01*
X52588D01*
Y151225D01*
X52685D01*
Y151208D01*
X52797D01*
Y151192D01*
X52909D01*
Y151177D01*
X53005D01*
Y151160D01*
X53086D01*
Y151144D01*
X53102D01*
Y148514D01*
X53086D01*
Y148497D01*
X52989D01*
Y148514D01*
X52893D01*
Y148530D01*
X52781D01*
Y148546D01*
X52653D01*
Y148562D01*
X52572D01*
Y148578D01*
X52444D01*
Y148594D01*
X52348D01*
Y148610D01*
X52219D01*
Y148626D01*
X52139D01*
Y148642D01*
X52123D01*
Y148674D01*
X52107D01*
Y148706D01*
X52123D01*
Y149733D01*
X52107D01*
Y149765D01*
X52091D01*
Y149781D01*
X52075D01*
Y149797D01*
X52059D01*
Y149813D01*
X52043D01*
Y149829D01*
X52027D01*
Y149861D01*
X52011D01*
Y149877D01*
X51995D01*
Y149893D01*
X51963D01*
Y149925D01*
X51947D01*
Y149941D01*
X51931D01*
Y149957D01*
X51915D01*
Y149973D01*
X51898D01*
Y149989D01*
X51882D01*
Y150005D01*
X51867D01*
Y150022D01*
X51850D01*
Y150038D01*
X51834D01*
Y150054D01*
X51818D01*
Y150070D01*
X51802D01*
Y150086D01*
X51786D01*
Y150102D01*
X51770D01*
Y150118D01*
X51754D01*
Y150150D01*
X51738D01*
Y150166D01*
X51722D01*
Y150182D01*
X51706D01*
Y150198D01*
X51690D01*
Y150214D01*
X51674D01*
Y150230D01*
X51658D01*
Y150246D01*
X51642D01*
Y150262D01*
X51626D01*
Y150278D01*
X51610D01*
Y150294D01*
X51594D01*
Y150310D01*
X51578D01*
Y150326D01*
X51562D01*
Y150342D01*
X51546D01*
Y150358D01*
X51530D01*
Y150374D01*
X51513D01*
Y150390D01*
X51498D01*
Y150407D01*
X51481D01*
Y150423D01*
X51465D01*
Y150455D01*
X51449D01*
Y150471D01*
X51417D01*
Y150503D01*
X51401D01*
Y150519D01*
X51385D01*
Y150535D01*
X51369D01*
Y150551D01*
X51353D01*
Y150567D01*
X51337D01*
Y150583D01*
X51321D01*
Y150599D01*
X51305D01*
Y150615D01*
X51289D01*
Y150631D01*
X51273D01*
Y150647D01*
X51257D01*
Y150663D01*
X51241D01*
Y150679D01*
X51225D01*
Y150695D01*
X51209D01*
Y150711D01*
X51193D01*
Y150727D01*
X51177D01*
Y150743D01*
X51161D01*
Y150759D01*
X51145D01*
Y150775D01*
X51129D01*
Y150792D01*
X51113D01*
Y150807D01*
X51032D01*
Y150824D01*
X50952D01*
Y150840D01*
X50840D01*
Y150856D01*
X50712D01*
Y150872D01*
X50631D01*
Y150888D01*
X50487D01*
Y150904D01*
X50407D01*
Y150920D01*
X50278D01*
Y150936D01*
X50166D01*
Y150952D01*
X50086D01*
Y150968D01*
X49957D01*
Y150984D01*
X49861D01*
Y151000D01*
X49733D01*
Y151016D01*
X49637D01*
Y149701D01*
X49669D01*
Y149685D01*
X49765D01*
Y149669D01*
X49893D01*
Y149653D01*
X50006D01*
Y149636D01*
X50086D01*
Y149620D01*
X50214D01*
Y149604D01*
X50310D01*
Y149588D01*
X50439D01*
Y149572D01*
X50519D01*
Y149556D01*
X50647D01*
Y149540D01*
X50760D01*
Y149524D01*
X50808D01*
Y149508D01*
X50824D01*
Y149492D01*
X50840D01*
Y149460D01*
X50824D01*
Y148899D01*
X50840D01*
Y148866D01*
X50824D01*
Y148834D01*
X50727D01*
Y148850D01*
X50599D01*
Y148866D01*
X50503D01*
Y148882D01*
X50375D01*
Y148899D01*
X50278D01*
Y148915D01*
X50166D01*
Y148931D01*
X50054D01*
Y148947D01*
X49973D01*
Y148963D01*
X49829D01*
Y148979D01*
X49733D01*
Y148995D01*
X49621D01*
Y149011D01*
X49508D01*
Y149027D01*
X49412D01*
Y149043D01*
X49284D01*
Y149059D01*
X49204D01*
Y149075D01*
X49075D01*
Y149091D01*
X48979D01*
Y149107D01*
X48867D01*
Y149123D01*
X48754D01*
Y149139D01*
X48658D01*
Y149155D01*
X48562D01*
Y149139D01*
X48546D01*
Y149091D01*
X48562D01*
Y149075D01*
X48546D01*
Y149059D01*
X48562D01*
Y149027D01*
X48546D01*
Y147487D01*
X48562D01*
Y147439D01*
X48546D01*
Y147407D01*
X48562D01*
Y147391D01*
X48578D01*
Y147375D01*
X48658D01*
Y147359D01*
X48787D01*
Y147343D01*
X48883D01*
Y147327D01*
X48979D01*
Y147310D01*
X49107D01*
Y147294D01*
X49204D01*
Y147278D01*
X49332D01*
Y147262D01*
X49412D01*
Y147246D01*
X49524D01*
Y147230D01*
X49605D01*
Y147246D01*
X49621D01*
Y147615D01*
X49637D01*
Y147631D01*
X49701D01*
Y147615D01*
X49829D01*
Y147599D01*
X49909D01*
Y147583D01*
X50054D01*
Y147567D01*
X50134D01*
Y147551D01*
X50262D01*
Y147535D01*
X50375D01*
Y147519D01*
X50455D01*
Y147503D01*
X50583D01*
Y147487D01*
X50679D01*
Y147471D01*
X50792D01*
Y147455D01*
X50824D01*
Y147407D01*
X50840D01*
Y147375D01*
X50824D01*
Y146476D01*
X50840D01*
Y146460D01*
X50824D01*
Y146428D01*
X50679D01*
Y146444D01*
X50599D01*
Y146460D01*
X50471D01*
Y146476D01*
X50375D01*
Y146492D01*
X50246D01*
Y146508D01*
X50150D01*
Y146524D01*
X50054D01*
Y146540D01*
X49925D01*
Y146556D01*
X49829D01*
Y146572D01*
X49717D01*
Y146589D01*
X49621D01*
Y146605D01*
X49508D01*
Y146621D01*
X49380D01*
Y146637D01*
X49300D01*
Y146653D01*
X49172D01*
Y146669D01*
X49075D01*
Y146685D01*
X48947D01*
Y146701D01*
X48851D01*
Y146717D01*
X48754D01*
Y146733D01*
X48626D01*
Y146749D01*
X48530D01*
Y146765D01*
X48417D01*
Y146781D01*
X48321D01*
Y146797D01*
X48209D01*
Y146813D01*
X48081D01*
Y146829D01*
X48000D01*
Y146845D01*
X47872D01*
Y146861D01*
X47776D01*
Y146877D01*
X47648D01*
Y146893D01*
X47551D01*
Y146909D01*
X47471D01*
Y146925D01*
X47455D01*
Y150022D01*
X47551D01*
Y150005D01*
X47680D01*
Y149989D01*
X47776D01*
Y149973D01*
X47888D01*
Y149957D01*
X47984D01*
Y149941D01*
X48097D01*
Y149925D01*
X48209D01*
Y149909D01*
X48305D01*
Y149893D01*
X48450D01*
Y149877D01*
X48530D01*
Y151192D01*
X48417D01*
Y151208D01*
X48337D01*
Y151225D01*
X48225D01*
Y151241D01*
X48097D01*
Y151257D01*
X48017D01*
Y151273D01*
X47888D01*
Y151289D01*
X47792D01*
Y151305D01*
X47680D01*
Y151321D01*
X47567D01*
Y151337D01*
X47471D01*
Y151353D01*
X47343D01*
Y151369D01*
X47247D01*
Y151385D01*
X47198D01*
Y151369D01*
X47166D01*
Y151353D01*
X47150D01*
Y151337D01*
X47118D01*
Y151321D01*
X47102D01*
Y151305D01*
X47086D01*
Y151289D01*
X47054D01*
Y151273D01*
X47038D01*
Y151257D01*
X47022D01*
Y151241D01*
X46990D01*
Y151225D01*
X46974D01*
Y151208D01*
X46942D01*
Y151192D01*
X46926D01*
Y151177D01*
X46910D01*
Y151160D01*
X46878D01*
Y151144D01*
X46861D01*
Y151128D01*
X46845D01*
Y151112D01*
X46813D01*
Y151096D01*
X46797D01*
Y151080D01*
X46765D01*
Y151064D01*
X46749D01*
Y151048D01*
X46733D01*
Y151032D01*
X46701D01*
Y151016D01*
X46685D01*
Y151000D01*
X46653D01*
Y150984D01*
X46637D01*
Y150968D01*
X46621D01*
Y150952D01*
X46589D01*
Y150936D01*
X46573D01*
Y150920D01*
X46557D01*
Y150904D01*
X46525D01*
Y150888D01*
X46508D01*
Y150872D01*
X46477D01*
Y150856D01*
X46460D01*
Y150840D01*
X46444D01*
Y150824D01*
X46412D01*
Y150807D01*
X46396D01*
Y150792D01*
X46380D01*
Y150775D01*
X46348D01*
Y150759D01*
X46332D01*
Y150743D01*
X46300D01*
Y150727D01*
X46284D01*
Y150711D01*
X46268D01*
Y150695D01*
X46236D01*
Y150679D01*
X46220D01*
Y150663D01*
X46188D01*
Y150631D01*
X46172D01*
Y146701D01*
X46140D01*
Y146717D01*
X46123D01*
Y146733D01*
X46108D01*
Y146749D01*
X46091D01*
Y146765D01*
X46075D01*
Y146797D01*
X46059D01*
Y146813D01*
X46043D01*
Y146829D01*
X46027D01*
Y146845D01*
X46011D01*
Y146861D01*
X45995D01*
Y146877D01*
X45979D01*
Y146909D01*
X45963D01*
Y146925D01*
X45947D01*
Y146941D01*
X45931D01*
Y146958D01*
X45915D01*
Y146990D01*
X45899D01*
Y147006D01*
X45883D01*
Y147038D01*
X45867D01*
Y147054D01*
X45851D01*
Y147070D01*
X45835D01*
Y147102D01*
X45819D01*
Y147118D01*
X45803D01*
Y147150D01*
X45787D01*
Y147166D01*
X45771D01*
Y147182D01*
X45755D01*
Y147214D01*
X45739D01*
Y147230D01*
X45722D01*
Y147262D01*
X45706D01*
Y147278D01*
X45690D01*
Y147310D01*
X45674D01*
Y147343D01*
X45658D01*
Y147359D01*
X45642D01*
Y147391D01*
X45626D01*
Y147407D01*
X45610D01*
Y147439D01*
X45594D01*
Y147471D01*
X45578D01*
Y147503D01*
X45562D01*
Y147535D01*
X45546D01*
Y147551D01*
X45530D01*
Y147583D01*
X45514D01*
Y147615D01*
X45498D01*
Y147647D01*
X45482D01*
Y147679D01*
X45466D01*
Y147712D01*
X45450D01*
Y147744D01*
X45434D01*
Y147776D01*
X45418D01*
Y147808D01*
X45402D01*
Y147840D01*
X45386D01*
Y147872D01*
X45370D01*
Y147904D01*
X45353D01*
Y147936D01*
X45338D01*
Y147984D01*
X45322D01*
Y148016D01*
X45305D01*
Y148048D01*
X45289D01*
Y148097D01*
X45273D01*
Y148128D01*
X45257D01*
Y148177D01*
X45241D01*
Y148209D01*
X45225D01*
Y148257D01*
X45209D01*
Y148305D01*
X45193D01*
Y148353D01*
X45177D01*
Y148401D01*
X45161D01*
Y148433D01*
X45145D01*
Y148497D01*
X45129D01*
Y148546D01*
X45113D01*
Y148594D01*
X45097D01*
Y148642D01*
X45081D01*
Y148674D01*
X45065D01*
Y148738D01*
X45049D01*
Y148770D01*
X45033D01*
Y148818D01*
X45017D01*
Y148866D01*
X45001D01*
Y148915D01*
X44985D01*
Y148979D01*
X44969D01*
Y149027D01*
X44952D01*
Y149091D01*
X44936D01*
Y149139D01*
X44920D01*
Y149203D01*
X44904D01*
Y149267D01*
X44888D01*
Y149332D01*
X44872D01*
Y149412D01*
X44856D01*
Y149492D01*
X44840D01*
Y149588D01*
X44824D01*
Y149685D01*
X44808D01*
Y149797D01*
X44792D01*
Y149989D01*
X44776D01*
Y150679D01*
X44792D01*
Y150904D01*
X44808D01*
Y151032D01*
X44824D01*
Y151128D01*
X44840D01*
Y151241D01*
X44856D01*
Y151321D01*
X44872D01*
Y151417D01*
X44888D01*
Y151481D01*
X44904D01*
Y151561D01*
X44920D01*
Y151626D01*
X44936D01*
Y151690D01*
X44952D01*
Y151754D01*
X44969D01*
Y151802D01*
X44985D01*
Y151866D01*
X45001D01*
Y151914D01*
X45017D01*
Y151979D01*
X45033D01*
Y152027D01*
X45049D01*
Y152059D01*
X45065D01*
Y152123D01*
X45081D01*
Y152155D01*
X45097D01*
Y152203D01*
X45113D01*
Y152251D01*
X45129D01*
Y152283D01*
X45145D01*
Y152331D01*
X45161D01*
Y152364D01*
X45177D01*
Y152396D01*
X45193D01*
Y152428D01*
X45209D01*
Y152460D01*
X45225D01*
Y152508D01*
X45241D01*
Y152524D01*
X45257D01*
Y152572D01*
X45273D01*
Y152588D01*
X45289D01*
Y152620D01*
X45305D01*
Y152652D01*
X45322D01*
Y152684D01*
X45338D01*
Y152717D01*
X45353D01*
Y152733D01*
X45370D01*
Y152765D01*
X45386D01*
Y152797D01*
X45402D01*
Y152813D01*
X45418D01*
Y152845D01*
X45434D01*
Y152861D01*
X45450D01*
Y152893D01*
X45466D01*
Y152909D01*
X45482D01*
Y152941D01*
X45498D01*
Y152957D01*
X45514D01*
Y152973D01*
X45530D01*
Y153005D01*
X45546D01*
Y153021D01*
X45562D01*
Y153037D01*
X45578D01*
Y153069D01*
X45594D01*
Y153085D01*
X45610D01*
Y153102D01*
X45626D01*
Y153133D01*
X45642D01*
Y153150D01*
X45658D01*
Y153166D01*
X45674D01*
Y153198D01*
X45690D01*
Y153214D01*
X45706D01*
Y153230D01*
X45722D01*
Y153262D01*
X45739D01*
Y153278D01*
X45755D01*
Y153294D01*
X45771D01*
Y153310D01*
X45787D01*
Y153342D01*
X45803D01*
Y153358D01*
X45819D01*
Y153374D01*
X45835D01*
Y153390D01*
X45851D01*
Y153406D01*
X45867D01*
Y153438D01*
X45883D01*
Y153454D01*
X45899D01*
Y153470D01*
X45915D01*
Y153487D01*
X45931D01*
Y153503D01*
X45947D01*
Y153519D01*
X45963D01*
Y153551D01*
X45979D01*
Y153567D01*
X45995D01*
Y153583D01*
X46011D01*
Y153599D01*
X46027D01*
Y153615D01*
X46043D01*
Y153631D01*
X46059D01*
Y153647D01*
X46075D01*
Y153663D01*
X46091D01*
Y153679D01*
X46108D01*
Y153695D01*
X46123D01*
Y153711D01*
X46140D01*
Y153727D01*
X46156D01*
Y153743D01*
X46172D01*
Y153759D01*
X46188D01*
Y153775D01*
X46204D01*
Y153791D01*
X46220D01*
Y153807D01*
X46236D01*
Y153823D01*
X46252D01*
Y153839D01*
X46268D01*
Y153855D01*
X46300D01*
Y153872D01*
X46316D01*
Y153887D01*
X46332D01*
Y153903D01*
X46348D01*
Y153920D01*
X46364D01*
Y153936D01*
X46380D01*
Y153952D01*
X46396D01*
Y153968D01*
X46428D01*
Y153984D01*
X46444D01*
Y154000D01*
X46460D01*
Y154016D01*
X46492D01*
Y154032D01*
X46508D01*
Y154048D01*
X46525D01*
Y154064D01*
X46557D01*
Y154080D01*
X46573D01*
Y154096D01*
X46605D01*
Y154112D01*
X46621D01*
Y154128D01*
X46653D01*
Y154144D01*
X46669D01*
Y154160D01*
X46701D01*
Y154176D01*
X46733D01*
Y154192D01*
X46749D01*
Y154208D01*
X46781D01*
Y154224D01*
X46797D01*
Y154240D01*
X46829D01*
Y154256D01*
X46845D01*
Y154272D01*
X46861D01*
Y154289D01*
X46894D01*
Y154305D01*
X46910D01*
Y154321D01*
X46942D01*
Y154337D01*
X46958D01*
Y154353D01*
X46974D01*
Y154369D01*
X46990D01*
Y154385D01*
X47022D01*
Y154401D01*
X47038D01*
Y154417D01*
X47054D01*
Y154433D01*
X47070D01*
Y154449D01*
X47086D01*
Y154481D01*
X47102D01*
Y154513D01*
X47118D01*
Y154529D01*
X47134D01*
Y154561D01*
X47150D01*
Y154609D01*
X47166D01*
Y154641D01*
X47182D01*
Y155026D01*
X47198D01*
Y155059D01*
X47182D01*
Y155075D01*
X47198D01*
Y155235D01*
X47214D01*
Y155395D01*
X47230D01*
Y155508D01*
X47247D01*
Y155588D01*
X47262D01*
Y155684D01*
X47278D01*
Y155732D01*
X47295D01*
Y155813D01*
X47311D01*
Y155861D01*
X47327D01*
Y155909D01*
X47343D01*
Y155957D01*
X47359D01*
Y156005D01*
X47375D01*
Y156053D01*
X47391D01*
Y156085D01*
X47407D01*
Y156133D01*
X47423D01*
Y156182D01*
X47439D01*
Y156214D01*
X47455D01*
Y156262D01*
X47471D01*
Y156294D01*
X47487D01*
Y156342D01*
X47503D01*
Y156374D01*
X47519D01*
Y156406D01*
X47535D01*
Y156438D01*
X47551D01*
Y156470D01*
X47567D01*
Y156518D01*
X47583D01*
Y156534D01*
X47599D01*
Y156582D01*
X47615D01*
Y156599D01*
X47631D01*
Y156631D01*
X47648D01*
Y156663D01*
X47664D01*
Y156695D01*
X47680D01*
Y156727D01*
X47696D01*
Y156759D01*
X47712D01*
Y156775D01*
X47728D01*
Y156807D01*
X47744D01*
Y156839D01*
X47760D01*
Y156855D01*
X47776D01*
Y156887D01*
X47792D01*
Y156903D01*
X47808D01*
Y156935D01*
X47824D01*
Y156951D01*
X47840D01*
Y156983D01*
X47856D01*
Y157000D01*
X47872D01*
Y157032D01*
X47888D01*
Y157048D01*
X47904D01*
Y157064D01*
X47920D01*
Y157096D01*
X47936D01*
Y157112D01*
X47952D01*
Y157144D01*
X47968D01*
Y157160D01*
X47984D01*
Y157176D01*
X48000D01*
Y157192D01*
X48017D01*
Y157208D01*
X48033D01*
Y157240D01*
X48048D01*
Y157256D01*
X48065D01*
Y157272D01*
X48081D01*
Y157288D01*
X48097D01*
Y157304D01*
X48113D01*
Y157320D01*
X48129D01*
Y157336D01*
X48145D01*
Y157352D01*
X48161D01*
Y157369D01*
X48177D01*
Y157385D01*
X48193D01*
Y157401D01*
X48209D01*
Y157417D01*
X48225D01*
Y157433D01*
X48241D01*
Y157449D01*
X48257D01*
Y157465D01*
X48289D01*
Y157481D01*
X48305D01*
Y157497D01*
X48321D01*
Y157513D01*
X48337D01*
Y157529D01*
X48369D01*
Y157545D01*
X48385D01*
Y157561D01*
X48401D01*
Y157577D01*
X48417D01*
Y157593D01*
X48450D01*
Y157609D01*
X48466D01*
Y157625D01*
X48498D01*
Y157641D01*
X48514D01*
Y157657D01*
X48530D01*
Y157673D01*
X48562D01*
Y157689D01*
X48578D01*
Y157705D01*
X48610D01*
Y157721D01*
X48626D01*
Y157738D01*
X48642D01*
Y157754D01*
X48674D01*
Y157770D01*
X48690D01*
Y157786D01*
X48722D01*
Y157802D01*
X48738D01*
Y157818D01*
X48770D01*
Y157834D01*
X48803D01*
Y157850D01*
X48818D01*
Y157866D01*
X48851D01*
Y157882D01*
X48867D01*
Y157898D01*
X48899D01*
Y157914D01*
X48931D01*
Y157930D01*
X48963D01*
Y157946D01*
X48979D01*
Y157962D01*
X49011D01*
Y157978D01*
X49043D01*
Y157994D01*
X49075D01*
Y158010D01*
X49107D01*
Y158026D01*
X49139D01*
Y158042D01*
X49155D01*
Y158058D01*
X49204D01*
Y158074D01*
X49220D01*
Y158090D01*
X49268D01*
Y158107D01*
X49300D01*
Y158123D01*
X49332D01*
Y158139D01*
X49380D01*
Y158155D01*
X49412D01*
Y158171D01*
X49460D01*
Y158187D01*
X49492D01*
Y158203D01*
X49540D01*
Y158219D01*
X49589D01*
Y158235D01*
X49637D01*
Y158251D01*
X49717D01*
Y158267D01*
X49781D01*
Y158283D01*
X49893D01*
Y158299D01*
X50006D01*
Y158315D01*
X50166D01*
Y158331D01*
X50343D01*
Y158347D01*
X50792D01*
Y158331D01*
D02*
G37*
G36*
X54112Y147583D02*
X54128D01*
Y147551D01*
X54144D01*
Y147519D01*
X54160D01*
Y147471D01*
X54176D01*
Y147439D01*
X54193D01*
Y147407D01*
X54208D01*
Y147375D01*
X54225D01*
Y147343D01*
X54241D01*
Y147294D01*
X54257D01*
Y147262D01*
X54273D01*
Y147198D01*
X54289D01*
Y147166D01*
X54305D01*
Y147118D01*
X54321D01*
Y147070D01*
X54337D01*
Y147038D01*
X54353D01*
Y146974D01*
X54369D01*
Y146925D01*
X54385D01*
Y146861D01*
X54401D01*
Y146829D01*
X54417D01*
Y146765D01*
X54433D01*
Y146701D01*
X54449D01*
Y146637D01*
X54465D01*
Y146540D01*
X54481D01*
Y146460D01*
X54497D01*
Y146332D01*
X54513D01*
Y146203D01*
X54529D01*
Y146075D01*
X54545D01*
Y145835D01*
X54562D01*
Y145017D01*
X54545D01*
Y144856D01*
X54529D01*
Y144776D01*
X54513D01*
Y144696D01*
X54497D01*
Y144615D01*
X54481D01*
Y144551D01*
X54465D01*
Y144471D01*
X54449D01*
Y144439D01*
X54433D01*
Y144375D01*
X54417D01*
Y144343D01*
X54401D01*
Y144295D01*
X54385D01*
Y144246D01*
X54369D01*
Y144214D01*
X54353D01*
Y144166D01*
X54337D01*
Y144134D01*
X54321D01*
Y144102D01*
X54305D01*
Y144070D01*
X54289D01*
Y144038D01*
X54273D01*
Y144006D01*
X54257D01*
Y143990D01*
X54241D01*
Y143958D01*
X54225D01*
Y143926D01*
X54208D01*
Y143894D01*
X54193D01*
Y143845D01*
X54176D01*
Y143813D01*
X54160D01*
Y143765D01*
X54144D01*
Y143733D01*
X54128D01*
Y143685D01*
X54112D01*
Y143637D01*
X54096D01*
Y143605D01*
X54080D01*
Y143541D01*
X54064D01*
Y143492D01*
X54048D01*
Y143428D01*
X54032D01*
Y143364D01*
X54016D01*
Y143300D01*
X54000D01*
Y143172D01*
X54016D01*
Y143140D01*
X54032D01*
Y143091D01*
X54048D01*
Y143059D01*
X54064D01*
Y143043D01*
X54080D01*
Y143011D01*
X54096D01*
Y142995D01*
X54112D01*
Y142979D01*
X54128D01*
Y142963D01*
X54144D01*
Y142931D01*
X54160D01*
Y142915D01*
X54176D01*
Y142899D01*
X54193D01*
Y142883D01*
X54225D01*
Y142867D01*
X54241D01*
Y142851D01*
X54289D01*
Y142835D01*
X54321D01*
Y142819D01*
X54353D01*
Y142803D01*
X54417D01*
Y142787D01*
X54465D01*
Y142771D01*
X54529D01*
Y142755D01*
X54610D01*
Y142739D01*
X54706D01*
Y142722D01*
X55091D01*
Y142707D01*
X55251D01*
Y142690D01*
X55460D01*
Y142674D01*
X55604D01*
Y142658D01*
X55813D01*
Y142642D01*
X55941D01*
Y142626D01*
X56053D01*
Y142610D01*
X56134D01*
Y142594D01*
X56182D01*
Y142578D01*
X56262D01*
Y142562D01*
X56294D01*
Y142546D01*
X56342D01*
Y142530D01*
X56390D01*
Y142514D01*
X56438D01*
Y142498D01*
X56470D01*
Y142482D01*
X56502D01*
Y142466D01*
X56551D01*
Y142450D01*
X56583D01*
Y142434D01*
X56615D01*
Y142418D01*
X56647D01*
Y142402D01*
X56663D01*
Y142386D01*
X56695D01*
Y142370D01*
X56727D01*
Y142353D01*
X56743D01*
Y142338D01*
X56775D01*
Y142322D01*
X56791D01*
Y142305D01*
X56823D01*
Y142289D01*
X56839D01*
Y142273D01*
X56855D01*
Y142257D01*
X56871D01*
Y142241D01*
X56888D01*
Y142225D01*
X56903D01*
Y142193D01*
X56920D01*
Y142177D01*
X56936D01*
Y142161D01*
X56952D01*
Y142145D01*
X56968D01*
Y142113D01*
X56984D01*
Y142097D01*
X57000D01*
Y142065D01*
X57016D01*
Y142049D01*
X57032D01*
Y142033D01*
X57048D01*
Y142001D01*
X57064D01*
Y141985D01*
X57080D01*
Y141969D01*
X57096D01*
Y141937D01*
X57112D01*
Y141920D01*
X57128D01*
Y141888D01*
X57144D01*
Y141872D01*
X57160D01*
Y141856D01*
X57176D01*
Y141840D01*
X57192D01*
Y141824D01*
X57208D01*
Y141808D01*
X57224D01*
Y141792D01*
X57240D01*
Y141776D01*
X57272D01*
Y141760D01*
X57288D01*
Y141744D01*
X57321D01*
Y141728D01*
X57353D01*
Y141712D01*
X57369D01*
Y141696D01*
X57401D01*
Y141680D01*
X57417D01*
Y141664D01*
X57433D01*
Y141648D01*
X57465D01*
Y141632D01*
X57481D01*
Y141616D01*
X57497D01*
Y141600D01*
X57513D01*
Y141584D01*
X57545D01*
Y141568D01*
X57561D01*
Y141551D01*
X57577D01*
Y141535D01*
X57593D01*
Y141519D01*
X57609D01*
Y141503D01*
X57625D01*
Y141487D01*
X57642D01*
Y141471D01*
X57657D01*
Y141455D01*
X57674D01*
Y141423D01*
X57690D01*
Y141407D01*
X57706D01*
Y141375D01*
X57722D01*
Y141359D01*
X57738D01*
Y141327D01*
X57754D01*
Y141311D01*
X57770D01*
Y141279D01*
X57786D01*
Y141263D01*
X57802D01*
Y141247D01*
X57818D01*
Y141199D01*
X57834D01*
Y141150D01*
X57818D01*
Y141134D01*
X57802D01*
Y141118D01*
X57786D01*
Y141102D01*
X57770D01*
Y141086D01*
X57738D01*
Y141070D01*
X57722D01*
Y141054D01*
X57690D01*
Y141038D01*
X57674D01*
Y141022D01*
X57642D01*
Y141006D01*
X57625D01*
Y140990D01*
X57593D01*
Y140974D01*
X57577D01*
Y140958D01*
X57545D01*
Y140942D01*
X57529D01*
Y140926D01*
X57497D01*
Y140910D01*
X57465D01*
Y140894D01*
X57449D01*
Y140878D01*
X57417D01*
Y140862D01*
X57401D01*
Y140846D01*
X57369D01*
Y140830D01*
X57353D01*
Y140814D01*
X57321D01*
Y140797D01*
X57288D01*
Y140781D01*
X57272D01*
Y140765D01*
X57240D01*
Y140749D01*
X57224D01*
Y140733D01*
X57192D01*
Y140717D01*
X57176D01*
Y140701D01*
X57144D01*
Y140685D01*
X57112D01*
Y140669D01*
X57096D01*
Y140653D01*
X57064D01*
Y140637D01*
X57048D01*
Y140621D01*
X57016D01*
Y140605D01*
X56984D01*
Y140589D01*
X56968D01*
Y140573D01*
X56936D01*
Y140557D01*
X56903D01*
Y140541D01*
X56871D01*
Y140525D01*
X56855D01*
Y140509D01*
X56823D01*
Y140493D01*
X56791D01*
Y140477D01*
X56775D01*
Y140461D01*
X56743D01*
Y140445D01*
X56711D01*
Y140428D01*
X56679D01*
Y140412D01*
X56647D01*
Y140396D01*
X56615D01*
Y140380D01*
X56583D01*
Y140364D01*
X56551D01*
Y140348D01*
X56535D01*
Y140332D01*
X56486D01*
Y140316D01*
X56454D01*
Y140300D01*
X56422D01*
Y140284D01*
X56390D01*
Y140268D01*
X56358D01*
Y140252D01*
X56310D01*
Y140236D01*
X56278D01*
Y140220D01*
X56230D01*
Y140204D01*
X56182D01*
Y140188D01*
X56117D01*
Y140172D01*
X56069D01*
Y140156D01*
X55989D01*
Y140140D01*
X55877D01*
Y140124D01*
X55620D01*
Y140140D01*
X55572D01*
Y140156D01*
X55540D01*
Y140172D01*
X55508D01*
Y140188D01*
X55476D01*
Y140204D01*
X55460D01*
Y140220D01*
X55412D01*
Y140236D01*
X55380D01*
Y140252D01*
X55348D01*
Y140268D01*
X55315D01*
Y140284D01*
X55283D01*
Y140300D01*
X55235D01*
Y140316D01*
X55203D01*
Y140332D01*
X55155D01*
Y140348D01*
X55091D01*
Y140364D01*
X55043D01*
Y140380D01*
X54979D01*
Y140396D01*
X54930D01*
Y140412D01*
X54882D01*
Y140428D01*
X54834D01*
Y140445D01*
X54786D01*
Y140461D01*
X54738D01*
Y140477D01*
X54706D01*
Y140493D01*
X54674D01*
Y140509D01*
X54642D01*
Y140525D01*
X54626D01*
Y140541D01*
X54593D01*
Y140557D01*
X54577D01*
Y140573D01*
X54545D01*
Y140589D01*
X54529D01*
Y140605D01*
X54513D01*
Y140621D01*
X54481D01*
Y140637D01*
X54465D01*
Y140653D01*
X54433D01*
Y140669D01*
X54417D01*
Y140685D01*
X54385D01*
Y140701D01*
X54369D01*
Y140717D01*
X54353D01*
Y140733D01*
X54321D01*
Y140749D01*
X54305D01*
Y140765D01*
X54273D01*
Y140781D01*
X54257D01*
Y140797D01*
X54225D01*
Y140814D01*
X54208D01*
Y140830D01*
X54193D01*
Y140846D01*
X54160D01*
Y140862D01*
X54144D01*
Y140878D01*
X54112D01*
Y140894D01*
X54096D01*
Y140910D01*
X54064D01*
Y140926D01*
X54032D01*
Y140942D01*
X54016D01*
Y140958D01*
X53984D01*
Y140974D01*
X53968D01*
Y140990D01*
X53936D01*
Y141006D01*
X53920D01*
Y141022D01*
X53888D01*
Y141038D01*
X53856D01*
Y141054D01*
X53824D01*
Y141070D01*
X53775D01*
Y141086D01*
X53727D01*
Y141102D01*
X53663D01*
Y141118D01*
X53583D01*
Y141134D01*
X53487D01*
Y141150D01*
X53214D01*
Y141166D01*
X53038D01*
Y141182D01*
X52925D01*
Y141199D01*
X52877D01*
Y141215D01*
X52829D01*
Y141231D01*
X52781D01*
Y141247D01*
X52749D01*
Y141263D01*
X52717D01*
Y141279D01*
X52701D01*
Y141295D01*
X52668D01*
Y141311D01*
X52636D01*
Y141327D01*
X52620D01*
Y141343D01*
X52588D01*
Y141359D01*
X52572D01*
Y141375D01*
X52540D01*
Y141391D01*
X52524D01*
Y141407D01*
X52508D01*
Y141423D01*
X52476D01*
Y141439D01*
X52460D01*
Y141455D01*
X52444D01*
Y141471D01*
X52428D01*
Y141487D01*
X52396D01*
Y141503D01*
X52380D01*
Y141519D01*
X52364D01*
Y141535D01*
X52348D01*
Y141551D01*
X52332D01*
Y141568D01*
X52316D01*
Y141584D01*
X52300D01*
Y141600D01*
X52284D01*
Y141616D01*
X52267D01*
Y141632D01*
X52251D01*
Y141648D01*
X52235D01*
Y141664D01*
X52219D01*
Y141680D01*
X52203D01*
Y141696D01*
X52187D01*
Y141728D01*
X52171D01*
Y141744D01*
X52155D01*
Y141760D01*
X52139D01*
Y141792D01*
X52123D01*
Y141808D01*
X52107D01*
Y141840D01*
X52091D01*
Y141856D01*
X52075D01*
Y141888D01*
X52059D01*
Y141920D01*
X52043D01*
Y141953D01*
X52027D01*
Y142001D01*
X52011D01*
Y142017D01*
X51995D01*
Y142065D01*
X51979D01*
Y142097D01*
X51963D01*
Y142145D01*
X51947D01*
Y142177D01*
X51931D01*
Y142225D01*
X51915D01*
Y142241D01*
X51898D01*
Y142257D01*
X51882D01*
Y142273D01*
X51834D01*
Y142289D01*
X51770D01*
Y142305D01*
X51706D01*
Y142289D01*
X51658D01*
Y142273D01*
X51594D01*
Y142257D01*
X51481D01*
Y142241D01*
X51321D01*
Y142225D01*
X50872D01*
Y142241D01*
X50695D01*
Y142257D01*
X50535D01*
Y142273D01*
X50423D01*
Y142289D01*
X50343D01*
Y142305D01*
X50246D01*
Y142322D01*
X50182D01*
Y142338D01*
X50118D01*
Y142353D01*
X50070D01*
Y142370D01*
X50022D01*
Y142386D01*
X49990D01*
Y142402D01*
X49957D01*
Y142418D01*
X49909D01*
Y142434D01*
X49877D01*
Y142450D01*
X49749D01*
Y142434D01*
X49733D01*
Y142418D01*
X49701D01*
Y142386D01*
X49685D01*
Y142338D01*
X49669D01*
Y142305D01*
X49653D01*
Y142257D01*
X49637D01*
Y142225D01*
X49621D01*
Y142193D01*
X49605D01*
Y142161D01*
X49589D01*
Y142129D01*
X49573D01*
Y142097D01*
X49556D01*
Y142065D01*
X49540D01*
Y142033D01*
X49524D01*
Y142001D01*
X49508D01*
Y141985D01*
X49492D01*
Y141953D01*
X49476D01*
Y141920D01*
X49460D01*
Y141888D01*
X49444D01*
Y141872D01*
X49428D01*
Y141840D01*
X49412D01*
Y141824D01*
X49396D01*
Y141808D01*
X49380D01*
Y141776D01*
X49364D01*
Y141760D01*
X49348D01*
Y141744D01*
X49332D01*
Y141728D01*
X49316D01*
Y141696D01*
X49300D01*
Y141680D01*
X49284D01*
Y141664D01*
X49268D01*
Y141648D01*
X49236D01*
Y141632D01*
X49220D01*
Y141616D01*
X49187D01*
Y141600D01*
X49155D01*
Y141616D01*
X49123D01*
Y141632D01*
X49107D01*
Y141680D01*
X49091D01*
Y142514D01*
X49107D01*
Y142707D01*
X49091D01*
Y142803D01*
X49075D01*
Y142851D01*
X49059D01*
Y142867D01*
X49043D01*
Y142883D01*
X49027D01*
Y142899D01*
X49011D01*
Y142915D01*
X48979D01*
Y142931D01*
X48963D01*
Y142947D01*
X48947D01*
Y142963D01*
X48931D01*
Y142979D01*
X48915D01*
Y142995D01*
X48899D01*
Y143011D01*
X48867D01*
Y143027D01*
X48851D01*
Y143043D01*
X48835D01*
Y143059D01*
X48818D01*
Y143075D01*
X48803D01*
Y143107D01*
X48787D01*
Y143124D01*
X48770D01*
Y143140D01*
X48754D01*
Y143156D01*
X48738D01*
Y143172D01*
X48722D01*
Y143188D01*
X48706D01*
Y143204D01*
X48690D01*
Y143236D01*
X48674D01*
Y143252D01*
X48658D01*
Y143268D01*
X48642D01*
Y143300D01*
X48626D01*
Y143316D01*
X48610D01*
Y143332D01*
X48594D01*
Y143348D01*
X48578D01*
Y143380D01*
X48562D01*
Y143396D01*
X48546D01*
Y143428D01*
X48530D01*
Y143444D01*
X48514D01*
Y143476D01*
X48498D01*
Y143509D01*
X48482D01*
Y143525D01*
X48466D01*
Y143557D01*
X48450D01*
Y143589D01*
X48434D01*
Y143605D01*
X48417D01*
Y143637D01*
X48401D01*
Y143653D01*
X48385D01*
Y143685D01*
X48369D01*
Y143717D01*
X48353D01*
Y143749D01*
X48337D01*
Y143781D01*
X48321D01*
Y143813D01*
X48305D01*
Y143845D01*
X48289D01*
Y143877D01*
X48273D01*
Y143910D01*
X48257D01*
Y143958D01*
X48241D01*
Y143974D01*
X48225D01*
Y144022D01*
X48209D01*
Y144054D01*
X48193D01*
Y144086D01*
X48177D01*
Y144134D01*
X48161D01*
Y144166D01*
X48145D01*
Y144214D01*
X48129D01*
Y144246D01*
X48113D01*
Y144295D01*
X48097D01*
Y144343D01*
X48081D01*
Y144375D01*
X48065D01*
Y144423D01*
X48048D01*
Y144455D01*
X48033D01*
Y144519D01*
X48017D01*
Y144551D01*
X48000D01*
Y144615D01*
X47984D01*
Y144664D01*
X47968D01*
Y144712D01*
X47952D01*
Y144776D01*
X47936D01*
Y144824D01*
X47920D01*
Y144888D01*
X47904D01*
Y144936D01*
X47888D01*
Y145000D01*
X47872D01*
Y145065D01*
X47856D01*
Y145129D01*
X47840D01*
Y145209D01*
X47824D01*
Y145257D01*
X47808D01*
Y145337D01*
X47792D01*
Y145433D01*
X47776D01*
Y145466D01*
X47792D01*
Y145482D01*
X47872D01*
Y145466D01*
X48017D01*
Y145450D01*
X48097D01*
Y145433D01*
X48225D01*
Y145417D01*
X48337D01*
Y145402D01*
X48417D01*
Y145385D01*
X48546D01*
Y145369D01*
X48642D01*
Y145353D01*
X48770D01*
Y145337D01*
X48867D01*
Y145321D01*
X48979D01*
Y145305D01*
X49091D01*
Y145289D01*
X49187D01*
Y145273D01*
X49316D01*
Y145257D01*
X49412D01*
Y145241D01*
X49524D01*
Y145225D01*
X49637D01*
Y145209D01*
X49717D01*
Y145193D01*
X49861D01*
Y145177D01*
X49942D01*
Y145161D01*
X50070D01*
Y145145D01*
X50166D01*
Y145129D01*
X50278D01*
Y145113D01*
X50391D01*
Y145097D01*
X50487D01*
Y145081D01*
X50615D01*
Y145065D01*
X50712D01*
Y145049D01*
X50824D01*
Y145033D01*
X50936D01*
Y145017D01*
X51032D01*
Y145000D01*
X51113D01*
Y145017D01*
X51145D01*
Y145033D01*
X51161D01*
Y145049D01*
X51177D01*
Y145065D01*
X51193D01*
Y145081D01*
X51225D01*
Y145097D01*
X51241D01*
Y145113D01*
X51257D01*
Y145129D01*
X51273D01*
Y145145D01*
X51289D01*
Y145161D01*
X51321D01*
Y145177D01*
X51337D01*
Y145193D01*
X51353D01*
Y145209D01*
X51369D01*
Y145225D01*
X51385D01*
Y145241D01*
X51417D01*
Y145257D01*
X51433D01*
Y145273D01*
X51449D01*
Y145289D01*
X51465D01*
Y145305D01*
X51481D01*
Y145321D01*
X51513D01*
Y145337D01*
X51530D01*
Y145353D01*
X51546D01*
Y145369D01*
X51562D01*
Y145385D01*
X51578D01*
Y145402D01*
X51610D01*
Y145417D01*
X51626D01*
Y145433D01*
X51642D01*
Y145450D01*
X51658D01*
Y145466D01*
X51690D01*
Y145482D01*
X51706D01*
Y145498D01*
X51722D01*
Y145514D01*
X51738D01*
Y145530D01*
X51754D01*
Y145546D01*
X51770D01*
Y145562D01*
X51802D01*
Y145578D01*
X51818D01*
Y145594D01*
X51834D01*
Y145610D01*
X51850D01*
Y145626D01*
X51882D01*
Y145642D01*
X51898D01*
Y145658D01*
X51915D01*
Y145674D01*
X51931D01*
Y145690D01*
X51947D01*
Y145706D01*
X51963D01*
Y145722D01*
X51995D01*
Y145738D01*
X52011D01*
Y145754D01*
X52027D01*
Y145770D01*
X52043D01*
Y145786D01*
X52059D01*
Y145802D01*
X52091D01*
Y145819D01*
X52107D01*
Y145851D01*
X52123D01*
Y147198D01*
X52107D01*
Y147214D01*
X52123D01*
Y147262D01*
X52203D01*
Y147246D01*
X52316D01*
Y147230D01*
X52428D01*
Y147214D01*
X52524D01*
Y147198D01*
X52653D01*
Y147182D01*
X52749D01*
Y147166D01*
X52861D01*
Y147150D01*
X52973D01*
Y147134D01*
X53070D01*
Y147118D01*
X53198D01*
Y147102D01*
X53294D01*
Y147086D01*
X53422D01*
Y147102D01*
X53439D01*
Y147118D01*
X53455D01*
Y147134D01*
X53487D01*
Y147150D01*
X53503D01*
Y147166D01*
X53519D01*
Y147182D01*
X53551D01*
Y147198D01*
X53567D01*
Y147214D01*
X53583D01*
Y147230D01*
X53615D01*
Y147246D01*
X53631D01*
Y147262D01*
X53647D01*
Y147278D01*
X53679D01*
Y147294D01*
X53695D01*
Y147310D01*
X53711D01*
Y147327D01*
X53727D01*
Y147343D01*
X53759D01*
Y147359D01*
X53775D01*
Y147375D01*
X53791D01*
Y147391D01*
X53824D01*
Y147407D01*
X53840D01*
Y147423D01*
X53856D01*
Y147439D01*
X53888D01*
Y147455D01*
X53904D01*
Y147471D01*
X53920D01*
Y147487D01*
X53936D01*
Y147503D01*
X53968D01*
Y147519D01*
X53984D01*
Y147535D01*
X54000D01*
Y147551D01*
X54032D01*
Y147567D01*
X54048D01*
Y147583D01*
X54064D01*
Y147599D01*
X54112D01*
Y147583D01*
D02*
G37*
%LPC*%
G36*
X49348Y156246D02*
X49332D01*
Y156230D01*
X49316D01*
Y156213D01*
X49300D01*
Y156182D01*
X49316D01*
Y156149D01*
X49332D01*
Y156117D01*
X49348D01*
Y156085D01*
X49364D01*
Y156069D01*
X49380D01*
Y156037D01*
X49396D01*
Y156005D01*
X49412D01*
Y155973D01*
X49428D01*
Y155941D01*
X49444D01*
Y155925D01*
X49460D01*
Y155893D01*
X49476D01*
Y155861D01*
X49492D01*
Y155828D01*
X49508D01*
Y155813D01*
X49524D01*
Y155780D01*
X49540D01*
Y155764D01*
X49556D01*
Y155732D01*
X49573D01*
Y155700D01*
X49589D01*
Y155684D01*
X49605D01*
Y155652D01*
X49621D01*
Y155636D01*
X49637D01*
Y155620D01*
X49653D01*
Y155588D01*
X49669D01*
Y155572D01*
X49685D01*
Y155540D01*
X49701D01*
Y155524D01*
X49717D01*
Y155508D01*
X49733D01*
Y155476D01*
X49749D01*
Y155460D01*
X49765D01*
Y155444D01*
X49781D01*
Y155412D01*
X49797D01*
Y155395D01*
X49813D01*
Y155379D01*
X49829D01*
Y155363D01*
X49845D01*
Y155331D01*
X49861D01*
Y155315D01*
X49877D01*
Y155299D01*
X49893D01*
Y155283D01*
X49909D01*
Y155267D01*
X49925D01*
Y155251D01*
X49942D01*
Y155235D01*
X49957D01*
Y155203D01*
X49990D01*
Y155171D01*
X50006D01*
Y155155D01*
X50022D01*
Y155139D01*
X50038D01*
Y155123D01*
X50070D01*
Y155091D01*
X50102D01*
Y155075D01*
X50118D01*
Y155059D01*
X50134D01*
Y155043D01*
X50150D01*
Y155026D01*
X50166D01*
Y155010D01*
X50198D01*
Y154994D01*
X50214D01*
Y154978D01*
X50230D01*
Y154962D01*
X50246D01*
Y154946D01*
X50262D01*
Y154930D01*
X50294D01*
Y154914D01*
X50310D01*
Y154898D01*
X50343D01*
Y154882D01*
X50358D01*
Y154866D01*
X50391D01*
Y154850D01*
X50423D01*
Y154834D01*
X50439D01*
Y154818D01*
X50471D01*
Y154802D01*
X50503D01*
Y154786D01*
X50535D01*
Y154770D01*
X50567D01*
Y154754D01*
X50599D01*
Y154738D01*
X50647D01*
Y154722D01*
X50663D01*
Y154706D01*
X50727D01*
Y154690D01*
X50776D01*
Y154674D01*
X50824D01*
Y154657D01*
X50920D01*
Y154641D01*
X51000D01*
Y154625D01*
X51161D01*
Y154641D01*
X51225D01*
Y154657D01*
X51273D01*
Y154674D01*
X51321D01*
Y154690D01*
X51337D01*
Y154706D01*
X51369D01*
Y154722D01*
X51385D01*
Y154738D01*
X51417D01*
Y154754D01*
X51433D01*
Y154770D01*
X51449D01*
Y154786D01*
X51465D01*
Y154818D01*
X51481D01*
Y154834D01*
X51498D01*
Y154866D01*
X51513D01*
Y154898D01*
X51530D01*
Y154946D01*
X51546D01*
Y155187D01*
X51530D01*
Y155235D01*
X51513D01*
Y155251D01*
X51498D01*
Y155283D01*
X51481D01*
Y155315D01*
X51465D01*
Y155331D01*
X51449D01*
Y155347D01*
X51433D01*
Y155363D01*
X51417D01*
Y155395D01*
X51385D01*
Y155412D01*
X51369D01*
Y155428D01*
X51353D01*
Y155444D01*
X51321D01*
Y155460D01*
X51305D01*
Y155476D01*
X51273D01*
Y155492D01*
X51241D01*
Y155508D01*
X51193D01*
Y155524D01*
X51145D01*
Y155540D01*
X51096D01*
Y155556D01*
X51032D01*
Y155572D01*
X50968D01*
Y155588D01*
X50904D01*
Y155604D01*
X50840D01*
Y155620D01*
X50760D01*
Y155636D01*
X50679D01*
Y155652D01*
X50631D01*
Y155668D01*
X50567D01*
Y155684D01*
X50519D01*
Y155700D01*
X50471D01*
Y155716D01*
X50423D01*
Y155732D01*
X50375D01*
Y155748D01*
X50327D01*
Y155764D01*
X50294D01*
Y155780D01*
X50246D01*
Y155797D01*
X50214D01*
Y155813D01*
X50182D01*
Y155828D01*
X50134D01*
Y155845D01*
X50102D01*
Y155861D01*
X50054D01*
Y155877D01*
X50038D01*
Y155893D01*
X49990D01*
Y155909D01*
X49957D01*
Y155925D01*
X49925D01*
Y155941D01*
X49893D01*
Y155957D01*
X49861D01*
Y155973D01*
X49829D01*
Y155989D01*
X49797D01*
Y156005D01*
X49765D01*
Y156021D01*
X49733D01*
Y156037D01*
X49701D01*
Y156053D01*
X49669D01*
Y156069D01*
X49637D01*
Y156085D01*
X49605D01*
Y156101D01*
X49573D01*
Y156117D01*
X49556D01*
Y156133D01*
X49524D01*
Y156149D01*
X49492D01*
Y156165D01*
X49460D01*
Y156182D01*
X49428D01*
Y156198D01*
X49412D01*
Y156213D01*
X49380D01*
Y156230D01*
X49348D01*
Y156246D01*
D02*
G37*
%LPD*%
D10*
X115236Y134866D02*
G03*
X115236Y134866I-394J0D01*
G01*
X77535Y137638D02*
G03*
X77535Y137638I-472J0D01*
G01*
X75020Y129764D02*
G03*
X75020Y129764I-319J0D01*
G01*
X244600Y32800D02*
X244700D01*
X253400D01*
Y37100D01*
X244600D02*
X253400D01*
X244600Y32800D02*
Y35400D01*
Y37100D01*
X75094Y135472D02*
Y144528D01*
X86905D01*
Y135472D02*
Y144528D01*
X75094Y135472D02*
X86905D01*
D11*
X236504Y142900D02*
G03*
X236504Y142900I-854J0D01*
G01*
X206504D02*
G03*
X206504Y142900I-854J0D01*
G01*
X174504Y143400D02*
G03*
X174504Y143400I-854J0D01*
G01*
X143004Y143900D02*
G03*
X143004Y143900I-854J0D01*
G01*
X11306Y154900D02*
G03*
X11306Y154900I-806J0D01*
G01*
X19100Y133500D02*
X22900D01*
X19100Y140500D02*
X22900D01*
X19100Y117500D02*
X22900D01*
X19100Y124500D02*
X22900D01*
X249600Y56500D02*
X253400D01*
X249600Y49500D02*
X253400D01*
X214600Y130000D02*
X218400D01*
X214600Y123000D02*
X218400D01*
X74447Y25400D02*
X76615D01*
X81247Y26000D02*
Y29900D01*
X74547Y30400D02*
X76715D01*
X245750Y161900D02*
X254500Y153500D01*
X244500Y143000D02*
X248500D01*
X254500Y147500D02*
Y157500D01*
X244500Y162000D02*
X248500D01*
X238500Y147500D02*
Y157500D01*
X215750Y161900D02*
X224500Y153500D01*
X214500Y143000D02*
X218500D01*
X224500Y147500D02*
Y157500D01*
X214500Y162000D02*
X218500D01*
X208500Y147500D02*
Y157500D01*
X183750Y162400D02*
X192500Y154000D01*
X182500Y143500D02*
X186500D01*
X192500Y148000D02*
Y158000D01*
X182500Y162500D02*
X186500D01*
X176500Y148000D02*
Y158000D01*
X152250Y162900D02*
X161000Y154500D01*
X151000Y144000D02*
X155000D01*
X161000Y148500D02*
Y158500D01*
X151000Y163000D02*
X155000D01*
X145000Y148500D02*
Y158500D01*
X148700Y35300D02*
X159700D01*
X148600Y44800D02*
X159600D01*
X152600Y65000D02*
X156400D01*
X152600Y58000D02*
X156400D01*
X91000Y167100D02*
Y170900D01*
X98000Y167100D02*
Y170900D01*
X83500Y167100D02*
Y170900D01*
X76500Y167100D02*
Y170900D01*
X46600Y175500D02*
X50400D01*
X46600Y182500D02*
X50400D01*
X152600Y110000D02*
X156400D01*
X152600Y103000D02*
X156400D01*
X152600Y82000D02*
X156400D01*
X152600Y89000D02*
X156400D01*
X70800Y16700D02*
X81800D01*
X70900Y7200D02*
X81900D01*
X70800Y51200D02*
X81800D01*
X70900Y41700D02*
X81900D01*
X20200Y45300D02*
X27200D01*
X20200Y50700D02*
X27200D01*
X20200Y8300D02*
X27200D01*
X20200Y13700D02*
X27200D01*
X21800Y18700D02*
X25600D01*
X21800Y25700D02*
X25600D01*
X21600Y31400D02*
X25400D01*
X21600Y38400D02*
X25400D01*
X103600Y112000D02*
X107400D01*
X103600Y119000D02*
X107400D01*
X21842Y167952D02*
X23442D01*
X18842Y168002D02*
X20242D01*
X18800Y161000D02*
Y175000D01*
X23500Y161000D02*
Y175000D01*
X11500Y158000D02*
Y178000D01*
X31500Y158000D02*
Y178000D01*
X21000Y164700D02*
Y166300D01*
X20200D02*
X21800D01*
X17400Y161000D02*
X18800D01*
X17400Y175000D02*
X18800D01*
X23500D02*
X24800D01*
X23500Y161000D02*
X24800D01*
X18000Y150500D02*
X25000D01*
X18000Y185500D02*
X25000D01*
X137000Y167500D02*
Y171300D01*
X130000Y167500D02*
Y171300D01*
X244500Y130000D02*
X248300D01*
X244500Y123000D02*
X248300D01*
X182100Y130500D02*
X185900D01*
X182100Y123500D02*
X185900D01*
X150600Y130000D02*
X154400D01*
X150600Y123000D02*
X154400D01*
X79100Y112000D02*
X82900D01*
X79100Y119000D02*
X82900D01*
D12*
X257122Y87500D02*
G03*
X257122Y87500I-23622J0D01*
G01*
X192374Y97000D02*
G03*
X192374Y97000I-7874J0D01*
G01*
X102441Y145136D02*
X107559D01*
X102441Y141559D02*
Y145136D01*
Y132864D02*
Y136441D01*
Y132864D02*
X107559D01*
X213500Y65000D02*
Y70000D01*
X211000Y67500D02*
X216000D01*
X253500Y65000D02*
Y70000D01*
X178379Y21328D02*
X179793Y19914D01*
X181207D01*
X181207Y21328D01*
X179793Y22741D01*
X182621Y21328D02*
X183327Y22035D01*
X182974Y21681D01*
X181560Y23095D01*
X181207Y22741D01*
X184388Y23095D02*
X182974Y24509D01*
X184034Y25569D01*
X184741D01*
X185802Y24509D01*
X170147Y22388D02*
X169440Y22388D01*
X168733Y21681D01*
Y20974D01*
X170147Y19561D01*
X170853D01*
X171560Y20267D01*
X171560Y20974D01*
X170853Y21681D01*
X170147Y20974D01*
X172621Y21328D02*
X170500Y23448D01*
X174034Y22741D01*
X171914Y24862D01*
X172621Y25569D02*
X174741Y23448D01*
X175802Y24509D01*
X175802Y25216D01*
X174388Y26629D01*
X173681D01*
X172621Y25569D01*
X160147Y22388D02*
X159440Y22388D01*
X158733Y21681D01*
Y20974D01*
X160147Y19561D01*
X160853D01*
X161560Y20267D01*
X161560Y20974D01*
X160853Y21681D01*
X160147Y20974D01*
X162621Y21328D02*
X160500Y23448D01*
X164034Y22741D01*
X161914Y24862D01*
X162621Y25569D02*
X164741Y23448D01*
X165802Y24509D01*
X165802Y25216D01*
X164388Y26629D01*
X163681D01*
X162621Y25569D01*
X149793Y22741D02*
X148379Y21328D01*
X149440Y20267D01*
X149793Y21328D01*
X150147Y21681D01*
X150853D01*
X151560Y20974D01*
X151560Y20267D01*
X150853Y19561D01*
X150147D01*
X151207Y22741D02*
X153328Y22035D01*
X152621Y24155D01*
X138733Y20974D02*
Y21681D01*
X139440Y22388D01*
X140147Y22388D01*
X140500Y22035D01*
Y21328D01*
X140147Y20974D01*
X140500Y21328D01*
X141207Y21328D01*
X141560Y20974D01*
X141560Y20267D01*
X140853Y19561D01*
X140147D01*
X141207Y22741D02*
X143327Y22035D01*
X142621Y24155D01*
X142974Y25216D02*
Y25922D01*
X143681Y26629D01*
X144388D01*
X144741Y26276D01*
Y25569D01*
X144388Y25216D01*
X144741Y25569D01*
X145448Y25569D01*
X145802Y25216D01*
X145802Y24509D01*
X145095Y23802D01*
X144388D01*
X130500Y19207D02*
X128379Y21328D01*
X129440Y22388D01*
X130147Y22388D01*
X130853Y21681D01*
X130853Y20974D01*
X129793Y19914D01*
X130500Y20621D02*
X131914Y20621D01*
Y24862D02*
X130500Y23448D01*
X132621Y21328D01*
X134034Y22741D01*
X131560Y22388D02*
X132267Y23095D01*
X134388Y26629D02*
X133681D01*
X132974Y25922D01*
Y25216D01*
X133327Y24862D01*
X134034Y24862D01*
X134741Y25569D01*
X135448Y25569D01*
X135802Y25216D01*
X135802Y24509D01*
X135095Y23802D01*
X134388D01*
X136155Y29103D02*
X134741Y27690D01*
X136862Y25569D01*
X138276Y26983D01*
X135802Y26629D02*
X136509Y27336D01*
X136862Y29810D02*
X138276Y31224D01*
X137569Y30517D01*
X139689Y28396D01*
X117379Y20459D02*
X118086Y21166D01*
X117733Y20813D01*
X119853Y18692D01*
X119500Y18339D01*
X120207Y19046D01*
Y23287D02*
X119500Y22580D01*
Y21873D01*
X120914Y20459D01*
X121621D01*
X122327Y21166D01*
Y21873D01*
X120914Y23287D01*
X120207Y23287D01*
X123388Y22226D02*
X121267Y24347D01*
X122327Y25407D01*
X123034D01*
X123741Y24701D01*
X123741Y23994D01*
X122681Y22933D01*
X123388Y23640D02*
X124802Y23640D01*
Y27881D02*
X123388Y26468D01*
X125508Y24347D01*
X126922Y25761D01*
X124448Y25407D02*
X125155Y26114D01*
X126922Y30002D02*
X125508Y28588D01*
X126569Y27528D01*
X127276Y28235D01*
X126569Y27528D01*
X127629Y26468D01*
X110500Y19207D02*
X108380Y21328D01*
X111914Y20621D01*
X109793Y22741D01*
X112268Y24508D02*
X111561Y24508D01*
X110854Y23801D01*
Y23095D01*
X112268Y21681D01*
X112974D01*
X113681Y22388D01*
X113681Y23095D01*
X72871Y188681D02*
X72164Y188681D01*
X71457Y187974D01*
Y187267D01*
X71811Y186914D01*
X72518Y186914D01*
X73224Y187621D01*
X73931Y187621D01*
X74285Y187267D01*
X74285Y186560D01*
X73578Y185853D01*
X72871D01*
X74992Y190802D02*
X74285Y190802D01*
X73578Y190095D01*
Y189388D01*
X74992Y187974D01*
X75699D01*
X76405Y188681D01*
X76405Y189388D01*
X75345Y191862D02*
X77466Y189741D01*
X78879Y191155D01*
X82871Y188181D02*
X82164Y188181D01*
X81457Y187474D01*
Y186767D01*
X81811Y186414D01*
X82517Y186414D01*
X83224Y187121D01*
X83931Y187121D01*
X84285Y186767D01*
X84285Y186060D01*
X83578Y185353D01*
X82871D01*
X83224Y189241D02*
X85345Y187121D01*
X86405Y188181D01*
X86405Y188888D01*
X84992Y190302D01*
X84285Y190302D01*
X83224Y189241D01*
X87466D02*
X86052Y190655D01*
Y192069D01*
X87466D01*
X88879Y190655D01*
X87819Y191715D01*
X86405Y190302D01*
X92224Y184500D02*
X90811Y185914D01*
Y187328D01*
X92224D01*
X93638Y185914D01*
X92578Y186974D01*
X91164Y185560D01*
X94345Y186621D02*
X92224Y188741D01*
X93285Y189802D01*
X93992Y189802D01*
X94699Y189095D01*
Y188388D01*
X93638Y187328D01*
X94345Y188034D02*
X95759Y188034D01*
Y192276D02*
X94345Y190862D01*
X96466Y188741D01*
X97879Y190155D01*
X95405Y189802D02*
X96112Y190508D01*
X97879Y194396D02*
X96466Y192982D01*
X97526Y191922D01*
X98233Y192629D01*
X97526Y191922D01*
X98586Y190862D01*
X102371Y188181D02*
X101664Y188181D01*
X100957Y187474D01*
Y186767D01*
X102371Y185353D01*
X103078D01*
X103785Y186060D01*
X103785Y186767D01*
X103078Y187474D01*
X102371Y186767D01*
X104845Y187121D02*
X102724Y189241D01*
X106259Y188534D01*
X104138Y190655D01*
X104845Y191362D02*
X106966Y189241D01*
X108026Y190302D01*
X108026Y191008D01*
X106612Y192422D01*
X105905D01*
X104845Y191362D01*
X110604Y187121D02*
X112724Y185000D01*
X113785Y186060D01*
X113785Y186767D01*
X112371Y188181D01*
X111664Y188181D01*
X110604Y187121D01*
X114845D02*
X115552Y187828D01*
X115199Y187474D01*
X113078Y189595D01*
Y188888D01*
X114845Y190655D02*
Y191362D01*
X115552Y192069D01*
X116259D01*
X116612Y191715D01*
Y191008D01*
X116259Y190655D01*
X116612Y191008D01*
X117319Y191008D01*
X117673Y190655D01*
X117673Y189948D01*
X116966Y189241D01*
X116259D01*
X121104Y186621D02*
X123224Y184500D01*
X124285Y185560D01*
X124285Y186267D01*
X122871Y187681D01*
X122164Y187681D01*
X121104Y186621D01*
X125345D02*
X126052Y187328D01*
X125698Y186974D01*
X123578Y189095D01*
Y188388D01*
X128526Y189802D02*
X127112Y188388D01*
Y191215D01*
X126759Y191569D01*
X126052D01*
X125345Y190862D01*
Y190155D01*
X130604Y186621D02*
X132724Y184500D01*
X133785Y185560D01*
X133785Y186267D01*
X132371Y187681D01*
X131664Y187681D01*
X130604Y186621D01*
X134845D02*
X135552Y187328D01*
X135198Y186974D01*
X133078Y189095D01*
Y188388D01*
X136612D02*
X137319Y189095D01*
X136966Y188741D01*
X134845Y190862D01*
Y190155D01*
X136612Y191922D02*
Y192629D01*
X137319Y193336D01*
X137319Y194043D01*
X141104Y185621D02*
X143224Y183500D01*
X144285Y184560D01*
X144285Y185267D01*
X142871Y186681D01*
X142164Y186681D01*
X141104Y185621D01*
X145345D02*
X146052Y186328D01*
X145698Y185974D01*
X143578Y188095D01*
Y187388D01*
X145345Y189155D02*
Y189862D01*
X146052Y190569D01*
X146759D01*
X148173Y189155D01*
X148173Y188448D01*
X147466Y187741D01*
X146759D01*
X145345Y189155D01*
X147466Y191276D02*
Y191982D01*
X148173Y192689D01*
X148173Y193396D01*
X151104Y186121D02*
X153224Y184000D01*
X154285Y185060D01*
X154285Y185767D01*
X152871Y187181D01*
X152164Y187181D01*
X151104Y186121D01*
X154992Y186474D02*
X155699D01*
X156405Y187181D01*
X156405Y187888D01*
X154992Y189302D01*
X154285Y189302D01*
X153578Y188595D01*
Y187888D01*
X153931Y187534D01*
X154638Y187534D01*
X155699Y188595D01*
Y190008D02*
Y190715D01*
X156405Y191422D01*
X156405Y192129D01*
X161104Y186621D02*
X163224Y184500D01*
X164285Y185560D01*
X164285Y186267D01*
X162871Y187681D01*
X162164Y187681D01*
X161104Y186621D01*
X163578Y188388D02*
Y189095D01*
X164285Y189802D01*
X164992Y189802D01*
X165345Y189448D01*
Y188741D01*
X166052Y188741D01*
X166405Y188388D01*
X166405Y187681D01*
X165699Y186974D01*
X164992D01*
X164638Y187328D01*
Y188034D01*
X163931Y188034D01*
X163578Y188388D01*
X164638Y188034D02*
X165345Y188741D01*
X247379Y185621D02*
X249500Y183500D01*
X250560Y184560D01*
X250560Y185267D01*
X249147Y186681D01*
X248440Y186681D01*
X247379Y185621D01*
X249853Y187388D02*
Y188095D01*
X250560Y188802D01*
X251267Y188802D01*
X252681Y187388D01*
X252681Y186681D01*
X251974Y185974D01*
X251267D01*
X249853Y187388D01*
X237879Y185621D02*
X240000Y183500D01*
X241060Y184560D01*
X241060Y185267D01*
X239647Y186681D01*
X238940Y186681D01*
X237879Y185621D01*
X242121D02*
X242828Y186328D01*
X242474Y185974D01*
X240353Y188095D01*
Y187388D01*
X227379Y185621D02*
X229500Y183500D01*
X230560Y184560D01*
X230560Y185267D01*
X229147Y186681D01*
X228440Y186681D01*
X227379Y185621D01*
X233034Y187034D02*
X231621Y185621D01*
Y188448D01*
X231267Y188802D01*
X230560Y188802D01*
X229853Y188095D01*
Y187388D01*
X217379Y185621D02*
X219500Y183500D01*
X220560Y184560D01*
X220560Y185267D01*
X219147Y186681D01*
X218440Y186681D01*
X217379Y185621D01*
X219853Y187388D02*
Y188095D01*
X220560Y188802D01*
X221267Y188802D01*
X221621Y188448D01*
Y187741D01*
X221267Y187388D01*
X221621Y187741D01*
X222327Y187741D01*
X222681Y187388D01*
X222681Y186681D01*
X221974Y185974D01*
X221267D01*
X206879Y185621D02*
X209000Y183500D01*
X210060Y184560D01*
X210060Y185267D01*
X208647Y186681D01*
X207940Y186681D01*
X206879Y185621D01*
X212181Y186681D02*
X210060Y188802D01*
X210060Y186681D01*
X211474Y188095D01*
X196379Y186121D02*
X198500Y184000D01*
X199560Y185060D01*
X199560Y185767D01*
X198147Y187181D01*
X197440Y187181D01*
X196379Y186121D01*
X199914Y189655D02*
X198500Y188241D01*
X199560Y187181D01*
X199914Y188241D01*
X200267Y188595D01*
X200974D01*
X201681Y187888D01*
X201681Y187181D01*
X200974Y186474D01*
X200267D01*
X185879Y186121D02*
X188000Y184000D01*
X189060Y185060D01*
X189060Y185767D01*
X187647Y187181D01*
X186940Y187181D01*
X185879Y186121D01*
X189414Y189655D02*
X189060Y188595D01*
X189060Y187181D01*
X189767Y186474D01*
X190474D01*
X191181Y187181D01*
X191181Y187888D01*
X190828Y188241D01*
X190121Y188241D01*
X189060Y187181D01*
X176379Y185828D02*
X178500Y183707D01*
X179560Y184767D01*
X179560Y185474D01*
X178147Y186888D01*
X177440Y186888D01*
X176379Y185828D01*
X178500Y187948D02*
X179914Y189362D01*
X180267Y189009D01*
Y186181D01*
X180621Y185828D01*
X250000Y19000D02*
X248586Y20414D01*
Y21827D01*
X250000D01*
X251414Y20414D01*
X250353Y21474D01*
X248940Y20060D01*
X251414Y24655D02*
X250000Y23241D01*
X251060Y22181D01*
X251414Y23241D01*
X251767Y23595D01*
X252474D01*
X253181Y22888D01*
X253181Y22181D01*
X252474Y21474D01*
X251767D01*
X240000Y19500D02*
X238586Y20914D01*
Y22328D01*
X240000D01*
X241414Y20914D01*
X240353Y21974D01*
X238940Y20560D01*
X243181Y22681D02*
X241060Y24802D01*
X241060Y22681D01*
X242474Y24095D01*
X230500Y19500D02*
X229086Y20914D01*
Y22328D01*
X230500D01*
X231914Y20914D01*
X230853Y21974D01*
X229440Y20560D01*
X230853Y23388D02*
Y24095D01*
X231560Y24802D01*
X232267Y24802D01*
X232621Y24448D01*
Y23741D01*
X232267Y23388D01*
X232621Y23741D01*
X233328Y23741D01*
X233681Y23388D01*
X233681Y22681D01*
X232974Y21974D01*
X232267D01*
X220000Y19500D02*
X218586Y20914D01*
Y22328D01*
X220000D01*
X221414Y20914D01*
X220353Y21974D01*
X218940Y20560D01*
X223534Y23034D02*
X222121Y21621D01*
Y24448D01*
X221767Y24802D01*
X221060Y24802D01*
X220353Y24095D01*
Y23388D01*
X200000Y19500D02*
X198586Y20914D01*
Y22328D01*
X200000D01*
X201414Y20914D01*
X200353Y21974D01*
X198940Y20560D01*
X200353Y23388D02*
Y24095D01*
X201060Y24802D01*
X201767Y24802D01*
X203181Y23388D01*
X203181Y22681D01*
X202474Y21974D01*
X201767D01*
X200353Y23388D01*
X210500Y19500D02*
X209086Y20914D01*
Y22328D01*
X210500D01*
X211914Y20914D01*
X210853Y21974D01*
X209440Y20560D01*
X212621Y21621D02*
X213328Y22328D01*
X212974Y21974D01*
X210853Y24095D01*
Y23388D01*
D13*
X182500Y37500D02*
X224500D01*
X182500D02*
Y48500D01*
X184000D01*
X224500Y37500D02*
Y48500D01*
X214000D02*
X224500D01*
X43500Y61000D02*
X85500D01*
X43500D02*
Y72000D01*
X45000D01*
X85500Y61000D02*
Y72000D01*
X75000D02*
X85500D01*
X43500Y84500D02*
X85500D01*
X43500D02*
Y95500D01*
X45000D01*
X85500Y84500D02*
Y95500D01*
X75000D02*
X85500D01*
X114000Y60000D02*
Y102000D01*
X125000D01*
Y100500D02*
Y102000D01*
X114000Y60000D02*
X125000D01*
Y70500D01*
D14*
X188250Y52500D02*
X188977D01*
X187250Y51000D02*
X189750D01*
X188500Y48473D02*
Y49500D01*
X186250D02*
X190750D01*
X198250Y52500D02*
X198977D01*
X197250Y51000D02*
X199750D01*
X198500Y48473D02*
Y49500D01*
X196250D02*
X200750D01*
X208250Y52500D02*
X208977D01*
X207250Y51000D02*
X209750D01*
X208500Y48473D02*
Y49500D01*
X206250D02*
X210750D01*
X185500Y5500D02*
Y15500D01*
X105500Y5500D02*
X185500D01*
X105500D02*
Y15500D01*
X185500D01*
X115500Y5500D02*
Y15500D01*
X163900Y37400D02*
Y43000D01*
X13000Y104700D02*
X23000D01*
Y74500D02*
Y104700D01*
X13000Y74500D02*
Y104700D01*
X18000Y64500D02*
X23000D01*
Y74500D01*
X13000Y64500D02*
Y74500D01*
Y64500D02*
X18000D01*
X13000Y74500D02*
X23000D01*
X14300Y195500D02*
Y205500D01*
X44500D01*
X14300Y195500D02*
X44500D01*
X54500Y200500D02*
Y205500D01*
X44500D02*
X54500D01*
X44500Y195500D02*
X54500D01*
Y200500D01*
X44500Y195500D02*
Y205500D01*
X49250Y76000D02*
X49977D01*
X48250Y74500D02*
X50750D01*
X49500Y71973D02*
Y73000D01*
X47250D02*
X51750D01*
X59250Y76000D02*
X59977D01*
X58250Y74500D02*
X60750D01*
X59500Y71973D02*
Y73000D01*
X57250D02*
X61750D01*
X69250Y76000D02*
X69977D01*
X68250Y74500D02*
X70750D01*
X69500Y71973D02*
Y73000D01*
X67250D02*
X71750D01*
X49250Y99500D02*
X49977D01*
X48250Y98000D02*
X50750D01*
X49500Y95473D02*
Y96500D01*
X47250D02*
X51750D01*
X59250Y99500D02*
X59977D01*
X58250Y98000D02*
X60750D01*
X59500Y95473D02*
Y96500D01*
X57250D02*
X61750D01*
X69250Y99500D02*
X69977D01*
X68250Y98000D02*
X70750D01*
X69500Y95473D02*
Y96500D01*
X67250D02*
X71750D01*
X129000Y95523D02*
Y96250D01*
X127500Y94750D02*
Y97250D01*
X124973Y96000D02*
X126000D01*
Y93750D02*
Y98250D01*
X129000Y85523D02*
Y86250D01*
X127500Y84750D02*
Y87250D01*
X124973Y86000D02*
X126000D01*
Y83750D02*
Y88250D01*
X129000Y75523D02*
Y76250D01*
X127500Y74750D02*
Y77250D01*
X124973Y76000D02*
X126000D01*
Y73750D02*
Y78250D01*
X66600Y9000D02*
Y14600D01*
Y43500D02*
Y49100D01*
X169500Y195500D02*
Y205500D01*
X79500Y195500D02*
X169500D01*
X79500D02*
Y205500D01*
X69500D02*
X159500D01*
X69500Y195500D02*
Y205500D01*
Y195500D02*
X159500D01*
X79500Y205500D02*
X169500D01*
X255500Y195500D02*
Y205500D01*
X175500Y195500D02*
X255500D01*
X175500D02*
Y205500D01*
X255500D01*
X185500Y195500D02*
Y205500D01*
X195500Y5500D02*
Y10500D01*
Y5500D02*
X205500D01*
Y15500D01*
X255500D01*
Y5500D02*
Y15500D01*
X205500Y5500D02*
X255500D01*
X195500Y15500D02*
X205500D01*
X195500Y10500D02*
Y15500D01*
X167000Y60965D02*
Y56966D01*
X168999D01*
X169666Y57633D01*
Y58299D01*
X168999Y58966D01*
X167000D01*
X168999D01*
X169666Y59632D01*
Y60299D01*
X168999Y60965D01*
X167000D01*
X170999Y59632D02*
Y56966D01*
Y58299D01*
X171665Y58966D01*
X172332Y59632D01*
X172998D01*
X177663Y60965D02*
Y56966D01*
X175664D01*
X174997Y57633D01*
Y58966D01*
X175664Y59632D01*
X177663D01*
X178996Y56300D02*
X181662D01*
X184994Y56966D02*
Y60965D01*
X182995Y58966D01*
X185661D01*
X186994Y56300D02*
X189659D01*
X193658Y60299D02*
X192992Y60965D01*
X191659D01*
X190992Y60299D01*
Y59632D01*
X191659Y58966D01*
X192992D01*
X193658Y58299D01*
Y57633D01*
X192992Y56966D01*
X191659D01*
X190992Y57633D01*
X196990Y56966D02*
X195657D01*
X194991Y57633D01*
Y58966D01*
X195657Y59632D01*
X196990D01*
X197657Y58966D01*
Y58299D01*
X194991D01*
X198990Y56966D02*
Y59632D01*
X200989D01*
X201656Y58966D01*
Y56966D01*
X202988D02*
X204988D01*
X205654Y57633D01*
X204988Y58299D01*
X203655D01*
X202988Y58966D01*
X203655Y59632D01*
X205654D01*
X207653Y56966D02*
X208986D01*
X209653Y57633D01*
Y58966D01*
X208986Y59632D01*
X207653D01*
X206987Y58966D01*
Y57633D01*
X207653Y56966D01*
X210986Y59632D02*
Y56966D01*
Y58299D01*
X211652Y58966D01*
X212319Y59632D01*
X212985D01*
X214984Y56300D02*
X217650D01*
X221649Y60299D02*
X220983Y60965D01*
X219650D01*
X218983Y60299D01*
Y59632D01*
X219650Y58966D01*
X220983D01*
X221649Y58299D01*
Y57633D01*
X220983Y56966D01*
X219650D01*
X218983Y57633D01*
X222982Y60965D02*
Y56966D01*
Y58966D01*
X223648Y59632D01*
X224981D01*
X225648Y58966D01*
Y56966D01*
X226981D02*
X228313D01*
X227647D01*
Y59632D01*
X226981D01*
X232312Y56966D02*
X230979D01*
X230313Y57633D01*
Y58966D01*
X230979Y59632D01*
X232312D01*
X232979Y58966D01*
Y58299D01*
X230313D01*
X234312Y56966D02*
X235645D01*
X234978D01*
Y60965D01*
X234312D01*
X240310D02*
Y56966D01*
X238310D01*
X237644Y57633D01*
Y58966D01*
X238310Y59632D01*
X240310D01*
X167100Y68299D02*
Y64300D01*
Y65633D01*
X169766Y68299D01*
X167766Y66299D01*
X169766Y64300D01*
X173098D02*
X171765D01*
X171099Y64966D01*
Y66299D01*
X171765Y66966D01*
X173098D01*
X173765Y66299D01*
Y65633D01*
X171099D01*
X175097Y66966D02*
X176430Y64300D01*
X177763Y66966D01*
X179096Y64300D02*
X180429D01*
X179763D01*
Y66966D01*
X179096D01*
X182428Y64300D02*
Y66966D01*
X184428D01*
X185094Y66299D01*
Y64300D01*
X190426Y68299D02*
X193092D01*
X191759D01*
Y64300D01*
X195091D02*
X196424D01*
X197090Y64966D01*
Y66299D01*
X196424Y66966D01*
X195091D01*
X194424Y66299D01*
Y64966D01*
X195091Y64300D01*
X198423D02*
Y66966D01*
X199090D01*
X199756Y66299D01*
Y64300D01*
Y66299D01*
X200423Y66966D01*
X201089Y66299D01*
Y64300D01*
X186725Y106055D02*
Y109387D01*
Y84008D02*
Y87340D01*
X185059Y85674D02*
X188391D01*
X102082Y151500D02*
Y148643D01*
X102272Y148072D01*
X102653Y147691D01*
X103224Y147500D01*
X103605D01*
X104176Y147691D01*
X104557Y148072D01*
X104748Y148643D01*
Y151500D01*
X106233D02*
X108328D01*
X107185Y149976D01*
X107757D01*
X108138Y149786D01*
X108328Y149595D01*
X108518Y149024D01*
Y148643D01*
X108328Y148072D01*
X107947Y147691D01*
X107376Y147500D01*
X106804D01*
X106233Y147691D01*
X106043Y147881D01*
X105852Y148262D01*
X67600Y136682D02*
X70457D01*
X71028Y136872D01*
X71409Y137253D01*
X71600Y137824D01*
Y138205D01*
X71409Y138776D01*
X71028Y139157D01*
X70457Y139348D01*
X67600D01*
X68553Y140643D02*
X68362D01*
X67981Y140833D01*
X67791Y141024D01*
X67600Y141404D01*
Y142166D01*
X67791Y142547D01*
X67981Y142737D01*
X68362Y142928D01*
X68743D01*
X69124Y142737D01*
X69695Y142357D01*
X71600Y140452D01*
Y143118D01*
X258600Y33839D02*
X261457D01*
X262028Y34029D01*
X262409Y34410D01*
X262600Y34981D01*
Y35362D01*
X262409Y35933D01*
X262028Y36314D01*
X261457Y36505D01*
X258600D01*
X259362Y37609D02*
X259172Y37990D01*
X258600Y38561D01*
X262600D01*
X36372Y65053D02*
X35991Y64672D01*
X35800Y64101D01*
Y63339D01*
X35991Y62768D01*
X36372Y62387D01*
X36753D01*
X37133Y62577D01*
X37324Y62768D01*
X37514Y63148D01*
X37895Y64291D01*
X38086Y64672D01*
X38276Y64862D01*
X38657Y65053D01*
X39228D01*
X39609Y64672D01*
X39799Y64101D01*
Y63339D01*
X39609Y62768D01*
X39228Y62387D01*
X36753Y68804D02*
X36372Y68614D01*
X35991Y68233D01*
X35800Y67852D01*
Y67090D01*
X35991Y66710D01*
X36372Y66329D01*
X36753Y66138D01*
X37324Y65948D01*
X38276D01*
X38847Y66138D01*
X39228Y66329D01*
X39609Y66710D01*
X39799Y67090D01*
Y67852D01*
X39609Y68233D01*
X39228Y68614D01*
X38847Y68804D01*
X35800Y69928D02*
X39799D01*
Y72213D01*
X36572Y87581D02*
X36191Y87201D01*
X36000Y86629D01*
Y85868D01*
X36191Y85296D01*
X36572Y84915D01*
X36953D01*
X37334Y85106D01*
X37524Y85296D01*
X37714Y85677D01*
X38095Y86820D01*
X38286Y87201D01*
X38476Y87391D01*
X38857Y87581D01*
X39428D01*
X39809Y87201D01*
X40000Y86629D01*
Y85868D01*
X39809Y85296D01*
X39428Y84915D01*
X36000Y88477D02*
X40000D01*
X36000D02*
Y89810D01*
X36191Y90381D01*
X36572Y90762D01*
X36953Y90952D01*
X37524Y91143D01*
X38476D01*
X39047Y90952D01*
X39428Y90762D01*
X39809Y90381D01*
X40000Y89810D01*
Y88477D01*
Y95085D02*
X36000Y93561D01*
X40000Y92038D01*
X38666Y92609D02*
Y94513D01*
X227500Y37901D02*
X231500D01*
X227500D02*
Y39234D01*
X227691Y39805D01*
X228072Y40186D01*
X228453Y40377D01*
X229024Y40567D01*
X229976D01*
X230547Y40377D01*
X230928Y40186D01*
X231309Y39805D01*
X231500Y39234D01*
Y37901D01*
Y44509D02*
X227500Y42986D01*
X231500Y41462D01*
X230167Y42034D02*
Y43938D01*
X228453Y48299D02*
X228072Y48109D01*
X227691Y47728D01*
X227500Y47347D01*
Y46585D01*
X227691Y46204D01*
X228072Y45823D01*
X228453Y45633D01*
X229024Y45442D01*
X229976D01*
X230547Y45633D01*
X230928Y45823D01*
X231309Y46204D01*
X231500Y46585D01*
Y47347D01*
X231309Y47728D01*
X230928Y48109D01*
X230547Y48299D01*
X4372Y166405D02*
X3991Y166024D01*
X3800Y165453D01*
Y164691D01*
X3991Y164120D01*
X4372Y163739D01*
X4753D01*
X5133Y163929D01*
X5324Y164120D01*
X5514Y164501D01*
X5895Y165643D01*
X6086Y166024D01*
X6276Y166215D01*
X6657Y166405D01*
X7228D01*
X7609Y166024D01*
X7800Y165453D01*
Y164691D01*
X7609Y164120D01*
X7228Y163739D01*
X3800Y167300D02*
X7800Y168252D01*
X3800Y169205D02*
X7800Y168252D01*
X3800Y169205D02*
X7800Y170157D01*
X3800Y171109D02*
X7800Y170157D01*
X4562Y171909D02*
X4372Y172290D01*
X3800Y172861D01*
X7800D01*
X16120Y147000D02*
Y143000D01*
Y147000D02*
X17834D01*
X18405Y146809D01*
X18596Y146619D01*
X18786Y146238D01*
Y145857D01*
X18596Y145476D01*
X18405Y145286D01*
X17834Y145095D01*
X16120D01*
X17453D02*
X18786Y143000D01*
X19681Y146238D02*
X20062Y146428D01*
X20633Y147000D01*
Y143000D01*
X23756Y147000D02*
X23185Y146809D01*
X22804Y146238D01*
X22614Y145286D01*
Y144714D01*
X22804Y143762D01*
X23185Y143191D01*
X23756Y143000D01*
X24137D01*
X24709Y143191D01*
X25089Y143762D01*
X25280Y144714D01*
Y145286D01*
X25089Y146238D01*
X24709Y146809D01*
X24137Y147000D01*
X23756D01*
X7182Y36800D02*
Y32800D01*
Y36800D02*
X8896D01*
X9467Y36609D01*
X9657Y36419D01*
X9848Y36038D01*
Y35657D01*
X9657Y35276D01*
X9467Y35086D01*
X8896Y34895D01*
X7182D01*
X8515D02*
X9848Y32800D01*
X13218Y35467D02*
X13028Y34895D01*
X12647Y34514D01*
X12076Y34324D01*
X11885D01*
X11314Y34514D01*
X10933Y34895D01*
X10743Y35467D01*
Y35657D01*
X10933Y36228D01*
X11314Y36609D01*
X11885Y36800D01*
X12076D01*
X12647Y36609D01*
X13028Y36228D01*
X13218Y35467D01*
Y34514D01*
X13028Y33562D01*
X12647Y32991D01*
X12076Y32800D01*
X11695D01*
X11124Y32991D01*
X10933Y33372D01*
X30368Y9601D02*
Y13599D01*
X32367D01*
X33034Y12933D01*
Y11600D01*
X32367Y10933D01*
X30368D01*
X31701D02*
X33034Y9601D01*
X34367Y12933D02*
X35033Y13599D01*
X36366D01*
X37032Y12933D01*
Y12267D01*
X36366Y11600D01*
X37032Y10933D01*
Y10267D01*
X36366Y9601D01*
X35033D01*
X34367Y10267D01*
Y10933D01*
X35033Y11600D01*
X34367Y12267D01*
Y12933D01*
X35033Y11600D02*
X36366D01*
X7786Y51000D02*
Y47000D01*
Y51000D02*
X9500D01*
X10072Y50809D01*
X10262Y50619D01*
X10452Y50238D01*
Y49857D01*
X10262Y49476D01*
X10072Y49286D01*
X9500Y49095D01*
X7786D01*
X9119D02*
X10452Y47000D01*
X14014Y51000D02*
X12109Y47000D01*
X11348Y51000D02*
X14014D01*
X45582Y173700D02*
Y169700D01*
Y173700D02*
X47295D01*
X47867Y173509D01*
X48057Y173319D01*
X48248Y172938D01*
Y172557D01*
X48057Y172176D01*
X47867Y171986D01*
X47295Y171795D01*
X45582D01*
X46915D02*
X48248Y169700D01*
X51428Y173128D02*
X51237Y173509D01*
X50666Y173700D01*
X50285D01*
X49714Y173509D01*
X49333Y172938D01*
X49143Y171986D01*
Y171034D01*
X49333Y170272D01*
X49714Y169891D01*
X50285Y169700D01*
X50476D01*
X51047Y169891D01*
X51428Y170272D01*
X51618Y170843D01*
Y171034D01*
X51428Y171605D01*
X51047Y171986D01*
X50476Y172176D01*
X50285D01*
X49714Y171986D01*
X49333Y171605D01*
X49143Y171034D01*
X122500Y165886D02*
X126500D01*
X122500D02*
Y167600D01*
X122691Y168172D01*
X122881Y168362D01*
X123262Y168552D01*
X123643D01*
X124024Y168362D01*
X124214Y168172D01*
X124405Y167600D01*
Y165886D01*
Y167219D02*
X126500Y168552D01*
X122500Y171733D02*
Y169828D01*
X124214Y169638D01*
X124024Y169828D01*
X123834Y170400D01*
Y170971D01*
X124024Y171542D01*
X124405Y171923D01*
X124976Y172114D01*
X125357D01*
X125928Y171923D01*
X126309Y171542D01*
X126500Y170971D01*
Y170400D01*
X126309Y169828D01*
X126119Y169638D01*
X125738Y169448D01*
X151091Y71800D02*
Y67800D01*
Y71800D02*
X152805D01*
X153376Y71609D01*
X153567Y71419D01*
X153757Y71038D01*
Y70657D01*
X153567Y70276D01*
X153376Y70086D01*
X152805Y69895D01*
X151091D01*
X152424D02*
X153757Y67800D01*
X156557Y71800D02*
X154652Y69134D01*
X157509D01*
X156557Y71800D02*
Y67800D01*
X151086Y95900D02*
Y91900D01*
Y95900D02*
X152800D01*
X153372Y95709D01*
X153562Y95519D01*
X153753Y95138D01*
Y94757D01*
X153562Y94376D01*
X153372Y94186D01*
X152800Y93995D01*
X151086D01*
X152419D02*
X153753Y91900D01*
X155028Y95900D02*
X157123D01*
X155981Y94376D01*
X156552D01*
X156933Y94186D01*
X157123Y93995D01*
X157314Y93424D01*
Y93043D01*
X157123Y92472D01*
X156742Y92091D01*
X156171Y91900D01*
X155600D01*
X155028Y92091D01*
X154838Y92281D01*
X154648Y92662D01*
X69100Y165886D02*
X73100D01*
X69100D02*
Y167600D01*
X69291Y168172D01*
X69481Y168362D01*
X69862Y168552D01*
X70243D01*
X70624Y168362D01*
X70814Y168172D01*
X71005Y167600D01*
Y165886D01*
Y167219D02*
X73100Y168552D01*
X70053Y169638D02*
X69862D01*
X69481Y169828D01*
X69291Y170019D01*
X69100Y170400D01*
Y171161D01*
X69291Y171542D01*
X69481Y171733D01*
X69862Y171923D01*
X70243D01*
X70624Y171733D01*
X71195Y171352D01*
X73100Y169448D01*
Y172114D01*
X101000Y166743D02*
X105000D01*
X101000D02*
Y168457D01*
X101191Y169028D01*
X101381Y169219D01*
X101762Y169409D01*
X102143D01*
X102524Y169219D01*
X102714Y169028D01*
X102905Y168457D01*
Y166743D01*
Y168076D02*
X105000Y169409D01*
X101762Y170305D02*
X101572Y170685D01*
X101000Y171257D01*
X105000D01*
X74677Y36790D02*
X74296Y36600D01*
X73915Y36219D01*
X73724Y35838D01*
X73534Y35267D01*
Y34314D01*
X73724Y33743D01*
X73915Y33362D01*
X74296Y32981D01*
X74677Y32791D01*
X75438D01*
X75819Y32981D01*
X76200Y33362D01*
X76390Y33743D01*
X76581Y34314D01*
Y35267D01*
X76390Y35838D01*
X76200Y36219D01*
X75819Y36600D01*
X75438Y36790D01*
X74677D01*
X75248Y33553D02*
X76390Y32410D01*
X77514Y36028D02*
X77895Y36219D01*
X78466Y36790D01*
Y32791D01*
X170600Y93972D02*
X174600D01*
X170600D02*
X174600Y95496D01*
X170600Y97019D02*
X174600Y95496D01*
X170600Y97019D02*
X174600D01*
X170600Y98162D02*
X174600D01*
X170600Y100828D02*
X173266Y98162D01*
X172314Y99114D02*
X174600Y100828D01*
X105796Y70160D02*
X109795D01*
X105796D02*
X109795Y71683D01*
X105796Y73207D02*
X109795Y71683D01*
X105796Y73207D02*
X109795D01*
X105796Y74730D02*
X105986Y74920D01*
X105796Y75111D01*
X105605Y74920D01*
X105796Y74730D01*
X107129Y74920D02*
X109795D01*
X107700Y78101D02*
X107319Y77720D01*
X107129Y77339D01*
Y76768D01*
X107319Y76387D01*
X107700Y76006D01*
X108271Y75815D01*
X108652D01*
X109223Y76006D01*
X109604Y76387D01*
X109795Y76768D01*
Y77339D01*
X109604Y77720D01*
X109223Y78101D01*
X105796Y83433D02*
X109795D01*
X105796Y82100D02*
Y84766D01*
X108271Y85242D02*
Y87527D01*
X107890D01*
X107510Y87337D01*
X107319Y87146D01*
X107129Y86765D01*
Y86194D01*
X107319Y85813D01*
X107700Y85432D01*
X108271Y85242D01*
X108652D01*
X109223Y85432D01*
X109604Y85813D01*
X109795Y86194D01*
Y86765D01*
X109604Y87146D01*
X109223Y87527D01*
X107700Y90479D02*
X107319Y90289D01*
X107129Y89717D01*
Y89146D01*
X107319Y88575D01*
X107700Y88384D01*
X108081Y88575D01*
X108271Y88955D01*
X108462Y89908D01*
X108652Y90289D01*
X109033Y90479D01*
X109223D01*
X109604Y90289D01*
X109795Y89717D01*
Y89146D01*
X109604Y88575D01*
X109223Y88384D01*
X105796Y91888D02*
X109033D01*
X109604Y92079D01*
X109795Y92459D01*
Y92840D01*
X107129Y91317D02*
Y92650D01*
X231200Y83882D02*
X235200D01*
Y86167D01*
X231772Y89271D02*
X231391Y88890D01*
X231200Y88319D01*
Y87557D01*
X231391Y86986D01*
X231772Y86605D01*
X232153D01*
X232534Y86795D01*
X232724Y86986D01*
X232914Y87367D01*
X233295Y88509D01*
X233486Y88890D01*
X233676Y89081D01*
X234057Y89271D01*
X234628D01*
X235009Y88890D01*
X235200Y88319D01*
Y87557D01*
X235009Y86986D01*
X234628Y86605D01*
X231962Y90166D02*
X231772Y90547D01*
X231200Y91118D01*
X235200D01*
X146469Y50999D02*
Y47001D01*
X149135D01*
X153133Y50999D02*
X150468D01*
Y47001D01*
X153133D01*
X150468Y49000D02*
X151801D01*
X154466Y50999D02*
Y47001D01*
X156466D01*
X157132Y47667D01*
Y50333D01*
X156466Y50999D01*
X154466D01*
X158465Y50333D02*
X159132Y50999D01*
X160465D01*
X161131Y50333D01*
Y49666D01*
X160465Y49000D01*
X159798D01*
X160465D01*
X161131Y48334D01*
Y47667D01*
X160465Y47001D01*
X159132D01*
X158465Y47667D01*
X50369Y13999D02*
Y10001D01*
X53035D01*
X57034Y13999D02*
X54368D01*
Y10001D01*
X57034D01*
X54368Y12000D02*
X55701D01*
X58367Y13999D02*
Y10001D01*
X60366D01*
X61032Y10667D01*
Y13333D01*
X60366Y13999D01*
X58367D01*
X65031Y10001D02*
X62365D01*
X65031Y12666D01*
Y13333D01*
X64364Y13999D01*
X63032D01*
X62365Y13333D01*
X86536Y48099D02*
Y44101D01*
X89201D01*
X93200Y48099D02*
X90534D01*
Y44101D01*
X93200D01*
X90534Y46100D02*
X91867D01*
X94533Y48099D02*
Y44101D01*
X96532D01*
X97199Y44767D01*
Y47433D01*
X96532Y48099D01*
X94533D01*
X98532Y44101D02*
X99865D01*
X99198D01*
Y48099D01*
X98532Y47433D01*
X5915Y67370D02*
X9914D01*
X5915Y66037D02*
Y68703D01*
X10485Y72322D02*
X5915Y74988D01*
Y78397D02*
X9914D01*
X5915Y81063D02*
X9914D01*
X7819Y78397D02*
Y81063D01*
X6486Y87976D02*
X6105Y87595D01*
X5915Y87023D01*
Y86261D01*
X6105Y85690D01*
X6486Y85309D01*
X6867D01*
X7248Y85500D01*
X7438Y85690D01*
X7629Y86071D01*
X8010Y87214D01*
X8200Y87595D01*
X8390Y87785D01*
X8771Y87976D01*
X9343D01*
X9724Y87595D01*
X9914Y87023D01*
Y86261D01*
X9724Y85690D01*
X9343Y85309D01*
X8390Y88871D02*
Y91156D01*
X8010D01*
X7629Y90965D01*
X7438Y90775D01*
X7248Y90394D01*
Y89823D01*
X7438Y89442D01*
X7819Y89061D01*
X8390Y88871D01*
X8771D01*
X9343Y89061D01*
X9724Y89442D01*
X9914Y89823D01*
Y90394D01*
X9724Y90775D01*
X9343Y91156D01*
X7248Y92013D02*
X9914D01*
X8010D02*
X7438Y92584D01*
X7248Y92965D01*
Y93536D01*
X7438Y93917D01*
X8010Y94108D01*
X9914D01*
X7819Y97250D02*
X7438Y97059D01*
X7248Y96488D01*
Y95917D01*
X7438Y95345D01*
X7819Y95155D01*
X8200Y95345D01*
X8390Y95726D01*
X8581Y96678D01*
X8771Y97059D01*
X9152Y97250D01*
X9343D01*
X9724Y97059D01*
X9914Y96488D01*
Y95917D01*
X9724Y95345D01*
X9343Y95155D01*
X7248Y99040D02*
X7438Y98659D01*
X7819Y98278D01*
X8390Y98088D01*
X8771D01*
X9343Y98278D01*
X9724Y98659D01*
X9914Y99040D01*
Y99611D01*
X9724Y99992D01*
X9343Y100373D01*
X8771Y100563D01*
X8390D01*
X7819Y100373D01*
X7438Y99992D01*
X7248Y99611D01*
Y99040D01*
Y101439D02*
X9914D01*
X8390D02*
X7819Y101630D01*
X7438Y102011D01*
X7248Y102391D01*
Y102963D01*
X21631Y192647D02*
X21441Y193028D01*
X21060Y193409D01*
X20679Y193600D01*
X19917D01*
X19536Y193409D01*
X19156Y193028D01*
X18965Y192647D01*
X18775Y192076D01*
Y191124D01*
X18965Y190553D01*
X19156Y190172D01*
X19536Y189791D01*
X19917Y189600D01*
X20679D01*
X21060Y189791D01*
X21441Y190172D01*
X21631Y190553D01*
Y191124D01*
X20679D02*
X21631D01*
X24831Y192266D02*
Y189600D01*
Y191695D02*
X24450Y192076D01*
X24069Y192266D01*
X23497D01*
X23117Y192076D01*
X22736Y191695D01*
X22545Y191124D01*
Y190743D01*
X22736Y190172D01*
X23117Y189791D01*
X23497Y189600D01*
X24069D01*
X24450Y189791D01*
X24831Y190172D01*
X27992Y191695D02*
X27801Y192076D01*
X27230Y192266D01*
X26659D01*
X26087Y192076D01*
X25897Y191695D01*
X26087Y191314D01*
X26468Y191124D01*
X27420Y190934D01*
X27801Y190743D01*
X27992Y190362D01*
Y190172D01*
X27801Y189791D01*
X27230Y189600D01*
X26659D01*
X26087Y189791D01*
X25897Y190172D01*
X34638Y193028D02*
X34257Y193409D01*
X33686Y193600D01*
X32924D01*
X32353Y193409D01*
X31972Y193028D01*
Y192647D01*
X32162Y192266D01*
X32353Y192076D01*
X32734Y191886D01*
X33876Y191505D01*
X34257Y191314D01*
X34448Y191124D01*
X34638Y190743D01*
Y190172D01*
X34257Y189791D01*
X33686Y189600D01*
X32924D01*
X32353Y189791D01*
X31972Y190172D01*
X35533Y191124D02*
X37818D01*
Y191505D01*
X37628Y191886D01*
X37437Y192076D01*
X37056Y192266D01*
X36485D01*
X36104Y192076D01*
X35724Y191695D01*
X35533Y191124D01*
Y190743D01*
X35724Y190172D01*
X36104Y189791D01*
X36485Y189600D01*
X37056D01*
X37437Y189791D01*
X37818Y190172D01*
X38675Y192266D02*
Y189600D01*
Y191505D02*
X39246Y192076D01*
X39627Y192266D01*
X40199D01*
X40580Y192076D01*
X40770Y191505D01*
Y189600D01*
X43912Y191695D02*
X43722Y192076D01*
X43150Y192266D01*
X42579D01*
X42008Y192076D01*
X41817Y191695D01*
X42008Y191314D01*
X42389Y191124D01*
X43341Y190934D01*
X43722Y190743D01*
X43912Y190362D01*
Y190172D01*
X43722Y189791D01*
X43150Y189600D01*
X42579D01*
X42008Y189791D01*
X41817Y190172D01*
X45702Y192266D02*
X45321Y192076D01*
X44941Y191695D01*
X44750Y191124D01*
Y190743D01*
X44941Y190172D01*
X45321Y189791D01*
X45702Y189600D01*
X46274D01*
X46654Y189791D01*
X47035Y190172D01*
X47226Y190743D01*
Y191124D01*
X47035Y191695D01*
X46654Y192076D01*
X46274Y192266D01*
X45702D01*
X48102D02*
Y189600D01*
Y191124D02*
X48292Y191695D01*
X48673Y192076D01*
X49054Y192266D01*
X49625D01*
X201200Y149091D02*
X205200D01*
X201200D02*
Y150424D01*
X201391Y150996D01*
X201772Y151376D01*
X202153Y151567D01*
X202724Y151757D01*
X203676D01*
X204247Y151567D01*
X204628Y151376D01*
X205009Y150996D01*
X205200Y150424D01*
Y149091D01*
X201200Y154557D02*
X203867Y152652D01*
Y155509D01*
X201200Y154557D02*
X205200D01*
X230701Y149368D02*
X234699D01*
Y151367D01*
X234033Y152033D01*
X231367D01*
X230701Y151367D01*
Y149368D01*
X231367Y153366D02*
X230701Y154033D01*
Y155366D01*
X231367Y156032D01*
X232034D01*
X232700Y155366D01*
Y154699D01*
Y155366D01*
X233366Y156032D01*
X234033D01*
X234699Y155366D01*
Y154033D01*
X234033Y153366D01*
X168600Y150486D02*
X172600D01*
X168600D02*
Y151819D01*
X168791Y152391D01*
X169172Y152772D01*
X169553Y152962D01*
X170124Y153153D01*
X171076D01*
X171647Y152962D01*
X172028Y152772D01*
X172409Y152391D01*
X172600Y151819D01*
Y150486D01*
X169553Y154238D02*
X169362D01*
X168981Y154428D01*
X168791Y154619D01*
X168600Y155000D01*
Y155761D01*
X168791Y156142D01*
X168981Y156333D01*
X169362Y156523D01*
X169743D01*
X170124Y156333D01*
X170695Y155952D01*
X172600Y154048D01*
Y156714D01*
X137800Y151143D02*
X141800D01*
X137800D02*
Y152476D01*
X137991Y153048D01*
X138372Y153428D01*
X138753Y153619D01*
X139324Y153809D01*
X140276D01*
X140847Y153619D01*
X141228Y153428D01*
X141609Y153048D01*
X141800Y152476D01*
Y151143D01*
X138562Y154704D02*
X138372Y155085D01*
X137800Y155657D01*
X141800D01*
X18267Y129547D02*
X18077Y129928D01*
X17696Y130309D01*
X17315Y130500D01*
X16553D01*
X16172Y130309D01*
X15791Y129928D01*
X15601Y129547D01*
X15411Y128976D01*
Y128024D01*
X15601Y127453D01*
X15791Y127072D01*
X16172Y126691D01*
X16553Y126500D01*
X17315D01*
X17696Y126691D01*
X18077Y127072D01*
X18267Y127453D01*
X19391Y129738D02*
X19771Y129928D01*
X20343Y130500D01*
Y126500D01*
X23466Y130500D02*
X22895Y130309D01*
X22514Y129738D01*
X22323Y128786D01*
Y128214D01*
X22514Y127262D01*
X22895Y126691D01*
X23466Y126500D01*
X23847D01*
X24418Y126691D01*
X24799Y127262D01*
X24990Y128214D01*
Y128786D01*
X24799Y129738D01*
X24418Y130309D01*
X23847Y130500D01*
X23466D01*
X104429Y124447D02*
X104238Y124828D01*
X103857Y125209D01*
X103477Y125400D01*
X102715D01*
X102334Y125209D01*
X101953Y124828D01*
X101763Y124447D01*
X101572Y123876D01*
Y122924D01*
X101763Y122353D01*
X101953Y121972D01*
X102334Y121591D01*
X102715Y121400D01*
X103477D01*
X103857Y121591D01*
X104238Y121972D01*
X104429Y122353D01*
X108028Y124066D02*
X107837Y123495D01*
X107457Y123114D01*
X106885Y122924D01*
X106695D01*
X106123Y123114D01*
X105743Y123495D01*
X105552Y124066D01*
Y124257D01*
X105743Y124828D01*
X106123Y125209D01*
X106695Y125400D01*
X106885D01*
X107457Y125209D01*
X107837Y124828D01*
X108028Y124066D01*
Y123114D01*
X107837Y122162D01*
X107457Y121591D01*
X106885Y121400D01*
X106504D01*
X105933Y121591D01*
X105743Y121972D01*
X36633Y23647D02*
X36443Y24028D01*
X36062Y24409D01*
X35681Y24600D01*
X34920D01*
X34539Y24409D01*
X34158Y24028D01*
X33967Y23647D01*
X33777Y23076D01*
Y22124D01*
X33967Y21553D01*
X34158Y21172D01*
X34539Y20791D01*
X34920Y20600D01*
X35681D01*
X36062Y20791D01*
X36443Y21172D01*
X36633Y21553D01*
X38709Y24600D02*
X38138Y24409D01*
X37947Y24028D01*
Y23647D01*
X38138Y23267D01*
X38519Y23076D01*
X39281Y22886D01*
X39852Y22695D01*
X40233Y22314D01*
X40423Y21934D01*
Y21362D01*
X40233Y20981D01*
X40042Y20791D01*
X39471Y20600D01*
X38709D01*
X38138Y20791D01*
X37947Y20981D01*
X37757Y21362D01*
Y21934D01*
X37947Y22314D01*
X38328Y22695D01*
X38900Y22886D01*
X39661Y23076D01*
X40042Y23267D01*
X40233Y23647D01*
Y24028D01*
X40042Y24409D01*
X39471Y24600D01*
X38709D01*
X215833Y135247D02*
X215643Y135628D01*
X215262Y136009D01*
X214881Y136200D01*
X214120D01*
X213739Y136009D01*
X213358Y135628D01*
X213167Y135247D01*
X212977Y134676D01*
Y133724D01*
X213167Y133153D01*
X213358Y132772D01*
X213739Y132391D01*
X214120Y132200D01*
X214881D01*
X215262Y132391D01*
X215643Y132772D01*
X215833Y133153D01*
X219623Y136200D02*
X217719Y132200D01*
X216957Y136200D02*
X219623D01*
X245529Y135747D02*
X245338Y136128D01*
X244957Y136509D01*
X244577Y136700D01*
X243815D01*
X243434Y136509D01*
X243053Y136128D01*
X242863Y135747D01*
X242672Y135176D01*
Y134224D01*
X242863Y133653D01*
X243053Y133272D01*
X243434Y132891D01*
X243815Y132700D01*
X244577D01*
X244957Y132891D01*
X245338Y133272D01*
X245529Y133653D01*
X248937Y136128D02*
X248747Y136509D01*
X248176Y136700D01*
X247795D01*
X247223Y136509D01*
X246843Y135938D01*
X246652Y134986D01*
Y134034D01*
X246843Y133272D01*
X247223Y132891D01*
X247795Y132700D01*
X247985D01*
X248557Y132891D01*
X248937Y133272D01*
X249128Y133843D01*
Y134034D01*
X248937Y134605D01*
X248557Y134986D01*
X247985Y135176D01*
X247795D01*
X247223Y134986D01*
X246843Y134605D01*
X246652Y134034D01*
X79933Y109047D02*
X79743Y109428D01*
X79362Y109809D01*
X78981Y110000D01*
X78219D01*
X77839Y109809D01*
X77458Y109428D01*
X77267Y109047D01*
X77077Y108476D01*
Y107524D01*
X77267Y106953D01*
X77458Y106572D01*
X77839Y106191D01*
X78219Y106000D01*
X78981D01*
X79362Y106191D01*
X79743Y106572D01*
X79933Y106953D01*
X83342Y110000D02*
X81438D01*
X81247Y108286D01*
X81438Y108476D01*
X82009Y108667D01*
X82581D01*
X83152Y108476D01*
X83533Y108095D01*
X83723Y107524D01*
Y107143D01*
X83533Y106572D01*
X83152Y106191D01*
X82581Y106000D01*
X82009D01*
X81438Y106191D01*
X81247Y106381D01*
X81057Y106762D01*
X182438Y135547D02*
X182248Y135928D01*
X181867Y136309D01*
X181486Y136500D01*
X180724D01*
X180343Y136309D01*
X179963Y135928D01*
X179772Y135547D01*
X179582Y134976D01*
Y134024D01*
X179772Y133453D01*
X179963Y133072D01*
X180343Y132691D01*
X180724Y132500D01*
X181486D01*
X181867Y132691D01*
X182248Y133072D01*
X182438Y133453D01*
X185466Y136500D02*
X183562Y133834D01*
X186418D01*
X185466Y136500D02*
Y132500D01*
X151733Y135647D02*
X151543Y136028D01*
X151162Y136409D01*
X150781Y136600D01*
X150020D01*
X149639Y136409D01*
X149258Y136028D01*
X149067Y135647D01*
X148877Y135076D01*
Y134124D01*
X149067Y133553D01*
X149258Y133172D01*
X149639Y132791D01*
X150020Y132600D01*
X150781D01*
X151162Y132791D01*
X151543Y133172D01*
X151733Y133553D01*
X153238Y136600D02*
X155333D01*
X154190Y135076D01*
X154761D01*
X155142Y134886D01*
X155333Y134695D01*
X155523Y134124D01*
Y133743D01*
X155333Y133172D01*
X154952Y132791D01*
X154381Y132600D01*
X153809D01*
X153238Y132791D01*
X153047Y132981D01*
X152857Y133362D01*
X262753Y52533D02*
X262372Y52343D01*
X261991Y51962D01*
X261800Y51581D01*
Y50819D01*
X261991Y50439D01*
X262372Y50058D01*
X262753Y49867D01*
X263324Y49677D01*
X264276D01*
X264847Y49867D01*
X265228Y50058D01*
X265609Y50439D01*
X265800Y50819D01*
Y51581D01*
X265609Y51962D01*
X265228Y52343D01*
X264847Y52533D01*
X262753Y53847D02*
X262562D01*
X262181Y54038D01*
X261991Y54228D01*
X261800Y54609D01*
Y55371D01*
X261991Y55752D01*
X262181Y55942D01*
X262562Y56133D01*
X262943D01*
X263324Y55942D01*
X263895Y55561D01*
X265800Y53657D01*
Y56323D01*
X154290Y115847D02*
X154100Y116228D01*
X153719Y116609D01*
X153338Y116800D01*
X152576D01*
X152196Y116609D01*
X151815Y116228D01*
X151624Y115847D01*
X151434Y115276D01*
Y114324D01*
X151624Y113753D01*
X151815Y113372D01*
X152196Y112991D01*
X152576Y112800D01*
X153338D01*
X153719Y112991D01*
X154100Y113372D01*
X154290Y113753D01*
X155414Y116038D02*
X155795Y116228D01*
X156366Y116800D01*
Y112800D01*
M02*
