G04*
G04 #@! TF.GenerationSoftware,Altium Limited,Altium Designer,22.1.2 (22)*
G04*
G04 Layer_Color=8388736*
%FSLAX25Y25*%
%MOIN*%
G70*
G04*
G04 #@! TF.SameCoordinates,9C9567F8-7803-4A2A-AD9E-191CB7A9E8FD*
G04*
G04*
G04 #@! TF.FilePolarity,Negative*
G04*
G01*
G75*
%ADD17R,0.03150X0.03150*%
%ADD21R,0.02362X0.02756*%
%ADD25R,0.05200X0.07900*%
G04:AMPARAMS|DCode=26|XSize=56.82mil|YSize=31.23mil|CornerRadius=9.81mil|HoleSize=0mil|Usage=FLASHONLY|Rotation=180.000|XOffset=0mil|YOffset=0mil|HoleType=Round|Shape=RoundedRectangle|*
%AMROUNDEDRECTD26*
21,1,0.05682,0.01161,0,0,180.0*
21,1,0.03720,0.03123,0,0,180.0*
1,1,0.01961,-0.01860,0.00581*
1,1,0.01961,0.01860,0.00581*
1,1,0.01961,0.01860,-0.00581*
1,1,0.01961,-0.01860,-0.00581*
%
%ADD26ROUNDEDRECTD26*%
%ADD27R,0.02756X0.04724*%
%ADD28R,0.05550X0.07000*%
%ADD29R,0.07900X0.05200*%
%ADD30R,0.05524X0.06706*%
%ADD31R,0.01381X0.05909*%
%ADD32R,0.01381X0.05987*%
%ADD33C,0.07800*%
%ADD34C,0.06800*%
%ADD35C,0.06343*%
%ADD36C,0.04343*%
%ADD37C,0.03300*%
D17*
X72547Y28000D02*
D03*
X78453D02*
D03*
D21*
X21531Y48000D02*
D03*
X25469D02*
D03*
X21531Y11000D02*
D03*
X25469D02*
D03*
D25*
X15100Y137000D02*
D03*
X26900D02*
D03*
X15100Y121000D02*
D03*
X26900D02*
D03*
X257400Y53000D02*
D03*
X245600D02*
D03*
X222400Y126500D02*
D03*
X210600D02*
D03*
X148100Y40000D02*
D03*
X159900D02*
D03*
X160400Y61500D02*
D03*
X148600D02*
D03*
X42600Y179000D02*
D03*
X54400D02*
D03*
X160400Y106500D02*
D03*
X148600D02*
D03*
Y85500D02*
D03*
X160400D02*
D03*
X82400Y12000D02*
D03*
X70600D02*
D03*
X82400Y46500D02*
D03*
X70600D02*
D03*
X17800Y22200D02*
D03*
X29600D02*
D03*
X17600Y34900D02*
D03*
X29400D02*
D03*
X99600Y115500D02*
D03*
X111400D02*
D03*
X252300Y126500D02*
D03*
X240500D02*
D03*
X189900Y127000D02*
D03*
X178100D02*
D03*
X158400Y126500D02*
D03*
X146600D02*
D03*
X75100Y115500D02*
D03*
X86900D02*
D03*
D26*
X100845Y139000D02*
D03*
X109153Y142740D02*
D03*
Y135260D02*
D03*
D27*
X245260Y29488D02*
D03*
D03*
D03*
X249000D02*
D03*
X252740Y40512D02*
D03*
Y29488D02*
D03*
Y40512D02*
D03*
X249000D02*
D03*
X245260D02*
D03*
D28*
X252850Y142900D02*
D03*
Y162100D02*
D03*
X240150Y142900D02*
D03*
Y162100D02*
D03*
X222850Y142900D02*
D03*
Y162100D02*
D03*
X210150Y142900D02*
D03*
Y162100D02*
D03*
X190850Y143400D02*
D03*
Y162600D02*
D03*
X178150Y143400D02*
D03*
Y162600D02*
D03*
X159350Y143900D02*
D03*
Y163100D02*
D03*
X146650Y143900D02*
D03*
Y163100D02*
D03*
D29*
X94500Y174900D02*
D03*
Y163100D02*
D03*
X80000D02*
D03*
Y174900D02*
D03*
X133500Y163500D02*
D03*
Y175300D02*
D03*
D30*
X15595Y155008D02*
D03*
X27406Y180992D02*
D03*
X15595D02*
D03*
X27406Y155008D02*
D03*
D31*
X77063Y131339D02*
D03*
D32*
X79031D02*
D03*
X81000D02*
D03*
X82968D02*
D03*
X84937D02*
D03*
Y148661D02*
D03*
X82968D02*
D03*
X81000D02*
D03*
X79031D02*
D03*
X77063D02*
D03*
D33*
X208500Y43000D02*
D03*
X218500D02*
D03*
X188500D02*
D03*
X198500D02*
D03*
X69500Y66500D02*
D03*
X79500D02*
D03*
X49500D02*
D03*
X59500D02*
D03*
X69500Y90000D02*
D03*
X79500D02*
D03*
X49500D02*
D03*
X59500D02*
D03*
X119500Y76000D02*
D03*
Y66000D02*
D03*
Y96000D02*
D03*
Y86000D02*
D03*
D34*
X180500Y10500D02*
D03*
X170500D02*
D03*
X160500D02*
D03*
X150500D02*
D03*
X140500D02*
D03*
X130500D02*
D03*
X120500D02*
D03*
X110500D02*
D03*
X18000Y99500D02*
D03*
Y89500D02*
D03*
Y79500D02*
D03*
Y69500D02*
D03*
X19500Y200500D02*
D03*
X29500D02*
D03*
X39500D02*
D03*
X49500D02*
D03*
X164500D02*
D03*
X154500D02*
D03*
X144500D02*
D03*
X134500D02*
D03*
X124500D02*
D03*
X114500D02*
D03*
X104500D02*
D03*
X94500D02*
D03*
X84500D02*
D03*
X74500D02*
D03*
X250500D02*
D03*
X240500D02*
D03*
X230500D02*
D03*
X220500D02*
D03*
X210500D02*
D03*
X200500D02*
D03*
X190500D02*
D03*
X180500D02*
D03*
X250500Y10500D02*
D03*
X240500D02*
D03*
X230500D02*
D03*
X220500D02*
D03*
X210500D02*
D03*
X200500D02*
D03*
D35*
X220705Y87500D02*
D03*
X246295D02*
D03*
D36*
X186272Y99756D02*
D03*
Y94244D02*
D03*
D37*
X70000Y184500D02*
D03*
X210600Y27500D02*
D03*
X191900Y25900D02*
D03*
X251200Y64300D02*
D03*
X209000Y111600D02*
D03*
X194500Y175100D02*
D03*
X174000Y176200D02*
D03*
X100100Y128600D02*
D03*
X46400Y122000D02*
D03*
X37500Y105200D02*
D03*
X53000Y21400D02*
D03*
X100000Y79100D02*
D03*
X56800Y40600D02*
D03*
X43500Y28900D02*
D03*
X35700Y40500D02*
D03*
X148500Y95700D02*
D03*
X164400Y51200D02*
D03*
X77794Y124906D02*
D03*
X91400Y131300D02*
D03*
X239600Y52200D02*
D03*
X192900Y179700D02*
D03*
X159300Y171100D02*
D03*
X252800Y169700D02*
D03*
X222900Y170000D02*
D03*
X190900D02*
D03*
X28000Y101600D02*
D03*
X32600Y109100D02*
D03*
X42900Y126100D02*
D03*
X13800Y6500D02*
D03*
X42900Y138500D02*
D03*
X71400Y124900D02*
D03*
X50100Y118300D02*
D03*
X68900Y105600D02*
D03*
X88400Y70600D02*
D03*
X94100Y79100D02*
D03*
X175300Y170200D02*
D03*
X87800Y52100D02*
D03*
X88400Y79000D02*
D03*
X59800Y22500D02*
D03*
X50700Y35100D02*
D03*
X43200Y35000D02*
D03*
X13150Y21700D02*
D03*
X33500Y48100D02*
D03*
Y180800D02*
D03*
X77450Y157096D02*
D03*
X73958Y157329D02*
D03*
X91300Y126100D02*
D03*
Y119900D02*
D03*
X99500Y107900D02*
D03*
X260100Y69400D02*
D03*
X264100Y65100D02*
D03*
X54700Y46400D02*
D03*
X17400Y41600D02*
D03*
X21600Y53600D02*
D03*
X191830Y16037D02*
D03*
X239400Y40400D02*
D03*
X215800Y18000D02*
D03*
X80100Y184300D02*
D03*
X85600Y155600D02*
D03*
X201000Y111500D02*
D03*
X140450Y3250D02*
D03*
X258200Y126200D02*
D03*
X228700Y126500D02*
D03*
X195700Y127100D02*
D03*
X164800Y126700D02*
D03*
X33600Y120800D02*
D03*
X87000Y108000D02*
D03*
M02*
