G04*
G04 #@! TF.GenerationSoftware,Altium Limited,Altium Designer,22.1.2 (22)*
G04*
G04 Layer_Physical_Order=2*
G04 Layer_Color=36540*
%FSLAX25Y25*%
%MOIN*%
G70*
G04*
G04 #@! TF.SameCoordinates,9C9567F8-7803-4A2A-AD9E-191CB7A9E8FD*
G04*
G04*
G04 #@! TF.FilePolarity,Positive*
G04*
G01*
G75*
%ADD39C,0.07000*%
%ADD40C,0.06000*%
%ADD41C,0.05543*%
%ADD42C,0.03543*%
%ADD43C,0.02500*%
G36*
X258961Y204155D02*
Y159697D01*
X259116Y158916D01*
X259558Y158255D01*
X268961Y148852D01*
Y20845D01*
X259795Y11679D01*
X259793Y11676D01*
X259791Y11675D01*
X259558Y11442D01*
X259116Y10780D01*
X258961Y10000D01*
Y3579D01*
X257420Y2039D01*
X142834D01*
X142556Y2455D01*
X142700Y2802D01*
Y3698D01*
X142358Y4524D01*
X141725Y5158D01*
X140898Y5500D01*
X140002D01*
X139175Y5158D01*
X138542Y4524D01*
X138200Y3698D01*
Y2802D01*
X138344Y2455D01*
X138066Y2039D01*
X2039D01*
Y208961D01*
X254155D01*
X258961Y204155D01*
D02*
G37*
%LPC*%
G36*
X105027Y204500D02*
X105000D01*
Y201000D01*
X108500D01*
Y201027D01*
X108227Y202044D01*
X107701Y202956D01*
X106956Y203701D01*
X106044Y204227D01*
X105027Y204500D01*
D02*
G37*
G36*
X40027D02*
X40000D01*
Y201000D01*
X43500D01*
Y201027D01*
X43227Y202044D01*
X42701Y202956D01*
X41956Y203701D01*
X41044Y204227D01*
X40027Y204500D01*
D02*
G37*
G36*
X39000D02*
X38973D01*
X37956Y204227D01*
X37044Y203701D01*
X36299Y202956D01*
X35773Y202044D01*
X35500Y201027D01*
Y201000D01*
X39000D01*
Y204500D01*
D02*
G37*
G36*
X104000D02*
X103973D01*
X102956Y204227D01*
X102044Y203701D01*
X101299Y202956D01*
X100773Y202044D01*
X100500Y201027D01*
Y201000D01*
X104000D01*
Y204500D01*
D02*
G37*
G36*
X251027D02*
X249973D01*
X248956Y204227D01*
X248044Y203701D01*
X247299Y202956D01*
X246773Y202044D01*
X246500Y201027D01*
Y199973D01*
X246773Y198956D01*
X247299Y198044D01*
X248044Y197299D01*
X248956Y196773D01*
X249973Y196500D01*
X251027D01*
X252044Y196773D01*
X252956Y197299D01*
X253701Y198044D01*
X254227Y198956D01*
X254500Y199973D01*
Y201027D01*
X254227Y202044D01*
X253701Y202956D01*
X252956Y203701D01*
X252044Y204227D01*
X251027Y204500D01*
D02*
G37*
G36*
X241027D02*
X239973D01*
X238956Y204227D01*
X238044Y203701D01*
X237299Y202956D01*
X236773Y202044D01*
X236500Y201027D01*
Y199973D01*
X236773Y198956D01*
X237299Y198044D01*
X238044Y197299D01*
X238956Y196773D01*
X239973Y196500D01*
X241027D01*
X242044Y196773D01*
X242956Y197299D01*
X243701Y198044D01*
X244227Y198956D01*
X244500Y199973D01*
Y201027D01*
X244227Y202044D01*
X243701Y202956D01*
X242956Y203701D01*
X242044Y204227D01*
X241027Y204500D01*
D02*
G37*
G36*
X231027D02*
X229973D01*
X228956Y204227D01*
X228044Y203701D01*
X227299Y202956D01*
X226773Y202044D01*
X226500Y201027D01*
Y199973D01*
X226773Y198956D01*
X227299Y198044D01*
X228044Y197299D01*
X228956Y196773D01*
X229973Y196500D01*
X231027D01*
X232044Y196773D01*
X232956Y197299D01*
X233701Y198044D01*
X234227Y198956D01*
X234500Y199973D01*
Y201027D01*
X234227Y202044D01*
X233701Y202956D01*
X232956Y203701D01*
X232044Y204227D01*
X231027Y204500D01*
D02*
G37*
G36*
X221027D02*
X219973D01*
X218956Y204227D01*
X218044Y203701D01*
X217299Y202956D01*
X216773Y202044D01*
X216500Y201027D01*
Y199973D01*
X216773Y198956D01*
X217299Y198044D01*
X218044Y197299D01*
X218956Y196773D01*
X219973Y196500D01*
X221027D01*
X222044Y196773D01*
X222956Y197299D01*
X223701Y198044D01*
X224227Y198956D01*
X224500Y199973D01*
Y201027D01*
X224227Y202044D01*
X223701Y202956D01*
X222956Y203701D01*
X222044Y204227D01*
X221027Y204500D01*
D02*
G37*
G36*
X211027D02*
X209973D01*
X208956Y204227D01*
X208044Y203701D01*
X207299Y202956D01*
X206773Y202044D01*
X206500Y201027D01*
Y199973D01*
X206773Y198956D01*
X207299Y198044D01*
X208044Y197299D01*
X208956Y196773D01*
X209973Y196500D01*
X211027D01*
X212044Y196773D01*
X212956Y197299D01*
X213701Y198044D01*
X214227Y198956D01*
X214500Y199973D01*
Y201027D01*
X214227Y202044D01*
X213701Y202956D01*
X212956Y203701D01*
X212044Y204227D01*
X211027Y204500D01*
D02*
G37*
G36*
X201027D02*
X199973D01*
X198956Y204227D01*
X198044Y203701D01*
X197299Y202956D01*
X196773Y202044D01*
X196500Y201027D01*
Y199973D01*
X196773Y198956D01*
X197299Y198044D01*
X198044Y197299D01*
X198956Y196773D01*
X199973Y196500D01*
X201027D01*
X202044Y196773D01*
X202956Y197299D01*
X203701Y198044D01*
X204227Y198956D01*
X204500Y199973D01*
Y201027D01*
X204227Y202044D01*
X203701Y202956D01*
X202956Y203701D01*
X202044Y204227D01*
X201027Y204500D01*
D02*
G37*
G36*
X191027D02*
X189973D01*
X188956Y204227D01*
X188044Y203701D01*
X187299Y202956D01*
X186773Y202044D01*
X186500Y201027D01*
Y199973D01*
X186773Y198956D01*
X187299Y198044D01*
X188044Y197299D01*
X188956Y196773D01*
X189973Y196500D01*
X191027D01*
X192044Y196773D01*
X192956Y197299D01*
X193701Y198044D01*
X194227Y198956D01*
X194500Y199973D01*
Y201027D01*
X194227Y202044D01*
X193701Y202956D01*
X192956Y203701D01*
X192044Y204227D01*
X191027Y204500D01*
D02*
G37*
G36*
X181027D02*
X179973D01*
X178956Y204227D01*
X178044Y203701D01*
X177299Y202956D01*
X176773Y202044D01*
X176500Y201027D01*
Y199973D01*
X176773Y198956D01*
X177299Y198044D01*
X178044Y197299D01*
X178956Y196773D01*
X179973Y196500D01*
X181027D01*
X182044Y196773D01*
X182956Y197299D01*
X183701Y198044D01*
X184227Y198956D01*
X184500Y199973D01*
Y201027D01*
X184227Y202044D01*
X183701Y202956D01*
X182956Y203701D01*
X182044Y204227D01*
X181027Y204500D01*
D02*
G37*
G36*
X165027D02*
X163973D01*
X162956Y204227D01*
X162044Y203701D01*
X161299Y202956D01*
X160773Y202044D01*
X160500Y201027D01*
Y199973D01*
X160773Y198956D01*
X161299Y198044D01*
X162044Y197299D01*
X162956Y196773D01*
X163973Y196500D01*
X165027D01*
X166044Y196773D01*
X166956Y197299D01*
X167701Y198044D01*
X168227Y198956D01*
X168500Y199973D01*
Y201027D01*
X168227Y202044D01*
X167701Y202956D01*
X166956Y203701D01*
X166044Y204227D01*
X165027Y204500D01*
D02*
G37*
G36*
X155027D02*
X153973D01*
X152956Y204227D01*
X152044Y203701D01*
X151299Y202956D01*
X150773Y202044D01*
X150500Y201027D01*
Y199973D01*
X150773Y198956D01*
X151299Y198044D01*
X152044Y197299D01*
X152956Y196773D01*
X153973Y196500D01*
X155027D01*
X156044Y196773D01*
X156956Y197299D01*
X157701Y198044D01*
X158227Y198956D01*
X158500Y199973D01*
Y201027D01*
X158227Y202044D01*
X157701Y202956D01*
X156956Y203701D01*
X156044Y204227D01*
X155027Y204500D01*
D02*
G37*
G36*
X145027D02*
X143973D01*
X142956Y204227D01*
X142044Y203701D01*
X141299Y202956D01*
X140773Y202044D01*
X140500Y201027D01*
Y199973D01*
X140773Y198956D01*
X141299Y198044D01*
X142044Y197299D01*
X142956Y196773D01*
X143973Y196500D01*
X145027D01*
X146044Y196773D01*
X146956Y197299D01*
X147701Y198044D01*
X148227Y198956D01*
X148500Y199973D01*
Y201027D01*
X148227Y202044D01*
X147701Y202956D01*
X146956Y203701D01*
X146044Y204227D01*
X145027Y204500D01*
D02*
G37*
G36*
X135027D02*
X133973D01*
X132956Y204227D01*
X132044Y203701D01*
X131299Y202956D01*
X130773Y202044D01*
X130500Y201027D01*
Y199973D01*
X130773Y198956D01*
X131299Y198044D01*
X132044Y197299D01*
X132956Y196773D01*
X133973Y196500D01*
X135027D01*
X136044Y196773D01*
X136956Y197299D01*
X137701Y198044D01*
X138227Y198956D01*
X138500Y199973D01*
Y201027D01*
X138227Y202044D01*
X137701Y202956D01*
X136956Y203701D01*
X136044Y204227D01*
X135027Y204500D01*
D02*
G37*
G36*
X125027D02*
X123973D01*
X122956Y204227D01*
X122044Y203701D01*
X121299Y202956D01*
X120773Y202044D01*
X120500Y201027D01*
Y199973D01*
X120773Y198956D01*
X121299Y198044D01*
X122044Y197299D01*
X122956Y196773D01*
X123973Y196500D01*
X125027D01*
X126044Y196773D01*
X126956Y197299D01*
X127701Y198044D01*
X128227Y198956D01*
X128500Y199973D01*
Y201027D01*
X128227Y202044D01*
X127701Y202956D01*
X126956Y203701D01*
X126044Y204227D01*
X125027Y204500D01*
D02*
G37*
G36*
X115027D02*
X113973D01*
X112956Y204227D01*
X112044Y203701D01*
X111299Y202956D01*
X110773Y202044D01*
X110500Y201027D01*
Y199973D01*
X110773Y198956D01*
X111299Y198044D01*
X112044Y197299D01*
X112956Y196773D01*
X113973Y196500D01*
X115027D01*
X116044Y196773D01*
X116956Y197299D01*
X117701Y198044D01*
X118227Y198956D01*
X118500Y199973D01*
Y201027D01*
X118227Y202044D01*
X117701Y202956D01*
X116956Y203701D01*
X116044Y204227D01*
X115027Y204500D01*
D02*
G37*
G36*
X108500Y200000D02*
X105000D01*
Y196500D01*
X105027D01*
X106044Y196773D01*
X106956Y197299D01*
X107701Y198044D01*
X108227Y198956D01*
X108500Y199973D01*
Y200000D01*
D02*
G37*
G36*
X104000D02*
X100500D01*
Y199973D01*
X100773Y198956D01*
X101299Y198044D01*
X102044Y197299D01*
X102956Y196773D01*
X103973Y196500D01*
X104000D01*
Y200000D01*
D02*
G37*
G36*
X95027Y204500D02*
X93973D01*
X92956Y204227D01*
X92044Y203701D01*
X91299Y202956D01*
X90773Y202044D01*
X90500Y201027D01*
Y199973D01*
X90773Y198956D01*
X91299Y198044D01*
X92044Y197299D01*
X92956Y196773D01*
X93973Y196500D01*
X95027D01*
X96044Y196773D01*
X96956Y197299D01*
X97701Y198044D01*
X98227Y198956D01*
X98500Y199973D01*
Y201027D01*
X98227Y202044D01*
X97701Y202956D01*
X96956Y203701D01*
X96044Y204227D01*
X95027Y204500D01*
D02*
G37*
G36*
X85027D02*
X83973D01*
X82956Y204227D01*
X82044Y203701D01*
X81299Y202956D01*
X80773Y202044D01*
X80500Y201027D01*
Y199973D01*
X80773Y198956D01*
X81299Y198044D01*
X82044Y197299D01*
X82956Y196773D01*
X83973Y196500D01*
X85027D01*
X86044Y196773D01*
X86956Y197299D01*
X87701Y198044D01*
X88227Y198956D01*
X88500Y199973D01*
Y201027D01*
X88227Y202044D01*
X87701Y202956D01*
X86956Y203701D01*
X86044Y204227D01*
X85027Y204500D01*
D02*
G37*
G36*
X75027D02*
X73973D01*
X72956Y204227D01*
X72044Y203701D01*
X71299Y202956D01*
X70773Y202044D01*
X70500Y201027D01*
Y199973D01*
X70773Y198956D01*
X71299Y198044D01*
X72044Y197299D01*
X72956Y196773D01*
X73973Y196500D01*
X75027D01*
X76044Y196773D01*
X76956Y197299D01*
X77701Y198044D01*
X78227Y198956D01*
X78500Y199973D01*
Y201027D01*
X78227Y202044D01*
X77701Y202956D01*
X76956Y203701D01*
X76044Y204227D01*
X75027Y204500D01*
D02*
G37*
G36*
X50027D02*
X48973D01*
X47956Y204227D01*
X47044Y203701D01*
X46299Y202956D01*
X45773Y202044D01*
X45500Y201027D01*
Y199973D01*
X45773Y198956D01*
X46299Y198044D01*
X47044Y197299D01*
X47956Y196773D01*
X48973Y196500D01*
X50027D01*
X51044Y196773D01*
X51956Y197299D01*
X52701Y198044D01*
X53227Y198956D01*
X53500Y199973D01*
Y201027D01*
X53227Y202044D01*
X52701Y202956D01*
X51956Y203701D01*
X51044Y204227D01*
X50027Y204500D01*
D02*
G37*
G36*
X43500Y200000D02*
X40000D01*
Y196500D01*
X40027D01*
X41044Y196773D01*
X41956Y197299D01*
X42701Y198044D01*
X43227Y198956D01*
X43500Y199973D01*
Y200000D01*
D02*
G37*
G36*
X39000D02*
X35500D01*
Y199973D01*
X35773Y198956D01*
X36299Y198044D01*
X37044Y197299D01*
X37956Y196773D01*
X38973Y196500D01*
X39000D01*
Y200000D01*
D02*
G37*
G36*
X30027Y204500D02*
X28973D01*
X27956Y204227D01*
X27044Y203701D01*
X26299Y202956D01*
X25773Y202044D01*
X25500Y201027D01*
Y199973D01*
X25773Y198956D01*
X26299Y198044D01*
X27044Y197299D01*
X27956Y196773D01*
X28973Y196500D01*
X30027D01*
X31044Y196773D01*
X31956Y197299D01*
X32701Y198044D01*
X33227Y198956D01*
X33500Y199973D01*
Y201027D01*
X33227Y202044D01*
X32701Y202956D01*
X31956Y203701D01*
X31044Y204227D01*
X30027Y204500D01*
D02*
G37*
G36*
X20027D02*
X18973D01*
X17956Y204227D01*
X17044Y203701D01*
X16299Y202956D01*
X15773Y202044D01*
X15500Y201027D01*
Y199973D01*
X15773Y198956D01*
X16299Y198044D01*
X17044Y197299D01*
X17956Y196773D01*
X18973Y196500D01*
X20027D01*
X21044Y196773D01*
X21956Y197299D01*
X22701Y198044D01*
X23227Y198956D01*
X23500Y199973D01*
Y201027D01*
X23227Y202044D01*
X22701Y202956D01*
X21956Y203701D01*
X21044Y204227D01*
X20027Y204500D01*
D02*
G37*
G36*
X80548Y186550D02*
X79652D01*
X78825Y186207D01*
X78193Y185574D01*
X77850Y184748D01*
Y183852D01*
X78193Y183026D01*
X78825Y182393D01*
X79652Y182050D01*
X80548D01*
X81375Y182393D01*
X82007Y183026D01*
X82350Y183852D01*
Y184748D01*
X82007Y185574D01*
X81375Y186207D01*
X80548Y186550D01*
D02*
G37*
G36*
X193348Y181950D02*
X192452D01*
X191625Y181607D01*
X190992Y180974D01*
X190650Y180148D01*
Y179252D01*
X190992Y178426D01*
X191625Y177793D01*
X192452Y177450D01*
X193348D01*
X194175Y177793D01*
X194808Y178426D01*
X195150Y179252D01*
Y180148D01*
X194808Y180974D01*
X194175Y181607D01*
X193348Y181950D01*
D02*
G37*
G36*
X175748Y172450D02*
X174852D01*
X174025Y172108D01*
X173392Y171475D01*
X173050Y170648D01*
Y169752D01*
X173392Y168925D01*
X174025Y168292D01*
X174852Y167950D01*
X175748D01*
X176575Y168292D01*
X177208Y168925D01*
X177550Y169752D01*
Y170648D01*
X177208Y171475D01*
X176575Y172108D01*
X175748Y172450D01*
D02*
G37*
G36*
X74405Y159579D02*
X73510D01*
X72683Y159236D01*
X72050Y158603D01*
X71708Y157776D01*
Y156881D01*
X72050Y156054D01*
X72683Y155421D01*
X73510Y155079D01*
X74405D01*
X75232Y155421D01*
X75587Y155776D01*
X76175Y155188D01*
X77002Y154846D01*
X77898D01*
X78724Y155188D01*
X79357Y155821D01*
X79700Y156648D01*
Y157543D01*
X79357Y158370D01*
X78724Y159003D01*
X77898Y159346D01*
X77002D01*
X76175Y159003D01*
X75820Y158648D01*
X75232Y159236D01*
X74405Y159579D01*
D02*
G37*
G36*
X43348Y140750D02*
X42452D01*
X41625Y140408D01*
X40993Y139775D01*
X40650Y138948D01*
Y138052D01*
X40993Y137225D01*
X41625Y136592D01*
X42452Y136250D01*
X43348D01*
X44175Y136592D01*
X44807Y137225D01*
X45150Y138052D01*
Y138948D01*
X44807Y139775D01*
X44175Y140408D01*
X43348Y140750D01*
D02*
G37*
G36*
X91848Y133550D02*
X90952D01*
X90126Y133207D01*
X89492Y132574D01*
X89150Y131748D01*
Y130852D01*
X89492Y130025D01*
X90126Y129393D01*
X90952Y129050D01*
X91848D01*
X92674Y129393D01*
X93308Y130025D01*
X93650Y130852D01*
Y131748D01*
X93308Y132574D01*
X92674Y133207D01*
X91848Y133550D01*
D02*
G37*
G36*
X91748Y128350D02*
X90852D01*
X90026Y128007D01*
X89393Y127374D01*
X89050Y126548D01*
Y125652D01*
X89393Y124826D01*
X90026Y124193D01*
X90852Y123850D01*
X91748D01*
X92575Y124193D01*
X93208Y124826D01*
X93550Y125652D01*
Y126548D01*
X93208Y127374D01*
X92575Y128007D01*
X91748Y128350D01*
D02*
G37*
G36*
X43348D02*
X42452D01*
X41625Y128007D01*
X40993Y127374D01*
X40650Y126548D01*
Y125652D01*
X40993Y124826D01*
X41625Y124193D01*
X42452Y123850D01*
X43348D01*
X44175Y124193D01*
X44807Y124826D01*
X45150Y125652D01*
Y126548D01*
X44807Y127374D01*
X44175Y128007D01*
X43348Y128350D01*
D02*
G37*
G36*
X78241Y127156D02*
X77346D01*
X76519Y126814D01*
X75886Y126181D01*
X75544Y125354D01*
Y124459D01*
X75886Y123632D01*
X76519Y122999D01*
X77346Y122656D01*
X78241D01*
X79068Y122999D01*
X79701Y123632D01*
X80044Y124459D01*
Y125354D01*
X79701Y126181D01*
X79068Y126814D01*
X78241Y127156D01*
D02*
G37*
G36*
X71848Y127150D02*
X70952D01*
X70126Y126807D01*
X69493Y126174D01*
X69150Y125348D01*
Y124452D01*
X69493Y123626D01*
X70126Y122993D01*
X70952Y122650D01*
X71848D01*
X72675Y122993D01*
X73308Y123626D01*
X73650Y124452D01*
Y125348D01*
X73308Y126174D01*
X72675Y126807D01*
X71848Y127150D01*
D02*
G37*
G36*
X91748Y122150D02*
X90852D01*
X90026Y121808D01*
X89393Y121175D01*
X89050Y120348D01*
Y119452D01*
X89393Y118625D01*
X90026Y117992D01*
X90852Y117650D01*
X91748D01*
X92575Y117992D01*
X93208Y118625D01*
X93550Y119452D01*
Y120348D01*
X93208Y121175D01*
X92575Y121808D01*
X91748Y122150D01*
D02*
G37*
G36*
X50548Y120550D02*
X49652D01*
X48825Y120208D01*
X48193Y119574D01*
X47850Y118748D01*
Y117852D01*
X48193Y117025D01*
X48825Y116393D01*
X49652Y116050D01*
X50548D01*
X51375Y116393D01*
X52008Y117025D01*
X52350Y117852D01*
Y118748D01*
X52008Y119574D01*
X51375Y120208D01*
X50548Y120550D01*
D02*
G37*
G36*
X201448Y113750D02*
X200552D01*
X199725Y113408D01*
X199092Y112775D01*
X198750Y111948D01*
Y111052D01*
X199092Y110225D01*
X199725Y109592D01*
X200552Y109250D01*
X201448D01*
X202274Y109592D01*
X202907Y110225D01*
X203250Y111052D01*
Y111948D01*
X202907Y112775D01*
X202274Y113408D01*
X201448Y113750D01*
D02*
G37*
G36*
X33048Y111350D02*
X32152D01*
X31326Y111007D01*
X30692Y110374D01*
X30350Y109548D01*
Y108652D01*
X30692Y107826D01*
X31326Y107193D01*
X32152Y106850D01*
X33048D01*
X33874Y107193D01*
X34508Y107826D01*
X34850Y108652D01*
Y109548D01*
X34508Y110374D01*
X33874Y111007D01*
X33048Y111350D01*
D02*
G37*
G36*
X69348Y107850D02*
X68452D01*
X67625Y107508D01*
X66992Y106875D01*
X66650Y106048D01*
Y105152D01*
X66992Y104325D01*
X67625Y103692D01*
X68452Y103350D01*
X69348D01*
X70174Y103692D01*
X70807Y104325D01*
X71150Y105152D01*
Y106048D01*
X70807Y106875D01*
X70174Y107508D01*
X69348Y107850D01*
D02*
G37*
G36*
X186772Y102491D02*
Y100256D01*
X189007D01*
X188854Y100826D01*
X188489Y101458D01*
X187973Y101974D01*
X187341Y102339D01*
X186772Y102491D01*
D02*
G37*
G36*
X185772D02*
X185202Y102339D01*
X184570Y101974D01*
X184054Y101458D01*
X183689Y100826D01*
X183536Y100256D01*
X185772D01*
Y102491D01*
D02*
G37*
G36*
X18527Y103500D02*
X18500D01*
Y100000D01*
X22000D01*
Y100027D01*
X21727Y101044D01*
X21201Y101956D01*
X20456Y102701D01*
X19544Y103227D01*
X18527Y103500D01*
D02*
G37*
G36*
X17500D02*
X17473D01*
X16456Y103227D01*
X15544Y102701D01*
X14799Y101956D01*
X14273Y101044D01*
X14000Y100027D01*
Y100000D01*
X17500D01*
Y103500D01*
D02*
G37*
G36*
X28448Y103850D02*
X27552D01*
X26726Y103507D01*
X26092Y102875D01*
X25750Y102048D01*
Y101152D01*
X26092Y100326D01*
X26726Y99692D01*
X27552Y99350D01*
X28448D01*
X29274Y99692D01*
X29908Y100326D01*
X30250Y101152D01*
Y102048D01*
X29908Y102875D01*
X29274Y103507D01*
X28448Y103850D01*
D02*
G37*
G36*
X120092Y100500D02*
X120000D01*
Y96500D01*
X124000D01*
Y96592D01*
X123693Y97737D01*
X123101Y98763D01*
X122263Y99601D01*
X121237Y100193D01*
X120092Y100500D01*
D02*
G37*
G36*
X119000D02*
X118908D01*
X117763Y100193D01*
X116737Y99601D01*
X115899Y98763D01*
X115307Y97737D01*
X115000Y96592D01*
Y96500D01*
X119000D01*
Y100500D01*
D02*
G37*
G36*
X22000Y99000D02*
X18500D01*
Y95500D01*
X18527D01*
X19544Y95773D01*
X20456Y96299D01*
X21201Y97044D01*
X21727Y97956D01*
X22000Y98973D01*
Y99000D01*
D02*
G37*
G36*
X17500D02*
X14000D01*
Y98973D01*
X14273Y97956D01*
X14799Y97044D01*
X15544Y96299D01*
X16456Y95773D01*
X17473Y95500D01*
X17500D01*
Y99000D01*
D02*
G37*
G36*
X148948Y97950D02*
X148052D01*
X147225Y97607D01*
X146592Y96974D01*
X146250Y96148D01*
Y95252D01*
X146592Y94425D01*
X147225Y93792D01*
X148052Y93450D01*
X148948D01*
X149775Y93792D01*
X150408Y94425D01*
X150750Y95252D01*
Y96148D01*
X150408Y96974D01*
X149775Y97607D01*
X148948Y97950D01*
D02*
G37*
G36*
X124000Y95500D02*
X120000D01*
Y91500D01*
X120092D01*
X121237Y91807D01*
X122263Y92399D01*
X123101Y93237D01*
X123693Y94263D01*
X124000Y95408D01*
Y95500D01*
D02*
G37*
G36*
X119000D02*
X115000D01*
Y95408D01*
X115307Y94263D01*
X115899Y93237D01*
X116737Y92399D01*
X117763Y91807D01*
X118908Y91500D01*
X119000D01*
Y95500D01*
D02*
G37*
G36*
X189007Y99256D02*
X186272D01*
X183536D01*
X183689Y98686D01*
X184054Y98054D01*
X184570Y97538D01*
X185026Y97275D01*
X185033Y97257D01*
Y96743D01*
X185026Y96725D01*
X184570Y96462D01*
X184054Y95946D01*
X183689Y95314D01*
X183500Y94609D01*
Y93879D01*
X183689Y93174D01*
X184054Y92542D01*
X184570Y92026D01*
X185202Y91661D01*
X185907Y91472D01*
X186637D01*
X187341Y91661D01*
X187973Y92026D01*
X188489Y92542D01*
X188854Y93174D01*
X189043Y93879D01*
Y94609D01*
X188854Y95314D01*
X188489Y95946D01*
X187973Y96462D01*
X187517Y96725D01*
X187510Y96743D01*
Y97257D01*
X187517Y97275D01*
X187973Y97538D01*
X188489Y98054D01*
X188854Y98686D01*
X189007Y99256D01*
D02*
G37*
G36*
X60092Y94500D02*
X60000D01*
Y90500D01*
X64000D01*
Y90592D01*
X63693Y91737D01*
X63101Y92763D01*
X62263Y93601D01*
X61237Y94193D01*
X60092Y94500D01*
D02*
G37*
G36*
X50092D02*
X50000D01*
Y90500D01*
X54000D01*
Y90592D01*
X53693Y91737D01*
X53101Y92763D01*
X52263Y93601D01*
X51237Y94193D01*
X50092Y94500D01*
D02*
G37*
G36*
X70092D02*
X70000D01*
Y90500D01*
X74000D01*
Y90592D01*
X73693Y91737D01*
X73101Y92763D01*
X72263Y93601D01*
X71237Y94193D01*
X70092Y94500D01*
D02*
G37*
G36*
X49000D02*
X48908D01*
X47763Y94193D01*
X46737Y93601D01*
X45899Y92763D01*
X45307Y91737D01*
X45000Y90592D01*
Y90500D01*
X49000D01*
Y94500D01*
D02*
G37*
G36*
X59000D02*
X58908D01*
X57763Y94193D01*
X56737Y93601D01*
X55899Y92763D01*
X55307Y91737D01*
X55000Y90592D01*
Y90500D01*
X59000D01*
Y94500D01*
D02*
G37*
G36*
X69000D02*
X68908D01*
X67763Y94193D01*
X66737Y93601D01*
X65899Y92763D01*
X65307Y91737D01*
X65000Y90592D01*
Y90500D01*
X69000D01*
Y94500D01*
D02*
G37*
G36*
X246795Y91271D02*
Y88000D01*
X250066D01*
X249810Y88956D01*
X249313Y89816D01*
X248611Y90518D01*
X247751Y91015D01*
X246795Y91271D01*
D02*
G37*
G36*
X245795D02*
X244840Y91015D01*
X243979Y90518D01*
X243277Y89816D01*
X242781Y88956D01*
X242525Y88000D01*
X245795D01*
Y91271D01*
D02*
G37*
G36*
X120092Y90500D02*
X120000D01*
Y86500D01*
X124000D01*
Y86592D01*
X123693Y87737D01*
X123101Y88763D01*
X122263Y89601D01*
X121237Y90193D01*
X120092Y90500D01*
D02*
G37*
G36*
X119000D02*
X118908D01*
X117763Y90193D01*
X116737Y89601D01*
X115899Y88763D01*
X115307Y87737D01*
X115000Y86592D01*
Y86500D01*
X119000D01*
Y90500D01*
D02*
G37*
G36*
X80092Y94500D02*
X78908D01*
X77763Y94193D01*
X76737Y93601D01*
X75899Y92763D01*
X75307Y91737D01*
X75000Y90592D01*
Y89408D01*
X75307Y88263D01*
X75899Y87237D01*
X76737Y86399D01*
X77763Y85807D01*
X78908Y85500D01*
X80092D01*
X81237Y85807D01*
X82263Y86399D01*
X83101Y87237D01*
X83693Y88263D01*
X84000Y89408D01*
Y90592D01*
X83693Y91737D01*
X83101Y92763D01*
X82263Y93601D01*
X81237Y94193D01*
X80092Y94500D01*
D02*
G37*
G36*
X74000Y89500D02*
X70000D01*
Y85500D01*
X70092D01*
X71237Y85807D01*
X72263Y86399D01*
X73101Y87237D01*
X73693Y88263D01*
X74000Y89408D01*
Y89500D01*
D02*
G37*
G36*
X69000D02*
X65000D01*
Y89408D01*
X65307Y88263D01*
X65899Y87237D01*
X66737Y86399D01*
X67763Y85807D01*
X68908Y85500D01*
X69000D01*
Y89500D01*
D02*
G37*
G36*
X64000D02*
X60000D01*
Y85500D01*
X60092D01*
X61237Y85807D01*
X62263Y86399D01*
X63101Y87237D01*
X63693Y88263D01*
X64000Y89408D01*
Y89500D01*
D02*
G37*
G36*
X59000D02*
X55000D01*
Y89408D01*
X55307Y88263D01*
X55899Y87237D01*
X56737Y86399D01*
X57763Y85807D01*
X58908Y85500D01*
X59000D01*
Y89500D01*
D02*
G37*
G36*
X54000D02*
X50000D01*
Y85500D01*
X50092D01*
X51237Y85807D01*
X52263Y86399D01*
X53101Y87237D01*
X53693Y88263D01*
X54000Y89408D01*
Y89500D01*
D02*
G37*
G36*
X49000D02*
X45000D01*
Y89408D01*
X45307Y88263D01*
X45899Y87237D01*
X46737Y86399D01*
X47763Y85807D01*
X48908Y85500D01*
X49000D01*
Y89500D01*
D02*
G37*
G36*
X18527Y93500D02*
X17473D01*
X16456Y93227D01*
X15544Y92701D01*
X14799Y91956D01*
X14273Y91044D01*
X14000Y90027D01*
Y88973D01*
X14273Y87956D01*
X14799Y87044D01*
X15544Y86299D01*
X16456Y85773D01*
X17473Y85500D01*
X18527D01*
X19544Y85773D01*
X20456Y86299D01*
X21201Y87044D01*
X21727Y87956D01*
X22000Y88973D01*
Y90027D01*
X21727Y91044D01*
X21201Y91956D01*
X20456Y92701D01*
X19544Y93227D01*
X18527Y93500D01*
D02*
G37*
G36*
X250066Y87000D02*
X246795D01*
Y83729D01*
X247751Y83985D01*
X248611Y84482D01*
X249313Y85184D01*
X249810Y86044D01*
X250066Y87000D01*
D02*
G37*
G36*
X245795D02*
X242525D01*
X242781Y86044D01*
X243277Y85184D01*
X243979Y84482D01*
X244840Y83985D01*
X245795Y83729D01*
Y87000D01*
D02*
G37*
G36*
X221201Y91272D02*
X220208D01*
X219249Y91015D01*
X218389Y90518D01*
X217687Y89816D01*
X217190Y88956D01*
X216933Y87997D01*
Y87003D01*
X217190Y86044D01*
X217687Y85184D01*
X218389Y84482D01*
X219249Y83985D01*
X220208Y83728D01*
X221201D01*
X222161Y83985D01*
X223021Y84482D01*
X223723Y85184D01*
X224219Y86044D01*
X224476Y87003D01*
Y87997D01*
X224219Y88956D01*
X223723Y89816D01*
X223021Y90518D01*
X222161Y91015D01*
X221201Y91272D01*
D02*
G37*
G36*
X124000Y85500D02*
X120000D01*
Y81500D01*
X120092D01*
X121237Y81807D01*
X122263Y82399D01*
X123101Y83237D01*
X123693Y84263D01*
X124000Y85408D01*
Y85500D01*
D02*
G37*
G36*
X119000D02*
X115000D01*
Y85408D01*
X115307Y84263D01*
X115899Y83237D01*
X116737Y82399D01*
X117763Y81807D01*
X118908Y81500D01*
X119000D01*
Y85500D01*
D02*
G37*
G36*
X94548Y81350D02*
X93652D01*
X92826Y81007D01*
X92193Y80374D01*
X91850Y79548D01*
Y78652D01*
X92193Y77825D01*
X92826Y77192D01*
X93652Y76850D01*
X94548D01*
X95375Y77192D01*
X96008Y77825D01*
X96350Y78652D01*
Y79548D01*
X96008Y80374D01*
X95375Y81007D01*
X94548Y81350D01*
D02*
G37*
G36*
X88848Y81250D02*
X87952D01*
X87125Y80907D01*
X86493Y80274D01*
X86150Y79448D01*
Y78552D01*
X86493Y77725D01*
X87125Y77092D01*
X87952Y76750D01*
X88848D01*
X89675Y77092D01*
X90307Y77725D01*
X90650Y78552D01*
Y79448D01*
X90307Y80274D01*
X89675Y80907D01*
X88848Y81250D01*
D02*
G37*
G36*
X120092Y80500D02*
X120000D01*
Y76500D01*
X124000D01*
Y76592D01*
X123693Y77737D01*
X123101Y78763D01*
X122263Y79601D01*
X121237Y80193D01*
X120092Y80500D01*
D02*
G37*
G36*
X119000D02*
X118908D01*
X117763Y80193D01*
X116737Y79601D01*
X115899Y78763D01*
X115307Y77737D01*
X115000Y76592D01*
Y76500D01*
X119000D01*
Y80500D01*
D02*
G37*
G36*
X18527Y83500D02*
X17473D01*
X16456Y83227D01*
X15544Y82701D01*
X14799Y81956D01*
X14273Y81044D01*
X14000Y80027D01*
Y78973D01*
X14273Y77956D01*
X14799Y77044D01*
X15544Y76299D01*
X16456Y75773D01*
X17473Y75500D01*
X18527D01*
X19544Y75773D01*
X20456Y76299D01*
X21201Y77044D01*
X21727Y77956D01*
X22000Y78973D01*
Y80027D01*
X21727Y81044D01*
X21201Y81956D01*
X20456Y82701D01*
X19544Y83227D01*
X18527Y83500D01*
D02*
G37*
G36*
X124000Y75500D02*
X120000D01*
Y71500D01*
X120092D01*
X121237Y71807D01*
X122263Y72399D01*
X123101Y73237D01*
X123693Y74263D01*
X124000Y75408D01*
Y75500D01*
D02*
G37*
G36*
X119000D02*
X115000D01*
Y75408D01*
X115307Y74263D01*
X115899Y73237D01*
X116737Y72399D01*
X117763Y71807D01*
X118908Y71500D01*
X119000D01*
Y75500D01*
D02*
G37*
G36*
X88848Y72850D02*
X87952D01*
X87125Y72508D01*
X86493Y71874D01*
X86150Y71048D01*
Y70152D01*
X86493Y69326D01*
X87125Y68692D01*
X87952Y68350D01*
X88848D01*
X89675Y68692D01*
X90307Y69326D01*
X90650Y70152D01*
Y71048D01*
X90307Y71874D01*
X89675Y72508D01*
X88848Y72850D01*
D02*
G37*
G36*
X260548Y71650D02*
X259652D01*
X258825Y71307D01*
X258192Y70675D01*
X257850Y69848D01*
Y68952D01*
X258192Y68125D01*
X258825Y67493D01*
X259652Y67150D01*
X260548D01*
X261374Y67493D01*
X262007Y68125D01*
X262350Y68952D01*
Y69848D01*
X262007Y70675D01*
X261374Y71307D01*
X260548Y71650D01*
D02*
G37*
G36*
X60092Y71000D02*
X60000D01*
Y67000D01*
X64000D01*
Y67092D01*
X63693Y68237D01*
X63101Y69263D01*
X62263Y70101D01*
X61237Y70693D01*
X60092Y71000D01*
D02*
G37*
G36*
X50092D02*
X50000D01*
Y67000D01*
X54000D01*
Y67092D01*
X53693Y68237D01*
X53101Y69263D01*
X52263Y70101D01*
X51237Y70693D01*
X50092Y71000D01*
D02*
G37*
G36*
X70092D02*
X70000D01*
Y67000D01*
X74000D01*
Y67092D01*
X73693Y68237D01*
X73101Y69263D01*
X72263Y70101D01*
X71237Y70693D01*
X70092Y71000D01*
D02*
G37*
G36*
X49000D02*
X48908D01*
X47763Y70693D01*
X46737Y70101D01*
X45899Y69263D01*
X45307Y68237D01*
X45000Y67092D01*
Y67000D01*
X49000D01*
Y71000D01*
D02*
G37*
G36*
X59000D02*
X58908D01*
X57763Y70693D01*
X56737Y70101D01*
X55899Y69263D01*
X55307Y68237D01*
X55000Y67092D01*
Y67000D01*
X59000D01*
Y71000D01*
D02*
G37*
G36*
X69000D02*
X68908D01*
X67763Y70693D01*
X66737Y70101D01*
X65899Y69263D01*
X65307Y68237D01*
X65000Y67092D01*
Y67000D01*
X69000D01*
Y71000D01*
D02*
G37*
G36*
X18527Y73500D02*
X17473D01*
X16456Y73227D01*
X15544Y72701D01*
X14799Y71956D01*
X14273Y71044D01*
X14000Y70027D01*
Y68973D01*
X14273Y67956D01*
X14799Y67044D01*
X15544Y66299D01*
X16456Y65773D01*
X17473Y65500D01*
X18527D01*
X19544Y65773D01*
X20456Y66299D01*
X21201Y67044D01*
X21727Y67956D01*
X22000Y68973D01*
Y70027D01*
X21727Y71044D01*
X21201Y71956D01*
X20456Y72701D01*
X19544Y73227D01*
X18527Y73500D01*
D02*
G37*
G36*
X264548Y67350D02*
X263652D01*
X262825Y67007D01*
X262193Y66374D01*
X261850Y65548D01*
Y64652D01*
X262193Y63826D01*
X262825Y63192D01*
X263652Y62850D01*
X264548D01*
X265374Y63192D01*
X266007Y63826D01*
X266350Y64652D01*
Y65548D01*
X266007Y66374D01*
X265374Y67007D01*
X264548Y67350D01*
D02*
G37*
G36*
X80092Y71000D02*
X78908D01*
X77763Y70693D01*
X76737Y70101D01*
X75899Y69263D01*
X75307Y68237D01*
X75000Y67092D01*
Y65908D01*
X75307Y64763D01*
X75899Y63737D01*
X76737Y62899D01*
X77763Y62307D01*
X78908Y62000D01*
X80092D01*
X81237Y62307D01*
X82263Y62899D01*
X83101Y63737D01*
X83693Y64763D01*
X84000Y65908D01*
Y67092D01*
X83693Y68237D01*
X83101Y69263D01*
X82263Y70101D01*
X81237Y70693D01*
X80092Y71000D01*
D02*
G37*
G36*
X74000Y66000D02*
X70000D01*
Y62000D01*
X70092D01*
X71237Y62307D01*
X72263Y62899D01*
X73101Y63737D01*
X73693Y64763D01*
X74000Y65908D01*
Y66000D01*
D02*
G37*
G36*
X69000D02*
X65000D01*
Y65908D01*
X65307Y64763D01*
X65899Y63737D01*
X66737Y62899D01*
X67763Y62307D01*
X68908Y62000D01*
X69000D01*
Y66000D01*
D02*
G37*
G36*
X64000D02*
X60000D01*
Y62000D01*
X60092D01*
X61237Y62307D01*
X62263Y62899D01*
X63101Y63737D01*
X63693Y64763D01*
X64000Y65908D01*
Y66000D01*
D02*
G37*
G36*
X59000D02*
X55000D01*
Y65908D01*
X55307Y64763D01*
X55899Y63737D01*
X56737Y62899D01*
X57763Y62307D01*
X58908Y62000D01*
X59000D01*
Y66000D01*
D02*
G37*
G36*
X54000D02*
X50000D01*
Y62000D01*
X50092D01*
X51237Y62307D01*
X52263Y62899D01*
X53101Y63737D01*
X53693Y64763D01*
X54000Y65908D01*
Y66000D01*
D02*
G37*
G36*
X49000D02*
X45000D01*
Y65908D01*
X45307Y64763D01*
X45899Y63737D01*
X46737Y62899D01*
X47763Y62307D01*
X48908Y62000D01*
X49000D01*
Y66000D01*
D02*
G37*
G36*
X120092Y70500D02*
X118908D01*
X117763Y70193D01*
X116737Y69601D01*
X115899Y68763D01*
X115307Y67737D01*
X115000Y66592D01*
Y65408D01*
X115307Y64263D01*
X115899Y63237D01*
X116737Y62399D01*
X117763Y61807D01*
X118908Y61500D01*
X120092D01*
X121237Y61807D01*
X122263Y62399D01*
X123101Y63237D01*
X123693Y64263D01*
X124000Y65408D01*
Y66592D01*
X123693Y67737D01*
X123101Y68763D01*
X122263Y69601D01*
X121237Y70193D01*
X120092Y70500D01*
D02*
G37*
G36*
X88248Y54350D02*
X87352D01*
X86525Y54008D01*
X85892Y53374D01*
X85550Y52548D01*
Y51652D01*
X85892Y50826D01*
X86525Y50192D01*
X87352Y49850D01*
X88248D01*
X89074Y50192D01*
X89707Y50826D01*
X90050Y51652D01*
Y52548D01*
X89707Y53374D01*
X89074Y54008D01*
X88248Y54350D01*
D02*
G37*
G36*
X33948Y50350D02*
X33052D01*
X32225Y50007D01*
X31593Y49374D01*
X31250Y48548D01*
Y47652D01*
X31593Y46826D01*
X32225Y46192D01*
X33052Y45850D01*
X33948D01*
X34775Y46192D01*
X35408Y46826D01*
X35750Y47652D01*
Y48548D01*
X35408Y49374D01*
X34775Y50007D01*
X33948Y50350D01*
D02*
G37*
G36*
X55148Y48650D02*
X54252D01*
X53426Y48307D01*
X52793Y47675D01*
X52450Y46848D01*
Y45952D01*
X52793Y45125D01*
X53426Y44493D01*
X54252Y44150D01*
X55148D01*
X55975Y44493D01*
X56608Y45125D01*
X56950Y45952D01*
Y46848D01*
X56608Y47675D01*
X55975Y48307D01*
X55148Y48650D01*
D02*
G37*
G36*
X199092Y47500D02*
X199000D01*
Y43500D01*
X203000D01*
Y43592D01*
X202693Y44737D01*
X202101Y45763D01*
X201263Y46601D01*
X200237Y47193D01*
X199092Y47500D01*
D02*
G37*
G36*
X189092D02*
X189000D01*
Y43500D01*
X193000D01*
Y43592D01*
X192693Y44737D01*
X192101Y45763D01*
X191263Y46601D01*
X190237Y47193D01*
X189092Y47500D01*
D02*
G37*
G36*
X209092D02*
X209000D01*
Y43500D01*
X213000D01*
Y43592D01*
X212693Y44737D01*
X212101Y45763D01*
X211263Y46601D01*
X210237Y47193D01*
X209092Y47500D01*
D02*
G37*
G36*
X198000D02*
X197908D01*
X196763Y47193D01*
X195737Y46601D01*
X194899Y45763D01*
X194307Y44737D01*
X194000Y43592D01*
Y43500D01*
X198000D01*
Y47500D01*
D02*
G37*
G36*
X188000D02*
X187908D01*
X186763Y47193D01*
X185737Y46601D01*
X184899Y45763D01*
X184307Y44737D01*
X184000Y43592D01*
Y43500D01*
X188000D01*
Y47500D01*
D02*
G37*
G36*
X208000D02*
X207908D01*
X206763Y47193D01*
X205737Y46601D01*
X204899Y45763D01*
X204307Y44737D01*
X204000Y43592D01*
Y43500D01*
X208000D01*
Y47500D01*
D02*
G37*
G36*
X219092D02*
X217908D01*
X216763Y47193D01*
X215737Y46601D01*
X214899Y45763D01*
X214307Y44737D01*
X214000Y43592D01*
Y42408D01*
X214307Y41263D01*
X214899Y40237D01*
X215737Y39399D01*
X216763Y38807D01*
X217908Y38500D01*
X219092D01*
X220237Y38807D01*
X221263Y39399D01*
X222101Y40237D01*
X222693Y41263D01*
X223000Y42408D01*
Y43592D01*
X222693Y44737D01*
X222101Y45763D01*
X221263Y46601D01*
X220237Y47193D01*
X219092Y47500D01*
D02*
G37*
G36*
X213000Y42500D02*
X209000D01*
Y38500D01*
X209092D01*
X210237Y38807D01*
X211263Y39399D01*
X212101Y40237D01*
X212693Y41263D01*
X213000Y42408D01*
Y42500D01*
D02*
G37*
G36*
X208000D02*
X204000D01*
Y42408D01*
X204307Y41263D01*
X204899Y40237D01*
X205737Y39399D01*
X206763Y38807D01*
X207908Y38500D01*
X208000D01*
Y42500D01*
D02*
G37*
G36*
X203000D02*
X199000D01*
Y38500D01*
X199092D01*
X200237Y38807D01*
X201263Y39399D01*
X202101Y40237D01*
X202693Y41263D01*
X203000Y42408D01*
Y42500D01*
D02*
G37*
G36*
X198000D02*
X194000D01*
Y42408D01*
X194307Y41263D01*
X194899Y40237D01*
X195737Y39399D01*
X196763Y38807D01*
X197908Y38500D01*
X198000D01*
Y42500D01*
D02*
G37*
G36*
X193000D02*
X189000D01*
Y38500D01*
X189092D01*
X190237Y38807D01*
X191263Y39399D01*
X192101Y40237D01*
X192693Y41263D01*
X193000Y42408D01*
Y42500D01*
D02*
G37*
G36*
X188000D02*
X184000D01*
Y42408D01*
X184307Y41263D01*
X184899Y40237D01*
X185737Y39399D01*
X186763Y38807D01*
X187908Y38500D01*
X188000D01*
Y42500D01*
D02*
G37*
G36*
X51148Y37350D02*
X50252D01*
X49426Y37007D01*
X48792Y36375D01*
X48450Y35548D01*
Y34652D01*
X48792Y33825D01*
X49426Y33193D01*
X50252Y32850D01*
X51148D01*
X51974Y33193D01*
X52608Y33825D01*
X52950Y34652D01*
Y35548D01*
X52608Y36375D01*
X51974Y37007D01*
X51148Y37350D01*
D02*
G37*
G36*
X43648Y37250D02*
X42752D01*
X41925Y36908D01*
X41293Y36274D01*
X40950Y35448D01*
Y34552D01*
X41293Y33726D01*
X41925Y33092D01*
X42752Y32750D01*
X43648D01*
X44475Y33092D01*
X45107Y33726D01*
X45450Y34552D01*
Y35448D01*
X45107Y36274D01*
X44475Y36908D01*
X43648Y37250D01*
D02*
G37*
G36*
X60248Y24750D02*
X59352D01*
X58526Y24408D01*
X57893Y23775D01*
X57550Y22948D01*
Y22052D01*
X57893Y21226D01*
X58526Y20593D01*
X59352Y20250D01*
X60248D01*
X61075Y20593D01*
X61708Y21226D01*
X62050Y22052D01*
Y22948D01*
X61708Y23775D01*
X61075Y24408D01*
X60248Y24750D01*
D02*
G37*
G36*
X216248Y20250D02*
X215352D01*
X214526Y19907D01*
X213893Y19275D01*
X213550Y18448D01*
Y17552D01*
X213893Y16725D01*
X214526Y16093D01*
X215352Y15750D01*
X216248D01*
X217074Y16093D01*
X217707Y16725D01*
X218050Y17552D01*
Y18448D01*
X217707Y19275D01*
X217074Y19907D01*
X216248Y20250D01*
D02*
G37*
G36*
X192278Y18287D02*
X191383D01*
X190556Y17944D01*
X189923Y17311D01*
X189580Y16484D01*
Y15589D01*
X189923Y14762D01*
X190556Y14129D01*
X191383Y13787D01*
X192278D01*
X193105Y14129D01*
X193738Y14762D01*
X194080Y15589D01*
Y16484D01*
X193738Y17311D01*
X193105Y17944D01*
X192278Y18287D01*
D02*
G37*
G36*
X171027Y14500D02*
X171000D01*
Y11000D01*
X174500D01*
Y11027D01*
X174227Y12044D01*
X173701Y12956D01*
X172956Y13701D01*
X172044Y14227D01*
X171027Y14500D01*
D02*
G37*
G36*
X161027D02*
X161000D01*
Y11000D01*
X164500D01*
Y11027D01*
X164227Y12044D01*
X163701Y12956D01*
X162956Y13701D01*
X162044Y14227D01*
X161027Y14500D01*
D02*
G37*
G36*
X170000D02*
X169973D01*
X168956Y14227D01*
X168044Y13701D01*
X167299Y12956D01*
X166773Y12044D01*
X166500Y11027D01*
Y11000D01*
X170000D01*
Y14500D01*
D02*
G37*
G36*
X160000D02*
X159973D01*
X158956Y14227D01*
X158044Y13701D01*
X157299Y12956D01*
X156773Y12044D01*
X156500Y11027D01*
Y11000D01*
X160000D01*
Y14500D01*
D02*
G37*
G36*
X251027D02*
X249973D01*
X248956Y14227D01*
X248044Y13701D01*
X247299Y12956D01*
X246773Y12044D01*
X246500Y11027D01*
Y9973D01*
X246773Y8956D01*
X247299Y8044D01*
X248044Y7299D01*
X248956Y6773D01*
X249973Y6500D01*
X251027D01*
X252044Y6773D01*
X252956Y7299D01*
X253701Y8044D01*
X254227Y8956D01*
X254500Y9973D01*
Y11027D01*
X254227Y12044D01*
X253701Y12956D01*
X252956Y13701D01*
X252044Y14227D01*
X251027Y14500D01*
D02*
G37*
G36*
X241027D02*
X239973D01*
X238956Y14227D01*
X238044Y13701D01*
X237299Y12956D01*
X236773Y12044D01*
X236500Y11027D01*
Y9973D01*
X236773Y8956D01*
X237299Y8044D01*
X238044Y7299D01*
X238956Y6773D01*
X239973Y6500D01*
X241027D01*
X242044Y6773D01*
X242956Y7299D01*
X243701Y8044D01*
X244227Y8956D01*
X244500Y9973D01*
Y11027D01*
X244227Y12044D01*
X243701Y12956D01*
X242956Y13701D01*
X242044Y14227D01*
X241027Y14500D01*
D02*
G37*
G36*
X231027D02*
X229973D01*
X228956Y14227D01*
X228044Y13701D01*
X227299Y12956D01*
X226773Y12044D01*
X226500Y11027D01*
Y9973D01*
X226773Y8956D01*
X227299Y8044D01*
X228044Y7299D01*
X228956Y6773D01*
X229973Y6500D01*
X231027D01*
X232044Y6773D01*
X232956Y7299D01*
X233701Y8044D01*
X234227Y8956D01*
X234500Y9973D01*
Y11027D01*
X234227Y12044D01*
X233701Y12956D01*
X232956Y13701D01*
X232044Y14227D01*
X231027Y14500D01*
D02*
G37*
G36*
X221027D02*
X219973D01*
X218956Y14227D01*
X218044Y13701D01*
X217299Y12956D01*
X216773Y12044D01*
X216500Y11027D01*
Y9973D01*
X216773Y8956D01*
X217299Y8044D01*
X218044Y7299D01*
X218956Y6773D01*
X219973Y6500D01*
X221027D01*
X222044Y6773D01*
X222956Y7299D01*
X223701Y8044D01*
X224227Y8956D01*
X224500Y9973D01*
Y11027D01*
X224227Y12044D01*
X223701Y12956D01*
X222956Y13701D01*
X222044Y14227D01*
X221027Y14500D01*
D02*
G37*
G36*
X211027D02*
X209973D01*
X208956Y14227D01*
X208044Y13701D01*
X207299Y12956D01*
X206773Y12044D01*
X206500Y11027D01*
Y9973D01*
X206773Y8956D01*
X207299Y8044D01*
X208044Y7299D01*
X208956Y6773D01*
X209973Y6500D01*
X211027D01*
X212044Y6773D01*
X212956Y7299D01*
X213701Y8044D01*
X214227Y8956D01*
X214500Y9973D01*
Y11027D01*
X214227Y12044D01*
X213701Y12956D01*
X212956Y13701D01*
X212044Y14227D01*
X211027Y14500D01*
D02*
G37*
G36*
X201027D02*
X199973D01*
X198956Y14227D01*
X198044Y13701D01*
X197299Y12956D01*
X196773Y12044D01*
X196500Y11027D01*
Y9973D01*
X196773Y8956D01*
X197299Y8044D01*
X198044Y7299D01*
X198956Y6773D01*
X199973Y6500D01*
X201027D01*
X202044Y6773D01*
X202956Y7299D01*
X203701Y8044D01*
X204227Y8956D01*
X204500Y9973D01*
Y11027D01*
X204227Y12044D01*
X203701Y12956D01*
X202956Y13701D01*
X202044Y14227D01*
X201027Y14500D01*
D02*
G37*
G36*
X181027D02*
X179973D01*
X178956Y14227D01*
X178044Y13701D01*
X177299Y12956D01*
X176773Y12044D01*
X176500Y11027D01*
Y9973D01*
X176773Y8956D01*
X177299Y8044D01*
X178044Y7299D01*
X178956Y6773D01*
X179973Y6500D01*
X181027D01*
X182044Y6773D01*
X182956Y7299D01*
X183701Y8044D01*
X184227Y8956D01*
X184500Y9973D01*
Y11027D01*
X184227Y12044D01*
X183701Y12956D01*
X182956Y13701D01*
X182044Y14227D01*
X181027Y14500D01*
D02*
G37*
G36*
X174500Y10000D02*
X171000D01*
Y6500D01*
X171027D01*
X172044Y6773D01*
X172956Y7299D01*
X173701Y8044D01*
X174227Y8956D01*
X174500Y9973D01*
Y10000D01*
D02*
G37*
G36*
X170000D02*
X166500D01*
Y9973D01*
X166773Y8956D01*
X167299Y8044D01*
X168044Y7299D01*
X168956Y6773D01*
X169973Y6500D01*
X170000D01*
Y10000D01*
D02*
G37*
G36*
X164500D02*
X161000D01*
Y6500D01*
X161027D01*
X162044Y6773D01*
X162956Y7299D01*
X163701Y8044D01*
X164227Y8956D01*
X164500Y9973D01*
Y10000D01*
D02*
G37*
G36*
X160000D02*
X156500D01*
Y9973D01*
X156773Y8956D01*
X157299Y8044D01*
X158044Y7299D01*
X158956Y6773D01*
X159973Y6500D01*
X160000D01*
Y10000D01*
D02*
G37*
G36*
X151027Y14500D02*
X149973D01*
X148956Y14227D01*
X148044Y13701D01*
X147299Y12956D01*
X146773Y12044D01*
X146500Y11027D01*
Y9973D01*
X146773Y8956D01*
X147299Y8044D01*
X148044Y7299D01*
X148956Y6773D01*
X149973Y6500D01*
X151027D01*
X152044Y6773D01*
X152956Y7299D01*
X153701Y8044D01*
X154227Y8956D01*
X154500Y9973D01*
Y11027D01*
X154227Y12044D01*
X153701Y12956D01*
X152956Y13701D01*
X152044Y14227D01*
X151027Y14500D01*
D02*
G37*
G36*
X141027D02*
X139973D01*
X138956Y14227D01*
X138044Y13701D01*
X137299Y12956D01*
X136773Y12044D01*
X136500Y11027D01*
Y9973D01*
X136773Y8956D01*
X137299Y8044D01*
X138044Y7299D01*
X138956Y6773D01*
X139973Y6500D01*
X141027D01*
X142044Y6773D01*
X142956Y7299D01*
X143701Y8044D01*
X144227Y8956D01*
X144500Y9973D01*
Y11027D01*
X144227Y12044D01*
X143701Y12956D01*
X142956Y13701D01*
X142044Y14227D01*
X141027Y14500D01*
D02*
G37*
G36*
X131027D02*
X129973D01*
X128956Y14227D01*
X128044Y13701D01*
X127299Y12956D01*
X126773Y12044D01*
X126500Y11027D01*
Y9973D01*
X126773Y8956D01*
X127299Y8044D01*
X128044Y7299D01*
X128956Y6773D01*
X129973Y6500D01*
X131027D01*
X132044Y6773D01*
X132956Y7299D01*
X133701Y8044D01*
X134227Y8956D01*
X134500Y9973D01*
Y11027D01*
X134227Y12044D01*
X133701Y12956D01*
X132956Y13701D01*
X132044Y14227D01*
X131027Y14500D01*
D02*
G37*
G36*
X121027D02*
X119973D01*
X118956Y14227D01*
X118044Y13701D01*
X117299Y12956D01*
X116773Y12044D01*
X116500Y11027D01*
Y9973D01*
X116773Y8956D01*
X117299Y8044D01*
X118044Y7299D01*
X118956Y6773D01*
X119973Y6500D01*
X121027D01*
X122044Y6773D01*
X122956Y7299D01*
X123701Y8044D01*
X124227Y8956D01*
X124500Y9973D01*
Y11027D01*
X124227Y12044D01*
X123701Y12956D01*
X122956Y13701D01*
X122044Y14227D01*
X121027Y14500D01*
D02*
G37*
G36*
X111027D02*
X109973D01*
X108956Y14227D01*
X108044Y13701D01*
X107299Y12956D01*
X106773Y12044D01*
X106500Y11027D01*
Y9973D01*
X106773Y8956D01*
X107299Y8044D01*
X108044Y7299D01*
X108956Y6773D01*
X109973Y6500D01*
X111027D01*
X112044Y6773D01*
X112956Y7299D01*
X113701Y8044D01*
X114227Y8956D01*
X114500Y9973D01*
Y11027D01*
X114227Y12044D01*
X113701Y12956D01*
X112956Y13701D01*
X112044Y14227D01*
X111027Y14500D01*
D02*
G37*
%LPD*%
D39*
X208500Y43000D02*
D03*
X188500D02*
D03*
X198500D02*
D03*
X69500Y66500D02*
D03*
X49500D02*
D03*
X59500D02*
D03*
X69500Y90000D02*
D03*
X49500D02*
D03*
X59500D02*
D03*
X119500Y76000D02*
D03*
Y96000D02*
D03*
Y86000D02*
D03*
D40*
X170500Y10500D02*
D03*
X160500D02*
D03*
X18000Y99500D02*
D03*
X39500Y200500D02*
D03*
X104500D02*
D03*
D41*
X246295Y87500D02*
D03*
D42*
X186272Y99756D02*
D03*
D43*
X70000Y184500D02*
D03*
X210600Y27500D02*
D03*
X191900Y25900D02*
D03*
X251200Y64300D02*
D03*
X209000Y111600D02*
D03*
X194500Y175100D02*
D03*
X174000Y176200D02*
D03*
X100100Y128600D02*
D03*
X46400Y122000D02*
D03*
X37500Y105200D02*
D03*
X53000Y21400D02*
D03*
X100000Y79100D02*
D03*
X56800Y40600D02*
D03*
X43500Y28900D02*
D03*
X35700Y40500D02*
D03*
X164400Y51200D02*
D03*
X239600Y52200D02*
D03*
X159300Y171100D02*
D03*
X252800Y169700D02*
D03*
X222900Y170000D02*
D03*
X190900D02*
D03*
X13800Y6500D02*
D03*
X13150Y21700D02*
D03*
X33500Y180800D02*
D03*
X99500Y107900D02*
D03*
X17400Y41600D02*
D03*
X21600Y53600D02*
D03*
X239400Y40400D02*
D03*
X85600Y155600D02*
D03*
X258200Y126200D02*
D03*
X228700Y126500D02*
D03*
X195700Y127100D02*
D03*
X164800Y126700D02*
D03*
X33600Y120800D02*
D03*
X87000Y108000D02*
D03*
M02*
