G04*
G04 #@! TF.GenerationSoftware,Altium Limited,Altium Designer,22.1.2 (22)*
G04*
G04 Layer_Color=8421504*
%FSLAX25Y25*%
%MOIN*%
G70*
G04*
G04 #@! TF.SameCoordinates,9C9567F8-7803-4A2A-AD9E-191CB7A9E8FD*
G04*
G04*
G04 #@! TF.FilePolarity,Positive*
G04*
G01*
G75*
%ADD15R,0.04400X0.07100*%
G04:AMPARAMS|DCode=16|XSize=48.82mil|YSize=23.23mil|CornerRadius=5.81mil|HoleSize=0mil|Usage=FLASHONLY|Rotation=180.000|XOffset=0mil|YOffset=0mil|HoleType=Round|Shape=RoundedRectangle|*
%AMROUNDEDRECTD16*
21,1,0.04882,0.01161,0,0,180.0*
21,1,0.03720,0.02323,0,0,180.0*
1,1,0.01161,-0.01860,0.00581*
1,1,0.01161,0.01860,0.00581*
1,1,0.01161,0.01860,-0.00581*
1,1,0.01161,-0.01860,-0.00581*
%
%ADD16ROUNDEDRECTD16*%
%ADD17R,0.03150X0.03150*%
%ADD18R,0.02362X0.04331*%
%ADD19R,0.04750X0.06200*%
%ADD20R,0.07100X0.04400*%
%ADD21R,0.02362X0.02756*%
%ADD22R,0.04724X0.05906*%
%ADD23R,0.01181X0.05709*%
%ADD24R,0.01181X0.05787*%
D15*
X15100Y137000D02*
D03*
X26900D02*
D03*
X15100Y121000D02*
D03*
X26900D02*
D03*
X257400Y53000D02*
D03*
X245600D02*
D03*
X222400Y126500D02*
D03*
X210600D02*
D03*
X148100Y40000D02*
D03*
X159900D02*
D03*
X160400Y61500D02*
D03*
X148600D02*
D03*
X42600Y179000D02*
D03*
X54400D02*
D03*
X160400Y106500D02*
D03*
X148600D02*
D03*
Y85500D02*
D03*
X160400D02*
D03*
X82400Y12000D02*
D03*
X70600D02*
D03*
X82400Y46500D02*
D03*
X70600D02*
D03*
X17800Y22200D02*
D03*
X29600D02*
D03*
X17600Y34900D02*
D03*
X29400D02*
D03*
X99600Y115500D02*
D03*
X111400D02*
D03*
X252300Y126500D02*
D03*
X240500D02*
D03*
X189900Y127000D02*
D03*
X178100D02*
D03*
X158400Y126500D02*
D03*
X146600D02*
D03*
X75100Y115500D02*
D03*
X86900D02*
D03*
D16*
X100845Y139000D02*
D03*
X109153Y142740D02*
D03*
Y135260D02*
D03*
D17*
X72547Y28000D02*
D03*
X78453D02*
D03*
D18*
X245260Y29488D02*
D03*
D03*
D03*
X249000D02*
D03*
X252740Y40512D02*
D03*
Y29488D02*
D03*
Y40512D02*
D03*
X249000D02*
D03*
X245260D02*
D03*
D19*
X252850Y142900D02*
D03*
Y162100D02*
D03*
X240150Y142900D02*
D03*
Y162100D02*
D03*
X222850Y142900D02*
D03*
Y162100D02*
D03*
X210150Y142900D02*
D03*
Y162100D02*
D03*
X190850Y143400D02*
D03*
Y162600D02*
D03*
X178150Y143400D02*
D03*
Y162600D02*
D03*
X159350Y143900D02*
D03*
Y163100D02*
D03*
X146650Y143900D02*
D03*
Y163100D02*
D03*
D20*
X94500Y174900D02*
D03*
Y163100D02*
D03*
X80000D02*
D03*
Y174900D02*
D03*
X133500Y163500D02*
D03*
Y175300D02*
D03*
D21*
X21531Y48000D02*
D03*
X25469D02*
D03*
X21531Y11000D02*
D03*
X25469D02*
D03*
D22*
X15595Y155008D02*
D03*
X27406Y180992D02*
D03*
X15595D02*
D03*
X27406Y155008D02*
D03*
D23*
X77063Y131339D02*
D03*
D24*
X79031D02*
D03*
X81000D02*
D03*
X82968D02*
D03*
X84937D02*
D03*
Y148661D02*
D03*
X82968D02*
D03*
X81000D02*
D03*
X79031D02*
D03*
X77063D02*
D03*
M02*
