M48
;Layer_Color=9474304
;FILE_FORMAT=2:5
INCH,LZ
;TYPE=PLATED
T1F00S00C0.01300
T2F00S00C0.02165
T3F00S00C0.03543
T4F00S00C0.04000
T5F00S00C0.04331
%
T01
X00138Y00065
X001315Y00217
X00174Y00416
X00357Y00405
X00432Y0035
X00435Y00289
X00507Y00351
X00568Y00406
X00598Y00225
X0053Y00214
X014045Y000325
X019183Y0016037
X01919Y00259
X02106Y00275
X02158Y0018
X02394Y00404
X02396Y00522
X02512Y00643
X02641Y00651
X02601Y00694
X02582Y01262
X02287Y01265
X0209Y01116
X0201Y01115
X02229Y017
X02528Y01697
X01909Y017
X01945Y01751
X01929Y01797
X0174Y01762
X01753Y01702
X01593Y01711
X01648Y01267
X01957Y01271
X01485Y00957
X01644Y00512
X00878Y00521
X00884Y00706
Y0079
X00941Y00791
X01
X00995Y01079
X0087Y0108
X00913Y01199
Y01261
X00914Y01313
X01001Y01286
X0077794Y0124906
X00714Y01249
X00689Y01056
X00501Y01183
X00464Y0122
X0073958Y0157329
X007745Y0157096
X00856Y01556
X00801Y01843
X007Y01845
X00547Y00464
X00335Y00481
X00216Y00536
X0028Y01016
X00326Y01091
X00375Y01052
X00336Y01208
X00429Y01261
Y01385
X00335Y01808
T02
X0186272Y0094244
Y0099756
T03
X0220705Y00875
X0246295
T04
X01885Y0043
X01985
X02085
X02185
X01195Y0066
Y0076
Y0086
Y0096
X00795Y009
X00695
X00595
X00495
Y00665
X00595
X00695
X00795
T05
X01105Y00105
X01205
X01305
X01405
X01505
X01605
X01705
X01805
X02005
X02105
X02205
X02305
X02405
X02505
X0018Y00695
Y00795
Y00895
Y00995
X00195Y02005
X00295
X00395
X00495
X00745
X00845
X00945
X01045
X01145
X01245
X01345
X01445
X01545
X01645
X01805
X01905
X02005
X02105
X02205
X02305
X02405
X02505
M30
