G04*
G04 #@! TF.GenerationSoftware,Altium Limited,Altium Designer,22.1.2 (22)*
G04*
G04 Layer_Color=32896*
%FSLAX25Y25*%
%MOIN*%
G70*
G04*
G04 #@! TF.SameCoordinates,9C9567F8-7803-4A2A-AD9E-191CB7A9E8FD*
G04*
G04*
G04 #@! TF.FilePolarity,Positive*
G04*
G01*
G75*
G36*
X160514Y177299D02*
X160610D01*
Y177287D01*
X160705D01*
Y177275D01*
X160800D01*
Y177263D01*
X160848D01*
Y177251D01*
X160919D01*
Y177239D01*
X160967D01*
Y177227D01*
X161003D01*
Y177215D01*
X161062D01*
Y177203D01*
X161098D01*
Y177191D01*
X161134D01*
Y177180D01*
X161181D01*
Y177168D01*
X161205D01*
Y177156D01*
X161253D01*
Y177144D01*
X161288D01*
Y177132D01*
X161312D01*
Y177120D01*
X161348D01*
Y177108D01*
X161372D01*
Y177096D01*
X161396D01*
Y177084D01*
X161431D01*
Y177072D01*
X161455D01*
Y177060D01*
X161479D01*
Y177049D01*
X161515D01*
Y177037D01*
X161527D01*
Y177025D01*
X161562D01*
Y177013D01*
X161574D01*
Y177001D01*
X161598D01*
Y176989D01*
X161634D01*
Y176977D01*
X161646D01*
Y176965D01*
X161670D01*
Y176953D01*
X161694D01*
Y176941D01*
X161705D01*
Y176929D01*
X161729D01*
Y176918D01*
X161753D01*
Y176906D01*
X161777D01*
Y176894D01*
X161789D01*
Y176882D01*
X161812D01*
Y176870D01*
X161825D01*
Y176858D01*
X161848D01*
Y176846D01*
X161860D01*
Y176834D01*
X161884D01*
Y176822D01*
X161896D01*
Y176810D01*
X161920D01*
Y176798D01*
X161932D01*
Y176786D01*
X161955D01*
Y176775D01*
X161967D01*
Y176763D01*
X161979D01*
Y176751D01*
X162003D01*
Y176739D01*
X162015D01*
Y176727D01*
X162027D01*
Y176715D01*
X162051D01*
Y176703D01*
X162063D01*
Y176691D01*
X162074D01*
Y176679D01*
X162086D01*
Y176667D01*
X162110D01*
Y176655D01*
X162122D01*
Y176644D01*
X162134D01*
Y176632D01*
X162146D01*
Y176620D01*
X162158D01*
Y176608D01*
X162170D01*
Y176596D01*
X162182D01*
Y176584D01*
X162206D01*
Y176572D01*
X162217D01*
Y176560D01*
X162229D01*
Y176548D01*
X162241D01*
Y176536D01*
X162253D01*
Y176524D01*
X162265D01*
Y176513D01*
X162277D01*
Y176501D01*
X162289D01*
Y176489D01*
X162301D01*
Y176477D01*
X162313D01*
Y176465D01*
X162325D01*
Y176453D01*
X162337D01*
Y176441D01*
X162348D01*
Y176429D01*
X162360D01*
Y176417D01*
X162372D01*
Y176405D01*
X162384D01*
Y176393D01*
X162396D01*
Y176382D01*
X162408D01*
Y176358D01*
X162420D01*
Y176346D01*
X162432D01*
Y176334D01*
X162444D01*
Y176322D01*
X162456D01*
Y176310D01*
X162468D01*
Y176298D01*
X162479D01*
Y176274D01*
X162491D01*
Y176262D01*
X162503D01*
Y176251D01*
X162515D01*
Y176239D01*
X162527D01*
Y176215D01*
X162539D01*
Y176203D01*
X162551D01*
Y176191D01*
X162563D01*
Y176167D01*
X162575D01*
Y176155D01*
X162587D01*
Y176143D01*
X162599D01*
Y176120D01*
X162610D01*
Y176108D01*
X162622D01*
Y176096D01*
X162634D01*
Y176072D01*
X162646D01*
Y176060D01*
X162658D01*
Y176036D01*
X162670D01*
Y176012D01*
X162682D01*
Y176000D01*
X162694D01*
Y175977D01*
X162706D01*
Y175965D01*
X162718D01*
Y175941D01*
X162730D01*
Y175917D01*
X162741D01*
Y175905D01*
X162753D01*
Y175881D01*
X162765D01*
Y175858D01*
X162777D01*
Y175846D01*
X162789D01*
Y175810D01*
X162801D01*
Y175786D01*
X162813D01*
Y175774D01*
X162825D01*
Y175739D01*
X162837D01*
Y175727D01*
X162849D01*
Y175703D01*
X162861D01*
Y175667D01*
X162873D01*
Y175643D01*
X162884D01*
Y175619D01*
X162896D01*
Y175596D01*
X162908D01*
Y175572D01*
X162920D01*
Y175524D01*
X162932D01*
Y175500D01*
X162944D01*
Y175477D01*
X162956D01*
Y175441D01*
X162968D01*
Y175405D01*
X162980D01*
Y175369D01*
X162992D01*
Y175334D01*
X163004D01*
Y175298D01*
X163015D01*
Y175250D01*
X163027D01*
Y175215D01*
X163039D01*
Y175167D01*
X163051D01*
Y175107D01*
X163063D01*
Y175072D01*
X163075D01*
Y175000D01*
X163087D01*
Y174929D01*
X163099D01*
Y174869D01*
X163111D01*
Y122539D01*
X163099D01*
Y122480D01*
X163087D01*
Y122408D01*
X163075D01*
Y122337D01*
X163063D01*
Y122301D01*
X163051D01*
Y122242D01*
X163039D01*
Y122194D01*
X163027D01*
Y122170D01*
X163015D01*
Y122111D01*
X163004D01*
Y122087D01*
X162992D01*
Y122051D01*
X162980D01*
Y122003D01*
X162968D01*
Y121980D01*
X162956D01*
Y121944D01*
X162944D01*
Y121908D01*
X162932D01*
Y121884D01*
X162920D01*
Y121849D01*
X162908D01*
Y121825D01*
X162896D01*
Y121801D01*
X162884D01*
Y121765D01*
X162873D01*
Y121753D01*
X162861D01*
Y121718D01*
X162849D01*
Y121694D01*
X162837D01*
Y121682D01*
X162825D01*
Y121646D01*
X162813D01*
Y121634D01*
X162801D01*
Y121610D01*
X162789D01*
Y121587D01*
X162777D01*
Y121563D01*
X162765D01*
Y121539D01*
X162753D01*
Y121515D01*
X162741D01*
Y121503D01*
X162730D01*
Y121479D01*
X162718D01*
Y121468D01*
X162706D01*
Y121444D01*
X162694D01*
Y121420D01*
X162682D01*
Y121408D01*
X162670D01*
Y121384D01*
X162658D01*
Y121372D01*
X162646D01*
Y121349D01*
X162634D01*
Y121337D01*
X162622D01*
Y121325D01*
X162610D01*
Y121301D01*
X162599D01*
Y121289D01*
X162587D01*
Y121265D01*
X162575D01*
Y121253D01*
X162563D01*
Y121241D01*
X162551D01*
Y121229D01*
X162539D01*
Y121205D01*
X162527D01*
Y121194D01*
X162515D01*
Y121182D01*
X162503D01*
Y121158D01*
X162491D01*
Y121146D01*
X162479D01*
Y121134D01*
X162468D01*
Y121122D01*
X162456D01*
Y121110D01*
X162444D01*
Y121086D01*
X162432D01*
Y121074D01*
X162420D01*
Y121063D01*
X162408D01*
Y121051D01*
X162396D01*
Y121039D01*
X162384D01*
Y121027D01*
X162372D01*
Y121015D01*
X162360D01*
Y121003D01*
X162348D01*
Y120991D01*
X162337D01*
Y120979D01*
X162325D01*
Y120967D01*
X162313D01*
Y120955D01*
X162301D01*
Y120943D01*
X162289D01*
Y120932D01*
X162277D01*
Y120920D01*
X162265D01*
Y120908D01*
X162253D01*
Y120896D01*
X162241D01*
Y120884D01*
X162229D01*
Y120872D01*
X162217D01*
Y120860D01*
X162206D01*
Y120848D01*
X162194D01*
Y120836D01*
X162182D01*
Y120824D01*
X162170D01*
Y120812D01*
X162146D01*
Y120801D01*
X162134D01*
Y120789D01*
X162122D01*
Y120777D01*
X162110D01*
Y120765D01*
X162098D01*
Y120753D01*
X162074D01*
Y120741D01*
X162063D01*
Y120729D01*
X162051D01*
Y120717D01*
X162027D01*
Y120705D01*
X162015D01*
Y120693D01*
X162003D01*
Y120682D01*
X161979D01*
Y120670D01*
X161967D01*
Y120658D01*
X161955D01*
Y120646D01*
X161932D01*
Y120634D01*
X161920D01*
Y120622D01*
X161896D01*
Y120610D01*
X161884D01*
Y120598D01*
X161872D01*
Y120586D01*
X161848D01*
Y120574D01*
X161825D01*
Y120562D01*
X161812D01*
Y120551D01*
X161789D01*
Y120539D01*
X161777D01*
Y120527D01*
X161753D01*
Y120515D01*
X161729D01*
Y120503D01*
X161717D01*
Y120491D01*
X161694D01*
Y120479D01*
X161670D01*
Y120467D01*
X161646D01*
Y120455D01*
X161622D01*
Y120443D01*
X161598D01*
Y120431D01*
X161574D01*
Y120420D01*
X161550D01*
Y120408D01*
X161527D01*
Y120396D01*
X161503D01*
Y120384D01*
X161479D01*
Y120372D01*
X161455D01*
Y120360D01*
X161419D01*
Y120348D01*
X161396D01*
Y120336D01*
X161360D01*
Y120324D01*
X161336D01*
Y120312D01*
X161312D01*
Y120300D01*
X161265D01*
Y120289D01*
X161241D01*
Y120277D01*
X161205D01*
Y120265D01*
X161158D01*
Y120253D01*
X161134D01*
Y120241D01*
X161086D01*
Y120229D01*
X161038D01*
Y120217D01*
X161003D01*
Y120205D01*
X160943D01*
Y120193D01*
X160896D01*
Y120181D01*
X160836D01*
Y120169D01*
X160753D01*
Y120158D01*
X160681D01*
Y120146D01*
X160562D01*
Y120134D01*
X108518D01*
Y120146D01*
X108387D01*
Y120158D01*
X108316D01*
Y120169D01*
X108244D01*
Y120181D01*
X108185D01*
Y120193D01*
X108137D01*
Y120205D01*
X108078D01*
Y120217D01*
X108042D01*
Y120229D01*
X107994D01*
Y120241D01*
X107947D01*
Y120253D01*
X107911D01*
Y120265D01*
X107875D01*
Y120277D01*
X107839D01*
Y120289D01*
X107804D01*
Y120300D01*
X107768D01*
Y120312D01*
X107744D01*
Y120324D01*
X107708D01*
Y120336D01*
X107673D01*
Y120348D01*
X107649D01*
Y120360D01*
X107625D01*
Y120372D01*
X107601D01*
Y120384D01*
X107577D01*
Y120396D01*
X107542D01*
Y120408D01*
X107530D01*
Y120420D01*
X107506D01*
Y120431D01*
X107470D01*
Y120443D01*
X107458D01*
Y120455D01*
X107422D01*
Y120467D01*
X107411D01*
Y120479D01*
X107387D01*
Y120491D01*
X107363D01*
Y120503D01*
X107351D01*
Y120515D01*
X107327D01*
Y120527D01*
X107303D01*
Y120539D01*
X107291D01*
Y120551D01*
X107268D01*
Y120562D01*
X107244D01*
Y120574D01*
X107232D01*
Y120586D01*
X107208D01*
Y120598D01*
X107196D01*
Y120610D01*
X107172D01*
Y120622D01*
X107160D01*
Y120634D01*
X107149D01*
Y120646D01*
X107125D01*
Y120658D01*
X107113D01*
Y120670D01*
X107089D01*
Y120682D01*
X107077D01*
Y120693D01*
X107065D01*
Y120705D01*
X107041D01*
Y120717D01*
X107029D01*
Y120729D01*
X107018D01*
Y120741D01*
X106994D01*
Y120753D01*
X106982D01*
Y120765D01*
X106970D01*
Y120777D01*
X106958D01*
Y120789D01*
X106946D01*
Y120801D01*
X106922D01*
Y120812D01*
X106910D01*
Y120824D01*
X106898D01*
Y120836D01*
X106887D01*
Y120848D01*
X106875D01*
Y120860D01*
X106863D01*
Y120872D01*
X106851D01*
Y120884D01*
X106839D01*
Y120896D01*
X106827D01*
Y120908D01*
X106803D01*
Y120932D01*
X106779D01*
Y120943D01*
X106767D01*
Y120955D01*
X106756D01*
Y120967D01*
X106744D01*
Y120991D01*
X106732D01*
Y121003D01*
X106720D01*
Y121015D01*
X106708D01*
Y121027D01*
X106696D01*
Y121039D01*
X106684D01*
Y121051D01*
X106672D01*
Y121063D01*
X106660D01*
Y121074D01*
X106648D01*
Y121086D01*
X106637D01*
Y121098D01*
X106625D01*
Y121110D01*
X106613D01*
Y121134D01*
X106601D01*
Y121146D01*
X106589D01*
Y121158D01*
X106577D01*
Y121170D01*
X106565D01*
Y121182D01*
X106553D01*
Y121205D01*
X106541D01*
Y121218D01*
X106529D01*
Y121229D01*
X106517D01*
Y121253D01*
X106506D01*
Y121265D01*
X106494D01*
Y121277D01*
X106482D01*
Y121301D01*
X106470D01*
Y121313D01*
X106458D01*
Y121337D01*
X106446D01*
Y121349D01*
X106434D01*
Y121360D01*
X106422D01*
Y121384D01*
X106410D01*
Y121396D01*
X106398D01*
Y121420D01*
X106386D01*
Y121444D01*
X106375D01*
Y121456D01*
X106363D01*
Y121479D01*
X106351D01*
Y121491D01*
X106339D01*
Y121515D01*
X106327D01*
Y121539D01*
X106315D01*
Y121563D01*
X106303D01*
Y121575D01*
X106291D01*
Y121599D01*
X106279D01*
Y121622D01*
X106267D01*
Y121646D01*
X106255D01*
Y121670D01*
X106244D01*
Y121694D01*
X106232D01*
Y121718D01*
X106220D01*
Y121741D01*
X106208D01*
Y121765D01*
X106196D01*
Y121801D01*
X106184D01*
Y121813D01*
X106172D01*
Y121849D01*
X106160D01*
Y121884D01*
X106148D01*
Y121908D01*
X106136D01*
Y121944D01*
X106124D01*
Y121968D01*
X106113D01*
Y122003D01*
X106101D01*
Y122039D01*
X106089D01*
Y122063D01*
X106077D01*
Y122111D01*
X106065D01*
Y122158D01*
X106053D01*
Y122182D01*
X106041D01*
Y122242D01*
X106029D01*
Y122277D01*
X106017D01*
Y122337D01*
X106005D01*
Y122397D01*
X105993D01*
Y122444D01*
X105982D01*
Y122528D01*
X105970D01*
Y122635D01*
X105958D01*
Y122730D01*
X105946D01*
Y156957D01*
Y156969D01*
Y174714D01*
X105958D01*
Y174810D01*
X105970D01*
Y174917D01*
X105982D01*
Y175000D01*
X105993D01*
Y175048D01*
X106005D01*
Y175107D01*
X106017D01*
Y175167D01*
X106029D01*
Y175215D01*
X106041D01*
Y175262D01*
X106053D01*
Y175298D01*
X106065D01*
Y175334D01*
X106077D01*
Y175381D01*
X106089D01*
Y175405D01*
X106101D01*
Y175453D01*
X106113D01*
Y175477D01*
X106124D01*
Y175512D01*
X106136D01*
Y175548D01*
X106148D01*
Y175572D01*
X106160D01*
Y175596D01*
X106172D01*
Y175631D01*
X106184D01*
Y175655D01*
X106196D01*
Y175679D01*
X106208D01*
Y175715D01*
X106220D01*
Y175727D01*
X106232D01*
Y175762D01*
X106244D01*
Y175774D01*
X106255D01*
Y175798D01*
X106267D01*
Y175834D01*
X106279D01*
Y175846D01*
X106291D01*
Y175870D01*
X106303D01*
Y175893D01*
X106315D01*
Y175905D01*
X106327D01*
Y175929D01*
X106339D01*
Y175953D01*
X106351D01*
Y175977D01*
X106363D01*
Y175989D01*
X106375D01*
Y176012D01*
X106386D01*
Y176024D01*
X106398D01*
Y176048D01*
X106410D01*
Y176060D01*
X106422D01*
Y176084D01*
X106434D01*
Y176096D01*
X106446D01*
Y176120D01*
X106458D01*
Y176131D01*
X106470D01*
Y176143D01*
X106482D01*
Y176167D01*
X106494D01*
Y176179D01*
X106506D01*
Y176203D01*
X106517D01*
Y176215D01*
X106529D01*
Y176227D01*
X106541D01*
Y176239D01*
X106553D01*
Y176262D01*
X106565D01*
Y176274D01*
X106577D01*
Y176286D01*
X106589D01*
Y176298D01*
X106601D01*
Y176322D01*
X106613D01*
Y176334D01*
X106625D01*
Y176346D01*
X106637D01*
Y176358D01*
X106648D01*
Y176370D01*
X106660D01*
Y176382D01*
X106672D01*
Y176393D01*
X106684D01*
Y176417D01*
X106708D01*
Y176441D01*
X106720D01*
Y176453D01*
X106732D01*
Y176465D01*
X106744D01*
Y176477D01*
X106756D01*
Y176489D01*
X106767D01*
Y176501D01*
X106779D01*
Y176513D01*
X106791D01*
Y176524D01*
X106803D01*
Y176536D01*
X106815D01*
Y176548D01*
X106827D01*
Y176560D01*
X106839D01*
Y176572D01*
X106863D01*
Y176584D01*
X106875D01*
Y176596D01*
X106887D01*
Y176608D01*
X106898D01*
Y176620D01*
X106910D01*
Y176632D01*
X106922D01*
Y176644D01*
X106934D01*
Y176655D01*
X106946D01*
Y176667D01*
X106970D01*
Y176679D01*
X106982D01*
Y176691D01*
X106994D01*
Y176703D01*
X107018D01*
Y176715D01*
X107029D01*
Y176727D01*
X107041D01*
Y176739D01*
X107053D01*
Y176751D01*
X107077D01*
Y176763D01*
X107089D01*
Y176775D01*
X107113D01*
Y176786D01*
X107125D01*
Y176798D01*
X107137D01*
Y176810D01*
X107160D01*
Y176822D01*
X107172D01*
Y176834D01*
X107196D01*
Y176846D01*
X107208D01*
Y176858D01*
X107232D01*
Y176870D01*
X107244D01*
Y176882D01*
X107268D01*
Y176894D01*
X107280D01*
Y176906D01*
X107303D01*
Y176918D01*
X107327D01*
Y176929D01*
X107351D01*
Y176941D01*
X107363D01*
Y176953D01*
X107387D01*
Y176965D01*
X107411D01*
Y176977D01*
X107422D01*
Y176989D01*
X107458D01*
Y177001D01*
X107482D01*
Y177013D01*
X107494D01*
Y177025D01*
X107530D01*
Y177037D01*
X107542D01*
Y177049D01*
X107577D01*
Y177060D01*
X107613D01*
Y177072D01*
X107625D01*
Y177084D01*
X107661D01*
Y177096D01*
X107685D01*
Y177108D01*
X107708D01*
Y177120D01*
X107756D01*
Y177132D01*
X107780D01*
Y177144D01*
X107804D01*
Y177156D01*
X107851D01*
Y177168D01*
X107875D01*
Y177180D01*
X107923D01*
Y177191D01*
X107958D01*
Y177203D01*
X107994D01*
Y177215D01*
X108042D01*
Y177227D01*
X108089D01*
Y177239D01*
X108149D01*
Y177251D01*
X108209D01*
Y177263D01*
X108268D01*
Y177275D01*
X108340D01*
Y177287D01*
X108447D01*
Y177299D01*
X108542D01*
Y177311D01*
X160514D01*
Y177299D01*
D02*
G37*
G36*
X155905Y117930D02*
X156156D01*
Y117919D01*
X156358D01*
Y117907D01*
X156489D01*
Y117895D01*
X156584D01*
Y117883D01*
X156703D01*
Y117871D01*
X156775D01*
Y117859D01*
X156870D01*
Y117847D01*
X156954D01*
Y117835D01*
X157001D01*
Y117823D01*
X157085D01*
Y117811D01*
X157144D01*
Y117799D01*
X157204D01*
Y117788D01*
X157263D01*
Y117776D01*
X157311D01*
Y117764D01*
X157370D01*
Y117752D01*
X157430D01*
Y117740D01*
X157466D01*
Y117728D01*
X157525D01*
Y117716D01*
X157573D01*
Y117704D01*
X157608D01*
Y117692D01*
X157668D01*
Y117680D01*
X157704D01*
Y117668D01*
X157751D01*
Y117657D01*
X157799D01*
Y117645D01*
X157823D01*
Y117633D01*
X157870D01*
Y117621D01*
X157906D01*
Y117609D01*
X157942D01*
Y117597D01*
X157990D01*
Y117585D01*
X158025D01*
Y117573D01*
X158061D01*
Y117561D01*
X158097D01*
Y117549D01*
X158121D01*
Y117537D01*
X158168D01*
Y117525D01*
X158204D01*
Y117514D01*
X158228D01*
Y117502D01*
X158264D01*
Y117490D01*
X158287D01*
Y117478D01*
X158335D01*
Y117466D01*
X158359D01*
Y117454D01*
X158383D01*
Y117442D01*
X158430D01*
Y117430D01*
X158454D01*
Y117418D01*
X158478D01*
Y117406D01*
X158514D01*
Y117395D01*
X158537D01*
Y117383D01*
X158573D01*
Y117371D01*
X158597D01*
Y117359D01*
X158621D01*
Y117347D01*
X158657D01*
Y117335D01*
X158680D01*
Y117323D01*
X158704D01*
Y117311D01*
X158740D01*
Y117299D01*
X158764D01*
Y117287D01*
X158788D01*
Y117276D01*
X158823D01*
Y117264D01*
X158835D01*
Y117252D01*
X158871D01*
Y117240D01*
X158895D01*
Y117228D01*
X158919D01*
Y117216D01*
X158942D01*
Y117204D01*
X158966D01*
Y117192D01*
X158990D01*
Y117180D01*
X159014D01*
Y117168D01*
X159038D01*
Y117156D01*
X159062D01*
Y117145D01*
X159085D01*
Y117132D01*
X159109D01*
Y117121D01*
X159133D01*
Y117109D01*
X159157D01*
Y117097D01*
X159181D01*
Y117085D01*
X159204D01*
Y117073D01*
X159216D01*
Y117061D01*
X159240D01*
Y117049D01*
X159264D01*
Y117037D01*
X159288D01*
Y117025D01*
X159312D01*
Y117013D01*
X159324D01*
Y117001D01*
X159347D01*
Y116990D01*
X159371D01*
Y116978D01*
X159395D01*
Y116966D01*
X159419D01*
Y116954D01*
X159431D01*
Y116942D01*
X159455D01*
Y116930D01*
X159478D01*
Y116918D01*
X159490D01*
Y116906D01*
X159514D01*
Y116894D01*
X159538D01*
Y116882D01*
X159550D01*
Y116870D01*
X159574D01*
Y116859D01*
X159597D01*
Y116847D01*
X159609D01*
Y116835D01*
X159633D01*
Y116823D01*
X159645D01*
Y116811D01*
X159669D01*
Y116799D01*
X159693D01*
Y116787D01*
X159705D01*
Y116775D01*
X159728D01*
Y116763D01*
X159740D01*
Y116751D01*
X159764D01*
Y116739D01*
X159788D01*
Y116728D01*
X159800D01*
Y116716D01*
X159812D01*
Y116704D01*
X159836D01*
Y116692D01*
X159847D01*
Y116680D01*
X159871D01*
Y116668D01*
X159883D01*
Y116656D01*
X159907D01*
Y116644D01*
X159919D01*
Y116632D01*
X159943D01*
Y116620D01*
X159955D01*
Y116609D01*
X159978D01*
Y116597D01*
X159990D01*
Y116585D01*
X160002D01*
Y116573D01*
X160026D01*
Y116561D01*
X160038D01*
Y116549D01*
X160062D01*
Y116537D01*
X160074D01*
Y116525D01*
X160086D01*
Y116513D01*
X160109D01*
Y116501D01*
X160121D01*
Y116489D01*
X160133D01*
Y116478D01*
X160157D01*
Y116466D01*
X160169D01*
Y116454D01*
X160181D01*
Y116442D01*
X160205D01*
Y116430D01*
X160217D01*
Y116418D01*
X160229D01*
Y116406D01*
X160240D01*
Y116394D01*
X160264D01*
Y116382D01*
X160276D01*
Y116370D01*
X160288D01*
Y116358D01*
X160312D01*
Y116347D01*
X160324D01*
Y116335D01*
X160336D01*
Y116323D01*
X160348D01*
Y116311D01*
X160371D01*
Y116299D01*
X160383D01*
Y116287D01*
X160395D01*
Y116275D01*
X160407D01*
Y116263D01*
X160431D01*
Y116251D01*
X160443D01*
Y116239D01*
X160455D01*
Y116227D01*
X160467D01*
Y116216D01*
X160479D01*
Y116204D01*
X160503D01*
Y116192D01*
X160514D01*
Y116180D01*
X160526D01*
Y116168D01*
X160538D01*
Y116156D01*
X160550D01*
Y116144D01*
X160562D01*
Y116132D01*
X160586D01*
Y116120D01*
X160598D01*
Y116108D01*
X160610D01*
Y116096D01*
X160622D01*
Y116085D01*
X160634D01*
Y116073D01*
X160645D01*
Y116061D01*
X160657D01*
Y116049D01*
X160669D01*
Y116037D01*
X160681D01*
Y116025D01*
X160693D01*
Y116013D01*
X160717D01*
Y116001D01*
X160729D01*
Y115989D01*
X160741D01*
Y115977D01*
X160753D01*
Y115965D01*
X160765D01*
Y115954D01*
X160776D01*
Y115942D01*
X160788D01*
Y115930D01*
X160800D01*
Y115918D01*
X160812D01*
Y115906D01*
X160824D01*
Y115894D01*
X160836D01*
Y115882D01*
X160848D01*
Y115870D01*
X160860D01*
Y115858D01*
X160872D01*
Y115846D01*
X160884D01*
Y115834D01*
X160896D01*
Y115823D01*
X160919D01*
Y115799D01*
X160931D01*
Y115787D01*
X160955D01*
Y115763D01*
X160979D01*
Y115739D01*
X160991D01*
Y115727D01*
X161003D01*
Y115715D01*
X161015D01*
Y115703D01*
X161027D01*
Y115691D01*
X161038D01*
Y115680D01*
X161050D01*
Y115668D01*
X161062D01*
Y115656D01*
X161074D01*
Y115644D01*
X161086D01*
Y115632D01*
X161098D01*
Y115620D01*
X161110D01*
Y115608D01*
X161122D01*
Y115596D01*
X161134D01*
Y115584D01*
X161146D01*
Y115572D01*
X161158D01*
Y115560D01*
X161169D01*
Y115537D01*
X161181D01*
Y115525D01*
X161193D01*
Y115513D01*
X161205D01*
Y115501D01*
X161217D01*
Y115489D01*
X161229D01*
Y115477D01*
X161241D01*
Y115465D01*
X161253D01*
Y115453D01*
X161265D01*
Y115441D01*
X161277D01*
Y115418D01*
X161288D01*
Y115406D01*
X161300D01*
Y115394D01*
X161312D01*
Y115382D01*
X161324D01*
Y115370D01*
X161336D01*
Y115358D01*
X161348D01*
Y115346D01*
X161360D01*
Y115322D01*
X161372D01*
Y115310D01*
X161384D01*
Y115298D01*
X161396D01*
Y115287D01*
X161408D01*
Y115263D01*
X161419D01*
Y115251D01*
X161431D01*
Y115239D01*
X161443D01*
Y115227D01*
X161455D01*
Y115215D01*
X161467D01*
Y115191D01*
X161479D01*
Y115179D01*
X161491D01*
Y115167D01*
X161503D01*
Y115156D01*
X161515D01*
Y115132D01*
X161527D01*
Y115120D01*
X161539D01*
Y115108D01*
X161550D01*
Y115084D01*
X161562D01*
Y115072D01*
X161574D01*
Y115060D01*
X161586D01*
Y115048D01*
X161598D01*
Y115025D01*
X161610D01*
Y115013D01*
X161622D01*
Y114989D01*
X161634D01*
Y114977D01*
X161646D01*
Y114965D01*
X161658D01*
Y114953D01*
X161670D01*
Y114929D01*
X161681D01*
Y114917D01*
X161694D01*
Y114894D01*
X161705D01*
Y114882D01*
X161717D01*
Y114870D01*
X161729D01*
Y114846D01*
X161741D01*
Y114834D01*
X161753D01*
Y114810D01*
X161765D01*
Y114798D01*
X161777D01*
Y114775D01*
X161789D01*
Y114763D01*
X161801D01*
Y114751D01*
X161812D01*
Y114727D01*
X161825D01*
Y114715D01*
X161836D01*
Y114691D01*
X161848D01*
Y114679D01*
X161860D01*
Y114655D01*
X161872D01*
Y114644D01*
X161884D01*
Y114620D01*
X161896D01*
Y114608D01*
X161908D01*
Y114584D01*
X161920D01*
Y114572D01*
X161932D01*
Y114548D01*
X161943D01*
Y114524D01*
X161955D01*
Y114513D01*
X161967D01*
Y114489D01*
X161979D01*
Y114477D01*
X161991D01*
Y114453D01*
X162003D01*
Y114429D01*
X162015D01*
Y114417D01*
X162027D01*
Y114393D01*
X162039D01*
Y114382D01*
X162051D01*
Y114358D01*
X162063D01*
Y114334D01*
X162074D01*
Y114322D01*
X162086D01*
Y114298D01*
X162098D01*
Y114274D01*
X162110D01*
Y114262D01*
X162122D01*
Y114239D01*
X162134D01*
Y114215D01*
X162146D01*
Y114191D01*
X162158D01*
Y114167D01*
X162170D01*
Y114155D01*
X162182D01*
Y114131D01*
X162194D01*
Y114108D01*
X162206D01*
Y114084D01*
X162217D01*
Y114060D01*
X162229D01*
Y114036D01*
X162241D01*
Y114024D01*
X162253D01*
Y113988D01*
X162265D01*
Y113977D01*
X162277D01*
Y113953D01*
X162289D01*
Y113917D01*
X162301D01*
Y113905D01*
X162313D01*
Y113881D01*
X162325D01*
Y113857D01*
X162337D01*
Y113834D01*
X162348D01*
Y113798D01*
X162360D01*
Y113786D01*
X162372D01*
Y113762D01*
X162384D01*
Y113726D01*
X162396D01*
Y113715D01*
X162408D01*
Y113679D01*
X162420D01*
Y113655D01*
X162432D01*
Y113631D01*
X162444D01*
Y113595D01*
X162456D01*
Y113584D01*
X162468D01*
Y113548D01*
X162479D01*
Y113512D01*
X162491D01*
Y113500D01*
X162503D01*
Y113464D01*
X162515D01*
Y113441D01*
X162527D01*
Y113417D01*
X162539D01*
Y113381D01*
X162551D01*
Y113357D01*
X162563D01*
Y113322D01*
X162575D01*
Y113286D01*
X162587D01*
Y113262D01*
X162599D01*
Y113226D01*
X162610D01*
Y113191D01*
X162622D01*
Y113167D01*
X162634D01*
Y113131D01*
X162646D01*
Y113107D01*
X162658D01*
Y113072D01*
X162670D01*
Y113036D01*
X162682D01*
Y113000D01*
X162694D01*
Y112964D01*
X162706D01*
Y112928D01*
X162718D01*
Y112905D01*
X162730D01*
Y112857D01*
X162741D01*
Y112821D01*
X162753D01*
Y112786D01*
X162765D01*
Y112738D01*
X162777D01*
Y112714D01*
X162789D01*
Y112666D01*
X162801D01*
Y112619D01*
X162813D01*
Y112583D01*
X162825D01*
Y112536D01*
X162837D01*
Y112500D01*
X162849D01*
Y112452D01*
X162861D01*
Y112393D01*
X162873D01*
Y112357D01*
X162884D01*
Y112297D01*
X162896D01*
Y112250D01*
X162908D01*
Y112214D01*
X162920D01*
Y112143D01*
X162932D01*
Y112095D01*
X162944D01*
Y112035D01*
X162956D01*
Y111964D01*
X162968D01*
Y111916D01*
X162980D01*
Y111833D01*
X162992D01*
Y111761D01*
X163004D01*
Y111702D01*
X163015D01*
Y111595D01*
X163027D01*
Y111523D01*
X163039D01*
Y111416D01*
X163051D01*
Y111285D01*
X163063D01*
Y111178D01*
X163075D01*
Y110963D01*
X163087D01*
Y110201D01*
X163075D01*
Y109987D01*
X163063D01*
Y109880D01*
X163051D01*
Y109749D01*
X163039D01*
Y109642D01*
X163027D01*
Y109570D01*
X163015D01*
Y109463D01*
X163004D01*
Y109403D01*
X162992D01*
Y109332D01*
X162980D01*
Y109249D01*
X162968D01*
Y109201D01*
X162956D01*
Y109130D01*
X162944D01*
Y109070D01*
X162932D01*
Y109022D01*
X162920D01*
Y108951D01*
X162908D01*
Y108903D01*
X162896D01*
Y108855D01*
X162884D01*
Y108796D01*
X162873D01*
Y108760D01*
X162861D01*
Y108713D01*
X162849D01*
Y108665D01*
X162837D01*
Y108629D01*
X162825D01*
Y108582D01*
X162813D01*
Y108534D01*
X162801D01*
Y108498D01*
X162789D01*
Y108451D01*
X162777D01*
Y108427D01*
X162765D01*
Y108379D01*
X162753D01*
Y108343D01*
X162741D01*
Y108308D01*
X162730D01*
Y108260D01*
X162718D01*
Y108236D01*
X162706D01*
Y108201D01*
X162694D01*
Y108153D01*
X162682D01*
Y108129D01*
X162670D01*
Y108093D01*
X162658D01*
Y108058D01*
X162646D01*
Y108034D01*
X162634D01*
Y107986D01*
X162622D01*
Y107962D01*
X162610D01*
Y107939D01*
X162599D01*
Y107903D01*
X162587D01*
Y107879D01*
X162575D01*
Y107843D01*
X162563D01*
Y107808D01*
X162551D01*
Y107784D01*
X162539D01*
Y107748D01*
X162527D01*
Y107724D01*
X162515D01*
Y107700D01*
X162503D01*
Y107665D01*
X162491D01*
Y107641D01*
X162479D01*
Y107617D01*
X162468D01*
Y107581D01*
X162456D01*
Y107557D01*
X162444D01*
Y107534D01*
X162432D01*
Y107510D01*
X162420D01*
Y107486D01*
X162408D01*
Y107450D01*
X162396D01*
Y107438D01*
X162384D01*
Y107403D01*
X162372D01*
Y107379D01*
X162360D01*
Y107355D01*
X162348D01*
Y107331D01*
X162337D01*
Y107307D01*
X162325D01*
Y107283D01*
X162313D01*
Y107260D01*
X162301D01*
Y107236D01*
X162289D01*
Y107212D01*
X162277D01*
Y107188D01*
X162265D01*
Y107164D01*
X162253D01*
Y107141D01*
X162241D01*
Y107129D01*
X162229D01*
Y107105D01*
X162217D01*
Y107069D01*
X162206D01*
Y107057D01*
X162194D01*
Y107033D01*
X162182D01*
Y107010D01*
X162170D01*
Y106998D01*
X162158D01*
Y106962D01*
X162146D01*
Y106950D01*
X162134D01*
Y106926D01*
X162122D01*
Y106902D01*
X162110D01*
Y106890D01*
X162098D01*
Y106867D01*
X162086D01*
Y106843D01*
X162074D01*
Y106831D01*
X162063D01*
Y106807D01*
X162051D01*
Y106783D01*
X162039D01*
Y106771D01*
X162027D01*
Y106748D01*
X162015D01*
Y106724D01*
X162003D01*
Y106712D01*
X161991D01*
Y106688D01*
X161979D01*
Y106676D01*
X161967D01*
Y106652D01*
X161955D01*
Y106629D01*
X161943D01*
Y106617D01*
X161932D01*
Y106593D01*
X161920D01*
Y106581D01*
X161908D01*
Y106557D01*
X161896D01*
Y106533D01*
X161884D01*
Y106521D01*
X161872D01*
Y106498D01*
X161860D01*
Y106486D01*
X161848D01*
Y106462D01*
X161836D01*
Y106450D01*
X161825D01*
Y106438D01*
X161812D01*
Y106414D01*
X161801D01*
Y106390D01*
X161789D01*
Y106378D01*
X161777D01*
Y106367D01*
X161765D01*
Y106343D01*
X161753D01*
Y106331D01*
X161741D01*
Y106307D01*
X161729D01*
Y106295D01*
X161717D01*
Y106283D01*
X161705D01*
Y106259D01*
X161694D01*
Y106247D01*
X161681D01*
Y106224D01*
X161670D01*
Y106212D01*
X161658D01*
Y106200D01*
X161646D01*
Y106176D01*
X161634D01*
Y106164D01*
X161622D01*
Y106152D01*
X161610D01*
Y106128D01*
X161598D01*
Y106116D01*
X161586D01*
Y106105D01*
X161574D01*
Y106081D01*
X161562D01*
Y106069D01*
X161550D01*
Y106057D01*
X161539D01*
Y106045D01*
X161527D01*
Y106021D01*
X161515D01*
Y106009D01*
X161503D01*
Y105997D01*
X161491D01*
Y105973D01*
X161479D01*
Y105962D01*
X161467D01*
Y105950D01*
X161455D01*
Y105938D01*
X161443D01*
Y105926D01*
X161431D01*
Y105902D01*
X161419D01*
Y105890D01*
X161408D01*
Y105878D01*
X161396D01*
Y105866D01*
X161384D01*
Y105854D01*
X161372D01*
Y105831D01*
X161360D01*
Y105819D01*
X161348D01*
Y105807D01*
X161336D01*
Y105795D01*
X161324D01*
Y105771D01*
X161312D01*
Y105759D01*
X161300D01*
Y105747D01*
X161288D01*
Y105735D01*
X161277D01*
Y105723D01*
X161265D01*
Y105711D01*
X161253D01*
Y105700D01*
X161241D01*
Y105688D01*
X161229D01*
Y105664D01*
X161217D01*
Y105652D01*
X161205D01*
Y105640D01*
X161193D01*
Y105628D01*
X161181D01*
Y105616D01*
X161169D01*
Y105604D01*
X161158D01*
Y105592D01*
X161146D01*
Y105580D01*
X161134D01*
Y105569D01*
X161122D01*
Y105557D01*
X161110D01*
Y105533D01*
X161098D01*
Y105521D01*
X161086D01*
Y105509D01*
X161074D01*
Y105497D01*
X161062D01*
Y105485D01*
X161050D01*
Y105473D01*
X161038D01*
Y105461D01*
X161027D01*
Y105449D01*
X161015D01*
Y105438D01*
X161003D01*
Y105426D01*
X160991D01*
Y105414D01*
X160979D01*
Y105402D01*
X160967D01*
Y105390D01*
X160955D01*
Y105378D01*
X160943D01*
Y105366D01*
X160931D01*
Y105354D01*
X160919D01*
Y105342D01*
X160907D01*
Y105330D01*
X160896D01*
Y105318D01*
X160884D01*
Y105307D01*
X160872D01*
Y105295D01*
X160860D01*
Y105283D01*
X160848D01*
Y105271D01*
X160836D01*
Y105259D01*
X160824D01*
Y105247D01*
X160812D01*
Y105235D01*
X160800D01*
Y105223D01*
X160788D01*
Y105211D01*
X160765D01*
Y105187D01*
X160741D01*
Y105175D01*
X160729D01*
Y105164D01*
X160717D01*
Y105152D01*
X160705D01*
Y105140D01*
X160693D01*
Y105128D01*
X160681D01*
Y105116D01*
X160669D01*
Y105104D01*
X160657D01*
Y105092D01*
X160645D01*
Y105080D01*
X160634D01*
Y105068D01*
X160610D01*
Y105057D01*
X160598D01*
Y105045D01*
X160586D01*
Y105033D01*
X160574D01*
Y105021D01*
X160562D01*
Y105009D01*
X160550D01*
Y104997D01*
X160538D01*
Y104985D01*
X160514D01*
Y104973D01*
X160503D01*
Y104961D01*
X160491D01*
Y104949D01*
X160479D01*
Y104937D01*
X160467D01*
Y104926D01*
X160443D01*
Y104914D01*
X160431D01*
Y104902D01*
X160419D01*
Y104890D01*
X160407D01*
Y104878D01*
X160395D01*
Y104866D01*
X160371D01*
Y104854D01*
X160360D01*
Y104842D01*
X160348D01*
Y104830D01*
X160336D01*
Y104818D01*
X160324D01*
Y104806D01*
X160300D01*
Y104795D01*
X160288D01*
Y104782D01*
X160276D01*
Y104771D01*
X160252D01*
Y104759D01*
X160240D01*
Y104747D01*
X160229D01*
Y104735D01*
X160217D01*
Y104723D01*
X160193D01*
Y104711D01*
X160181D01*
Y104699D01*
X160169D01*
Y104687D01*
X160157D01*
Y104675D01*
X160133D01*
Y104663D01*
X160121D01*
Y104651D01*
X160098D01*
Y104640D01*
X160086D01*
Y104628D01*
X160074D01*
Y104616D01*
X160050D01*
Y104604D01*
X160038D01*
Y104592D01*
X160026D01*
Y104580D01*
X160002D01*
Y104568D01*
X159990D01*
Y104556D01*
X159967D01*
Y104544D01*
X159955D01*
Y104532D01*
X159943D01*
Y104520D01*
X159919D01*
Y104509D01*
X159895D01*
Y104497D01*
X159883D01*
Y104485D01*
X159871D01*
Y104473D01*
X159847D01*
Y104461D01*
X159836D01*
Y104449D01*
X159812D01*
Y104437D01*
X159800D01*
Y104425D01*
X159776D01*
Y104413D01*
X159764D01*
Y104401D01*
X159740D01*
Y104390D01*
X159716D01*
Y104378D01*
X159705D01*
Y104366D01*
X159693D01*
Y104354D01*
X159669D01*
Y104342D01*
X159645D01*
Y104330D01*
X159633D01*
Y104318D01*
X159609D01*
Y104306D01*
X159597D01*
Y104294D01*
X159574D01*
Y104282D01*
X159550D01*
Y104270D01*
X159538D01*
Y104259D01*
X159514D01*
Y104247D01*
X159490D01*
Y104235D01*
X159478D01*
Y104223D01*
X159455D01*
Y104211D01*
X159431D01*
Y104199D01*
X159407D01*
Y104187D01*
X159395D01*
Y104175D01*
X159371D01*
Y104163D01*
X159347D01*
Y104151D01*
X159335D01*
Y104139D01*
X159312D01*
Y104128D01*
X159288D01*
Y104116D01*
X159264D01*
Y104104D01*
X159240D01*
Y104092D01*
X159216D01*
Y104080D01*
X159204D01*
Y104068D01*
X159169D01*
Y104056D01*
X159157D01*
Y104044D01*
X159133D01*
Y104032D01*
X159109D01*
Y104020D01*
X159085D01*
Y104008D01*
X159062D01*
Y103997D01*
X159038D01*
Y103985D01*
X159014D01*
Y103973D01*
X158990D01*
Y103961D01*
X158966D01*
Y103949D01*
X158942D01*
Y103937D01*
X158919D01*
Y103925D01*
X158895D01*
Y103913D01*
X158871D01*
Y103901D01*
X158847D01*
Y103889D01*
X158823D01*
Y103877D01*
X158788D01*
Y103866D01*
X158764D01*
Y103854D01*
X158740D01*
Y103842D01*
X158704D01*
Y103830D01*
X158692D01*
Y103818D01*
X158657D01*
Y103806D01*
X158633D01*
Y103794D01*
X158609D01*
Y103782D01*
X158573D01*
Y103770D01*
X158549D01*
Y103758D01*
X158514D01*
Y103746D01*
X158478D01*
Y103735D01*
X158466D01*
Y103723D01*
X158430D01*
Y103711D01*
X158395D01*
Y103699D01*
X158371D01*
Y103687D01*
X158335D01*
Y103675D01*
X158311D01*
Y103663D01*
X158275D01*
Y103651D01*
X158240D01*
Y103639D01*
X158216D01*
Y103627D01*
X158168D01*
Y103615D01*
X158133D01*
Y103603D01*
X158109D01*
Y103592D01*
X158061D01*
Y103580D01*
X158037D01*
Y103568D01*
X158001D01*
Y103556D01*
X157954D01*
Y103544D01*
X157930D01*
Y103532D01*
X157882D01*
Y103520D01*
X157847D01*
Y103508D01*
X157811D01*
Y103496D01*
X157763D01*
Y103484D01*
X157728D01*
Y103472D01*
X157680D01*
Y103461D01*
X157632D01*
Y103449D01*
X157597D01*
Y103437D01*
X157537D01*
Y103425D01*
X157489D01*
Y103413D01*
X157454D01*
Y103401D01*
X157394D01*
Y103389D01*
X157346D01*
Y103377D01*
X157287D01*
Y103365D01*
X157227D01*
Y103353D01*
X157180D01*
Y103341D01*
X157108D01*
Y103330D01*
X157049D01*
Y103318D01*
X156989D01*
Y103306D01*
X156906D01*
Y103294D01*
X156834D01*
Y103282D01*
X156751D01*
Y103270D01*
X156644D01*
Y103258D01*
X156572D01*
Y103246D01*
X156441D01*
Y103234D01*
X156298D01*
Y103222D01*
X156167D01*
Y103210D01*
X112865D01*
Y103222D01*
X112734D01*
Y103234D01*
X112591D01*
Y103246D01*
X112460D01*
Y103258D01*
X112389D01*
Y103270D01*
X112294D01*
Y103282D01*
X112198D01*
Y103294D01*
X112139D01*
Y103306D01*
X112043D01*
Y103318D01*
X111996D01*
Y103330D01*
X111924D01*
Y103341D01*
X111853D01*
Y103353D01*
X111805D01*
Y103365D01*
X111746D01*
Y103377D01*
X111686D01*
Y103389D01*
X111650D01*
Y103401D01*
X111591D01*
Y103413D01*
X111543D01*
Y103425D01*
X111495D01*
Y103437D01*
X111448D01*
Y103449D01*
X111412D01*
Y103461D01*
X111353D01*
Y103472D01*
X111317D01*
Y103484D01*
X111281D01*
Y103496D01*
X111233D01*
Y103508D01*
X111198D01*
Y103520D01*
X111162D01*
Y103532D01*
X111102D01*
Y103544D01*
X111079D01*
Y103556D01*
X111043D01*
Y103568D01*
X111007D01*
Y103580D01*
X110971D01*
Y103592D01*
X110924D01*
Y103603D01*
X110900D01*
Y103615D01*
X110864D01*
Y103627D01*
X110829D01*
Y103639D01*
X110805D01*
Y103651D01*
X110757D01*
Y103663D01*
X110733D01*
Y103675D01*
X110710D01*
Y103687D01*
X110662D01*
Y103699D01*
X110638D01*
Y103711D01*
X110602D01*
Y103723D01*
X110579D01*
Y103735D01*
X110555D01*
Y103746D01*
X110519D01*
Y103758D01*
X110483D01*
Y103770D01*
X110471D01*
Y103782D01*
X110424D01*
Y103794D01*
X110412D01*
Y103806D01*
X110376D01*
Y103818D01*
X110352D01*
Y103830D01*
X110328D01*
Y103842D01*
X110293D01*
Y103854D01*
X110269D01*
Y103866D01*
X110245D01*
Y103877D01*
X110221D01*
Y103889D01*
X110197D01*
Y103901D01*
X110174D01*
Y103913D01*
X110138D01*
Y103925D01*
X110126D01*
Y103937D01*
X110090D01*
Y103949D01*
X110066D01*
Y103961D01*
X110055D01*
Y103973D01*
X110019D01*
Y103985D01*
X109995D01*
Y103997D01*
X109971D01*
Y104008D01*
X109947D01*
Y104020D01*
X109935D01*
Y104032D01*
X109900D01*
Y104044D01*
X109876D01*
Y104056D01*
X109864D01*
Y104068D01*
X109840D01*
Y104080D01*
X109816D01*
Y104092D01*
X109792D01*
Y104104D01*
X109769D01*
Y104116D01*
X109757D01*
Y104128D01*
X109733D01*
Y104139D01*
X109709D01*
Y104151D01*
X109685D01*
Y104163D01*
X109661D01*
Y104175D01*
X109650D01*
Y104187D01*
X109626D01*
Y104199D01*
X109602D01*
Y104211D01*
X109590D01*
Y104223D01*
X109566D01*
Y104235D01*
X109542D01*
Y104247D01*
X109530D01*
Y104259D01*
X109495D01*
Y104270D01*
X109483D01*
Y104282D01*
X109471D01*
Y104294D01*
X109447D01*
Y104306D01*
X109423D01*
Y104318D01*
X109411D01*
Y104330D01*
X109388D01*
Y104342D01*
X109376D01*
Y104354D01*
X109352D01*
Y104366D01*
X109328D01*
Y104378D01*
X109316D01*
Y104390D01*
X109292D01*
Y104401D01*
X109280D01*
Y104413D01*
X109257D01*
Y104425D01*
X109245D01*
Y104437D01*
X109221D01*
Y104449D01*
X109197D01*
Y104461D01*
X109185D01*
Y104473D01*
X109173D01*
Y104485D01*
X109149D01*
Y104497D01*
X109137D01*
Y104509D01*
X109114D01*
Y104520D01*
X109102D01*
Y104532D01*
X109090D01*
Y104544D01*
X109066D01*
Y104556D01*
X109054D01*
Y104568D01*
X109030D01*
Y104580D01*
X109018D01*
Y104592D01*
X109007D01*
Y104604D01*
X108983D01*
Y104616D01*
X108971D01*
Y104628D01*
X108947D01*
Y104640D01*
X108935D01*
Y104651D01*
X108923D01*
Y104663D01*
X108899D01*
Y104675D01*
X108887D01*
Y104687D01*
X108876D01*
Y104699D01*
X108852D01*
Y104711D01*
X108840D01*
Y104723D01*
X108828D01*
Y104735D01*
X108804D01*
Y104747D01*
X108792D01*
Y104759D01*
X108780D01*
Y104771D01*
X108756D01*
Y104782D01*
X108745D01*
Y104795D01*
X108732D01*
Y104806D01*
X108721D01*
Y104818D01*
X108709D01*
Y104830D01*
X108685D01*
Y104842D01*
X108673D01*
Y104854D01*
X108661D01*
Y104866D01*
X108637D01*
Y104878D01*
X108625D01*
Y104890D01*
X108614D01*
Y104902D01*
X108601D01*
Y104914D01*
X108590D01*
Y104926D01*
X108578D01*
Y104937D01*
X108554D01*
Y104949D01*
X108542D01*
Y104961D01*
X108530D01*
Y104973D01*
X108518D01*
Y104985D01*
X108506D01*
Y104997D01*
X108482D01*
Y105009D01*
X108470D01*
Y105021D01*
X108459D01*
Y105033D01*
X108447D01*
Y105045D01*
X108435D01*
Y105057D01*
X108423D01*
Y105068D01*
X108411D01*
Y105080D01*
X108399D01*
Y105092D01*
X108375D01*
Y105104D01*
X108363D01*
Y105116D01*
X108351D01*
Y105128D01*
X108340D01*
Y105140D01*
X108328D01*
Y105152D01*
X108316D01*
Y105164D01*
X108304D01*
Y105175D01*
X108292D01*
Y105187D01*
X108280D01*
Y105199D01*
X108268D01*
Y105211D01*
X108256D01*
Y105223D01*
X108244D01*
Y105235D01*
X108232D01*
Y105247D01*
X108209D01*
Y105271D01*
X108197D01*
Y105283D01*
X108173D01*
Y105295D01*
X108161D01*
Y105307D01*
X108149D01*
Y105318D01*
X108137D01*
Y105330D01*
X108125D01*
Y105342D01*
X108113D01*
Y105354D01*
X108101D01*
Y105366D01*
X108089D01*
Y105378D01*
X108078D01*
Y105390D01*
X108066D01*
Y105402D01*
X108054D01*
Y105414D01*
X108042D01*
Y105438D01*
X108018D01*
Y105449D01*
X108006D01*
Y105473D01*
X107982D01*
Y105497D01*
X107970D01*
Y105509D01*
X107958D01*
Y105521D01*
X107947D01*
Y105533D01*
X107935D01*
Y105545D01*
X107923D01*
Y105557D01*
X107911D01*
Y105569D01*
X107899D01*
Y105580D01*
X107887D01*
Y105592D01*
X107875D01*
Y105604D01*
X107863D01*
Y105616D01*
X107851D01*
Y105628D01*
X107839D01*
Y105640D01*
X107827D01*
Y105664D01*
X107816D01*
Y105676D01*
X107804D01*
Y105688D01*
X107792D01*
Y105700D01*
X107780D01*
Y105711D01*
X107768D01*
Y105723D01*
X107756D01*
Y105747D01*
X107744D01*
Y105759D01*
X107732D01*
Y105771D01*
X107720D01*
Y105783D01*
X107708D01*
Y105795D01*
X107696D01*
Y105807D01*
X107685D01*
Y105831D01*
X107673D01*
Y105842D01*
X107661D01*
Y105854D01*
X107649D01*
Y105866D01*
X107637D01*
Y105878D01*
X107625D01*
Y105890D01*
X107613D01*
Y105914D01*
X107601D01*
Y105926D01*
X107589D01*
Y105938D01*
X107577D01*
Y105950D01*
X107565D01*
Y105973D01*
X107554D01*
Y105985D01*
X107542D01*
Y105997D01*
X107530D01*
Y106009D01*
X107518D01*
Y106033D01*
X107506D01*
Y106045D01*
X107494D01*
Y106057D01*
X107482D01*
Y106069D01*
X107470D01*
Y106093D01*
X107458D01*
Y106105D01*
X107446D01*
Y106116D01*
X107434D01*
Y106140D01*
X107422D01*
Y106152D01*
X107411D01*
Y106164D01*
X107399D01*
Y106188D01*
X107387D01*
Y106200D01*
X107375D01*
Y106224D01*
X107363D01*
Y106236D01*
X107351D01*
Y106247D01*
X107339D01*
Y106271D01*
X107327D01*
Y106283D01*
X107315D01*
Y106295D01*
X107303D01*
Y106319D01*
X107291D01*
Y106331D01*
X107280D01*
Y106355D01*
X107268D01*
Y106367D01*
X107256D01*
Y106378D01*
X107244D01*
Y106402D01*
X107232D01*
Y106414D01*
X107220D01*
Y106438D01*
X107208D01*
Y106450D01*
X107196D01*
Y106474D01*
X107184D01*
Y106486D01*
X107172D01*
Y106509D01*
X107160D01*
Y106521D01*
X107149D01*
Y106545D01*
X107137D01*
Y106557D01*
X107125D01*
Y106581D01*
X107113D01*
Y106593D01*
X107101D01*
Y106617D01*
X107089D01*
Y106640D01*
X107077D01*
Y106652D01*
X107065D01*
Y106676D01*
X107053D01*
Y106700D01*
X107041D01*
Y106712D01*
X107029D01*
Y106736D01*
X107018D01*
Y106748D01*
X107006D01*
Y106771D01*
X106994D01*
Y106795D01*
X106982D01*
Y106807D01*
X106970D01*
Y106831D01*
X106958D01*
Y106855D01*
X106946D01*
Y106867D01*
X106934D01*
Y106890D01*
X106922D01*
Y106914D01*
X106910D01*
Y106926D01*
X106898D01*
Y106962D01*
X106887D01*
Y106974D01*
X106875D01*
Y106998D01*
X106863D01*
Y107021D01*
X106851D01*
Y107033D01*
X106839D01*
Y107057D01*
X106827D01*
Y107081D01*
X106815D01*
Y107105D01*
X106803D01*
Y107129D01*
X106791D01*
Y107152D01*
X106779D01*
Y107176D01*
X106767D01*
Y107200D01*
X106756D01*
Y107212D01*
X106744D01*
Y107248D01*
X106732D01*
Y107272D01*
X106720D01*
Y107283D01*
X106708D01*
Y107319D01*
X106696D01*
Y107343D01*
X106684D01*
Y107355D01*
X106672D01*
Y107391D01*
X106660D01*
Y107414D01*
X106648D01*
Y107438D01*
X106637D01*
Y107462D01*
X106625D01*
Y107486D01*
X106613D01*
Y107522D01*
X106601D01*
Y107534D01*
X106589D01*
Y107569D01*
X106577D01*
Y107593D01*
X106565D01*
Y107617D01*
X106553D01*
Y107653D01*
X106541D01*
Y107676D01*
X106529D01*
Y107700D01*
X106517D01*
Y107736D01*
X106506D01*
Y107760D01*
X106494D01*
Y107784D01*
X106482D01*
Y107819D01*
X106470D01*
Y107843D01*
X106458D01*
Y107879D01*
X106446D01*
Y107915D01*
X106434D01*
Y107939D01*
X106422D01*
Y107974D01*
X106410D01*
Y107998D01*
X106398D01*
Y108034D01*
X106386D01*
Y108070D01*
X106375D01*
Y108093D01*
X106363D01*
Y108141D01*
X106351D01*
Y108177D01*
X106339D01*
Y108201D01*
X106327D01*
Y108248D01*
X106315D01*
Y108272D01*
X106303D01*
Y108308D01*
X106291D01*
Y108355D01*
X106279D01*
Y108379D01*
X106267D01*
Y108427D01*
X106255D01*
Y108474D01*
X106244D01*
Y108498D01*
X106232D01*
Y108546D01*
X106220D01*
Y108593D01*
X106208D01*
Y108629D01*
X106196D01*
Y108689D01*
X106184D01*
Y108713D01*
X106172D01*
Y108772D01*
X106160D01*
Y108820D01*
X106148D01*
Y108868D01*
X106136D01*
Y108927D01*
X106124D01*
Y108975D01*
X106113D01*
Y109022D01*
X106101D01*
Y109094D01*
X106089D01*
Y109141D01*
X106077D01*
Y109213D01*
X106065D01*
Y109272D01*
X106053D01*
Y109332D01*
X106041D01*
Y109427D01*
X106029D01*
Y109487D01*
X106017D01*
Y109570D01*
X106005D01*
Y109689D01*
X105993D01*
Y109761D01*
X105982D01*
Y109904D01*
X105970D01*
Y110070D01*
X105958D01*
Y110201D01*
X105946D01*
Y110928D01*
X105958D01*
Y111059D01*
X105970D01*
Y111214D01*
X105982D01*
Y111368D01*
X105993D01*
Y111440D01*
X106005D01*
Y111547D01*
X106017D01*
Y111642D01*
X106029D01*
Y111702D01*
X106041D01*
Y111797D01*
X106053D01*
Y111857D01*
X106065D01*
Y111916D01*
X106077D01*
Y111988D01*
X106089D01*
Y112035D01*
X106101D01*
Y112107D01*
X106113D01*
Y112154D01*
X106124D01*
Y112202D01*
X106136D01*
Y112262D01*
X106148D01*
Y112309D01*
X106160D01*
Y112357D01*
X106172D01*
Y112416D01*
X106184D01*
Y112452D01*
X106196D01*
Y112500D01*
X106208D01*
Y112547D01*
X106220D01*
Y112583D01*
X106232D01*
Y112631D01*
X106244D01*
Y112666D01*
X106255D01*
Y112702D01*
X106267D01*
Y112750D01*
X106279D01*
Y112774D01*
X106291D01*
Y112821D01*
X106303D01*
Y112857D01*
X106315D01*
Y112893D01*
X106327D01*
Y112928D01*
X106339D01*
Y112964D01*
X106351D01*
Y113000D01*
X106363D01*
Y113036D01*
X106375D01*
Y113059D01*
X106386D01*
Y113095D01*
X106398D01*
Y113131D01*
X106410D01*
Y113155D01*
X106422D01*
Y113191D01*
X106434D01*
Y113226D01*
X106446D01*
Y113250D01*
X106458D01*
Y113286D01*
X106470D01*
Y113310D01*
X106482D01*
Y113345D01*
X106494D01*
Y113369D01*
X106506D01*
Y113393D01*
X106517D01*
Y113429D01*
X106529D01*
Y113452D01*
X106541D01*
Y113488D01*
X106553D01*
Y113512D01*
X106565D01*
Y113536D01*
X106577D01*
Y113572D01*
X106589D01*
Y113595D01*
X106601D01*
Y113619D01*
X106613D01*
Y113655D01*
X106625D01*
Y113667D01*
X106637D01*
Y113703D01*
X106648D01*
Y113726D01*
X106660D01*
Y113750D01*
X106672D01*
Y113774D01*
X106684D01*
Y113798D01*
X106696D01*
Y113822D01*
X106708D01*
Y113846D01*
X106720D01*
Y113869D01*
X106732D01*
Y113893D01*
X106744D01*
Y113917D01*
X106756D01*
Y113941D01*
X106767D01*
Y113965D01*
X106779D01*
Y113988D01*
X106791D01*
Y114000D01*
X106803D01*
Y114036D01*
X106815D01*
Y114048D01*
X106827D01*
Y114072D01*
X106839D01*
Y114096D01*
X106851D01*
Y114120D01*
X106863D01*
Y114143D01*
X106875D01*
Y114167D01*
X106887D01*
Y114179D01*
X106898D01*
Y114203D01*
X106910D01*
Y114227D01*
X106922D01*
Y114251D01*
X106934D01*
Y114274D01*
X106946D01*
Y114286D01*
X106958D01*
Y114310D01*
X106970D01*
Y114322D01*
X106982D01*
Y114346D01*
X106994D01*
Y114370D01*
X107006D01*
Y114382D01*
X107018D01*
Y114405D01*
X107029D01*
Y114429D01*
X107041D01*
Y114441D01*
X107053D01*
Y114465D01*
X107065D01*
Y114489D01*
X107077D01*
Y114501D01*
X107089D01*
Y114524D01*
X107101D01*
Y114536D01*
X107113D01*
Y114560D01*
X107125D01*
Y114584D01*
X107137D01*
Y114596D01*
X107149D01*
Y114608D01*
X107160D01*
Y114632D01*
X107172D01*
Y114644D01*
X107184D01*
Y114667D01*
X107196D01*
Y114679D01*
X107208D01*
Y114703D01*
X107220D01*
Y114715D01*
X107232D01*
Y114739D01*
X107244D01*
Y114751D01*
X107256D01*
Y114775D01*
X107268D01*
Y114786D01*
X107280D01*
Y114810D01*
X107291D01*
Y114822D01*
X107303D01*
Y114834D01*
X107315D01*
Y114858D01*
X107327D01*
Y114870D01*
X107339D01*
Y114894D01*
X107351D01*
Y114906D01*
X107363D01*
Y114917D01*
X107375D01*
Y114941D01*
X107387D01*
Y114953D01*
X107399D01*
Y114965D01*
X107411D01*
Y114989D01*
X107422D01*
Y115001D01*
X107434D01*
Y115013D01*
X107446D01*
Y115036D01*
X107458D01*
Y115048D01*
X107470D01*
Y115060D01*
X107482D01*
Y115084D01*
X107494D01*
Y115096D01*
X107506D01*
Y115108D01*
X107518D01*
Y115120D01*
X107530D01*
Y115144D01*
X107542D01*
Y115156D01*
X107554D01*
Y115167D01*
X107565D01*
Y115191D01*
X107577D01*
Y115203D01*
X107589D01*
Y115215D01*
X107601D01*
Y115227D01*
X107613D01*
Y115239D01*
X107625D01*
Y115263D01*
X107637D01*
Y115275D01*
X107649D01*
Y115287D01*
X107661D01*
Y115298D01*
X107673D01*
Y115310D01*
X107685D01*
Y115334D01*
X107696D01*
Y115346D01*
X107708D01*
Y115358D01*
X107720D01*
Y115370D01*
X107732D01*
Y115382D01*
X107744D01*
Y115394D01*
X107756D01*
Y115418D01*
X107768D01*
Y115429D01*
X107780D01*
Y115441D01*
X107792D01*
Y115453D01*
X107804D01*
Y115465D01*
X107816D01*
Y115477D01*
X107827D01*
Y115489D01*
X107839D01*
Y115501D01*
X107851D01*
Y115525D01*
X107863D01*
Y115537D01*
X107875D01*
Y115549D01*
X107887D01*
Y115560D01*
X107899D01*
Y115572D01*
X107911D01*
Y115584D01*
X107923D01*
Y115596D01*
X107935D01*
Y115608D01*
X107947D01*
Y115620D01*
X107958D01*
Y115632D01*
X107970D01*
Y115644D01*
X107982D01*
Y115656D01*
X107994D01*
Y115668D01*
X108006D01*
Y115691D01*
X108018D01*
Y115703D01*
X108030D01*
Y115715D01*
X108042D01*
Y115727D01*
X108054D01*
Y115739D01*
X108066D01*
Y115751D01*
X108078D01*
Y115763D01*
X108089D01*
Y115775D01*
X108101D01*
Y115787D01*
X108113D01*
Y115799D01*
X108125D01*
Y115811D01*
X108137D01*
Y115823D01*
X108149D01*
Y115834D01*
X108161D01*
Y115846D01*
X108173D01*
Y115858D01*
X108197D01*
Y115882D01*
X108209D01*
Y115894D01*
X108232D01*
Y115918D01*
X108256D01*
Y115930D01*
X108268D01*
Y115942D01*
X108280D01*
Y115954D01*
X108292D01*
Y115965D01*
X108304D01*
Y115977D01*
X108316D01*
Y115989D01*
X108328D01*
Y116001D01*
X108340D01*
Y116013D01*
X108351D01*
Y116025D01*
X108363D01*
Y116037D01*
X108387D01*
Y116049D01*
X108399D01*
Y116061D01*
X108411D01*
Y116073D01*
X108423D01*
Y116085D01*
X108435D01*
Y116096D01*
X108447D01*
Y116108D01*
X108459D01*
Y116120D01*
X108470D01*
Y116132D01*
X108482D01*
Y116144D01*
X108506D01*
Y116156D01*
X108518D01*
Y116168D01*
X108530D01*
Y116180D01*
X108542D01*
Y116192D01*
X108554D01*
Y116204D01*
X108578D01*
Y116216D01*
X108590D01*
Y116227D01*
X108601D01*
Y116239D01*
X108614D01*
Y116251D01*
X108625D01*
Y116263D01*
X108649D01*
Y116275D01*
X108661D01*
Y116287D01*
X108673D01*
Y116299D01*
X108685D01*
Y116311D01*
X108697D01*
Y116323D01*
X108721D01*
Y116335D01*
X108732D01*
Y116347D01*
X108745D01*
Y116358D01*
X108768D01*
Y116370D01*
X108780D01*
Y116382D01*
X108792D01*
Y116394D01*
X108816D01*
Y116406D01*
X108828D01*
Y116418D01*
X108840D01*
Y116430D01*
X108852D01*
Y116442D01*
X108864D01*
Y116454D01*
X108887D01*
Y116466D01*
X108899D01*
Y116478D01*
X108923D01*
Y116489D01*
X108935D01*
Y116501D01*
X108947D01*
Y116513D01*
X108971D01*
Y116525D01*
X108983D01*
Y116537D01*
X108995D01*
Y116549D01*
X109018D01*
Y116561D01*
X109030D01*
Y116573D01*
X109042D01*
Y116585D01*
X109066D01*
Y116597D01*
X109078D01*
Y116609D01*
X109102D01*
Y116620D01*
X109114D01*
Y116632D01*
X109137D01*
Y116644D01*
X109149D01*
Y116656D01*
X109173D01*
Y116668D01*
X109185D01*
Y116680D01*
X109209D01*
Y116692D01*
X109221D01*
Y116704D01*
X109245D01*
Y116716D01*
X109257D01*
Y116728D01*
X109280D01*
Y116739D01*
X109292D01*
Y116751D01*
X109316D01*
Y116763D01*
X109328D01*
Y116775D01*
X109352D01*
Y116787D01*
X109364D01*
Y116799D01*
X109388D01*
Y116811D01*
X109411D01*
Y116823D01*
X109423D01*
Y116835D01*
X109447D01*
Y116847D01*
X109459D01*
Y116859D01*
X109483D01*
Y116870D01*
X109507D01*
Y116882D01*
X109519D01*
Y116894D01*
X109542D01*
Y116906D01*
X109566D01*
Y116918D01*
X109578D01*
Y116930D01*
X109602D01*
Y116942D01*
X109626D01*
Y116954D01*
X109638D01*
Y116966D01*
X109661D01*
Y116978D01*
X109685D01*
Y116990D01*
X109709D01*
Y117001D01*
X109733D01*
Y117013D01*
X109745D01*
Y117025D01*
X109769D01*
Y117037D01*
X109792D01*
Y117049D01*
X109816D01*
Y117061D01*
X109840D01*
Y117073D01*
X109852D01*
Y117085D01*
X109876D01*
Y117097D01*
X109900D01*
Y117109D01*
X109924D01*
Y117121D01*
X109947D01*
Y117132D01*
X109971D01*
Y117145D01*
X109995D01*
Y117156D01*
X110019D01*
Y117168D01*
X110043D01*
Y117180D01*
X110066D01*
Y117192D01*
X110090D01*
Y117204D01*
X110114D01*
Y117216D01*
X110138D01*
Y117228D01*
X110162D01*
Y117240D01*
X110186D01*
Y117252D01*
X110221D01*
Y117264D01*
X110245D01*
Y117276D01*
X110269D01*
Y117287D01*
X110293D01*
Y117299D01*
X110317D01*
Y117311D01*
X110352D01*
Y117323D01*
X110376D01*
Y117335D01*
X110400D01*
Y117347D01*
X110436D01*
Y117359D01*
X110459D01*
Y117371D01*
X110483D01*
Y117383D01*
X110519D01*
Y117395D01*
X110543D01*
Y117406D01*
X110579D01*
Y117418D01*
X110602D01*
Y117430D01*
X110626D01*
Y117442D01*
X110674D01*
Y117454D01*
X110698D01*
Y117466D01*
X110733D01*
Y117478D01*
X110757D01*
Y117490D01*
X110793D01*
Y117502D01*
X110829D01*
Y117514D01*
X110864D01*
Y117525D01*
X110888D01*
Y117537D01*
X110936D01*
Y117549D01*
X110960D01*
Y117561D01*
X110995D01*
Y117573D01*
X111043D01*
Y117585D01*
X111067D01*
Y117597D01*
X111114D01*
Y117609D01*
X111150D01*
Y117621D01*
X111186D01*
Y117633D01*
X111233D01*
Y117645D01*
X111269D01*
Y117657D01*
X111305D01*
Y117668D01*
X111364D01*
Y117680D01*
X111400D01*
Y117692D01*
X111448D01*
Y117704D01*
X111484D01*
Y117716D01*
X111531D01*
Y117728D01*
X111591D01*
Y117740D01*
X111627D01*
Y117752D01*
X111686D01*
Y117764D01*
X111746D01*
Y117776D01*
X111793D01*
Y117788D01*
X111865D01*
Y117799D01*
X111912D01*
Y117811D01*
X111972D01*
Y117823D01*
X112055D01*
Y117835D01*
X112115D01*
Y117847D01*
X112186D01*
Y117859D01*
X112282D01*
Y117871D01*
X112353D01*
Y117883D01*
X112472D01*
Y117895D01*
X112567D01*
Y117907D01*
X112698D01*
Y117919D01*
X112901D01*
Y117930D01*
X113151D01*
Y117942D01*
X155905D01*
Y117930D01*
D02*
G37*
%LPC*%
G36*
X159621Y175155D02*
X109435D01*
Y175143D01*
X109352D01*
Y175131D01*
X109292D01*
Y175119D01*
X109233D01*
Y175107D01*
X109197D01*
Y175095D01*
X109161D01*
Y175083D01*
X109114D01*
Y175072D01*
X109090D01*
Y175060D01*
X109054D01*
Y175048D01*
X109018D01*
Y175036D01*
X109007D01*
Y175024D01*
X108971D01*
Y175012D01*
X108947D01*
Y175000D01*
X108923D01*
Y174988D01*
X108899D01*
Y174976D01*
X108876D01*
Y174964D01*
X108852D01*
Y174952D01*
X108840D01*
Y174941D01*
X108816D01*
Y174929D01*
X108792D01*
Y174917D01*
X108780D01*
Y174905D01*
X108768D01*
Y174893D01*
X108745D01*
Y174881D01*
X108732D01*
Y174869D01*
X108709D01*
Y174857D01*
X108697D01*
Y174845D01*
X108685D01*
Y174833D01*
X108661D01*
Y174821D01*
X108649D01*
Y174810D01*
X108637D01*
Y174798D01*
X108625D01*
Y174786D01*
X108614D01*
Y174774D01*
X108590D01*
Y174762D01*
X108578D01*
Y174750D01*
X108566D01*
Y174738D01*
X108554D01*
Y174726D01*
X108542D01*
Y174714D01*
X108530D01*
Y174702D01*
X108518D01*
Y174690D01*
X108506D01*
Y174679D01*
X108494D01*
Y174667D01*
X108482D01*
Y174643D01*
X108470D01*
Y174631D01*
X108459D01*
Y174619D01*
X108447D01*
Y174607D01*
X108435D01*
Y174595D01*
X108423D01*
Y174571D01*
X108411D01*
Y174559D01*
X108399D01*
Y174548D01*
X108387D01*
Y174524D01*
X108375D01*
Y174512D01*
X108363D01*
Y174488D01*
X108351D01*
Y174476D01*
X108340D01*
Y174464D01*
X108328D01*
Y174440D01*
X108316D01*
Y174416D01*
X108304D01*
Y174405D01*
X108292D01*
Y174381D01*
X108280D01*
Y174357D01*
X108268D01*
Y174333D01*
X108256D01*
Y174309D01*
X108244D01*
Y174285D01*
X108232D01*
Y174250D01*
X108221D01*
Y174238D01*
X108209D01*
Y174202D01*
X108197D01*
Y174166D01*
X108185D01*
Y174143D01*
X108173D01*
Y174095D01*
X108161D01*
Y174059D01*
X108149D01*
Y174023D01*
X108137D01*
Y173964D01*
X108125D01*
Y173904D01*
X108113D01*
Y173821D01*
X108101D01*
Y170093D01*
Y170081D01*
Y123635D01*
X108113D01*
Y123552D01*
X108125D01*
Y123504D01*
X108137D01*
Y123444D01*
X108149D01*
Y123409D01*
X108161D01*
Y123361D01*
X108173D01*
Y123313D01*
X108185D01*
Y123290D01*
X108197D01*
Y123254D01*
X108209D01*
Y123230D01*
X108221D01*
Y123206D01*
X108232D01*
Y123171D01*
X108244D01*
Y123147D01*
X108256D01*
Y123123D01*
X108268D01*
Y123099D01*
X108280D01*
Y123087D01*
X108292D01*
Y123063D01*
X108304D01*
Y123040D01*
X108316D01*
Y123028D01*
X108328D01*
Y123004D01*
X108340D01*
Y122980D01*
X108351D01*
Y122968D01*
X108363D01*
Y122944D01*
X108375D01*
Y122932D01*
X108387D01*
Y122909D01*
X108399D01*
Y122897D01*
X108411D01*
Y122885D01*
X108423D01*
Y122873D01*
X108435D01*
Y122849D01*
X108447D01*
Y122837D01*
X108459D01*
Y122825D01*
X108470D01*
Y122813D01*
X108482D01*
Y122801D01*
X108494D01*
Y122790D01*
X108506D01*
Y122778D01*
X108518D01*
Y122766D01*
X108530D01*
Y122754D01*
X108542D01*
Y122742D01*
X108554D01*
Y122730D01*
X108566D01*
Y122718D01*
X108578D01*
Y122706D01*
X108590D01*
Y122694D01*
X108601D01*
Y122682D01*
X108614D01*
Y122670D01*
X108625D01*
Y122659D01*
X108637D01*
Y122647D01*
X108661D01*
Y122635D01*
X108673D01*
Y122623D01*
X108685D01*
Y122611D01*
X108697D01*
Y122599D01*
X108709D01*
Y122587D01*
X108732D01*
Y122575D01*
X108756D01*
Y122563D01*
X108768D01*
Y122551D01*
X108792D01*
Y122539D01*
X108804D01*
Y122528D01*
X108828D01*
Y122516D01*
X108840D01*
Y122504D01*
X108864D01*
Y122492D01*
X108887D01*
Y122480D01*
X108911D01*
Y122468D01*
X108935D01*
Y122456D01*
X108959D01*
Y122444D01*
X108983D01*
Y122432D01*
X109007D01*
Y122420D01*
X109042D01*
Y122408D01*
X109066D01*
Y122397D01*
X109102D01*
Y122385D01*
X109126D01*
Y122373D01*
X109161D01*
Y122361D01*
X109221D01*
Y122349D01*
X109245D01*
Y122337D01*
X109304D01*
Y122325D01*
X109388D01*
Y122313D01*
X109459D01*
Y122301D01*
X159597D01*
Y122313D01*
X159669D01*
Y122325D01*
X159752D01*
Y122337D01*
X159812D01*
Y122349D01*
X159836D01*
Y122361D01*
X159895D01*
Y122373D01*
X159919D01*
Y122385D01*
X159955D01*
Y122397D01*
X160002D01*
Y122408D01*
X160026D01*
Y122420D01*
X160050D01*
Y122432D01*
X160074D01*
Y122444D01*
X160098D01*
Y122456D01*
X160133D01*
Y122468D01*
X160145D01*
Y122480D01*
X160169D01*
Y122492D01*
X160193D01*
Y122504D01*
X160217D01*
Y122516D01*
X160229D01*
Y122528D01*
X160252D01*
Y122539D01*
X160264D01*
Y122551D01*
X160288D01*
Y122563D01*
X160312D01*
Y122575D01*
X160324D01*
Y122587D01*
X160348D01*
Y122599D01*
X160360D01*
Y122611D01*
X160371D01*
Y122623D01*
X160383D01*
Y122635D01*
X160407D01*
Y122647D01*
X160419D01*
Y122659D01*
X160431D01*
Y122670D01*
X160443D01*
Y122682D01*
X160455D01*
Y122694D01*
X160467D01*
Y122706D01*
X160479D01*
Y122718D01*
X160491D01*
Y122730D01*
X160503D01*
Y122742D01*
X160514D01*
Y122754D01*
X160526D01*
Y122766D01*
X160538D01*
Y122778D01*
X160550D01*
Y122790D01*
X160562D01*
Y122801D01*
X160574D01*
Y122813D01*
X160586D01*
Y122825D01*
X160598D01*
Y122837D01*
X160610D01*
Y122849D01*
X160622D01*
Y122873D01*
X160634D01*
Y122885D01*
X160645D01*
Y122897D01*
X160657D01*
Y122909D01*
X160669D01*
Y122932D01*
X160681D01*
Y122944D01*
X160693D01*
Y122968D01*
X160705D01*
Y122980D01*
X160717D01*
Y123004D01*
X160729D01*
Y123028D01*
X160741D01*
Y123040D01*
X160753D01*
Y123063D01*
X160765D01*
Y123087D01*
X160776D01*
Y123099D01*
X160788D01*
Y123123D01*
X160800D01*
Y123147D01*
X160812D01*
Y123171D01*
X160824D01*
Y123206D01*
X160836D01*
Y123230D01*
X160848D01*
Y123254D01*
X160860D01*
Y123290D01*
X160872D01*
Y123325D01*
X160884D01*
Y123361D01*
X160896D01*
Y123409D01*
X160907D01*
Y123444D01*
X160919D01*
Y123504D01*
X160931D01*
Y123552D01*
X160943D01*
Y123635D01*
X160955D01*
Y173821D01*
X160943D01*
Y173904D01*
X160931D01*
Y173964D01*
X160919D01*
Y174023D01*
X160907D01*
Y174059D01*
X160896D01*
Y174095D01*
X160884D01*
Y174143D01*
X160872D01*
Y174166D01*
X160860D01*
Y174202D01*
X160848D01*
Y174238D01*
X160836D01*
Y174250D01*
X160824D01*
Y174285D01*
X160812D01*
Y174309D01*
X160800D01*
Y174333D01*
X160788D01*
Y174357D01*
X160776D01*
Y174381D01*
X160765D01*
Y174405D01*
X160753D01*
Y174416D01*
X160741D01*
Y174440D01*
X160729D01*
Y174464D01*
X160717D01*
Y174476D01*
X160705D01*
Y174488D01*
X160693D01*
Y174512D01*
X160681D01*
Y174524D01*
X160669D01*
Y174548D01*
X160657D01*
Y174559D01*
X160645D01*
Y174571D01*
X160634D01*
Y174595D01*
X160622D01*
Y174607D01*
X160610D01*
Y174619D01*
X160598D01*
Y174631D01*
X160586D01*
Y174643D01*
X160574D01*
Y174667D01*
X160562D01*
Y174679D01*
X160550D01*
Y174690D01*
X160538D01*
Y174702D01*
X160526D01*
Y174714D01*
X160514D01*
Y174726D01*
X160503D01*
Y174738D01*
X160491D01*
Y174750D01*
X160479D01*
Y174762D01*
X160467D01*
Y174774D01*
X160443D01*
Y174786D01*
X160431D01*
Y174798D01*
X160419D01*
Y174810D01*
X160407D01*
Y174821D01*
X160395D01*
Y174833D01*
X160371D01*
Y174845D01*
X160360D01*
Y174857D01*
X160348D01*
Y174869D01*
X160324D01*
Y174881D01*
X160312D01*
Y174893D01*
X160288D01*
Y174905D01*
X160276D01*
Y174917D01*
X160264D01*
Y174929D01*
X160240D01*
Y174941D01*
X160217D01*
Y174952D01*
X160205D01*
Y174964D01*
X160181D01*
Y174976D01*
X160157D01*
Y174988D01*
X160133D01*
Y175000D01*
X160109D01*
Y175012D01*
X160086D01*
Y175024D01*
X160050D01*
Y175036D01*
X160038D01*
Y175048D01*
X160002D01*
Y175060D01*
X159967D01*
Y175072D01*
X159943D01*
Y175083D01*
X159895D01*
Y175095D01*
X159859D01*
Y175107D01*
X159824D01*
Y175119D01*
X159764D01*
Y175131D01*
X159705D01*
Y175143D01*
X159621D01*
Y175155D01*
D02*
G37*
%LPD*%
G36*
X137077Y168343D02*
X137089D01*
Y168331D01*
X137077D01*
Y168319D01*
X135386D01*
Y168724D01*
Y168736D01*
Y170022D01*
X137077D01*
Y168343D01*
D02*
G37*
G36*
X142186Y169998D02*
X142198D01*
Y169986D01*
X142186D01*
Y168343D01*
X142198D01*
Y168331D01*
X142186D01*
Y168319D01*
X140495D01*
Y166616D01*
X142186D01*
Y166592D01*
X142198D01*
Y166580D01*
X142186D01*
Y164913D01*
X140495D01*
Y166616D01*
X138792D01*
Y166628D01*
X138780D01*
Y166640D01*
X138792D01*
Y169986D01*
X138780D01*
Y169998D01*
X138792D01*
Y170022D01*
X142186D01*
Y169998D01*
D02*
G37*
G36*
X140495Y163210D02*
X142186D01*
Y163198D01*
X142198D01*
Y163186D01*
X142186D01*
Y162757D01*
Y162745D01*
Y161542D01*
X142198D01*
Y161519D01*
X142186D01*
Y161507D01*
X140495D01*
Y163210D01*
X138792D01*
Y164877D01*
X138780D01*
Y164901D01*
X138792D01*
Y164913D01*
X140495D01*
Y163210D01*
D02*
G37*
G36*
X135386Y164913D02*
X137077D01*
Y163222D01*
X137089D01*
Y163210D01*
X138792D01*
Y161519D01*
X138780D01*
Y161507D01*
X133683D01*
Y161519D01*
X133671D01*
Y165330D01*
Y165342D01*
Y166616D01*
X131980D01*
Y168295D01*
X131968D01*
Y168307D01*
X131980D01*
Y168319D01*
X135386D01*
Y164913D01*
D02*
G37*
G36*
X155524Y170010D02*
X155572D01*
Y169998D01*
X155608D01*
Y169986D01*
X155632D01*
Y169974D01*
X155655D01*
Y169962D01*
X155667D01*
Y169950D01*
X155679D01*
Y169939D01*
X155703D01*
Y169927D01*
X155715D01*
Y169915D01*
X155727D01*
Y169903D01*
X155739D01*
Y169879D01*
X155751D01*
Y169867D01*
X155763D01*
Y169855D01*
X155774D01*
Y169831D01*
X155786D01*
Y169808D01*
X155798D01*
Y169772D01*
X155810D01*
Y169724D01*
X155822D01*
Y158398D01*
X155810D01*
Y158351D01*
X155798D01*
Y158315D01*
X155786D01*
Y158291D01*
X155774D01*
Y158267D01*
X155763D01*
Y158256D01*
X155751D01*
Y158232D01*
X155739D01*
Y158220D01*
X155727D01*
Y158208D01*
X155715D01*
Y158196D01*
X155703D01*
Y158184D01*
X155691D01*
Y158172D01*
X155679D01*
Y158160D01*
X155655D01*
Y158148D01*
X155632D01*
Y158136D01*
X155608D01*
Y158124D01*
X155584D01*
Y158113D01*
X155548D01*
Y158101D01*
X144175D01*
Y158113D01*
X144139D01*
Y158124D01*
X144103D01*
Y158136D01*
X144079D01*
Y158148D01*
X144056D01*
Y158160D01*
X144044D01*
Y158172D01*
X144032D01*
Y158184D01*
X144020D01*
Y158196D01*
X143996D01*
Y158220D01*
X143984D01*
Y158232D01*
X143972D01*
Y158244D01*
X143960D01*
Y158256D01*
X143948D01*
Y158279D01*
X143937D01*
Y158303D01*
X143925D01*
Y158327D01*
X143913D01*
Y158375D01*
X143901D01*
Y169748D01*
X143913D01*
Y169784D01*
X143925D01*
Y169819D01*
X143937D01*
Y169843D01*
X143948D01*
Y169855D01*
X143960D01*
Y169879D01*
X143972D01*
Y169891D01*
X143984D01*
Y169903D01*
X143996D01*
Y169915D01*
X144008D01*
Y169927D01*
X144020D01*
Y169939D01*
X144032D01*
Y169950D01*
X144056D01*
Y169962D01*
X144068D01*
Y169974D01*
X144091D01*
Y169986D01*
X144115D01*
Y169998D01*
X144151D01*
Y170010D01*
X144187D01*
Y170022D01*
X155524D01*
Y170010D01*
D02*
G37*
G36*
X142186Y159792D02*
X142198D01*
Y159768D01*
X142186D01*
Y158136D01*
X142198D01*
Y158113D01*
X142186D01*
Y158101D01*
X140495D01*
Y158458D01*
Y158470D01*
Y159804D01*
X142186D01*
Y159792D01*
D02*
G37*
G36*
X138780D02*
X138792D01*
Y159470D01*
Y159458D01*
Y158113D01*
X138780D01*
Y158101D01*
X137089D01*
Y158113D01*
X137077D01*
Y159792D01*
X137089D01*
Y159804D01*
X138780D01*
Y159792D01*
D02*
G37*
G36*
X135374D02*
X135386D01*
Y158113D01*
X135374D01*
Y158101D01*
X133671D01*
Y159792D01*
X133683D01*
Y159804D01*
X135374D01*
Y159792D01*
D02*
G37*
G36*
X124870Y170010D02*
X124917D01*
Y169998D01*
X124941D01*
Y169986D01*
X124965D01*
Y169974D01*
X124989D01*
Y169962D01*
X125013D01*
Y169950D01*
X125024D01*
Y169939D01*
X125036D01*
Y169927D01*
X125048D01*
Y169915D01*
X125060D01*
Y169903D01*
X125072D01*
Y169891D01*
X125084D01*
Y169879D01*
X125096D01*
Y169855D01*
X125108D01*
Y169843D01*
X125120D01*
Y169819D01*
X125132D01*
Y169784D01*
X125144D01*
Y169748D01*
X125155D01*
Y158375D01*
X125144D01*
Y158327D01*
X125132D01*
Y158303D01*
X125120D01*
Y158279D01*
X125108D01*
Y158256D01*
X125096D01*
Y158244D01*
X125084D01*
Y158232D01*
X125072D01*
Y158220D01*
X125060D01*
Y158196D01*
X125036D01*
Y158184D01*
X125024D01*
Y158172D01*
X125013D01*
Y158160D01*
X125001D01*
Y158148D01*
X124977D01*
Y158136D01*
X124953D01*
Y158124D01*
X124917D01*
Y158113D01*
X124882D01*
Y158101D01*
X113508D01*
Y158113D01*
X113472D01*
Y158124D01*
X113449D01*
Y158136D01*
X113425D01*
Y158148D01*
X113401D01*
Y158160D01*
X113377D01*
Y158172D01*
X113365D01*
Y158184D01*
X113353D01*
Y158196D01*
X113341D01*
Y158208D01*
X113330D01*
Y158220D01*
X113318D01*
Y158232D01*
X113306D01*
Y158256D01*
X113294D01*
Y158267D01*
X113282D01*
Y158291D01*
X113270D01*
Y158315D01*
X113258D01*
Y158351D01*
X113246D01*
Y158398D01*
X113234D01*
Y165735D01*
Y165746D01*
Y169724D01*
X113246D01*
Y169772D01*
X113258D01*
Y169808D01*
X113270D01*
Y169831D01*
X113282D01*
Y169855D01*
X113294D01*
Y169867D01*
X113306D01*
Y169879D01*
X113318D01*
Y169903D01*
X113330D01*
Y169915D01*
X113341D01*
Y169927D01*
X113353D01*
Y169939D01*
X113377D01*
Y169950D01*
X113389D01*
Y169962D01*
X113401D01*
Y169974D01*
X113425D01*
Y169986D01*
X113449D01*
Y169998D01*
X113484D01*
Y170010D01*
X113532D01*
Y170022D01*
X124870D01*
Y170010D01*
D02*
G37*
G36*
X147295Y156386D02*
X147307D01*
Y154695D01*
X145604D01*
Y156398D01*
X147295D01*
Y156386D01*
D02*
G37*
G36*
X138768D02*
X138792D01*
Y154707D01*
X138780D01*
Y154695D01*
X137077D01*
Y156386D01*
X137089D01*
Y156398D01*
X138768D01*
Y156386D01*
D02*
G37*
G36*
X125144D02*
X125155D01*
Y154695D01*
X126859D01*
Y154683D01*
X126871D01*
Y152992D01*
X131968D01*
Y152980D01*
X131980D01*
Y151289D01*
X130289D01*
Y151277D01*
X130265D01*
Y151253D01*
X130277D01*
Y151241D01*
X130265D01*
Y149609D01*
X130277D01*
Y149597D01*
X130265D01*
Y149585D01*
X125155D01*
Y151289D01*
X121749D01*
Y152980D01*
X121738D01*
Y152992D01*
X120058D01*
Y152980D01*
X120046D01*
Y151289D01*
X121749D01*
Y147894D01*
X121761D01*
Y147882D01*
X121773D01*
Y147871D01*
X123452D01*
Y146179D01*
X125155D01*
Y144476D01*
X130253D01*
Y144465D01*
X130265D01*
Y144453D01*
X130277D01*
Y144441D01*
X130265D01*
Y142773D01*
X130277D01*
Y142762D01*
X131968D01*
Y142773D01*
X131980D01*
Y146179D01*
X130265D01*
Y147859D01*
X130277D01*
Y147871D01*
X130289D01*
Y147882D01*
X130300D01*
Y147871D01*
X131968D01*
Y147882D01*
X131980D01*
Y149585D01*
X133671D01*
Y147882D01*
X133683D01*
Y147871D01*
X135362D01*
Y147882D01*
X135386D01*
Y149585D01*
X133671D01*
Y151277D01*
X133683D01*
Y151289D01*
X135386D01*
Y149585D01*
X137077D01*
Y144476D01*
X138768D01*
Y144465D01*
X138780D01*
Y144453D01*
X138792D01*
Y142773D01*
X138768D01*
Y142762D01*
X137089D01*
Y142773D01*
X137077D01*
Y144476D01*
X133695D01*
Y144465D01*
X133671D01*
Y142762D01*
X135386D01*
Y141070D01*
X137077D01*
Y141058D01*
Y139367D01*
X137089D01*
Y139355D01*
X138792D01*
Y137664D01*
X137077D01*
Y139355D01*
X135386D01*
Y141070D01*
X133671D01*
Y142762D01*
X131980D01*
Y135961D01*
X131992D01*
Y135949D01*
X132003D01*
Y135961D01*
X133647D01*
Y135949D01*
X133659D01*
Y135961D01*
X133671D01*
Y137652D01*
X133683D01*
Y137664D01*
X135374D01*
Y137652D01*
X135386D01*
Y134246D01*
X137077D01*
Y132555D01*
X138768D01*
Y132543D01*
X138780D01*
Y132531D01*
X138792D01*
Y127458D01*
X138780D01*
Y127446D01*
X138768D01*
Y127434D01*
X135398D01*
Y127446D01*
X135386D01*
Y129137D01*
X135398D01*
Y129149D01*
X135409D01*
Y129137D01*
X137077D01*
Y129149D01*
X137089D01*
Y129161D01*
X137077D01*
Y130840D01*
X135386D01*
Y132543D01*
X135374D01*
Y132555D01*
X133671D01*
Y134246D01*
X130277D01*
Y134234D01*
X130265D01*
Y134222D01*
X130277D01*
Y134211D01*
X130265D01*
Y132567D01*
X130277D01*
Y132555D01*
X133671D01*
Y129149D01*
X133659D01*
Y129137D01*
X131980D01*
Y127458D01*
X131968D01*
Y127434D01*
X126871D01*
Y127458D01*
X126859D01*
Y127470D01*
X126871D01*
Y130816D01*
X126859D01*
Y130828D01*
X126871D01*
Y130840D01*
X128562D01*
Y134246D01*
X126871D01*
Y137628D01*
X126859D01*
Y137652D01*
X126871D01*
Y137664D01*
X128562D01*
Y135961D01*
X130265D01*
Y135973D01*
X130277D01*
Y135985D01*
X130265D01*
Y137628D01*
X130277D01*
Y137652D01*
X130253D01*
Y137664D01*
X128562D01*
Y139355D01*
X126871D01*
Y141070D01*
X130265D01*
Y141082D01*
X130277D01*
Y141094D01*
X130265D01*
Y142762D01*
X125155D01*
Y144476D01*
X123452D01*
Y146179D01*
X120058D01*
Y146168D01*
X120046D01*
Y144476D01*
X120035D01*
Y144465D01*
X120023D01*
Y144476D01*
X118355D01*
Y144465D01*
X118343D01*
Y141070D01*
X113234D01*
Y142762D01*
X116628D01*
Y142773D01*
X116640D01*
Y147871D01*
X116664D01*
Y147882D01*
X116676D01*
Y147871D01*
X118332D01*
Y147882D01*
X118343D01*
Y149585D01*
X114937D01*
Y151277D01*
X114949D01*
Y151289D01*
X118343D01*
Y152980D01*
X118332D01*
Y152992D01*
X116640D01*
Y154695D01*
X114937D01*
Y152992D01*
X113234D01*
Y156386D01*
X113246D01*
Y156398D01*
X116628D01*
Y156386D01*
X116640D01*
Y154695D01*
X120046D01*
Y156386D01*
X120058D01*
Y156398D01*
X125144D01*
Y156386D01*
D02*
G37*
G36*
X149010Y151289D02*
X147307D01*
Y152980D01*
X147319D01*
Y152992D01*
X149010D01*
Y151289D01*
D02*
G37*
G36*
X128562Y166628D02*
X128574D01*
Y166616D01*
X130265D01*
Y166592D01*
X130277D01*
Y166580D01*
X130265D01*
Y164925D01*
X130277D01*
Y164913D01*
X131968D01*
Y164901D01*
X131980D01*
Y158101D01*
X133671D01*
Y156398D01*
X135374D01*
Y156386D01*
X135386D01*
Y154695D01*
X137077D01*
Y153004D01*
X137089D01*
Y152992D01*
X140495D01*
Y154695D01*
X143889D01*
Y154683D01*
X143901D01*
Y152992D01*
X142198D01*
Y152968D01*
X142186D01*
Y152944D01*
X142198D01*
Y152932D01*
X142186D01*
Y151312D01*
X142198D01*
Y151289D01*
X138804D01*
Y151277D01*
X138780D01*
Y151265D01*
X138792D01*
Y149597D01*
X138780D01*
Y149585D01*
X137077D01*
Y151265D01*
X137089D01*
Y151277D01*
X137077D01*
Y151289D01*
X135386D01*
Y154695D01*
X133671D01*
Y156398D01*
X131980D01*
Y154707D01*
X131968D01*
Y154695D01*
X130277D01*
Y154707D01*
X130265D01*
Y159780D01*
X130277D01*
Y159792D01*
X130265D01*
Y159804D01*
X128574D01*
Y159792D01*
X128562D01*
Y158101D01*
X126871D01*
Y158113D01*
X126859D01*
Y158124D01*
X126871D01*
Y161471D01*
X126859D01*
Y161483D01*
X126871D01*
Y161507D01*
X128562D01*
Y163210D01*
X126871D01*
Y163222D01*
X126859D01*
Y163234D01*
X126871D01*
Y164103D01*
Y164115D01*
Y169986D01*
X126859D01*
Y169998D01*
X126871D01*
Y170022D01*
X128562D01*
Y166628D01*
D02*
G37*
G36*
X155810Y156386D02*
X155822D01*
Y147882D01*
X155810D01*
Y147871D01*
X152428D01*
Y147882D01*
X152416D01*
Y149574D01*
X152404D01*
Y149585D01*
X150713D01*
Y151277D01*
X150725D01*
Y151289D01*
X152416D01*
Y152980D01*
X152428D01*
Y152992D01*
X154119D01*
Y154695D01*
X150713D01*
Y153004D01*
X150701D01*
Y152992D01*
X149010D01*
Y156386D01*
X149022D01*
Y156398D01*
X155810D01*
Y156386D01*
D02*
G37*
G36*
X150701Y147871D02*
X150713D01*
Y146179D01*
X149010D01*
Y147871D01*
X149022D01*
Y147882D01*
X149034D01*
Y147871D01*
X150677D01*
Y147882D01*
X150701D01*
Y147871D01*
D02*
G37*
G36*
X145592Y151277D02*
X145604D01*
Y146179D01*
X142198D01*
Y146168D01*
X142186D01*
Y146144D01*
X142198D01*
Y146132D01*
X142186D01*
Y142809D01*
X142198D01*
Y142797D01*
X142186D01*
Y142773D01*
X142210D01*
Y142762D01*
X143877D01*
Y142773D01*
X143901D01*
Y143262D01*
Y143274D01*
Y144465D01*
X143913D01*
Y144476D01*
X145592D01*
Y144465D01*
X145604D01*
Y142762D01*
X149010D01*
Y141070D01*
X150701D01*
Y141058D01*
X150713D01*
Y139367D01*
X150701D01*
Y139355D01*
X149010D01*
Y137664D01*
X155810D01*
Y137652D01*
X155822D01*
Y135961D01*
X155798D01*
Y135949D01*
X155786D01*
Y135961D01*
X149022D01*
Y135949D01*
X149010D01*
Y134246D01*
X150713D01*
Y132555D01*
X149010D01*
Y134246D01*
X147307D01*
Y132555D01*
X149010D01*
Y130840D01*
X152416D01*
Y129149D01*
X152428D01*
Y129137D01*
X154107D01*
Y129149D01*
X154119D01*
Y130840D01*
X152416D01*
Y134246D01*
X155822D01*
Y132555D01*
X154119D01*
Y130888D01*
Y130876D01*
Y130840D01*
X155822D01*
Y127446D01*
X155810D01*
Y127434D01*
X145604D01*
Y130840D01*
X140495D01*
Y134246D01*
X137077D01*
Y135937D01*
X137089D01*
Y135961D01*
X140495D01*
Y139355D01*
X138792D01*
Y141070D01*
X140495D01*
Y146168D01*
X140483D01*
Y146179D01*
X138792D01*
Y146191D01*
X138780D01*
Y146203D01*
X138792D01*
Y147847D01*
X138780D01*
Y147859D01*
X138792D01*
Y147871D01*
X138804D01*
Y147882D01*
X138828D01*
Y147871D01*
X143877D01*
Y147882D01*
X143901D01*
Y151277D01*
X143913D01*
Y151289D01*
X145592D01*
Y151277D01*
D02*
G37*
G36*
X125155Y147882D02*
X125168D01*
Y147871D01*
X126859D01*
Y147859D01*
X126871D01*
Y146179D01*
X125155D01*
Y147871D01*
X123452D01*
Y149574D01*
X123464D01*
Y149585D01*
X125155D01*
Y147882D01*
D02*
G37*
G36*
X114937Y146179D02*
X113234D01*
Y149574D01*
X113246D01*
Y149585D01*
X114937D01*
Y146179D01*
D02*
G37*
G36*
X149010Y144476D02*
X147307D01*
Y146179D01*
X149010D01*
Y144476D01*
D02*
G37*
G36*
X152404Y144465D02*
X152416D01*
Y142773D01*
X152404D01*
Y142762D01*
X150725D01*
Y142773D01*
X150713D01*
Y144465D01*
X150725D01*
Y144476D01*
X152404D01*
Y144465D01*
D02*
G37*
G36*
X123452Y142773D02*
X123464D01*
Y142762D01*
X125155D01*
Y141070D01*
X120046D01*
Y142762D01*
X121738D01*
Y142773D01*
X121749D01*
Y144465D01*
X121761D01*
Y144476D01*
X123452D01*
Y142773D01*
D02*
G37*
G36*
X154143Y142762D02*
X155822D01*
Y139367D01*
X155810D01*
Y139355D01*
X154119D01*
Y140594D01*
Y140606D01*
Y142762D01*
X154131D01*
Y142773D01*
X154143D01*
Y142762D01*
D02*
G37*
G36*
X124893Y139344D02*
X124929D01*
Y139332D01*
X124953D01*
Y139320D01*
X124977D01*
Y139308D01*
X125001D01*
Y139296D01*
X125013D01*
Y139284D01*
X125036D01*
Y139272D01*
X125048D01*
Y139260D01*
X125060D01*
Y139248D01*
X125072D01*
Y139236D01*
X125084D01*
Y139213D01*
X125096D01*
Y139201D01*
X125108D01*
Y139177D01*
X125120D01*
Y139153D01*
X125132D01*
Y139129D01*
X125144D01*
Y139093D01*
X125155D01*
Y127708D01*
X125144D01*
Y127672D01*
X125132D01*
Y127648D01*
X125120D01*
Y127625D01*
X125108D01*
Y127601D01*
X125096D01*
Y127589D01*
X125084D01*
Y127565D01*
X125072D01*
Y127553D01*
X125060D01*
Y127541D01*
X125048D01*
Y127529D01*
X125036D01*
Y127517D01*
X125024D01*
Y127506D01*
X125001D01*
Y127494D01*
X124989D01*
Y127482D01*
X124965D01*
Y127470D01*
X124929D01*
Y127458D01*
X124905D01*
Y127446D01*
X124834D01*
Y127434D01*
X113556D01*
Y127446D01*
X113496D01*
Y127458D01*
X113461D01*
Y127470D01*
X113437D01*
Y127482D01*
X113413D01*
Y127494D01*
X113389D01*
Y127506D01*
X113377D01*
Y127517D01*
X113365D01*
Y127529D01*
X113353D01*
Y127541D01*
X113341D01*
Y127553D01*
X113330D01*
Y127565D01*
X113318D01*
Y127577D01*
X113306D01*
Y127589D01*
X113294D01*
Y127613D01*
X113282D01*
Y127625D01*
X113270D01*
Y127660D01*
X113258D01*
Y127684D01*
X113246D01*
Y127732D01*
X113234D01*
Y139070D01*
X113246D01*
Y139117D01*
X113258D01*
Y139141D01*
X113270D01*
Y139165D01*
X113282D01*
Y139189D01*
X113294D01*
Y139213D01*
X113306D01*
Y139224D01*
X113318D01*
Y139236D01*
X113330D01*
Y139248D01*
X113341D01*
Y139260D01*
X113353D01*
Y139272D01*
X113365D01*
Y139284D01*
X113377D01*
Y139296D01*
X113401D01*
Y139308D01*
X113413D01*
Y139320D01*
X113437D01*
Y139332D01*
X113461D01*
Y139344D01*
X113496D01*
Y139355D01*
X124893D01*
Y139344D01*
D02*
G37*
%LPC*%
G36*
X153952Y168319D02*
X145759D01*
Y168307D01*
X145735D01*
Y168295D01*
X145711D01*
Y168283D01*
X145687D01*
Y168271D01*
X145675D01*
Y168259D01*
X145663D01*
Y168247D01*
X145651D01*
Y168236D01*
X145640D01*
Y168224D01*
X145628D01*
Y168200D01*
X145616D01*
Y168164D01*
X145604D01*
Y159947D01*
X145616D01*
Y159923D01*
X145628D01*
Y159899D01*
X145640D01*
Y159887D01*
X145651D01*
Y159863D01*
X145663D01*
Y159851D01*
X145687D01*
Y159839D01*
X145699D01*
Y159828D01*
X145723D01*
Y159816D01*
X145747D01*
Y159804D01*
X153964D01*
Y159816D01*
X154000D01*
Y159828D01*
X154012D01*
Y159839D01*
X154036D01*
Y159851D01*
X154048D01*
Y159863D01*
X154060D01*
Y159875D01*
X154071D01*
Y159887D01*
X154083D01*
Y159911D01*
X154095D01*
Y159935D01*
X154107D01*
Y159970D01*
X154119D01*
Y168152D01*
X154107D01*
Y168188D01*
X154095D01*
Y168212D01*
X154083D01*
Y168224D01*
X154071D01*
Y168247D01*
X154060D01*
Y168259D01*
X154048D01*
Y168271D01*
X154036D01*
Y168283D01*
X154012D01*
Y168295D01*
X153988D01*
Y168307D01*
X153952D01*
Y168319D01*
D02*
G37*
%LPD*%
G36*
X152118Y166604D02*
X152166D01*
Y166592D01*
X152190D01*
Y166580D01*
X152225D01*
Y166568D01*
X152237D01*
Y166556D01*
X152261D01*
Y166544D01*
X152273D01*
Y166533D01*
X152285D01*
Y166521D01*
X152297D01*
Y166509D01*
X152309D01*
Y166497D01*
X152321D01*
Y166485D01*
X152333D01*
Y166473D01*
X152345D01*
Y166461D01*
X152357D01*
Y166437D01*
X152368D01*
Y166425D01*
X152380D01*
Y166390D01*
X152392D01*
Y166366D01*
X152404D01*
Y166306D01*
X152416D01*
Y161804D01*
X152404D01*
Y161757D01*
X152392D01*
Y161745D01*
Y161721D01*
X152380D01*
Y161697D01*
X152368D01*
Y161673D01*
X152357D01*
Y161662D01*
X152345D01*
Y161650D01*
X152333D01*
Y161626D01*
X152321D01*
Y161614D01*
X152309D01*
Y161602D01*
X152297D01*
Y161590D01*
X152285D01*
Y161578D01*
X152261D01*
Y161566D01*
X152249D01*
Y161554D01*
X152225D01*
Y161542D01*
X152202D01*
Y161531D01*
X152178D01*
Y161519D01*
X152130D01*
Y161507D01*
X147581D01*
Y161519D01*
X147533D01*
Y161531D01*
X147509D01*
Y161542D01*
X147486D01*
Y161554D01*
X147474D01*
Y161566D01*
X147450D01*
Y161578D01*
X147438D01*
Y161590D01*
X147426D01*
Y161602D01*
X147414D01*
Y161614D01*
X147402D01*
Y161626D01*
X147390D01*
Y161638D01*
X147378D01*
Y161650D01*
X147366D01*
Y161662D01*
X147355D01*
Y161685D01*
X147343D01*
Y161709D01*
X147331D01*
Y161733D01*
X147319D01*
Y161781D01*
X147307D01*
Y166342D01*
X147319D01*
Y166378D01*
X147331D01*
Y166413D01*
X147343D01*
Y166425D01*
X147355D01*
Y166449D01*
X147366D01*
Y166473D01*
X147378D01*
Y166485D01*
X147390D01*
Y166497D01*
X147402D01*
Y166509D01*
X147414D01*
Y166521D01*
X147426D01*
Y166533D01*
X147438D01*
Y166544D01*
X147462D01*
Y166556D01*
X147474D01*
Y166568D01*
X147497D01*
Y166580D01*
X147521D01*
Y166592D01*
X147545D01*
Y166604D01*
X147593D01*
Y166616D01*
X152118D01*
Y166604D01*
D02*
G37*
%LPC*%
G36*
X123298Y168319D02*
X115104D01*
Y168307D01*
X115068D01*
Y168295D01*
X115044D01*
Y168283D01*
X115033D01*
Y168271D01*
X115009D01*
Y168259D01*
X114997D01*
Y168247D01*
X114985D01*
Y168224D01*
X114973D01*
Y168212D01*
X114961D01*
Y168188D01*
X114949D01*
Y168152D01*
X114937D01*
Y160483D01*
Y160471D01*
Y159970D01*
X114949D01*
Y159935D01*
X114961D01*
Y159911D01*
X114973D01*
Y159887D01*
X114985D01*
Y159875D01*
X114997D01*
Y159863D01*
X115009D01*
Y159851D01*
X115021D01*
Y159839D01*
X115044D01*
Y159828D01*
X115056D01*
Y159816D01*
X115092D01*
Y159804D01*
X123310D01*
Y159816D01*
X123333D01*
Y159828D01*
X123357D01*
Y159839D01*
X123369D01*
Y159851D01*
X123393D01*
Y159863D01*
X123405D01*
Y159887D01*
X123417D01*
Y159899D01*
X123429D01*
Y159923D01*
X123441D01*
Y159947D01*
X123452D01*
Y168164D01*
X123441D01*
Y168200D01*
X123429D01*
Y168224D01*
X123417D01*
Y168236D01*
X123405D01*
Y168247D01*
X123393D01*
Y168259D01*
X123381D01*
Y168271D01*
X123369D01*
Y168283D01*
X123345D01*
Y168295D01*
X123321D01*
Y168307D01*
X123298D01*
Y168319D01*
D02*
G37*
%LPD*%
G36*
X121464Y166604D02*
X121511D01*
Y166592D01*
X121535D01*
Y166580D01*
X121559D01*
Y166568D01*
X121583D01*
Y166556D01*
X121595D01*
Y166544D01*
X121618D01*
Y166533D01*
X121630D01*
Y166521D01*
X121642D01*
Y166509D01*
X121654D01*
Y166497D01*
X121666D01*
Y166485D01*
X121678D01*
Y166461D01*
X121690D01*
Y166449D01*
X121702D01*
Y166425D01*
X121714D01*
Y166402D01*
X121726D01*
Y166378D01*
X121738D01*
Y166330D01*
X121749D01*
Y161781D01*
X121738D01*
Y161745D01*
X121726D01*
Y161709D01*
X121714D01*
Y161685D01*
X121702D01*
Y161673D01*
X121690D01*
Y161650D01*
X121678D01*
Y161638D01*
X121666D01*
Y161626D01*
X121654D01*
Y161614D01*
X121642D01*
Y161602D01*
X121630D01*
Y161590D01*
X121618D01*
Y161578D01*
X121607D01*
Y161566D01*
X121583D01*
Y161554D01*
X121571D01*
Y161542D01*
X121547D01*
Y161531D01*
X121511D01*
Y161519D01*
X121476D01*
Y161507D01*
X116914D01*
Y161519D01*
X116878D01*
Y161531D01*
X116855D01*
Y161542D01*
X116831D01*
Y161554D01*
X116807D01*
Y161566D01*
X116795D01*
Y161578D01*
X116771D01*
Y161590D01*
X116759D01*
Y161602D01*
X116747D01*
Y161614D01*
X116736D01*
Y161626D01*
X116724D01*
Y161638D01*
X116712D01*
Y161662D01*
X116700D01*
Y161673D01*
X116688D01*
Y161697D01*
X116676D01*
Y161721D01*
X116664D01*
Y161757D01*
X116652D01*
Y161793D01*
X116640D01*
Y166318D01*
X116652D01*
Y166366D01*
X116664D01*
Y166390D01*
X116676D01*
Y166425D01*
X116688D01*
Y166437D01*
X116700D01*
Y166461D01*
X116712D01*
Y166473D01*
X116724D01*
Y166485D01*
X116736D01*
Y166509D01*
X116747D01*
Y166521D01*
X116771D01*
Y166533D01*
X116783D01*
Y166544D01*
X116795D01*
Y166556D01*
X116807D01*
Y166568D01*
X116831D01*
Y166580D01*
X116855D01*
Y166592D01*
X116891D01*
Y166604D01*
X116938D01*
Y166616D01*
X121464D01*
Y166604D01*
D02*
G37*
%LPC*%
G36*
X125155Y154695D02*
X123464D01*
Y154683D01*
X123452D01*
Y153004D01*
X123464D01*
Y152992D01*
X125155D01*
Y151289D01*
X126871D01*
Y151312D01*
X126859D01*
Y151324D01*
X126871D01*
Y152980D01*
X126859D01*
Y152992D01*
X125155D01*
Y154695D01*
D02*
G37*
G36*
X133671Y147871D02*
X131980D01*
Y146179D01*
X133671D01*
Y147871D01*
D02*
G37*
G36*
X147295Y141070D02*
X142198D01*
Y141047D01*
X142186D01*
Y141023D01*
X142198D01*
Y141011D01*
X142186D01*
Y136009D01*
X142198D01*
Y135997D01*
X142186D01*
Y135973D01*
X142198D01*
Y135961D01*
X147271D01*
Y135949D01*
X147283D01*
Y135961D01*
X147295D01*
Y135973D01*
X147307D01*
Y141058D01*
X147295D01*
Y141070D01*
D02*
G37*
G36*
X143901Y134246D02*
X142198D01*
Y134234D01*
X142186D01*
Y134222D01*
X142198D01*
Y134199D01*
X142186D01*
Y132603D01*
X142198D01*
Y132579D01*
X142186D01*
Y132567D01*
X142198D01*
Y132555D01*
X143901D01*
Y134246D01*
D02*
G37*
G36*
X147307Y132555D02*
X145604D01*
Y130840D01*
X147295D01*
Y130852D01*
X147307D01*
Y132186D01*
Y132198D01*
Y132555D01*
D02*
G37*
%LPD*%
G36*
X145604Y137664D02*
X143901D01*
Y139355D01*
X145604D01*
Y137664D01*
D02*
G37*
%LPC*%
G36*
X123262D02*
X115128D01*
Y137652D01*
X115080D01*
Y137641D01*
X115056D01*
Y137628D01*
X115033D01*
Y137617D01*
X115021D01*
Y137605D01*
X114997D01*
Y137581D01*
X114985D01*
Y137569D01*
X114973D01*
Y137557D01*
X114961D01*
Y137521D01*
X114949D01*
Y137497D01*
X114937D01*
Y135568D01*
Y135556D01*
Y129304D01*
X114949D01*
Y129280D01*
X114961D01*
Y129244D01*
X114973D01*
Y129232D01*
X114985D01*
Y129220D01*
X114997D01*
Y129197D01*
X115021D01*
Y129185D01*
X115033D01*
Y129173D01*
X115056D01*
Y129161D01*
X115080D01*
Y129149D01*
X115140D01*
Y129137D01*
X123250D01*
Y129149D01*
X123310D01*
Y129161D01*
X123345D01*
Y129173D01*
X123369D01*
Y129185D01*
X123381D01*
Y129197D01*
X123393D01*
Y129209D01*
X123405D01*
Y129220D01*
X123417D01*
Y129244D01*
X123429D01*
Y129256D01*
X123441D01*
Y129292D01*
X123452D01*
Y137509D01*
X123441D01*
Y137545D01*
X123429D01*
Y137557D01*
X123417D01*
Y137581D01*
X123405D01*
Y137593D01*
X123393D01*
Y137605D01*
X123381D01*
Y137617D01*
X123357D01*
Y137628D01*
X123345D01*
Y137641D01*
X123310D01*
Y137652D01*
X123262D01*
Y137664D01*
D02*
G37*
%LPD*%
G36*
X121428Y135949D02*
X121487D01*
Y135937D01*
X121523D01*
Y135925D01*
X121547D01*
Y135914D01*
X121571D01*
Y135902D01*
X121595D01*
Y135890D01*
X121607D01*
Y135878D01*
X121618D01*
Y135866D01*
X121642D01*
Y135854D01*
X121654D01*
Y135842D01*
X121666D01*
Y135818D01*
X121678D01*
Y135806D01*
X121690D01*
Y135794D01*
X121702D01*
Y135771D01*
X121714D01*
Y135747D01*
X121726D01*
Y135723D01*
X121738D01*
Y135675D01*
X121749D01*
Y132091D01*
Y132079D01*
Y131126D01*
X121738D01*
Y131078D01*
X121726D01*
Y131055D01*
X121714D01*
Y131031D01*
X121702D01*
Y131007D01*
X121690D01*
Y130995D01*
X121678D01*
Y130983D01*
X121666D01*
Y130959D01*
X121654D01*
Y130947D01*
X121642D01*
Y130936D01*
X121618D01*
Y130924D01*
X121607D01*
Y130912D01*
X121595D01*
Y130900D01*
X121571D01*
Y130888D01*
X121559D01*
Y130876D01*
X121523D01*
Y130864D01*
X121487D01*
Y130852D01*
X121440D01*
Y130840D01*
X116950D01*
Y130852D01*
X116902D01*
Y130864D01*
X116867D01*
Y130876D01*
X116843D01*
Y130888D01*
X116819D01*
Y130900D01*
X116807D01*
Y130912D01*
X116783D01*
Y130924D01*
X116771D01*
Y130936D01*
X116759D01*
Y130947D01*
X116747D01*
Y130959D01*
X116736D01*
Y130971D01*
X116724D01*
Y130983D01*
X116712D01*
Y130995D01*
X116700D01*
Y131019D01*
X116688D01*
Y131031D01*
X116676D01*
Y131067D01*
X116664D01*
Y131090D01*
X116652D01*
Y131138D01*
X116640D01*
Y135663D01*
X116652D01*
Y135711D01*
X116664D01*
Y135735D01*
X116676D01*
Y135759D01*
X116688D01*
Y135783D01*
X116700D01*
Y135794D01*
X116712D01*
Y135818D01*
X116724D01*
Y135830D01*
X116736D01*
Y135842D01*
X116747D01*
Y135854D01*
X116759D01*
Y135866D01*
X116771D01*
Y135878D01*
X116783D01*
Y135890D01*
X116807D01*
Y135902D01*
X116819D01*
Y135914D01*
X116843D01*
Y135925D01*
X116867D01*
Y135937D01*
X116902D01*
Y135949D01*
X116962D01*
Y135961D01*
X121428D01*
Y135949D01*
D02*
G37*
%LPC*%
G36*
X143103Y113191D02*
X142877D01*
Y113179D01*
X142841D01*
Y113167D01*
X142817D01*
Y113155D01*
X142781D01*
Y113143D01*
X142770D01*
Y113131D01*
X142746D01*
Y113119D01*
X142734D01*
Y113107D01*
X142710D01*
Y113095D01*
X142698D01*
Y113083D01*
X142686D01*
Y113072D01*
X142674D01*
Y113059D01*
X142662D01*
Y113036D01*
X142650D01*
Y113012D01*
X142639D01*
Y113000D01*
X142627D01*
Y112964D01*
X142615D01*
Y112928D01*
X142603D01*
Y112881D01*
X142591D01*
Y112631D01*
X142603D01*
Y112583D01*
X142615D01*
Y112547D01*
X142627D01*
Y112512D01*
X142639D01*
Y112500D01*
X142650D01*
Y112476D01*
X142662D01*
Y112452D01*
X142674D01*
Y112440D01*
X142686D01*
Y112428D01*
X142698D01*
Y112416D01*
X142710D01*
Y112405D01*
X142722D01*
Y112393D01*
X142746D01*
Y112381D01*
X142758D01*
Y112369D01*
X142781D01*
Y112357D01*
X142805D01*
Y112345D01*
X142829D01*
Y112333D01*
X142865D01*
Y112321D01*
X142936D01*
Y112309D01*
X143055D01*
Y112321D01*
X143127D01*
Y112333D01*
X143163D01*
Y112345D01*
X143174D01*
Y112357D01*
X143210D01*
Y112369D01*
X143222D01*
Y112381D01*
X143246D01*
Y112393D01*
X143258D01*
Y112405D01*
X143270D01*
Y112416D01*
X143293D01*
Y112440D01*
X143305D01*
Y112452D01*
X143317D01*
Y112464D01*
X143329D01*
Y112476D01*
X143341D01*
Y112500D01*
X143353D01*
Y112524D01*
X143365D01*
Y112547D01*
X143377D01*
Y112583D01*
X143389D01*
Y112643D01*
X143401D01*
Y112869D01*
X143389D01*
Y112928D01*
X143377D01*
Y112964D01*
X143365D01*
Y112988D01*
X143353D01*
Y113012D01*
X143341D01*
Y113036D01*
X143329D01*
Y113048D01*
X143317D01*
Y113059D01*
X143305D01*
Y113072D01*
X143293D01*
Y113083D01*
X143282D01*
Y113095D01*
X143270D01*
Y113107D01*
X143258D01*
Y113119D01*
X143234D01*
Y113131D01*
X143222D01*
Y113143D01*
X143198D01*
Y113155D01*
X143174D01*
Y113167D01*
X143151D01*
Y113179D01*
X143103D01*
Y113191D01*
D02*
G37*
G36*
X146950Y111678D02*
X146569D01*
Y111666D01*
X146449D01*
Y111654D01*
X146366D01*
Y111642D01*
X146330D01*
Y111630D01*
X146271D01*
Y111618D01*
X146223D01*
Y111607D01*
X146187D01*
Y111595D01*
X146140D01*
Y111583D01*
X146116D01*
Y111571D01*
X146080D01*
Y111559D01*
X146045D01*
Y111547D01*
X146021D01*
Y111535D01*
X145997D01*
Y111523D01*
X145973D01*
Y111511D01*
X145949D01*
Y111499D01*
X145914D01*
Y111487D01*
X145902D01*
Y111476D01*
X145878D01*
Y111464D01*
X145854D01*
Y111452D01*
X145842D01*
Y111440D01*
X145818D01*
Y111428D01*
X145794D01*
Y111416D01*
X145782D01*
Y111404D01*
X145759D01*
Y111392D01*
X145747D01*
Y111380D01*
X145723D01*
Y111368D01*
X145711D01*
Y111356D01*
X145699D01*
Y111345D01*
X145675D01*
Y111333D01*
X145663D01*
Y111321D01*
X145651D01*
Y111309D01*
X145640D01*
Y111297D01*
X145628D01*
Y111285D01*
X145616D01*
Y111273D01*
X145592D01*
Y111261D01*
X145580D01*
Y111249D01*
X145568D01*
Y111237D01*
X145556D01*
Y111225D01*
X145544D01*
Y111202D01*
X145532D01*
Y111190D01*
X145520D01*
Y111178D01*
X145509D01*
Y111166D01*
X145497D01*
Y111154D01*
X145485D01*
Y111142D01*
X145473D01*
Y111118D01*
X145461D01*
Y111106D01*
X145449D01*
Y111094D01*
X145437D01*
Y111071D01*
X145425D01*
Y111059D01*
X145413D01*
Y111035D01*
X145401D01*
Y111023D01*
X145354D01*
Y111071D01*
X145342D01*
Y111130D01*
X145330D01*
Y111202D01*
X145318D01*
Y111273D01*
X145306D01*
Y111321D01*
X145294D01*
Y111404D01*
X145282D01*
Y111464D01*
X145271D01*
Y111523D01*
X145258D01*
Y111595D01*
X145247D01*
Y111607D01*
X144699D01*
Y111595D01*
X144687D01*
Y108677D01*
Y108665D01*
Y107343D01*
X145389D01*
Y109808D01*
X145401D01*
Y109939D01*
X145413D01*
Y110035D01*
X145425D01*
Y110118D01*
X145437D01*
Y110166D01*
X145449D01*
Y110237D01*
X145461D01*
Y110285D01*
X145473D01*
Y110320D01*
X145485D01*
Y110368D01*
X145497D01*
Y110392D01*
X145509D01*
Y110428D01*
X145520D01*
Y110463D01*
X145532D01*
Y110487D01*
X145544D01*
Y110511D01*
X145556D01*
Y110547D01*
X145568D01*
Y110559D01*
X145580D01*
Y110582D01*
X145592D01*
Y110606D01*
X145604D01*
Y110630D01*
X145616D01*
Y110654D01*
X145628D01*
Y110666D01*
X145640D01*
Y110678D01*
X145651D01*
Y110702D01*
X145663D01*
Y110713D01*
X145675D01*
Y110725D01*
X145687D01*
Y110737D01*
X145699D01*
Y110761D01*
X145711D01*
Y110773D01*
X145723D01*
Y110785D01*
X145735D01*
Y110797D01*
X145747D01*
Y110809D01*
X145759D01*
Y110821D01*
X145771D01*
Y110833D01*
X145782D01*
Y110844D01*
X145806D01*
Y110856D01*
X145818D01*
Y110868D01*
X145830D01*
Y110880D01*
X145842D01*
Y110892D01*
X145866D01*
Y110904D01*
X145890D01*
Y110916D01*
X145902D01*
Y110928D01*
X145925D01*
Y110940D01*
X145937D01*
Y110952D01*
X145961D01*
Y110963D01*
X145997D01*
Y110975D01*
X146009D01*
Y110987D01*
X146045D01*
Y110999D01*
X146080D01*
Y111011D01*
X146104D01*
Y111023D01*
X146140D01*
Y111035D01*
X146176D01*
Y111047D01*
X146223D01*
Y111059D01*
X146295D01*
Y111071D01*
X146342D01*
Y111083D01*
X146473D01*
Y111094D01*
X146783D01*
Y111083D01*
X146890D01*
Y111071D01*
X146938D01*
Y111059D01*
X146997D01*
Y111047D01*
X147033D01*
Y111035D01*
X147069D01*
Y111023D01*
X147105D01*
Y111011D01*
X147128D01*
Y110999D01*
X147152D01*
Y110987D01*
X147176D01*
Y110975D01*
X147200D01*
Y110963D01*
X147224D01*
Y110952D01*
X147236D01*
Y110940D01*
X147247D01*
Y110928D01*
X147271D01*
Y110916D01*
X147283D01*
Y110904D01*
X147295D01*
Y110892D01*
X147319D01*
Y110880D01*
X147331D01*
Y110868D01*
X147343D01*
Y110856D01*
X147355D01*
Y110844D01*
X147366D01*
Y110821D01*
X147378D01*
Y110809D01*
X147390D01*
Y110797D01*
X147402D01*
Y110785D01*
X147414D01*
Y110761D01*
X147426D01*
Y110737D01*
X147438D01*
Y110725D01*
X147450D01*
Y110702D01*
X147462D01*
Y110678D01*
X147474D01*
Y110666D01*
X147486D01*
Y110630D01*
X147497D01*
Y110606D01*
X147509D01*
Y110571D01*
X147521D01*
Y110535D01*
X147533D01*
Y110499D01*
X147545D01*
Y110451D01*
X147557D01*
Y110392D01*
X147569D01*
Y110320D01*
X147581D01*
Y110154D01*
X147593D01*
Y107343D01*
X148284D01*
Y110273D01*
X148272D01*
Y110428D01*
X148260D01*
Y110511D01*
X148248D01*
Y110594D01*
X148236D01*
Y110642D01*
X148224D01*
Y110702D01*
X148212D01*
Y110749D01*
X148200D01*
Y110785D01*
X148188D01*
Y110833D01*
X148176D01*
Y110868D01*
X148164D01*
Y110892D01*
X148152D01*
Y110928D01*
X148141D01*
Y110952D01*
X148129D01*
Y110975D01*
X148117D01*
Y111011D01*
X148105D01*
Y111023D01*
X148093D01*
Y111047D01*
X148081D01*
Y111071D01*
X148069D01*
Y111094D01*
X148057D01*
Y111106D01*
X148045D01*
Y111130D01*
X148033D01*
Y111142D01*
X148021D01*
Y111166D01*
X148010D01*
Y111178D01*
X147998D01*
Y111202D01*
X147986D01*
Y111214D01*
X147974D01*
Y111225D01*
X147962D01*
Y111237D01*
X147950D01*
Y111249D01*
X147938D01*
Y111273D01*
X147926D01*
Y111285D01*
X147914D01*
Y111297D01*
X147902D01*
Y111309D01*
X147890D01*
Y111321D01*
X147879D01*
Y111333D01*
X147867D01*
Y111345D01*
X147843D01*
Y111356D01*
X147831D01*
Y111368D01*
X147819D01*
Y111380D01*
X147807D01*
Y111392D01*
X147783D01*
Y111404D01*
X147771D01*
Y111416D01*
X147759D01*
Y111428D01*
X147736D01*
Y111440D01*
X147712D01*
Y111452D01*
X147700D01*
Y111464D01*
X147676D01*
Y111476D01*
X147652D01*
Y111487D01*
X147640D01*
Y111499D01*
X147617D01*
Y111511D01*
X147593D01*
Y111523D01*
X147569D01*
Y111535D01*
X147533D01*
Y111547D01*
X147509D01*
Y111559D01*
X147474D01*
Y111571D01*
X147438D01*
Y111583D01*
X147414D01*
Y111595D01*
X147366D01*
Y111607D01*
X147331D01*
Y111618D01*
X147283D01*
Y111630D01*
X147224D01*
Y111642D01*
X147176D01*
Y111654D01*
X147081D01*
Y111666D01*
X146950D01*
Y111678D01*
D02*
G37*
G36*
X133349Y113012D02*
X132516D01*
Y113000D01*
X132504D01*
Y112988D01*
X132492D01*
Y112964D01*
X132480D01*
Y112952D01*
X132468D01*
Y112941D01*
X132456D01*
Y112928D01*
X132444D01*
Y112917D01*
X132432D01*
Y112905D01*
X132420D01*
Y112893D01*
X132408D01*
Y112869D01*
X132396D01*
Y112857D01*
X132385D01*
Y112845D01*
X132373D01*
Y112833D01*
X132361D01*
Y112821D01*
X132349D01*
Y112809D01*
X132337D01*
Y112797D01*
X132325D01*
Y112786D01*
X132313D01*
Y112774D01*
X132301D01*
Y112750D01*
X132289D01*
Y112738D01*
X132277D01*
Y112726D01*
X132265D01*
Y112714D01*
X132254D01*
Y112702D01*
X132242D01*
Y112690D01*
X132230D01*
Y112678D01*
X132218D01*
Y112666D01*
X132206D01*
Y112643D01*
X132182D01*
Y112619D01*
X132170D01*
Y112607D01*
X132158D01*
Y112595D01*
X132146D01*
Y112583D01*
X132134D01*
Y112571D01*
X132123D01*
Y112559D01*
X132111D01*
Y112547D01*
X132099D01*
Y112536D01*
X132087D01*
Y112512D01*
X132075D01*
Y112500D01*
X132063D01*
Y112488D01*
X132051D01*
Y112476D01*
X132039D01*
Y112464D01*
X132027D01*
Y112452D01*
X132015D01*
Y112440D01*
X132003D01*
Y112428D01*
X131992D01*
Y112405D01*
X131980D01*
Y112393D01*
X131968D01*
Y112381D01*
X131956D01*
Y112369D01*
X131944D01*
Y112357D01*
X131932D01*
Y112345D01*
X131920D01*
Y112333D01*
X131908D01*
Y112321D01*
X131896D01*
Y112297D01*
X131884D01*
Y112285D01*
X131872D01*
Y112274D01*
X131860D01*
Y112262D01*
X131849D01*
Y112250D01*
X131837D01*
Y112238D01*
X131825D01*
Y112226D01*
X131813D01*
Y112214D01*
X131801D01*
Y112202D01*
X131789D01*
Y112178D01*
X131777D01*
Y112166D01*
X131765D01*
Y112154D01*
X131753D01*
Y112143D01*
X131741D01*
Y112131D01*
X131729D01*
Y112119D01*
X131718D01*
Y112107D01*
X131706D01*
Y112095D01*
X131694D01*
Y112071D01*
X131682D01*
Y112059D01*
X131670D01*
Y112047D01*
X131658D01*
Y112035D01*
X131646D01*
Y112023D01*
X131634D01*
Y112012D01*
X131622D01*
Y112000D01*
X131610D01*
Y111988D01*
X131598D01*
Y111964D01*
X131587D01*
Y111952D01*
X131575D01*
Y111940D01*
X131563D01*
Y111928D01*
X131551D01*
Y111916D01*
X131539D01*
Y111904D01*
X131527D01*
Y111892D01*
X131515D01*
Y111881D01*
X131503D01*
Y111869D01*
X131491D01*
Y111857D01*
X131479D01*
Y111833D01*
X131467D01*
Y111821D01*
X131456D01*
Y111809D01*
X131444D01*
Y111797D01*
X131432D01*
Y111785D01*
X131420D01*
Y111773D01*
X131408D01*
Y111761D01*
X131396D01*
Y111749D01*
X131384D01*
Y111726D01*
X131372D01*
Y111714D01*
X131360D01*
Y111702D01*
X131348D01*
Y111690D01*
X131336D01*
Y111678D01*
X131325D01*
Y111666D01*
X131313D01*
Y111654D01*
X131301D01*
Y111642D01*
X131289D01*
Y111618D01*
X131277D01*
Y111607D01*
X131265D01*
Y111595D01*
X131253D01*
Y111583D01*
X131241D01*
Y111571D01*
X131229D01*
Y111559D01*
X131217D01*
Y111547D01*
X131205D01*
Y111535D01*
X131194D01*
Y111523D01*
X131182D01*
Y111511D01*
X131170D01*
Y111487D01*
X131158D01*
Y111476D01*
X131146D01*
Y111464D01*
X131134D01*
Y111452D01*
X131122D01*
Y111440D01*
X131110D01*
Y111428D01*
X131098D01*
Y111416D01*
X131086D01*
Y111404D01*
X131075D01*
Y111380D01*
X131063D01*
Y111368D01*
X131051D01*
Y111356D01*
X131039D01*
Y111345D01*
X131027D01*
Y111333D01*
X131015D01*
Y111321D01*
X131003D01*
Y111309D01*
X130991D01*
Y111297D01*
X130979D01*
Y111285D01*
X130967D01*
Y111261D01*
X130955D01*
Y111249D01*
X130944D01*
Y111237D01*
X130932D01*
Y111225D01*
X130920D01*
Y111214D01*
X130908D01*
Y111202D01*
X130896D01*
Y111190D01*
X130884D01*
Y111178D01*
X130872D01*
Y111154D01*
X130860D01*
Y111142D01*
X130848D01*
Y111130D01*
X130836D01*
Y111118D01*
X130824D01*
Y111106D01*
X130813D01*
Y111094D01*
X130801D01*
Y111083D01*
X130789D01*
Y111071D01*
X130777D01*
Y111047D01*
X130765D01*
Y111035D01*
X130753D01*
Y111023D01*
X130741D01*
Y111011D01*
X130729D01*
Y110999D01*
X130717D01*
Y110987D01*
X130705D01*
Y110975D01*
X130693D01*
Y110963D01*
X130682D01*
Y110952D01*
X130670D01*
Y110940D01*
X130658D01*
Y110916D01*
X130646D01*
Y110904D01*
X130634D01*
Y110892D01*
X130622D01*
Y110880D01*
X130610D01*
Y110868D01*
X130598D01*
Y110856D01*
X130586D01*
Y110844D01*
X130574D01*
Y110833D01*
X130562D01*
Y110809D01*
X130551D01*
Y110797D01*
X130539D01*
Y110785D01*
X130527D01*
Y110773D01*
X130515D01*
Y110761D01*
X130503D01*
Y110749D01*
X130491D01*
Y110737D01*
X130479D01*
Y110725D01*
X130467D01*
Y110702D01*
X130455D01*
Y110690D01*
X130443D01*
Y110678D01*
X130431D01*
Y110666D01*
X130420D01*
Y110654D01*
X130408D01*
Y110642D01*
X130396D01*
Y110630D01*
X130384D01*
Y110618D01*
X130372D01*
Y110606D01*
X130360D01*
Y110594D01*
X130348D01*
Y110582D01*
X130336D01*
Y110559D01*
X130324D01*
Y110547D01*
X130312D01*
Y110535D01*
X130300D01*
Y110523D01*
X130289D01*
Y110511D01*
X130277D01*
Y110499D01*
X130265D01*
Y110487D01*
X130253D01*
Y110475D01*
X130241D01*
Y110451D01*
X130229D01*
Y110440D01*
X130217D01*
Y110428D01*
X130205D01*
Y110416D01*
X130193D01*
Y110404D01*
X130181D01*
Y110392D01*
X130169D01*
Y110380D01*
X130157D01*
Y110368D01*
X130146D01*
Y110356D01*
X130134D01*
Y110344D01*
X130122D01*
Y110332D01*
X130110D01*
Y110309D01*
X130098D01*
Y110297D01*
X130086D01*
Y110285D01*
X130074D01*
Y110273D01*
X130062D01*
Y110261D01*
X130050D01*
Y110249D01*
X130038D01*
Y110237D01*
X130026D01*
Y110225D01*
X130015D01*
Y113012D01*
X129312D01*
Y113000D01*
X129300D01*
Y107355D01*
X129312D01*
Y107343D01*
X130015D01*
Y109546D01*
X130026D01*
Y109558D01*
X130038D01*
Y109570D01*
X130050D01*
Y109582D01*
X130074D01*
Y109594D01*
X130086D01*
Y109606D01*
X130098D01*
Y109618D01*
X130110D01*
Y109630D01*
X130122D01*
Y109642D01*
X130134D01*
Y109653D01*
X130146D01*
Y109665D01*
X130157D01*
Y109677D01*
X130181D01*
Y109689D01*
X130193D01*
Y109701D01*
X130205D01*
Y109713D01*
X130217D01*
Y109725D01*
X130229D01*
Y109737D01*
X130241D01*
Y109749D01*
X130253D01*
Y109761D01*
X130277D01*
Y109773D01*
X130289D01*
Y109784D01*
X130300D01*
Y109796D01*
X130312D01*
Y109808D01*
X130324D01*
Y109820D01*
X130336D01*
Y109832D01*
X130348D01*
Y109844D01*
X130372D01*
Y109856D01*
X130384D01*
Y109868D01*
X130396D01*
Y109880D01*
X130408D01*
Y109892D01*
X130420D01*
Y109904D01*
X130431D01*
Y109915D01*
X130443D01*
Y109927D01*
X130455D01*
Y109939D01*
X130479D01*
Y109951D01*
X130491D01*
Y109963D01*
X130503D01*
Y109975D01*
X130515D01*
Y109987D01*
X130527D01*
Y109999D01*
X130539D01*
Y110011D01*
X130562D01*
Y110023D01*
X130574D01*
Y110035D01*
X130586D01*
Y110047D01*
X130610D01*
Y110023D01*
X130622D01*
Y110011D01*
X130634D01*
Y109987D01*
X130646D01*
Y109975D01*
X130658D01*
Y109963D01*
X130670D01*
Y109951D01*
X130682D01*
Y109927D01*
X130693D01*
Y109915D01*
X130705D01*
Y109892D01*
X130717D01*
Y109880D01*
X130729D01*
Y109868D01*
X130741D01*
Y109844D01*
X130753D01*
Y109832D01*
X130765D01*
Y109820D01*
X130777D01*
Y109796D01*
X130789D01*
Y109784D01*
X130801D01*
Y109773D01*
X130813D01*
Y109749D01*
X130824D01*
Y109737D01*
X130836D01*
Y109725D01*
X130848D01*
Y109701D01*
X130860D01*
Y109689D01*
X130872D01*
Y109677D01*
X130884D01*
Y109653D01*
X130896D01*
Y109642D01*
X130908D01*
Y109618D01*
X130920D01*
Y109606D01*
X130932D01*
Y109594D01*
X130944D01*
Y109570D01*
X130955D01*
Y109558D01*
X130967D01*
Y109546D01*
X130979D01*
Y109522D01*
X130991D01*
Y109511D01*
X131003D01*
Y109499D01*
X131015D01*
Y109475D01*
X131027D01*
Y109463D01*
X131039D01*
Y109451D01*
X131051D01*
Y109439D01*
X131063D01*
Y109415D01*
X131075D01*
Y109403D01*
X131086D01*
Y109380D01*
X131098D01*
Y109368D01*
X131110D01*
Y109356D01*
X131122D01*
Y109332D01*
X131134D01*
Y109320D01*
X131146D01*
Y109308D01*
X131158D01*
Y109284D01*
X131170D01*
Y109272D01*
X131182D01*
Y109260D01*
X131194D01*
Y109237D01*
X131205D01*
Y109225D01*
X131217D01*
Y109213D01*
X131229D01*
Y109189D01*
X131241D01*
Y109177D01*
X131253D01*
Y109153D01*
X131265D01*
Y109141D01*
X131277D01*
Y109130D01*
X131289D01*
Y109106D01*
X131301D01*
Y109094D01*
X131313D01*
Y109082D01*
X131325D01*
Y109058D01*
X131336D01*
Y109046D01*
X131348D01*
Y109034D01*
X131360D01*
Y109010D01*
X131372D01*
Y108999D01*
X131384D01*
Y108987D01*
X131396D01*
Y108963D01*
X131408D01*
Y108951D01*
X131420D01*
Y108939D01*
X131432D01*
Y108915D01*
X131444D01*
Y108903D01*
X131456D01*
Y108891D01*
X131467D01*
Y108868D01*
X131479D01*
Y108855D01*
X131491D01*
Y108844D01*
X131503D01*
Y108820D01*
X131515D01*
Y108808D01*
X131527D01*
Y108796D01*
X131539D01*
Y108772D01*
X131551D01*
Y108760D01*
X131563D01*
Y108748D01*
X131575D01*
Y108724D01*
X131587D01*
Y108713D01*
X131598D01*
Y108701D01*
X131610D01*
Y108677D01*
X131622D01*
Y108665D01*
X131634D01*
Y108641D01*
X131646D01*
Y108629D01*
X131658D01*
Y108617D01*
X131670D01*
Y108593D01*
X131682D01*
Y108582D01*
X131694D01*
Y108570D01*
X131706D01*
Y108546D01*
X131718D01*
Y108534D01*
X131729D01*
Y108522D01*
X131741D01*
Y108498D01*
X131753D01*
Y108486D01*
X131765D01*
Y108474D01*
X131777D01*
Y108451D01*
X131789D01*
Y108439D01*
X131801D01*
Y108427D01*
X131813D01*
Y108403D01*
X131825D01*
Y108391D01*
X131837D01*
Y108379D01*
X131849D01*
Y108355D01*
X131860D01*
Y108343D01*
X131872D01*
Y108332D01*
X131884D01*
Y108308D01*
X131896D01*
Y108296D01*
X131908D01*
Y108284D01*
X131920D01*
Y108260D01*
X131932D01*
Y108248D01*
X131944D01*
Y108236D01*
X131956D01*
Y108212D01*
X131968D01*
Y108201D01*
X131980D01*
Y108189D01*
X131992D01*
Y108165D01*
X132003D01*
Y108153D01*
X132015D01*
Y108129D01*
X132027D01*
Y108117D01*
X132039D01*
Y108105D01*
X132051D01*
Y108081D01*
X132063D01*
Y108070D01*
X132075D01*
Y108058D01*
X132087D01*
Y108034D01*
X132099D01*
Y108022D01*
X132111D01*
Y108010D01*
X132123D01*
Y107986D01*
X132134D01*
Y107974D01*
X132146D01*
Y107962D01*
X132158D01*
Y107939D01*
X132170D01*
Y107927D01*
X132182D01*
Y107915D01*
X132194D01*
Y107891D01*
X132206D01*
Y107879D01*
X132218D01*
Y107867D01*
X132230D01*
Y107843D01*
X132242D01*
Y107831D01*
X132254D01*
Y107819D01*
X132265D01*
Y107796D01*
X132277D01*
Y107784D01*
X132289D01*
Y107772D01*
X132301D01*
Y107748D01*
X132313D01*
Y107736D01*
X132325D01*
Y107724D01*
X132337D01*
Y107700D01*
X132349D01*
Y107688D01*
X132361D01*
Y107676D01*
X132373D01*
Y107653D01*
X132385D01*
Y107641D01*
X132396D01*
Y107617D01*
X132408D01*
Y107605D01*
X132420D01*
Y107593D01*
X132432D01*
Y107569D01*
X132444D01*
Y107557D01*
X132456D01*
Y107545D01*
X132468D01*
Y107522D01*
X132480D01*
Y107510D01*
X132492D01*
Y107498D01*
X132504D01*
Y107474D01*
X132516D01*
Y107462D01*
X132527D01*
Y107450D01*
X132539D01*
Y107426D01*
X132551D01*
Y107414D01*
X132563D01*
Y107391D01*
X132575D01*
Y107379D01*
X132587D01*
Y107367D01*
X132599D01*
Y107355D01*
X132611D01*
Y107343D01*
X133444D01*
Y107367D01*
X133432D01*
Y107379D01*
X133421D01*
Y107391D01*
X133409D01*
Y107414D01*
X133397D01*
Y107426D01*
X133385D01*
Y107438D01*
X133373D01*
Y107462D01*
X133361D01*
Y107474D01*
X133349D01*
Y107498D01*
X133337D01*
Y107510D01*
X133325D01*
Y107522D01*
X133314D01*
Y107545D01*
X133301D01*
Y107557D01*
X133290D01*
Y107569D01*
X133278D01*
Y107593D01*
X133266D01*
Y107605D01*
X133254D01*
Y107629D01*
X133242D01*
Y107641D01*
X133230D01*
Y107653D01*
X133218D01*
Y107676D01*
X133206D01*
Y107688D01*
X133194D01*
Y107700D01*
X133182D01*
Y107724D01*
X133170D01*
Y107736D01*
X133159D01*
Y107760D01*
X133147D01*
Y107772D01*
X133135D01*
Y107784D01*
X133123D01*
Y107808D01*
X133111D01*
Y107819D01*
X133099D01*
Y107831D01*
X133087D01*
Y107855D01*
X133075D01*
Y107867D01*
X133063D01*
Y107879D01*
X133051D01*
Y107903D01*
X133039D01*
Y107915D01*
X133028D01*
Y107939D01*
X133016D01*
Y107950D01*
X133004D01*
Y107962D01*
X132992D01*
Y107986D01*
X132980D01*
Y107998D01*
X132968D01*
Y108010D01*
X132956D01*
Y108034D01*
X132944D01*
Y108046D01*
X132932D01*
Y108058D01*
X132921D01*
Y108081D01*
X132908D01*
Y108093D01*
X132897D01*
Y108117D01*
X132885D01*
Y108129D01*
X132873D01*
Y108141D01*
X132861D01*
Y108165D01*
X132849D01*
Y108177D01*
X132837D01*
Y108189D01*
X132825D01*
Y108212D01*
X132813D01*
Y108224D01*
X132801D01*
Y108236D01*
X132789D01*
Y108260D01*
X132778D01*
Y108272D01*
X132766D01*
Y108284D01*
X132754D01*
Y108308D01*
X132742D01*
Y108320D01*
X132730D01*
Y108343D01*
X132718D01*
Y108355D01*
X132706D01*
Y108367D01*
X132694D01*
Y108391D01*
X132682D01*
Y108403D01*
X132670D01*
Y108415D01*
X132658D01*
Y108439D01*
X132647D01*
Y108451D01*
X132635D01*
Y108474D01*
X132623D01*
Y108486D01*
X132611D01*
Y108498D01*
X132599D01*
Y108522D01*
X132587D01*
Y108534D01*
X132575D01*
Y108546D01*
X132563D01*
Y108570D01*
X132551D01*
Y108582D01*
X132539D01*
Y108605D01*
X132527D01*
Y108617D01*
X132516D01*
Y108629D01*
X132504D01*
Y108653D01*
X132492D01*
Y108665D01*
X132480D01*
Y108677D01*
X132468D01*
Y108701D01*
X132456D01*
Y108713D01*
X132444D01*
Y108736D01*
X132432D01*
Y108748D01*
X132420D01*
Y108760D01*
X132408D01*
Y108784D01*
X132396D01*
Y108796D01*
X132385D01*
Y108808D01*
X132373D01*
Y108832D01*
X132361D01*
Y108844D01*
X132349D01*
Y108855D01*
X132337D01*
Y108879D01*
X132325D01*
Y108891D01*
X132313D01*
Y108915D01*
X132301D01*
Y108927D01*
X132289D01*
Y108939D01*
X132277D01*
Y108963D01*
X132265D01*
Y108975D01*
X132254D01*
Y108987D01*
X132242D01*
Y109010D01*
X132230D01*
Y109022D01*
X132218D01*
Y109046D01*
X132206D01*
Y109058D01*
X132194D01*
Y109070D01*
X132182D01*
Y109094D01*
X132170D01*
Y109106D01*
X132158D01*
Y109118D01*
X132146D01*
Y109141D01*
X132134D01*
Y109153D01*
X132123D01*
Y109177D01*
X132111D01*
Y109189D01*
X132099D01*
Y109201D01*
X132087D01*
Y109225D01*
X132075D01*
Y109237D01*
X132063D01*
Y109249D01*
X132051D01*
Y109272D01*
X132039D01*
Y109284D01*
X132027D01*
Y109308D01*
X132015D01*
Y109320D01*
X132003D01*
Y109332D01*
X131992D01*
Y109356D01*
X131980D01*
Y109368D01*
X131968D01*
Y109380D01*
X131956D01*
Y109403D01*
X131944D01*
Y109415D01*
X131932D01*
Y109439D01*
X131920D01*
Y109451D01*
X131908D01*
Y109463D01*
X131896D01*
Y109487D01*
X131884D01*
Y109499D01*
X131872D01*
Y109511D01*
X131860D01*
Y109534D01*
X131849D01*
Y109546D01*
X131837D01*
Y109558D01*
X131825D01*
Y109582D01*
X131813D01*
Y109594D01*
X131801D01*
Y109618D01*
X131789D01*
Y109630D01*
X131777D01*
Y109642D01*
X131765D01*
Y109665D01*
X131753D01*
Y109677D01*
X131741D01*
Y109689D01*
X131729D01*
Y109713D01*
X131718D01*
Y109725D01*
X131706D01*
Y109749D01*
X131694D01*
Y109761D01*
X131682D01*
Y109773D01*
X131670D01*
Y109796D01*
X131658D01*
Y109808D01*
X131646D01*
Y109820D01*
X131634D01*
Y109844D01*
X131622D01*
Y109856D01*
X131610D01*
Y109880D01*
X131598D01*
Y109892D01*
X131587D01*
Y109904D01*
X131575D01*
Y109927D01*
X131563D01*
Y109939D01*
X131551D01*
Y109951D01*
X131539D01*
Y109975D01*
X131527D01*
Y109987D01*
X131515D01*
Y110011D01*
X131503D01*
Y110023D01*
X131491D01*
Y110035D01*
X131479D01*
Y110058D01*
X131467D01*
Y110070D01*
X131456D01*
Y110082D01*
X131444D01*
Y110106D01*
X131432D01*
Y110118D01*
X131420D01*
Y110142D01*
X131408D01*
Y110154D01*
X131396D01*
Y110166D01*
X131384D01*
Y110189D01*
X131372D01*
Y110201D01*
X131360D01*
Y110213D01*
X131348D01*
Y110237D01*
X131336D01*
Y110249D01*
X131325D01*
Y110261D01*
X131313D01*
Y110285D01*
X131301D01*
Y110297D01*
X131289D01*
Y110320D01*
X131277D01*
Y110332D01*
X131265D01*
Y110344D01*
X131253D01*
Y110368D01*
X131241D01*
Y110380D01*
X131229D01*
Y110392D01*
X131217D01*
Y110416D01*
X131205D01*
Y110428D01*
X131194D01*
Y110451D01*
X131182D01*
Y110463D01*
X131170D01*
Y110475D01*
X131158D01*
Y110499D01*
X131146D01*
Y110511D01*
X131134D01*
Y110523D01*
X131122D01*
Y110559D01*
X131134D01*
Y110571D01*
X131146D01*
Y110582D01*
X131158D01*
Y110594D01*
X131170D01*
Y110606D01*
X131182D01*
Y110618D01*
X131194D01*
Y110642D01*
X131205D01*
Y110654D01*
X131217D01*
Y110666D01*
X131229D01*
Y110678D01*
X131241D01*
Y110690D01*
X131253D01*
Y110702D01*
X131265D01*
Y110713D01*
X131277D01*
Y110725D01*
X131289D01*
Y110737D01*
X131301D01*
Y110749D01*
X131313D01*
Y110773D01*
X131325D01*
Y110785D01*
X131336D01*
Y110797D01*
X131348D01*
Y110809D01*
X131360D01*
Y110821D01*
X131372D01*
Y110833D01*
X131384D01*
Y110844D01*
X131396D01*
Y110856D01*
X131408D01*
Y110868D01*
X131420D01*
Y110892D01*
X131444D01*
Y110916D01*
X131456D01*
Y110928D01*
X131467D01*
Y110940D01*
X131479D01*
Y110952D01*
X131491D01*
Y110963D01*
X131503D01*
Y110975D01*
X131515D01*
Y110987D01*
X131527D01*
Y110999D01*
X131539D01*
Y111023D01*
X131551D01*
Y111035D01*
X131563D01*
Y111047D01*
X131575D01*
Y111059D01*
X131587D01*
Y111071D01*
X131598D01*
Y111083D01*
X131610D01*
Y111094D01*
X131622D01*
Y111106D01*
X131634D01*
Y111118D01*
X131646D01*
Y111130D01*
X131658D01*
Y111142D01*
X131670D01*
Y111166D01*
X131682D01*
Y111178D01*
X131694D01*
Y111190D01*
X131706D01*
Y111202D01*
X131718D01*
Y111214D01*
X131729D01*
Y111225D01*
X131741D01*
Y111237D01*
X131753D01*
Y111249D01*
X131765D01*
Y111261D01*
X131777D01*
Y111273D01*
X131789D01*
Y111297D01*
X131801D01*
Y111309D01*
X131813D01*
Y111321D01*
X131825D01*
Y111333D01*
X131837D01*
Y111345D01*
X131849D01*
Y111356D01*
X131860D01*
Y111368D01*
X131872D01*
Y111380D01*
X131884D01*
Y111392D01*
X131896D01*
Y111416D01*
X131908D01*
Y111428D01*
X131920D01*
Y111440D01*
X131932D01*
Y111452D01*
X131944D01*
Y111464D01*
X131956D01*
Y111476D01*
X131968D01*
Y111487D01*
X131980D01*
Y111499D01*
X131992D01*
Y111511D01*
X132003D01*
Y111523D01*
X132015D01*
Y111535D01*
X132027D01*
Y111559D01*
X132039D01*
Y111571D01*
X132051D01*
Y111583D01*
X132063D01*
Y111595D01*
X132075D01*
Y111607D01*
X132087D01*
Y111618D01*
X132099D01*
Y111630D01*
X132111D01*
Y111642D01*
X132123D01*
Y111654D01*
X132134D01*
Y111666D01*
X132146D01*
Y111690D01*
X132158D01*
Y111702D01*
X132170D01*
Y111714D01*
X132182D01*
Y111726D01*
X132194D01*
Y111738D01*
X132206D01*
Y111749D01*
X132218D01*
Y111761D01*
X132230D01*
Y111773D01*
X132242D01*
Y111785D01*
X132254D01*
Y111797D01*
X132265D01*
Y111821D01*
X132277D01*
Y111833D01*
X132289D01*
Y111845D01*
X132301D01*
Y111857D01*
X132313D01*
Y111869D01*
X132325D01*
Y111881D01*
X132337D01*
Y111892D01*
X132349D01*
Y111904D01*
X132361D01*
Y111916D01*
X132373D01*
Y111940D01*
X132396D01*
Y111964D01*
X132408D01*
Y111976D01*
X132420D01*
Y111988D01*
X132432D01*
Y112000D01*
X132444D01*
Y112012D01*
X132456D01*
Y112023D01*
X132468D01*
Y112035D01*
X132480D01*
Y112047D01*
X132492D01*
Y112071D01*
X132504D01*
Y112083D01*
X132516D01*
Y112095D01*
X132527D01*
Y112107D01*
X132539D01*
Y112119D01*
X132551D01*
Y112131D01*
X132563D01*
Y112143D01*
X132575D01*
Y112154D01*
X132587D01*
Y112166D01*
X132599D01*
Y112178D01*
X132611D01*
Y112190D01*
X132623D01*
Y112214D01*
X132635D01*
Y112226D01*
X132647D01*
Y112238D01*
X132658D01*
Y112250D01*
X132670D01*
Y112262D01*
X132682D01*
Y112274D01*
X132694D01*
Y112285D01*
X132706D01*
Y112297D01*
X132718D01*
Y112309D01*
X132730D01*
Y112321D01*
X132742D01*
Y112345D01*
X132754D01*
Y112357D01*
X132766D01*
Y112369D01*
X132778D01*
Y112381D01*
X132789D01*
Y112393D01*
X132801D01*
Y112405D01*
X132813D01*
Y112416D01*
X132825D01*
Y112428D01*
X132837D01*
Y112440D01*
X132849D01*
Y112464D01*
X132861D01*
Y112476D01*
X132873D01*
Y112488D01*
X132885D01*
Y112500D01*
X132897D01*
Y112512D01*
X132908D01*
Y112524D01*
X132921D01*
Y112536D01*
X132932D01*
Y112547D01*
X132944D01*
Y112559D01*
X132956D01*
Y112571D01*
X132968D01*
Y112583D01*
X132980D01*
Y112607D01*
X132992D01*
Y112619D01*
X133004D01*
Y112631D01*
X133016D01*
Y112643D01*
X133028D01*
Y112655D01*
X133039D01*
Y112666D01*
X133051D01*
Y112678D01*
X133063D01*
Y112690D01*
X133075D01*
Y112702D01*
X133087D01*
Y112714D01*
X133099D01*
Y112738D01*
X133111D01*
Y112750D01*
X133123D01*
Y112762D01*
X133135D01*
Y112774D01*
X133147D01*
Y112786D01*
X133159D01*
Y112797D01*
X133170D01*
Y112809D01*
X133182D01*
Y112821D01*
X133194D01*
Y112833D01*
X133206D01*
Y112857D01*
X133218D01*
Y112869D01*
X133230D01*
Y112881D01*
X133242D01*
Y112893D01*
X133254D01*
Y112905D01*
X133266D01*
Y112917D01*
X133278D01*
Y112928D01*
X133290D01*
Y112941D01*
X133301D01*
Y112952D01*
X133314D01*
Y112964D01*
X133325D01*
Y112976D01*
X133337D01*
Y112988D01*
X133349D01*
Y113012D01*
D02*
G37*
G36*
X141960Y111607D02*
X141221D01*
Y111583D01*
X141209D01*
Y111559D01*
X141198D01*
Y111523D01*
X141185D01*
Y111487D01*
X141174D01*
Y111452D01*
X141162D01*
Y111416D01*
X141150D01*
Y111392D01*
X141138D01*
Y111356D01*
X141126D01*
Y111321D01*
X141114D01*
Y111297D01*
X141102D01*
Y111249D01*
X141090D01*
Y111225D01*
X141078D01*
Y111190D01*
X141066D01*
Y111154D01*
X141054D01*
Y111130D01*
X141043D01*
Y111094D01*
X141031D01*
Y111059D01*
X141019D01*
Y111035D01*
X141007D01*
Y110987D01*
X140995D01*
Y110963D01*
X140983D01*
Y110928D01*
X140971D01*
Y110892D01*
X140959D01*
Y110868D01*
X140947D01*
Y110833D01*
X140935D01*
Y110797D01*
X140924D01*
Y110773D01*
X140912D01*
Y110725D01*
X140900D01*
Y110702D01*
X140888D01*
Y110666D01*
X140876D01*
Y110630D01*
X140864D01*
Y110606D01*
X140852D01*
Y110571D01*
X140840D01*
Y110535D01*
X140828D01*
Y110511D01*
X140816D01*
Y110463D01*
X140804D01*
Y110440D01*
X140793D01*
Y110404D01*
X140781D01*
Y110368D01*
X140769D01*
Y110344D01*
X140757D01*
Y110297D01*
X140745D01*
Y110273D01*
X140733D01*
Y110237D01*
X140721D01*
Y110201D01*
X140709D01*
Y110178D01*
X140697D01*
Y110142D01*
X140685D01*
Y110106D01*
X140673D01*
Y110082D01*
X140662D01*
Y110035D01*
X140650D01*
Y109999D01*
X140638D01*
Y109975D01*
X140626D01*
Y109939D01*
X140614D01*
Y109915D01*
X140602D01*
Y109880D01*
X140590D01*
Y109844D01*
X140578D01*
Y109808D01*
X140566D01*
Y109773D01*
X140554D01*
Y109737D01*
X140542D01*
Y109713D01*
X140531D01*
Y109677D01*
X140519D01*
Y109653D01*
X140507D01*
Y109618D01*
X140495D01*
Y109570D01*
X140483D01*
Y109546D01*
X140471D01*
Y109511D01*
X140459D01*
Y109475D01*
X140447D01*
Y109451D01*
X140435D01*
Y109415D01*
X140423D01*
Y109380D01*
X140411D01*
Y109356D01*
X140400D01*
Y109308D01*
X140388D01*
Y109284D01*
X140376D01*
Y109249D01*
X140364D01*
Y109213D01*
X140352D01*
Y109189D01*
X140340D01*
Y109153D01*
X140328D01*
Y109118D01*
X140316D01*
Y109082D01*
X140304D01*
Y109046D01*
X140292D01*
Y109022D01*
X140280D01*
Y108975D01*
X140269D01*
Y108939D01*
X140257D01*
Y108903D01*
X140245D01*
Y108868D01*
X140233D01*
Y108832D01*
X140221D01*
Y108796D01*
X140209D01*
Y108748D01*
X140197D01*
Y108724D01*
X140185D01*
Y108689D01*
X140173D01*
Y108641D01*
X140161D01*
Y108617D01*
X140149D01*
Y108570D01*
X140138D01*
Y108546D01*
X140126D01*
Y108510D01*
X140114D01*
Y108463D01*
X140102D01*
Y108439D01*
X140090D01*
Y108391D01*
X140078D01*
Y108355D01*
X140066D01*
Y108332D01*
X140054D01*
Y108284D01*
X140042D01*
Y108248D01*
X140030D01*
Y108212D01*
X140018D01*
Y108165D01*
X140006D01*
Y108141D01*
X139995D01*
Y108093D01*
X139983D01*
Y108046D01*
X139971D01*
Y107998D01*
X139959D01*
Y107974D01*
X139947D01*
Y107962D01*
X139935D01*
Y107974D01*
X139923D01*
Y108010D01*
X139911D01*
Y108046D01*
X139899D01*
Y108105D01*
X139887D01*
Y108153D01*
X139875D01*
Y108189D01*
X139864D01*
Y108248D01*
X139852D01*
Y108284D01*
X139840D01*
Y108320D01*
X139828D01*
Y108367D01*
X139816D01*
Y108403D01*
X139804D01*
Y108451D01*
X139792D01*
Y108486D01*
X139780D01*
Y108522D01*
X139768D01*
Y108570D01*
X139756D01*
Y108593D01*
X139744D01*
Y108629D01*
X139733D01*
Y108677D01*
X139721D01*
Y108701D01*
X139709D01*
Y108748D01*
X139697D01*
Y108784D01*
X139685D01*
Y108808D01*
X139673D01*
Y108855D01*
X139661D01*
Y108879D01*
X139649D01*
Y108915D01*
X139637D01*
Y108963D01*
X139625D01*
Y108987D01*
X139613D01*
Y109022D01*
X139602D01*
Y109058D01*
X139590D01*
Y109094D01*
X139578D01*
Y109130D01*
X139566D01*
Y109153D01*
X139554D01*
Y109189D01*
X139542D01*
Y109237D01*
X139530D01*
Y109260D01*
X139518D01*
Y109296D01*
X139506D01*
Y109332D01*
X139494D01*
Y109356D01*
X139482D01*
Y109391D01*
X139471D01*
Y109427D01*
X139459D01*
Y109451D01*
X139447D01*
Y109499D01*
X139435D01*
Y109522D01*
X139423D01*
Y109558D01*
X139411D01*
Y109594D01*
X139399D01*
Y109618D01*
X139387D01*
Y109653D01*
X139375D01*
Y109689D01*
X139363D01*
Y109725D01*
X139351D01*
Y109761D01*
X139340D01*
Y109784D01*
X139328D01*
Y109820D01*
X139316D01*
Y109856D01*
X139304D01*
Y109880D01*
X139292D01*
Y109927D01*
X139280D01*
Y109951D01*
X139268D01*
Y109987D01*
X139256D01*
Y110023D01*
X139244D01*
Y110047D01*
X139232D01*
Y110082D01*
X139220D01*
Y110118D01*
X139209D01*
Y110154D01*
X139197D01*
Y110189D01*
X139185D01*
Y110213D01*
X139173D01*
Y110249D01*
X139161D01*
Y110285D01*
X139149D01*
Y110309D01*
X139137D01*
Y110356D01*
X139125D01*
Y110392D01*
X139113D01*
Y110416D01*
X139101D01*
Y110451D01*
X139090D01*
Y110487D01*
X139078D01*
Y110511D01*
X139066D01*
Y110559D01*
X139054D01*
Y110582D01*
X139042D01*
Y110618D01*
X139030D01*
Y110654D01*
X139018D01*
Y110678D01*
X139006D01*
Y110713D01*
X138994D01*
Y110749D01*
X138982D01*
Y110785D01*
X138970D01*
Y110821D01*
X138959D01*
Y110844D01*
X138947D01*
Y110880D01*
X138935D01*
Y110916D01*
X138923D01*
Y110940D01*
X138911D01*
Y110987D01*
X138899D01*
Y111011D01*
X138887D01*
Y111047D01*
X138875D01*
Y111083D01*
X138863D01*
Y111106D01*
X138851D01*
Y111142D01*
X138839D01*
Y111178D01*
X138828D01*
Y111202D01*
X138816D01*
Y111249D01*
X138804D01*
Y111273D01*
X138792D01*
Y111309D01*
X138780D01*
Y111345D01*
X138768D01*
Y111368D01*
X138756D01*
Y111416D01*
X138744D01*
Y111440D01*
X138732D01*
Y111476D01*
X138720D01*
Y111511D01*
X138708D01*
Y111535D01*
X138697D01*
Y111571D01*
X138685D01*
Y111595D01*
X138673D01*
Y111607D01*
X137946D01*
Y111595D01*
X137934D01*
Y111571D01*
X137946D01*
Y111547D01*
X137958D01*
Y111511D01*
X137970D01*
Y111487D01*
X137982D01*
Y111452D01*
X137994D01*
Y111416D01*
X138006D01*
Y111392D01*
X138018D01*
Y111356D01*
X138030D01*
Y111321D01*
X138041D01*
Y111297D01*
X138053D01*
Y111261D01*
X138065D01*
Y111237D01*
X138077D01*
Y111202D01*
X138089D01*
Y111166D01*
X138101D01*
Y111142D01*
X138113D01*
Y111106D01*
X138125D01*
Y111071D01*
X138137D01*
Y111047D01*
X138149D01*
Y111011D01*
X138161D01*
Y110987D01*
X138172D01*
Y110952D01*
X138184D01*
Y110916D01*
X138196D01*
Y110892D01*
X138208D01*
Y110856D01*
X138220D01*
Y110821D01*
X138232D01*
Y110797D01*
X138244D01*
Y110761D01*
X138256D01*
Y110737D01*
X138268D01*
Y110702D01*
X138280D01*
Y110666D01*
X138292D01*
Y110642D01*
X138303D01*
Y110606D01*
X138315D01*
Y110571D01*
X138327D01*
Y110547D01*
X138339D01*
Y110511D01*
X138351D01*
Y110487D01*
X138363D01*
Y110451D01*
X138375D01*
Y110416D01*
X138387D01*
Y110392D01*
X138399D01*
Y110356D01*
X138411D01*
Y110320D01*
X138423D01*
Y110297D01*
X138435D01*
Y110261D01*
X138446D01*
Y110237D01*
X138458D01*
Y110201D01*
X138470D01*
Y110166D01*
X138482D01*
Y110142D01*
X138494D01*
Y110106D01*
X138506D01*
Y110070D01*
X138518D01*
Y110047D01*
X138530D01*
Y110011D01*
X138542D01*
Y109975D01*
X138554D01*
Y109951D01*
X138566D01*
Y109915D01*
X138577D01*
Y109892D01*
X138589D01*
Y109844D01*
X138601D01*
Y109820D01*
X138613D01*
Y109796D01*
X138625D01*
Y109749D01*
X138637D01*
Y109725D01*
X138649D01*
Y109701D01*
X138661D01*
Y109653D01*
X138673D01*
Y109630D01*
X138685D01*
Y109594D01*
X138697D01*
Y109570D01*
X138708D01*
Y109546D01*
X138720D01*
Y109499D01*
X138732D01*
Y109475D01*
X138744D01*
Y109439D01*
X138756D01*
Y109403D01*
X138768D01*
Y109380D01*
X138780D01*
Y109344D01*
X138792D01*
Y109320D01*
X138804D01*
Y109284D01*
X138816D01*
Y109249D01*
X138828D01*
Y109225D01*
X138839D01*
Y109189D01*
X138851D01*
Y109153D01*
X138863D01*
Y109130D01*
X138875D01*
Y109094D01*
X138887D01*
Y109058D01*
X138899D01*
Y109034D01*
X138911D01*
Y108999D01*
X138923D01*
Y108975D01*
X138935D01*
Y108939D01*
X138947D01*
Y108903D01*
X138959D01*
Y108879D01*
X138970D01*
Y108844D01*
X138982D01*
Y108808D01*
X138994D01*
Y108784D01*
X139006D01*
Y108748D01*
X139018D01*
Y108724D01*
X139030D01*
Y108689D01*
X139042D01*
Y108653D01*
X139054D01*
Y108629D01*
X139066D01*
Y108593D01*
X139078D01*
Y108558D01*
X139090D01*
Y108534D01*
X139101D01*
Y108498D01*
X139113D01*
Y108474D01*
X139125D01*
Y108439D01*
X139137D01*
Y108403D01*
X139149D01*
Y108391D01*
Y108379D01*
X139161D01*
Y108343D01*
X139173D01*
Y108308D01*
X139185D01*
Y108284D01*
X139197D01*
Y108248D01*
X139209D01*
Y108224D01*
X139220D01*
Y108189D01*
X139232D01*
Y108153D01*
X139244D01*
Y108129D01*
X139256D01*
Y108093D01*
X139268D01*
Y108058D01*
X139280D01*
Y108034D01*
X139292D01*
Y107998D01*
X139304D01*
Y107974D01*
X139316D01*
Y107939D01*
X139328D01*
Y107903D01*
X139340D01*
Y107879D01*
X139351D01*
Y107843D01*
X139363D01*
Y107808D01*
X139375D01*
Y107784D01*
X139387D01*
Y107736D01*
X139399D01*
Y107712D01*
X139411D01*
Y107688D01*
X139423D01*
Y107653D01*
X139435D01*
Y107629D01*
X139447D01*
Y107581D01*
X139459D01*
Y107557D01*
X139471D01*
Y107534D01*
X139482D01*
Y107486D01*
X139494D01*
Y107462D01*
X139506D01*
Y107426D01*
X139518D01*
Y107391D01*
X139530D01*
Y107367D01*
X139542D01*
Y107343D01*
X140352D01*
Y107367D01*
X140364D01*
Y107403D01*
X140376D01*
Y107438D01*
X140388D01*
Y107462D01*
X140400D01*
Y107498D01*
X140411D01*
Y107534D01*
X140423D01*
Y107557D01*
X140435D01*
Y107593D01*
X140447D01*
Y107617D01*
X140459D01*
Y107653D01*
X140471D01*
Y107688D01*
X140483D01*
Y107712D01*
X140495D01*
Y107748D01*
X140507D01*
Y107784D01*
X140519D01*
Y107808D01*
X140531D01*
Y107843D01*
X140542D01*
Y107867D01*
X140554D01*
Y107903D01*
X140566D01*
Y107939D01*
X140578D01*
Y107962D01*
X140590D01*
Y107998D01*
X140602D01*
Y108034D01*
X140614D01*
Y108058D01*
X140626D01*
Y108093D01*
X140638D01*
Y108117D01*
X140650D01*
Y108153D01*
X140662D01*
Y108189D01*
X140673D01*
Y108212D01*
X140685D01*
Y108248D01*
X140697D01*
Y108284D01*
X140709D01*
Y108308D01*
X140721D01*
Y108343D01*
X140733D01*
Y108367D01*
X140745D01*
Y108403D01*
X140757D01*
Y108439D01*
X140769D01*
Y108463D01*
X140781D01*
Y108498D01*
X140793D01*
Y108534D01*
X140804D01*
Y108558D01*
X140816D01*
Y108593D01*
X140828D01*
Y108617D01*
X140840D01*
Y108653D01*
X140852D01*
Y108689D01*
X140864D01*
Y108713D01*
X140876D01*
Y108748D01*
X140888D01*
Y108784D01*
X140900D01*
Y108808D01*
X140912D01*
Y108844D01*
X140924D01*
Y108868D01*
X140935D01*
Y108903D01*
X140947D01*
Y108939D01*
X140959D01*
Y108963D01*
X140971D01*
Y108999D01*
X140983D01*
Y109034D01*
X140995D01*
Y109058D01*
X141007D01*
Y109094D01*
X141019D01*
Y109118D01*
X141031D01*
Y109153D01*
X141043D01*
Y109189D01*
X141054D01*
Y109213D01*
X141066D01*
Y109249D01*
X141078D01*
Y109284D01*
X141090D01*
Y109308D01*
X141102D01*
Y109344D01*
X141114D01*
Y109380D01*
X141126D01*
Y109403D01*
X141138D01*
Y109439D01*
X141150D01*
Y109463D01*
X141162D01*
Y109499D01*
X141174D01*
Y109534D01*
X141185D01*
Y109558D01*
X141198D01*
Y109594D01*
X141209D01*
Y109630D01*
X141221D01*
Y109653D01*
X141233D01*
Y109689D01*
X141245D01*
Y109713D01*
X141257D01*
Y109749D01*
X141269D01*
Y109784D01*
X141281D01*
Y109808D01*
X141293D01*
Y109856D01*
X141305D01*
Y109880D01*
X141316D01*
Y109904D01*
X141328D01*
Y109939D01*
X141340D01*
Y109963D01*
X141352D01*
Y110011D01*
X141364D01*
Y110035D01*
X141376D01*
Y110058D01*
X141388D01*
Y110106D01*
X141400D01*
Y110130D01*
X141412D01*
Y110154D01*
X141424D01*
Y110201D01*
X141436D01*
Y110225D01*
X141447D01*
Y110261D01*
X141459D01*
Y110285D01*
X141471D01*
Y110309D01*
X141483D01*
Y110356D01*
X141495D01*
Y110380D01*
X141507D01*
Y110416D01*
X141519D01*
Y110451D01*
X141531D01*
Y110475D01*
X141543D01*
Y110511D01*
X141555D01*
Y110535D01*
X141567D01*
Y110571D01*
X141578D01*
Y110606D01*
X141590D01*
Y110630D01*
X141602D01*
Y110666D01*
X141614D01*
Y110702D01*
X141626D01*
Y110725D01*
X141638D01*
Y110761D01*
X141650D01*
Y110785D01*
X141662D01*
Y110821D01*
X141674D01*
Y110856D01*
X141686D01*
Y110880D01*
X141698D01*
Y110916D01*
X141709D01*
Y110952D01*
X141721D01*
Y110975D01*
X141733D01*
Y111011D01*
X141745D01*
Y111035D01*
X141757D01*
Y111071D01*
X141769D01*
Y111106D01*
X141781D01*
Y111130D01*
X141793D01*
Y111166D01*
X141805D01*
Y111202D01*
X141817D01*
Y111225D01*
X141829D01*
Y111261D01*
X141841D01*
Y111297D01*
X141852D01*
Y111321D01*
X141864D01*
Y111356D01*
X141876D01*
Y111380D01*
X141888D01*
Y111416D01*
X141900D01*
Y111452D01*
X141912D01*
Y111476D01*
X141924D01*
Y111511D01*
X141936D01*
Y111547D01*
X141948D01*
Y111571D01*
X141960D01*
Y111607D01*
D02*
G37*
G36*
X143329D02*
X142650D01*
Y111595D01*
X142639D01*
Y110713D01*
Y110702D01*
Y107355D01*
X142650D01*
Y107343D01*
X143329D01*
Y107355D01*
X143341D01*
Y111595D01*
X143329D01*
Y111607D01*
D02*
G37*
G36*
X135957Y111678D02*
X135576D01*
Y111666D01*
X135469D01*
Y111654D01*
X135386D01*
Y111642D01*
X135338D01*
Y111630D01*
X135278D01*
Y111618D01*
X135231D01*
Y111607D01*
X135195D01*
Y111595D01*
X135148D01*
Y111583D01*
X135124D01*
Y111571D01*
X135088D01*
Y111559D01*
X135052D01*
Y111547D01*
X135028D01*
Y111535D01*
X134993D01*
Y111523D01*
X134969D01*
Y111511D01*
X134945D01*
Y111499D01*
X134921D01*
Y111487D01*
X134897D01*
Y111476D01*
X134874D01*
Y111464D01*
X134850D01*
Y111452D01*
X134838D01*
Y111440D01*
X134814D01*
Y111428D01*
X134790D01*
Y111416D01*
X134778D01*
Y111404D01*
X134755D01*
Y111392D01*
X134743D01*
Y111380D01*
X134719D01*
Y111368D01*
X134707D01*
Y111356D01*
X134695D01*
Y111345D01*
X134671D01*
Y111333D01*
X134659D01*
Y111321D01*
X134647D01*
Y111309D01*
X134624D01*
Y111297D01*
X134612D01*
Y111285D01*
X134600D01*
Y111273D01*
X134588D01*
Y111261D01*
X134576D01*
Y111249D01*
X134564D01*
Y111237D01*
X134552D01*
Y111225D01*
X134528D01*
Y111214D01*
X134516D01*
Y111202D01*
X134504D01*
Y111190D01*
X134493D01*
Y111178D01*
X134481D01*
Y111166D01*
X134469D01*
Y111142D01*
X134457D01*
Y111130D01*
X134445D01*
Y111118D01*
X134433D01*
Y111106D01*
X134421D01*
Y111094D01*
X134409D01*
Y111083D01*
X134397D01*
Y111071D01*
X134385D01*
Y111059D01*
X134373D01*
Y111035D01*
X134362D01*
Y111023D01*
X134350D01*
Y111011D01*
X134338D01*
Y110987D01*
X134326D01*
Y110975D01*
X134314D01*
Y110963D01*
X134302D01*
Y110940D01*
X134290D01*
Y110928D01*
X134278D01*
Y110904D01*
X134266D01*
Y110892D01*
X134254D01*
Y110868D01*
X134242D01*
Y110844D01*
X134230D01*
Y110833D01*
X134219D01*
Y110809D01*
X134207D01*
Y110785D01*
X134195D01*
Y110773D01*
X134183D01*
Y110749D01*
X134171D01*
Y110725D01*
X134159D01*
Y110702D01*
X134147D01*
Y110678D01*
X134135D01*
Y110654D01*
X134123D01*
Y110630D01*
X134111D01*
Y110594D01*
X134099D01*
Y110582D01*
X134088D01*
Y110547D01*
X134076D01*
Y110511D01*
X134064D01*
Y110487D01*
X134052D01*
Y110451D01*
X134040D01*
Y110416D01*
X134028D01*
Y110380D01*
X134016D01*
Y110332D01*
X134004D01*
Y110309D01*
X133992D01*
Y110261D01*
X133980D01*
Y110201D01*
X133968D01*
Y110166D01*
X133957D01*
Y110094D01*
X133945D01*
Y110047D01*
X133933D01*
Y109975D01*
X133921D01*
Y109868D01*
X133909D01*
Y109784D01*
X133897D01*
Y109534D01*
X133885D01*
Y109356D01*
X133897D01*
Y109118D01*
X133909D01*
Y109034D01*
X133921D01*
Y108939D01*
X133933D01*
Y108868D01*
X133945D01*
Y108820D01*
X133957D01*
Y108748D01*
X133968D01*
Y108713D01*
X133980D01*
Y108665D01*
X133992D01*
Y108617D01*
X134004D01*
Y108593D01*
X134016D01*
Y108546D01*
X134028D01*
Y108510D01*
X134040D01*
Y108486D01*
X134052D01*
Y108439D01*
X134064D01*
Y108415D01*
X134076D01*
Y108391D01*
X134088D01*
Y108355D01*
X134099D01*
Y108343D01*
X134111D01*
Y108308D01*
X134123D01*
Y108284D01*
X134135D01*
Y108260D01*
X134147D01*
Y108236D01*
X134159D01*
Y108224D01*
X134171D01*
Y108201D01*
X134183D01*
Y108177D01*
X134195D01*
Y108153D01*
X134207D01*
Y108141D01*
X134219D01*
Y108117D01*
X134230D01*
Y108105D01*
X134242D01*
Y108081D01*
X134254D01*
Y108070D01*
X134266D01*
Y108046D01*
X134278D01*
Y108034D01*
X134290D01*
Y108010D01*
X134302D01*
Y107998D01*
X134314D01*
Y107986D01*
X134326D01*
Y107974D01*
X134338D01*
Y107950D01*
X134350D01*
Y107939D01*
X134362D01*
Y107927D01*
X134373D01*
Y107903D01*
X134385D01*
Y107891D01*
X134397D01*
Y107879D01*
X134409D01*
Y107867D01*
X134421D01*
Y107855D01*
X134433D01*
Y107843D01*
X134445D01*
Y107831D01*
X134457D01*
Y107819D01*
X134469D01*
Y107808D01*
X134481D01*
Y107796D01*
X134493D01*
Y107784D01*
X134504D01*
Y107772D01*
X134516D01*
Y107760D01*
X134528D01*
Y107748D01*
X134540D01*
Y107736D01*
X134552D01*
Y107724D01*
X134564D01*
Y107712D01*
X134588D01*
Y107700D01*
X134600D01*
Y107688D01*
X134612D01*
Y107676D01*
X134624D01*
Y107665D01*
X134647D01*
Y107653D01*
X134659D01*
Y107641D01*
X134671D01*
Y107629D01*
X134695D01*
Y107617D01*
X134707D01*
Y107605D01*
X134719D01*
Y107593D01*
X134743D01*
Y107581D01*
X134755D01*
Y107569D01*
X134778D01*
Y107557D01*
X134802D01*
Y107545D01*
X134814D01*
Y107534D01*
X134838D01*
Y107522D01*
X134862D01*
Y107510D01*
X134886D01*
Y107498D01*
X134909D01*
Y107486D01*
X134921D01*
Y107474D01*
X134957D01*
Y107462D01*
X134981D01*
Y107450D01*
X135005D01*
Y107438D01*
X135040D01*
Y107426D01*
X135064D01*
Y107414D01*
X135088D01*
Y107403D01*
X135136D01*
Y107391D01*
X135159D01*
Y107379D01*
X135195D01*
Y107367D01*
X135243D01*
Y107355D01*
X135267D01*
Y107343D01*
X135326D01*
Y107331D01*
X135374D01*
Y107319D01*
X135421D01*
Y107307D01*
X135505D01*
Y107295D01*
X135576D01*
Y107283D01*
X135683D01*
Y107272D01*
X136255D01*
Y107283D01*
X136410D01*
Y107295D01*
X136493D01*
Y107307D01*
X136589D01*
Y107319D01*
X136648D01*
Y107331D01*
X136708D01*
Y107343D01*
X136767D01*
Y107355D01*
X136803D01*
Y107367D01*
X136851D01*
Y107379D01*
X136898D01*
Y107391D01*
X136934D01*
Y107403D01*
X136981D01*
Y107414D01*
X137005D01*
Y107426D01*
X137041D01*
Y107438D01*
X137089D01*
Y107450D01*
X137112D01*
Y107462D01*
X137148D01*
Y107474D01*
X137184D01*
Y107486D01*
X137208D01*
Y107498D01*
X137243D01*
Y107510D01*
X137267D01*
Y107522D01*
X137303D01*
Y107534D01*
X137327D01*
Y108117D01*
X137339D01*
Y108129D01*
X137327D01*
Y108153D01*
X137315D01*
Y108141D01*
X137279D01*
Y108129D01*
X137255D01*
Y108117D01*
X137232D01*
Y108105D01*
X137196D01*
Y108093D01*
X137160D01*
Y108081D01*
X137136D01*
Y108070D01*
X137101D01*
Y108058D01*
X137077D01*
Y108046D01*
X137041D01*
Y108034D01*
X136994D01*
Y108022D01*
X136970D01*
Y108010D01*
X136934D01*
Y107998D01*
X136886D01*
Y107986D01*
X136851D01*
Y107974D01*
X136803D01*
Y107962D01*
X136779D01*
Y107950D01*
X136720D01*
Y107939D01*
X136660D01*
Y107927D01*
X136624D01*
Y107915D01*
X136541D01*
Y107903D01*
X136469D01*
Y107891D01*
X136398D01*
Y107879D01*
X136255D01*
Y107867D01*
X136065D01*
Y107855D01*
X136053D01*
Y107867D01*
X136041D01*
Y107855D01*
X135886D01*
Y107867D01*
X135755D01*
Y107879D01*
X135660D01*
Y107891D01*
X135600D01*
Y107903D01*
X135552D01*
Y107915D01*
X135493D01*
Y107927D01*
X135469D01*
Y107939D01*
X135433D01*
Y107950D01*
X135398D01*
Y107962D01*
X135374D01*
Y107974D01*
X135338D01*
Y107986D01*
X135314D01*
Y107998D01*
X135290D01*
Y108010D01*
X135267D01*
Y108022D01*
X135243D01*
Y108034D01*
X135219D01*
Y108046D01*
X135207D01*
Y108058D01*
X135183D01*
Y108070D01*
X135159D01*
Y108081D01*
X135148D01*
Y108093D01*
X135136D01*
Y108105D01*
X135112D01*
Y108117D01*
X135100D01*
Y108129D01*
X135088D01*
Y108141D01*
X135076D01*
Y108153D01*
X135064D01*
Y108165D01*
X135040D01*
Y108177D01*
X135028D01*
Y108189D01*
X135017D01*
Y108201D01*
X135005D01*
Y108212D01*
X134993D01*
Y108224D01*
X134981D01*
Y108236D01*
X134969D01*
Y108260D01*
X134957D01*
Y108272D01*
X134945D01*
Y108284D01*
X134933D01*
Y108296D01*
X134921D01*
Y108308D01*
X134909D01*
Y108332D01*
X134897D01*
Y108343D01*
X134886D01*
Y108355D01*
X134874D01*
Y108379D01*
X134862D01*
Y108391D01*
X134850D01*
Y108415D01*
X134838D01*
Y108439D01*
X134826D01*
Y108451D01*
X134814D01*
Y108474D01*
X134802D01*
Y108498D01*
X134790D01*
Y108522D01*
X134778D01*
Y108558D01*
X134766D01*
Y108570D01*
X134755D01*
Y108605D01*
X134743D01*
Y108641D01*
X134731D01*
Y108665D01*
X134719D01*
Y108701D01*
X134707D01*
Y108736D01*
X134695D01*
Y108772D01*
X134683D01*
Y108832D01*
X134671D01*
Y108868D01*
X134659D01*
Y108927D01*
X134647D01*
Y108999D01*
X134635D01*
Y109070D01*
X134624D01*
Y109237D01*
X134612D01*
Y109332D01*
X134624D01*
Y109344D01*
X137529D01*
Y109892D01*
X137517D01*
Y110035D01*
Y110047D01*
Y110082D01*
X137505D01*
Y110178D01*
X137494D01*
Y110237D01*
X137482D01*
Y110309D01*
X137470D01*
Y110356D01*
X137458D01*
Y110404D01*
X137446D01*
Y110451D01*
X137434D01*
Y110487D01*
X137422D01*
Y110535D01*
X137410D01*
Y110571D01*
X137398D01*
Y110594D01*
X137386D01*
Y110630D01*
X137374D01*
Y110654D01*
X137363D01*
Y110690D01*
X137351D01*
Y110713D01*
X137339D01*
Y110737D01*
X137327D01*
Y110761D01*
X137315D01*
Y110797D01*
X137303D01*
Y110809D01*
X137291D01*
Y110833D01*
X137279D01*
Y110856D01*
X137267D01*
Y110880D01*
X137255D01*
Y110904D01*
X137243D01*
Y110916D01*
X137232D01*
Y110940D01*
X137220D01*
Y110952D01*
X137208D01*
Y110975D01*
X137196D01*
Y110987D01*
X137184D01*
Y111011D01*
X137172D01*
Y111023D01*
X137160D01*
Y111035D01*
X137148D01*
Y111047D01*
X137136D01*
Y111071D01*
X137125D01*
Y111083D01*
X137112D01*
Y111094D01*
X137101D01*
Y111118D01*
X137089D01*
Y111130D01*
X137077D01*
Y111142D01*
X137065D01*
Y111154D01*
X137053D01*
Y111166D01*
X137041D01*
Y111178D01*
X137029D01*
Y111190D01*
X137017D01*
Y111202D01*
X137005D01*
Y111214D01*
X136994D01*
Y111225D01*
X136981D01*
Y111237D01*
X136970D01*
Y111249D01*
X136958D01*
Y111261D01*
X136946D01*
Y111273D01*
X136934D01*
Y111285D01*
X136922D01*
Y111297D01*
X136910D01*
Y111309D01*
X136886D01*
Y111321D01*
X136874D01*
Y111333D01*
X136862D01*
Y111345D01*
X136839D01*
Y111356D01*
X136827D01*
Y111368D01*
X136815D01*
Y111380D01*
X136791D01*
Y111392D01*
X136779D01*
Y111404D01*
X136755D01*
Y111416D01*
X136743D01*
Y111428D01*
X136720D01*
Y111440D01*
X136708D01*
Y111452D01*
X136684D01*
Y111464D01*
X136660D01*
Y111476D01*
X136636D01*
Y111487D01*
X136624D01*
Y111499D01*
X136589D01*
Y111511D01*
X136577D01*
Y111523D01*
X136541D01*
Y111535D01*
X136517D01*
Y111547D01*
X136493D01*
Y111559D01*
X136458D01*
Y111571D01*
X136422D01*
Y111583D01*
X136398D01*
Y111595D01*
X136350D01*
Y111607D01*
X136315D01*
Y111618D01*
X136267D01*
Y111630D01*
X136207D01*
Y111642D01*
X136160D01*
Y111654D01*
X136076D01*
Y111666D01*
X135957D01*
Y111678D01*
D02*
G37*
G36*
X113639Y116418D02*
X112960D01*
Y116406D01*
X112829D01*
Y116394D01*
X112674D01*
Y116382D01*
X112579D01*
Y116370D01*
X112496D01*
Y116358D01*
X112389D01*
Y116347D01*
X112341D01*
Y116335D01*
X112258D01*
Y116323D01*
X112186D01*
Y116311D01*
X112139D01*
Y116299D01*
X112079D01*
Y116287D01*
X112020D01*
Y116275D01*
X111972D01*
Y116263D01*
X111912D01*
Y116251D01*
X111877D01*
Y116239D01*
X111817D01*
Y116227D01*
X111769D01*
Y116216D01*
X111746D01*
Y116204D01*
X111686D01*
Y116192D01*
X111650D01*
Y116180D01*
X111615D01*
Y116168D01*
X111567D01*
Y116156D01*
X111531D01*
Y116144D01*
X111495D01*
Y116132D01*
X111448D01*
Y116120D01*
X111424D01*
Y116108D01*
X111388D01*
Y116096D01*
X111353D01*
Y116085D01*
X111329D01*
Y116073D01*
X111281D01*
Y116061D01*
X111257D01*
Y116049D01*
X111222D01*
Y116037D01*
X111186D01*
Y116025D01*
X111162D01*
Y116013D01*
X111126D01*
Y116001D01*
X111102D01*
Y115989D01*
X111079D01*
Y115977D01*
X111043D01*
Y115965D01*
X111019D01*
Y115954D01*
X110983D01*
Y115942D01*
X110960D01*
Y115930D01*
X110936D01*
Y115918D01*
X110900D01*
Y115906D01*
X110876D01*
Y115894D01*
X110852D01*
Y115882D01*
X110829D01*
Y115870D01*
X110805D01*
Y115858D01*
X110781D01*
Y115846D01*
X110745D01*
Y115834D01*
X110733D01*
Y115823D01*
X110698D01*
Y115811D01*
X110674D01*
Y115799D01*
X110662D01*
Y115787D01*
X110626D01*
Y115775D01*
X110614D01*
Y115763D01*
X110590D01*
Y115751D01*
X110567D01*
Y115739D01*
X110543D01*
Y115727D01*
X110519D01*
Y115715D01*
X110495D01*
Y115703D01*
X110483D01*
Y115691D01*
X110448D01*
Y115680D01*
X110436D01*
Y115668D01*
X110412D01*
Y115656D01*
X110388D01*
Y115644D01*
X110376D01*
Y115632D01*
X110352D01*
Y115620D01*
X110328D01*
Y115608D01*
X110317D01*
Y115596D01*
X110281D01*
Y115584D01*
X110269D01*
Y115572D01*
X110245D01*
Y115560D01*
X110233D01*
Y115549D01*
X110209D01*
Y115537D01*
X110197D01*
Y115525D01*
X110174D01*
Y115513D01*
X110150D01*
Y115501D01*
X110138D01*
Y115489D01*
X110114D01*
Y115477D01*
X110102D01*
Y115465D01*
X110078D01*
Y115453D01*
X110066D01*
Y115441D01*
X110043D01*
Y115429D01*
X110031D01*
Y115418D01*
X110007D01*
Y115406D01*
X109995D01*
Y115394D01*
X109971D01*
Y115382D01*
X109959D01*
Y115370D01*
X109935D01*
Y115358D01*
X109924D01*
Y115346D01*
X109912D01*
Y115334D01*
X109888D01*
Y115322D01*
X109876D01*
Y115310D01*
X109852D01*
Y115298D01*
X109840D01*
Y115287D01*
X109828D01*
Y115275D01*
X109804D01*
Y115263D01*
X109792D01*
Y115251D01*
X109781D01*
Y115239D01*
X109757D01*
Y115227D01*
X109745D01*
Y115215D01*
X109733D01*
Y115203D01*
X109721D01*
Y115191D01*
X109697D01*
Y115179D01*
X109685D01*
Y115167D01*
X109673D01*
Y115156D01*
X109650D01*
Y115144D01*
X109638D01*
Y115132D01*
X109626D01*
Y115120D01*
X109614D01*
Y115108D01*
X109602D01*
Y115096D01*
X109578D01*
Y115084D01*
X109566D01*
Y115072D01*
X109554D01*
Y115060D01*
X109542D01*
Y115048D01*
X109519D01*
Y115036D01*
X109507D01*
Y115025D01*
X109495D01*
Y115013D01*
X109483D01*
Y115001D01*
X109471D01*
Y114989D01*
X109459D01*
Y114977D01*
X109447D01*
Y114965D01*
X109423D01*
Y114953D01*
X109411D01*
Y114941D01*
X109399D01*
Y114929D01*
X109388D01*
Y114917D01*
X109376D01*
Y114906D01*
X109364D01*
Y114894D01*
X109352D01*
Y114882D01*
X109340D01*
Y114870D01*
X109316D01*
Y114858D01*
X109304D01*
Y114846D01*
X109292D01*
Y114834D01*
X109280D01*
Y114822D01*
X109268D01*
Y114810D01*
X109257D01*
Y114798D01*
X109245D01*
Y114786D01*
X109233D01*
Y114775D01*
X109221D01*
Y114763D01*
X109209D01*
Y114751D01*
X109197D01*
Y114739D01*
X109185D01*
Y114727D01*
X109173D01*
Y114715D01*
X109161D01*
Y114703D01*
X109149D01*
Y114691D01*
X109137D01*
Y114679D01*
X109126D01*
Y114667D01*
X109114D01*
Y114655D01*
X109102D01*
Y114644D01*
X109090D01*
Y114632D01*
X109078D01*
Y114620D01*
X109066D01*
Y114608D01*
X109054D01*
Y114596D01*
X109042D01*
Y114584D01*
X109030D01*
Y114560D01*
X109018D01*
Y114548D01*
X109007D01*
Y114536D01*
X108995D01*
Y114524D01*
X108983D01*
Y114513D01*
X108971D01*
Y114501D01*
X108959D01*
Y114489D01*
X108947D01*
Y114477D01*
X108935D01*
Y114465D01*
X108923D01*
Y114441D01*
X108911D01*
Y114429D01*
X108899D01*
Y114417D01*
X108887D01*
Y114405D01*
X108876D01*
Y114393D01*
X108864D01*
Y114382D01*
X108852D01*
Y114370D01*
X108840D01*
Y114346D01*
X108828D01*
Y114334D01*
X108816D01*
Y114322D01*
X108804D01*
Y114310D01*
X108792D01*
Y114298D01*
X108780D01*
Y114274D01*
X108768D01*
Y114262D01*
X108756D01*
Y114251D01*
X108745D01*
Y114239D01*
X108732D01*
Y114215D01*
X108721D01*
Y114203D01*
X108709D01*
Y114191D01*
X108697D01*
Y114179D01*
X108685D01*
Y114155D01*
X108673D01*
Y114143D01*
X108661D01*
Y114131D01*
X108649D01*
Y114108D01*
X108637D01*
Y114096D01*
X108625D01*
Y114084D01*
X108614D01*
Y114060D01*
X108601D01*
Y114048D01*
X108590D01*
Y114036D01*
X108578D01*
Y114012D01*
X108566D01*
Y114000D01*
X108554D01*
Y113988D01*
X108542D01*
Y113965D01*
X108530D01*
Y113953D01*
X108518D01*
Y113929D01*
X108506D01*
Y113917D01*
X108494D01*
Y113893D01*
X108482D01*
Y113881D01*
X108470D01*
Y113869D01*
X108459D01*
Y113846D01*
X108447D01*
Y113822D01*
X108435D01*
Y113810D01*
X108423D01*
Y113786D01*
X108411D01*
Y113774D01*
X108399D01*
Y113762D01*
X108387D01*
Y113738D01*
X108375D01*
Y113726D01*
X108363D01*
Y113703D01*
X108351D01*
Y113679D01*
X108340D01*
Y113667D01*
X108328D01*
Y113643D01*
X108316D01*
Y113619D01*
X108304D01*
Y113607D01*
X108292D01*
Y113584D01*
X108280D01*
Y113560D01*
X108268D01*
Y113548D01*
X108256D01*
Y113524D01*
X108244D01*
Y113500D01*
X108232D01*
Y113476D01*
X108221D01*
Y113464D01*
X108209D01*
Y113441D01*
X108197D01*
Y113417D01*
X108185D01*
Y113405D01*
X108173D01*
Y113369D01*
X108161D01*
Y113345D01*
X108149D01*
Y113333D01*
X108137D01*
Y113310D01*
X108125D01*
Y113286D01*
X108113D01*
Y113262D01*
X108101D01*
Y113238D01*
X108089D01*
Y113214D01*
X108078D01*
Y113191D01*
X108066D01*
Y113167D01*
X108054D01*
Y113143D01*
X108042D01*
Y113119D01*
X108030D01*
Y113095D01*
X108018D01*
Y113072D01*
X108006D01*
Y113036D01*
X107994D01*
Y113024D01*
X107982D01*
Y112988D01*
X107970D01*
Y112964D01*
X107958D01*
Y112941D01*
X107947D01*
Y112905D01*
X107935D01*
Y112881D01*
X107923D01*
Y112857D01*
X107911D01*
Y112821D01*
X107899D01*
Y112797D01*
X107887D01*
Y112762D01*
X107875D01*
Y112738D01*
X107863D01*
Y112714D01*
X107851D01*
Y112666D01*
X107839D01*
Y112643D01*
X107827D01*
Y112619D01*
X107816D01*
Y112571D01*
X107804D01*
Y112547D01*
X107792D01*
Y112512D01*
X107780D01*
Y112476D01*
X107768D01*
Y112440D01*
X107756D01*
Y112405D01*
X107744D01*
Y112369D01*
X107732D01*
Y112333D01*
X107720D01*
Y112285D01*
X107708D01*
Y112262D01*
X107696D01*
Y112214D01*
X107685D01*
Y112166D01*
X107673D01*
Y112131D01*
X107661D01*
Y112083D01*
X107649D01*
Y112035D01*
X107637D01*
Y111988D01*
X107625D01*
Y111928D01*
X107613D01*
Y111892D01*
X107601D01*
Y111833D01*
X107589D01*
Y111773D01*
X107577D01*
Y111726D01*
X107565D01*
Y111654D01*
X107554D01*
Y111595D01*
X107542D01*
Y111523D01*
X107530D01*
Y111428D01*
X107518D01*
Y111356D01*
X107506D01*
Y111249D01*
X107494D01*
Y111130D01*
X107482D01*
Y111011D01*
X107470D01*
Y110666D01*
X107458D01*
Y110499D01*
X107470D01*
Y110154D01*
X107482D01*
Y110035D01*
X107494D01*
Y109915D01*
X107506D01*
Y109796D01*
X107518D01*
Y109737D01*
X107530D01*
Y109642D01*
X107542D01*
Y109570D01*
X107554D01*
Y109511D01*
X107565D01*
Y109439D01*
X107577D01*
Y109391D01*
X107589D01*
Y109332D01*
X107601D01*
Y109272D01*
X107613D01*
Y109237D01*
X107625D01*
Y109177D01*
X107637D01*
Y109130D01*
X107649D01*
Y109082D01*
X107661D01*
Y109034D01*
X107673D01*
Y108999D01*
X107685D01*
Y108951D01*
X107696D01*
Y108903D01*
X107708D01*
Y108879D01*
X107720D01*
Y108832D01*
X107732D01*
Y108796D01*
X107744D01*
Y108760D01*
X107756D01*
Y108713D01*
X107768D01*
Y108689D01*
X107780D01*
Y108653D01*
X107792D01*
Y108617D01*
X107804D01*
Y108593D01*
X107816D01*
Y108546D01*
X107827D01*
Y108522D01*
X107839D01*
Y108486D01*
X107851D01*
Y108451D01*
X107863D01*
Y108427D01*
X107875D01*
Y108403D01*
X107887D01*
Y108367D01*
X107899D01*
Y108343D01*
X107911D01*
Y108308D01*
X107923D01*
Y108284D01*
X107935D01*
Y108260D01*
X107947D01*
Y108224D01*
X107958D01*
Y108201D01*
X107970D01*
Y108177D01*
X107982D01*
Y108141D01*
X107994D01*
Y108129D01*
X108006D01*
Y108093D01*
X108018D01*
Y108070D01*
X108030D01*
Y108046D01*
X108042D01*
Y108022D01*
X108054D01*
Y107998D01*
X108066D01*
Y107974D01*
X108078D01*
Y107950D01*
X108089D01*
Y107927D01*
X108101D01*
Y107903D01*
X108113D01*
Y107879D01*
X108125D01*
Y107855D01*
X108137D01*
Y107831D01*
X108149D01*
Y107808D01*
X108161D01*
Y107784D01*
X108173D01*
Y107760D01*
X108185D01*
Y107748D01*
X108197D01*
Y107724D01*
X108209D01*
Y107700D01*
X108221D01*
Y107688D01*
X108232D01*
Y107653D01*
X108244D01*
Y107641D01*
X108256D01*
Y107617D01*
X108268D01*
Y107593D01*
X108280D01*
Y107581D01*
X108292D01*
Y107557D01*
X108304D01*
Y107534D01*
X108316D01*
Y107522D01*
X108328D01*
Y107498D01*
X108340D01*
Y107486D01*
X108351D01*
Y107462D01*
X108363D01*
Y107438D01*
X108375D01*
Y107426D01*
X108387D01*
Y107403D01*
X108399D01*
Y107391D01*
X108411D01*
Y107367D01*
X108423D01*
Y107355D01*
X108435D01*
Y107331D01*
X108447D01*
Y107319D01*
X108459D01*
Y107295D01*
X108470D01*
Y107283D01*
X108482D01*
Y107260D01*
X108494D01*
Y107248D01*
X108506D01*
Y107236D01*
X108518D01*
Y107212D01*
X108530D01*
Y107200D01*
X108542D01*
Y107176D01*
X108554D01*
Y107164D01*
X108566D01*
Y107152D01*
X108578D01*
Y107129D01*
X108590D01*
Y107117D01*
X108601D01*
Y107093D01*
X108614D01*
Y107081D01*
X108625D01*
Y107069D01*
X108637D01*
Y107045D01*
X108649D01*
Y107033D01*
X108661D01*
Y107021D01*
X108673D01*
Y106998D01*
X108685D01*
Y106986D01*
X108697D01*
Y106974D01*
X108709D01*
Y106962D01*
X108721D01*
Y106938D01*
X108732D01*
Y106926D01*
X108745D01*
Y106914D01*
X108756D01*
Y106902D01*
X108768D01*
Y106879D01*
X108780D01*
Y106867D01*
X108792D01*
Y106855D01*
X108804D01*
Y106843D01*
X108816D01*
Y106831D01*
X108828D01*
Y106807D01*
X108840D01*
Y106795D01*
X108852D01*
Y106783D01*
X108864D01*
Y106771D01*
X108876D01*
Y106760D01*
X108887D01*
Y106748D01*
X108899D01*
Y106724D01*
X108911D01*
Y106712D01*
X108923D01*
Y106700D01*
X108935D01*
Y106688D01*
X108947D01*
Y106676D01*
X108959D01*
Y106664D01*
X108971D01*
Y106652D01*
X108983D01*
Y106640D01*
X108995D01*
Y106629D01*
X109007D01*
Y106617D01*
X109018D01*
Y106605D01*
X109030D01*
Y106581D01*
X109042D01*
Y106569D01*
X109054D01*
Y106557D01*
X109066D01*
Y106545D01*
X109078D01*
Y106533D01*
X109090D01*
Y106521D01*
X109102D01*
Y106509D01*
X109114D01*
Y106498D01*
X109126D01*
Y106486D01*
X109137D01*
Y106474D01*
X109149D01*
Y106462D01*
X109161D01*
Y106450D01*
X109173D01*
Y106438D01*
X109185D01*
Y106426D01*
X109197D01*
Y106414D01*
X109209D01*
Y106402D01*
X109221D01*
Y106390D01*
X109233D01*
Y106378D01*
X109245D01*
Y106367D01*
X109257D01*
Y106355D01*
X109268D01*
Y106343D01*
X109280D01*
Y106331D01*
X109292D01*
Y106319D01*
X109304D01*
Y106307D01*
X109316D01*
Y106295D01*
X109340D01*
Y106283D01*
X109352D01*
Y106271D01*
X109364D01*
Y106259D01*
X109376D01*
Y106247D01*
X109388D01*
Y106236D01*
X109399D01*
Y106224D01*
X109411D01*
Y106212D01*
X109423D01*
Y106200D01*
X109435D01*
Y106188D01*
X109459D01*
Y106176D01*
X109471D01*
Y106164D01*
X109483D01*
Y106152D01*
X109495D01*
Y106140D01*
X109507D01*
Y106128D01*
X109519D01*
Y106116D01*
X109530D01*
Y106105D01*
X109554D01*
Y106093D01*
X109566D01*
Y106081D01*
X109578D01*
Y106069D01*
X109590D01*
Y106057D01*
X109614D01*
Y106045D01*
X109626D01*
Y106033D01*
X109638D01*
Y106021D01*
X109650D01*
Y106009D01*
X109673D01*
Y105997D01*
X109685D01*
Y105985D01*
X109697D01*
Y105973D01*
X109709D01*
Y105962D01*
X109733D01*
Y105950D01*
X109745D01*
Y105938D01*
X109757D01*
Y105926D01*
X109781D01*
Y105914D01*
X109792D01*
Y105902D01*
X109804D01*
Y105890D01*
X109816D01*
Y105878D01*
X109840D01*
Y105866D01*
X109852D01*
Y105854D01*
X109876D01*
Y105842D01*
X109888D01*
Y105831D01*
X109900D01*
Y105819D01*
X109924D01*
Y105807D01*
X109935D01*
Y105795D01*
X109959D01*
Y105783D01*
X109971D01*
Y105771D01*
X109995D01*
Y105759D01*
X110007D01*
Y105747D01*
X110031D01*
Y105735D01*
X110043D01*
Y105723D01*
X110066D01*
Y105711D01*
X110078D01*
Y105700D01*
X110090D01*
Y105688D01*
X110114D01*
Y105676D01*
X110138D01*
Y105664D01*
X110150D01*
Y105652D01*
X110174D01*
Y105640D01*
X110186D01*
Y105628D01*
X110209D01*
Y105616D01*
X110233D01*
Y105604D01*
X110245D01*
Y105592D01*
X110269D01*
Y105580D01*
X110281D01*
Y105569D01*
X110305D01*
Y105557D01*
X110328D01*
Y105545D01*
X110340D01*
Y105533D01*
X110364D01*
Y105521D01*
X110388D01*
Y105509D01*
X110412D01*
Y105497D01*
X110436D01*
Y105485D01*
X110448D01*
Y105473D01*
X110471D01*
Y105461D01*
X110495D01*
Y105449D01*
X110507D01*
Y105438D01*
X110543D01*
Y105426D01*
X110567D01*
Y105414D01*
X110579D01*
Y105402D01*
X110614D01*
Y105390D01*
X110626D01*
Y105378D01*
X110650D01*
Y105366D01*
X110674D01*
Y105354D01*
X110698D01*
Y105342D01*
X110721D01*
Y105330D01*
X110745D01*
Y105318D01*
X110769D01*
Y105307D01*
X110805D01*
Y105295D01*
X110817D01*
Y105283D01*
X110852D01*
Y105271D01*
X110876D01*
Y105259D01*
X110900D01*
Y105247D01*
X110936D01*
Y105235D01*
X110960D01*
Y105223D01*
X110983D01*
Y105211D01*
X111019D01*
Y105199D01*
X111031D01*
Y105187D01*
X111067D01*
Y105175D01*
X111102D01*
Y105164D01*
X111126D01*
Y105152D01*
X111162D01*
Y105140D01*
X111186D01*
Y105128D01*
X111222D01*
Y105116D01*
X111257D01*
Y105104D01*
X111281D01*
Y105092D01*
X111317D01*
Y105080D01*
X111353D01*
Y105068D01*
X111376D01*
Y105057D01*
X111424D01*
Y105045D01*
X111460D01*
Y105033D01*
X111484D01*
Y105021D01*
X111531D01*
Y105009D01*
X111567D01*
Y104997D01*
X111603D01*
Y104985D01*
X111650D01*
Y104973D01*
X111686D01*
Y104961D01*
X111734D01*
Y104949D01*
X111781D01*
Y104937D01*
X111817D01*
Y104926D01*
X111865D01*
Y104914D01*
X111912D01*
Y104902D01*
X111960D01*
Y104890D01*
X112020D01*
Y104878D01*
X112067D01*
Y104866D01*
X112127D01*
Y104854D01*
X112186D01*
Y104842D01*
X112246D01*
Y104830D01*
X112329D01*
Y104818D01*
X112389D01*
Y104806D01*
X112472D01*
Y104795D01*
X112579D01*
Y104782D01*
X112651D01*
Y104771D01*
X112794D01*
Y104759D01*
X112972D01*
Y104747D01*
X113627D01*
Y104759D01*
X113806D01*
Y104771D01*
X113949D01*
Y104782D01*
X114032D01*
Y104795D01*
X114128D01*
Y104806D01*
X114223D01*
Y104818D01*
X114282D01*
Y104830D01*
X114354D01*
Y104842D01*
X114413D01*
Y104854D01*
X114473D01*
Y104866D01*
X114544D01*
Y104878D01*
X114580D01*
Y104890D01*
X114640D01*
Y104902D01*
X114699D01*
Y104914D01*
X114735D01*
Y104926D01*
X114794D01*
Y104937D01*
X114830D01*
Y104949D01*
X114878D01*
Y104961D01*
X114925D01*
Y104973D01*
X114949D01*
Y104985D01*
X114997D01*
Y104997D01*
X115044D01*
Y105009D01*
X115068D01*
Y105021D01*
X115116D01*
Y105033D01*
X115152D01*
Y105045D01*
X115187D01*
Y105057D01*
X115223D01*
Y105068D01*
X115247D01*
Y105080D01*
X115295D01*
Y105092D01*
X115330D01*
Y105104D01*
X115354D01*
Y105116D01*
X115390D01*
Y105128D01*
X115414D01*
Y105140D01*
X115449D01*
Y105152D01*
X115485D01*
Y105164D01*
X115497D01*
Y105175D01*
X115533D01*
Y105187D01*
X115568D01*
Y105199D01*
X115592D01*
Y105211D01*
X115628D01*
Y105223D01*
X115652D01*
Y105235D01*
X115676D01*
Y105247D01*
X115700D01*
Y105259D01*
X115723D01*
Y105271D01*
X115759D01*
Y105283D01*
X115783D01*
Y105295D01*
X115807D01*
Y105307D01*
X115831D01*
Y105318D01*
X115854D01*
Y105330D01*
X115878D01*
Y105342D01*
X115902D01*
Y105354D01*
X115926D01*
Y105366D01*
X115950D01*
Y105378D01*
X115973D01*
Y105390D01*
X115997D01*
Y105402D01*
X116021D01*
Y105414D01*
X116045D01*
Y105426D01*
X116069D01*
Y105438D01*
X116093D01*
Y105449D01*
X116104D01*
Y105461D01*
X116128D01*
Y105473D01*
X116152D01*
Y105485D01*
X116176D01*
Y105497D01*
X116200D01*
Y105509D01*
X116212D01*
Y105521D01*
X116235D01*
Y105533D01*
X116259D01*
Y105545D01*
X116271D01*
Y105557D01*
X116295D01*
Y105569D01*
X116319D01*
Y105580D01*
X116331D01*
Y105592D01*
X116355D01*
Y105604D01*
X116378D01*
Y105616D01*
X116390D01*
Y105628D01*
X116414D01*
Y105640D01*
X116426D01*
Y105652D01*
X116450D01*
Y105664D01*
X116474D01*
Y105676D01*
X116486D01*
Y105688D01*
X116509D01*
Y105700D01*
X116521D01*
Y105711D01*
X116545D01*
Y105723D01*
X116557D01*
Y105735D01*
X116581D01*
Y105747D01*
X116593D01*
Y105759D01*
X116616D01*
Y105771D01*
X116628D01*
Y105783D01*
X116652D01*
Y105795D01*
X116664D01*
Y105807D01*
X116676D01*
Y105819D01*
X116700D01*
Y105831D01*
X116712D01*
Y105842D01*
X116736D01*
Y105854D01*
X116747D01*
Y105866D01*
X116759D01*
Y105878D01*
X116783D01*
Y105890D01*
X116795D01*
Y105902D01*
X116807D01*
Y105914D01*
X116831D01*
Y105926D01*
X116843D01*
Y105938D01*
X116855D01*
Y105950D01*
X116878D01*
Y105962D01*
X116891D01*
Y105973D01*
X116902D01*
Y105985D01*
X116926D01*
Y105997D01*
X116938D01*
Y106009D01*
X116950D01*
Y106021D01*
X116962D01*
Y106033D01*
X116986D01*
Y106045D01*
X116998D01*
Y106057D01*
X117009D01*
Y106069D01*
X117022D01*
Y106081D01*
X117033D01*
Y106093D01*
X117057D01*
Y106105D01*
X117069D01*
Y106116D01*
X117081D01*
Y106128D01*
X117093D01*
Y106140D01*
X117105D01*
Y106152D01*
X117117D01*
Y106164D01*
X117141D01*
Y106176D01*
X117153D01*
Y106188D01*
X117164D01*
Y106200D01*
X117176D01*
Y106212D01*
X117188D01*
Y106224D01*
X117200D01*
Y106236D01*
X117212D01*
Y106247D01*
X117224D01*
Y106259D01*
X117248D01*
Y106271D01*
X117260D01*
Y106283D01*
X117272D01*
Y106295D01*
X117283D01*
Y106307D01*
X117295D01*
Y106319D01*
X117307D01*
Y106331D01*
X117319D01*
Y106343D01*
X117331D01*
Y106355D01*
X117343D01*
Y106367D01*
X117355D01*
Y106378D01*
X117367D01*
Y106390D01*
X117379D01*
Y106402D01*
X117391D01*
Y106414D01*
X117403D01*
Y106426D01*
X117414D01*
Y106438D01*
X117426D01*
Y106450D01*
X117438D01*
Y106462D01*
X117450D01*
Y106474D01*
X117462D01*
Y106486D01*
X117474D01*
Y106498D01*
X117486D01*
Y106509D01*
X117498D01*
Y106521D01*
X117510D01*
Y106533D01*
X117522D01*
Y106545D01*
X117534D01*
Y106557D01*
X117545D01*
Y106569D01*
X117557D01*
Y106581D01*
X117569D01*
Y106593D01*
X117581D01*
Y106605D01*
X117593D01*
Y106617D01*
X117605D01*
Y106629D01*
X117617D01*
Y106640D01*
X117629D01*
Y106664D01*
X117641D01*
Y106676D01*
X117653D01*
Y106688D01*
X117665D01*
Y106700D01*
X117676D01*
Y106712D01*
X117688D01*
Y106724D01*
X117700D01*
Y106736D01*
X117712D01*
Y106748D01*
X117724D01*
Y106771D01*
X117736D01*
Y106783D01*
X117748D01*
Y106795D01*
X117760D01*
Y106807D01*
X117772D01*
Y106819D01*
X117784D01*
Y106831D01*
X117796D01*
Y106855D01*
X117807D01*
Y106867D01*
X117819D01*
Y106879D01*
X117831D01*
Y106890D01*
X117843D01*
Y106914D01*
X117855D01*
Y106926D01*
X117867D01*
Y106938D01*
X117879D01*
Y106950D01*
X117891D01*
Y106974D01*
X117903D01*
Y106986D01*
X117915D01*
Y106998D01*
X117927D01*
Y107010D01*
X117938D01*
Y107033D01*
X117950D01*
Y107045D01*
X117962D01*
Y107057D01*
X117974D01*
Y107081D01*
X117986D01*
Y107093D01*
X117998D01*
Y107105D01*
X118010D01*
Y107129D01*
X118022D01*
Y107141D01*
X118034D01*
Y107152D01*
X118046D01*
Y107176D01*
X118058D01*
Y107188D01*
X118070D01*
Y107212D01*
X118081D01*
Y107224D01*
X118093D01*
Y107236D01*
X118105D01*
Y107260D01*
X118117D01*
Y107283D01*
X118129D01*
Y107295D01*
X118141D01*
Y107319D01*
X118153D01*
Y107331D01*
X118165D01*
Y107343D01*
X118177D01*
Y107367D01*
X118189D01*
Y107379D01*
X118201D01*
Y107403D01*
X118212D01*
Y107426D01*
X118224D01*
Y107438D01*
X118236D01*
Y107462D01*
X118248D01*
Y107474D01*
X118260D01*
Y107498D01*
X118272D01*
Y107522D01*
X118284D01*
Y107534D01*
X118296D01*
Y107557D01*
X118308D01*
Y107581D01*
X118320D01*
Y107593D01*
X118332D01*
Y107617D01*
X118343D01*
Y107629D01*
X118355D01*
Y107653D01*
X118367D01*
Y107676D01*
X118379D01*
Y107700D01*
X118391D01*
Y107724D01*
X118403D01*
Y107736D01*
X118415D01*
Y107760D01*
X118427D01*
Y107784D01*
X118439D01*
Y107808D01*
X118451D01*
Y107831D01*
X118463D01*
Y107855D01*
X118474D01*
Y107867D01*
X118486D01*
Y107891D01*
X118498D01*
Y107915D01*
X118510D01*
Y107939D01*
X118522D01*
Y107974D01*
X118534D01*
Y107986D01*
X118546D01*
Y108010D01*
X118558D01*
Y108046D01*
X118570D01*
Y108058D01*
X118582D01*
Y108093D01*
X118594D01*
Y108117D01*
X118605D01*
Y108141D01*
X118617D01*
Y108165D01*
X118629D01*
Y108189D01*
X118641D01*
Y108224D01*
X118653D01*
Y108248D01*
X118665D01*
Y108272D01*
X118677D01*
Y108308D01*
X118689D01*
Y108332D01*
X118701D01*
Y108355D01*
X118713D01*
Y108391D01*
X118725D01*
Y108415D01*
X118736D01*
Y108451D01*
X118748D01*
Y108486D01*
X118760D01*
Y108510D01*
X118772D01*
Y108546D01*
X118784D01*
Y108582D01*
X118796D01*
Y108605D01*
X118808D01*
Y108653D01*
X118820D01*
Y108677D01*
X118832D01*
Y108713D01*
X118844D01*
Y108760D01*
X118856D01*
Y108784D01*
X118867D01*
Y108820D01*
X118879D01*
Y108868D01*
X118891D01*
Y108903D01*
X118903D01*
Y108951D01*
X118915D01*
Y108975D01*
X118927D01*
Y109022D01*
X118939D01*
Y109082D01*
X118951D01*
Y109106D01*
X118963D01*
Y109165D01*
X118975D01*
Y109213D01*
X118986D01*
Y109260D01*
X118998D01*
Y109320D01*
X119010D01*
Y109368D01*
X119022D01*
Y109427D01*
X119034D01*
Y109499D01*
X119046D01*
Y109546D01*
X119058D01*
Y109630D01*
X119070D01*
Y109713D01*
X119082D01*
Y109784D01*
X119094D01*
Y109892D01*
X119106D01*
Y109987D01*
X119117D01*
Y110130D01*
X119129D01*
Y110380D01*
X119141D01*
Y110785D01*
X119129D01*
Y111035D01*
X119117D01*
Y111178D01*
X119106D01*
Y111261D01*
X119094D01*
Y111380D01*
X119082D01*
Y111452D01*
X119070D01*
Y111523D01*
X119058D01*
Y111607D01*
X119046D01*
Y111654D01*
X119034D01*
Y111726D01*
X119022D01*
Y111785D01*
X119010D01*
Y111833D01*
X118998D01*
Y111904D01*
X118986D01*
Y111940D01*
X118975D01*
Y111988D01*
X118963D01*
Y112047D01*
X118951D01*
Y112083D01*
X118939D01*
Y112131D01*
X118927D01*
Y112178D01*
X118915D01*
Y112214D01*
X118903D01*
Y112262D01*
X118891D01*
Y112297D01*
X118879D01*
Y112333D01*
X118867D01*
Y112369D01*
X118856D01*
Y112405D01*
X118844D01*
Y112440D01*
X118832D01*
Y112476D01*
X118820D01*
Y112512D01*
X118808D01*
Y112547D01*
X118796D01*
Y112583D01*
X118784D01*
Y112607D01*
X118772D01*
Y112643D01*
X118760D01*
Y112666D01*
X118748D01*
Y112702D01*
X118736D01*
Y112738D01*
X118725D01*
Y112762D01*
X118713D01*
Y112797D01*
X118701D01*
Y112821D01*
X118689D01*
Y112845D01*
X118677D01*
Y112881D01*
X118665D01*
Y112905D01*
X118653D01*
Y112941D01*
X118641D01*
Y112964D01*
X118629D01*
Y112988D01*
X118617D01*
Y113012D01*
X118605D01*
Y113036D01*
X118594D01*
Y113059D01*
X118582D01*
Y113095D01*
X118570D01*
Y113107D01*
X118558D01*
Y113143D01*
X118546D01*
Y113167D01*
X118534D01*
Y113191D01*
X118522D01*
Y113214D01*
X118510D01*
Y113238D01*
X118498D01*
Y113262D01*
X118486D01*
Y113286D01*
X118474D01*
Y113298D01*
X118463D01*
Y113333D01*
X118451D01*
Y113345D01*
X118439D01*
Y113369D01*
X118427D01*
Y113393D01*
X118415D01*
Y113417D01*
X118403D01*
Y113429D01*
X118391D01*
Y113464D01*
X118379D01*
Y113476D01*
X118367D01*
Y113500D01*
X118355D01*
Y113524D01*
X118343D01*
Y113536D01*
X118332D01*
Y113560D01*
X118320D01*
Y113584D01*
X118308D01*
Y113595D01*
X118296D01*
Y113619D01*
X118284D01*
Y113631D01*
X118272D01*
Y113655D01*
X118260D01*
Y113679D01*
X118248D01*
Y113691D01*
X118236D01*
Y113715D01*
X118224D01*
Y113738D01*
X118212D01*
Y113750D01*
X118201D01*
Y113774D01*
X118189D01*
Y113786D01*
X118177D01*
Y113810D01*
X118165D01*
Y113822D01*
X118153D01*
Y113846D01*
X118141D01*
Y113857D01*
X118129D01*
Y113881D01*
X118117D01*
Y113893D01*
X118105D01*
Y113917D01*
X118093D01*
Y113929D01*
X118081D01*
Y113941D01*
X118070D01*
Y113965D01*
X118058D01*
Y113977D01*
X118046D01*
Y114000D01*
X118034D01*
Y114012D01*
X118022D01*
Y114024D01*
X118010D01*
Y114048D01*
X117998D01*
Y114060D01*
X117986D01*
Y114072D01*
X117974D01*
Y114096D01*
X117962D01*
Y114108D01*
X117950D01*
Y114120D01*
X117938D01*
Y114143D01*
X117927D01*
Y114155D01*
X117915D01*
Y114167D01*
X117903D01*
Y114191D01*
X117891D01*
Y114203D01*
X117879D01*
Y114215D01*
X117867D01*
Y114227D01*
X117855D01*
Y114251D01*
X117843D01*
Y114262D01*
X117831D01*
Y114274D01*
X117819D01*
Y114286D01*
X117807D01*
Y114298D01*
X117796D01*
Y114322D01*
X117784D01*
Y114334D01*
X117772D01*
Y114346D01*
X117760D01*
Y114358D01*
X117748D01*
Y114370D01*
X117736D01*
Y114393D01*
X117724D01*
Y114405D01*
X117712D01*
Y114417D01*
X117700D01*
Y114429D01*
X117688D01*
Y114441D01*
X117676D01*
Y114453D01*
X117665D01*
Y114465D01*
X117653D01*
Y114489D01*
X117641D01*
Y114501D01*
X117629D01*
Y114513D01*
X117617D01*
Y114524D01*
X117605D01*
Y114536D01*
X117593D01*
Y114548D01*
X117581D01*
Y114560D01*
X117569D01*
Y114572D01*
X117557D01*
Y114584D01*
X117545D01*
Y114596D01*
X117534D01*
Y114608D01*
X117522D01*
Y114620D01*
X117510D01*
Y114644D01*
X117498D01*
Y114655D01*
X117486D01*
Y114667D01*
X117474D01*
Y114679D01*
X117462D01*
Y114691D01*
X117450D01*
Y114703D01*
X117438D01*
Y114715D01*
X117426D01*
Y114727D01*
X117414D01*
Y114739D01*
X117403D01*
Y114751D01*
X117391D01*
Y114763D01*
X117379D01*
Y114775D01*
X117355D01*
Y114786D01*
X117343D01*
Y114798D01*
X117331D01*
Y114810D01*
X117319D01*
Y114822D01*
X117307D01*
Y114834D01*
X117295D01*
Y114846D01*
X117283D01*
Y114858D01*
X117272D01*
Y114870D01*
X117260D01*
Y114882D01*
X117248D01*
Y114894D01*
X117236D01*
Y114906D01*
X117224D01*
Y114917D01*
X117212D01*
Y114929D01*
X117188D01*
Y114941D01*
X117176D01*
Y114953D01*
X117164D01*
Y114965D01*
X117153D01*
Y114977D01*
X117141D01*
Y114989D01*
X117129D01*
Y115001D01*
X117117D01*
Y115013D01*
X117105D01*
Y115025D01*
X117081D01*
Y115036D01*
X117069D01*
Y115048D01*
X117057D01*
Y115060D01*
X117045D01*
Y115072D01*
X117033D01*
Y115084D01*
X117009D01*
Y115096D01*
X116998D01*
Y115108D01*
X116986D01*
Y115120D01*
X116974D01*
Y115132D01*
X116950D01*
Y115144D01*
X116938D01*
Y115156D01*
X116926D01*
Y115167D01*
X116914D01*
Y115179D01*
X116891D01*
Y115191D01*
X116878D01*
Y115203D01*
X116867D01*
Y115215D01*
X116843D01*
Y115227D01*
X116831D01*
Y115239D01*
X116819D01*
Y115251D01*
X116795D01*
Y115263D01*
X116783D01*
Y115275D01*
X116771D01*
Y115287D01*
X116747D01*
Y115298D01*
X116736D01*
Y115310D01*
X116724D01*
Y115322D01*
X116700D01*
Y115334D01*
X116688D01*
Y115346D01*
X116664D01*
Y115358D01*
X116652D01*
Y115370D01*
X116640D01*
Y115382D01*
X116616D01*
Y115394D01*
X116605D01*
Y115406D01*
X116581D01*
Y115418D01*
X116569D01*
Y115429D01*
X116557D01*
Y115441D01*
X116533D01*
Y115453D01*
X116521D01*
Y115465D01*
X116498D01*
Y115477D01*
X116474D01*
Y115489D01*
X116462D01*
Y115501D01*
X116438D01*
Y115513D01*
X116426D01*
Y115525D01*
X116402D01*
Y115537D01*
X116378D01*
Y115549D01*
X116366D01*
Y115560D01*
X116343D01*
Y115572D01*
X116319D01*
Y115584D01*
X116307D01*
Y115596D01*
X116283D01*
Y115608D01*
X116271D01*
Y115620D01*
X116247D01*
Y115632D01*
X116224D01*
Y115644D01*
X116212D01*
Y115656D01*
X116188D01*
Y115668D01*
X116164D01*
Y115680D01*
X116140D01*
Y115691D01*
X116116D01*
Y115703D01*
X116104D01*
Y115715D01*
X116081D01*
Y115727D01*
X116057D01*
Y115739D01*
X116033D01*
Y115751D01*
X116009D01*
Y115763D01*
X115985D01*
Y115775D01*
X115962D01*
Y115787D01*
X115938D01*
Y115799D01*
X115914D01*
Y115811D01*
X115890D01*
Y115823D01*
X115866D01*
Y115834D01*
X115842D01*
Y115846D01*
X115819D01*
Y115858D01*
X115795D01*
Y115870D01*
X115771D01*
Y115882D01*
X115747D01*
Y115894D01*
X115723D01*
Y115906D01*
X115688D01*
Y115918D01*
X115664D01*
Y115930D01*
X115640D01*
Y115942D01*
X115616D01*
Y115954D01*
X115580D01*
Y115965D01*
X115557D01*
Y115977D01*
X115521D01*
Y115989D01*
X115497D01*
Y116001D01*
X115473D01*
Y116013D01*
X115426D01*
Y116025D01*
X115414D01*
Y116037D01*
X115378D01*
Y116049D01*
X115342D01*
Y116061D01*
X115318D01*
Y116073D01*
X115271D01*
Y116085D01*
X115247D01*
Y116096D01*
X115211D01*
Y116108D01*
X115164D01*
Y116120D01*
X115140D01*
Y116132D01*
X115104D01*
Y116144D01*
X115056D01*
Y116156D01*
X115033D01*
Y116168D01*
X114985D01*
Y116180D01*
X114949D01*
Y116192D01*
X114913D01*
Y116204D01*
X114854D01*
Y116216D01*
X114830D01*
Y116227D01*
X114771D01*
Y116239D01*
X114723D01*
Y116251D01*
X114687D01*
Y116263D01*
X114628D01*
Y116275D01*
X114580D01*
Y116287D01*
X114532D01*
Y116299D01*
X114461D01*
Y116311D01*
X114413D01*
Y116323D01*
X114342D01*
Y116335D01*
X114259D01*
Y116347D01*
X114211D01*
Y116358D01*
X114104D01*
Y116370D01*
X114020D01*
Y116382D01*
X113925D01*
Y116394D01*
X113770D01*
Y116406D01*
X113639D01*
Y116418D01*
D02*
G37*
%LPD*%
G36*
X135922Y111094D02*
X136005D01*
Y111083D01*
X136065D01*
Y111071D01*
X136100D01*
Y111059D01*
X136148D01*
Y111047D01*
X136184D01*
Y111035D01*
X136207D01*
Y111023D01*
X136231D01*
Y111011D01*
X136255D01*
Y110999D01*
X136279D01*
Y110987D01*
X136303D01*
Y110975D01*
X136315D01*
Y110963D01*
X136338D01*
Y110952D01*
X136362D01*
Y110940D01*
X136374D01*
Y110928D01*
X136386D01*
Y110916D01*
X136410D01*
Y110904D01*
X136422D01*
Y110892D01*
X136434D01*
Y110880D01*
X136446D01*
Y110868D01*
X136458D01*
Y110856D01*
X136469D01*
Y110844D01*
X136481D01*
Y110833D01*
X136493D01*
Y110821D01*
X136505D01*
Y110809D01*
X136517D01*
Y110797D01*
X136529D01*
Y110785D01*
X136541D01*
Y110773D01*
X136553D01*
Y110749D01*
X136565D01*
Y110737D01*
X136577D01*
Y110713D01*
X136589D01*
Y110702D01*
X136600D01*
Y110678D01*
X136612D01*
Y110666D01*
X136624D01*
Y110642D01*
X136636D01*
Y110618D01*
X136648D01*
Y110594D01*
X136660D01*
Y110559D01*
X136672D01*
Y110547D01*
X136684D01*
Y110511D01*
X136696D01*
Y110475D01*
X136708D01*
Y110451D01*
X136720D01*
Y110404D01*
X136731D01*
Y110356D01*
X136743D01*
Y110320D01*
X136755D01*
Y110237D01*
X136767D01*
Y110189D01*
X136779D01*
Y110070D01*
X136791D01*
Y109892D01*
X134635D01*
Y109904D01*
X134624D01*
Y109927D01*
X134635D01*
Y110011D01*
X134647D01*
Y110082D01*
X134659D01*
Y110154D01*
X134671D01*
Y110189D01*
X134683D01*
Y110249D01*
X134695D01*
Y110297D01*
X134707D01*
Y110320D01*
X134719D01*
Y110368D01*
X134731D01*
Y110392D01*
X134743D01*
Y110428D01*
X134755D01*
Y110451D01*
X134766D01*
Y110475D01*
X134778D01*
Y110511D01*
X134790D01*
Y110535D01*
X134802D01*
Y110547D01*
X134814D01*
Y110571D01*
X134826D01*
Y110594D01*
X134838D01*
Y110618D01*
X134850D01*
Y110642D01*
X134862D01*
Y110654D01*
X134874D01*
Y110666D01*
X134886D01*
Y110690D01*
X134897D01*
Y110702D01*
X134909D01*
Y110725D01*
X134921D01*
Y110737D01*
X134933D01*
Y110749D01*
X134945D01*
Y110761D01*
X134957D01*
Y110773D01*
X134969D01*
Y110797D01*
X134981D01*
Y110809D01*
X134993D01*
Y110821D01*
X135005D01*
Y110833D01*
X135017D01*
Y110844D01*
X135028D01*
Y110856D01*
X135040D01*
Y110868D01*
X135064D01*
Y110880D01*
X135076D01*
Y110892D01*
X135088D01*
Y110904D01*
X135100D01*
Y110916D01*
X135124D01*
Y110928D01*
X135136D01*
Y110940D01*
X135148D01*
Y110952D01*
X135171D01*
Y110963D01*
X135195D01*
Y110975D01*
X135207D01*
Y110987D01*
X135231D01*
Y110999D01*
X135255D01*
Y111011D01*
X135278D01*
Y111023D01*
X135314D01*
Y111035D01*
X135338D01*
Y111047D01*
X135374D01*
Y111059D01*
X135421D01*
Y111071D01*
X135457D01*
Y111083D01*
X135517D01*
Y111094D01*
X135612D01*
Y111106D01*
X135922D01*
Y111094D01*
D02*
G37*
G36*
X115009Y115144D02*
X115116D01*
Y115132D01*
X115164D01*
Y115120D01*
X115223D01*
Y115108D01*
X115247D01*
Y115096D01*
X115283D01*
Y115084D01*
X115318D01*
Y115072D01*
X115330D01*
Y115060D01*
X115366D01*
Y115048D01*
X115378D01*
Y115036D01*
X115402D01*
Y115025D01*
X115426D01*
Y115013D01*
X115437D01*
Y115001D01*
X115461D01*
Y114989D01*
X115473D01*
Y114977D01*
X115485D01*
Y114965D01*
X115509D01*
Y114953D01*
X115521D01*
Y114941D01*
X115533D01*
Y114929D01*
X115545D01*
Y114917D01*
X115557D01*
Y114906D01*
X115568D01*
Y114894D01*
X115580D01*
Y114882D01*
X115592D01*
Y114870D01*
X115604D01*
Y114858D01*
X115616D01*
Y114846D01*
X115628D01*
Y114822D01*
X115640D01*
Y114810D01*
X115652D01*
Y114798D01*
X115664D01*
Y114775D01*
X115676D01*
Y114763D01*
X115688D01*
Y114739D01*
X115700D01*
Y114727D01*
X115711D01*
Y114703D01*
X115723D01*
Y114679D01*
X115735D01*
Y114655D01*
X115747D01*
Y114632D01*
X115759D01*
Y114596D01*
X115771D01*
Y114572D01*
X115783D01*
Y114536D01*
X115795D01*
Y114477D01*
X115807D01*
Y114429D01*
X115819D01*
Y106807D01*
X115807D01*
Y106760D01*
X115795D01*
Y106700D01*
X115783D01*
Y106664D01*
X115771D01*
Y106640D01*
X115759D01*
Y106605D01*
X115747D01*
Y106581D01*
X115735D01*
Y106557D01*
X115723D01*
Y106533D01*
X115711D01*
Y106509D01*
X115700D01*
Y106498D01*
X115688D01*
Y106474D01*
X115676D01*
Y106462D01*
X115664D01*
Y106438D01*
X115652D01*
Y106426D01*
X115640D01*
Y106414D01*
X115628D01*
Y106390D01*
X115616D01*
Y106378D01*
X115604D01*
Y106367D01*
X115592D01*
Y106355D01*
X115580D01*
Y106343D01*
X115568D01*
Y106331D01*
X115557D01*
Y106319D01*
X115545D01*
Y106307D01*
X115533D01*
Y106295D01*
X115509D01*
Y106283D01*
X115497D01*
Y106271D01*
X115485D01*
Y106259D01*
X115473D01*
Y106247D01*
X115449D01*
Y106236D01*
X115437D01*
Y106224D01*
X115414D01*
Y106212D01*
X115402D01*
Y106200D01*
X115378D01*
Y106188D01*
X115354D01*
Y106176D01*
X115330D01*
Y106164D01*
X115295D01*
Y106152D01*
X115271D01*
Y106140D01*
X115235D01*
Y106128D01*
X115187D01*
Y106116D01*
X115152D01*
Y106105D01*
X115056D01*
Y106093D01*
X111281D01*
Y106105D01*
X111186D01*
Y106116D01*
X111150D01*
Y106128D01*
X111102D01*
Y106140D01*
X111067D01*
Y106152D01*
X111043D01*
Y106164D01*
X111007D01*
Y106176D01*
X110983D01*
Y106188D01*
X110960D01*
Y106200D01*
X110936D01*
Y106212D01*
X110924D01*
Y106224D01*
X110900D01*
Y106236D01*
X110888D01*
Y106247D01*
X110864D01*
Y106259D01*
X110852D01*
Y106271D01*
X110840D01*
Y106283D01*
X110817D01*
Y106295D01*
X110805D01*
Y106307D01*
X110793D01*
Y106319D01*
X110781D01*
Y106331D01*
X110769D01*
Y106343D01*
X110757D01*
Y106355D01*
X110745D01*
Y106367D01*
X110733D01*
Y106378D01*
X110721D01*
Y106390D01*
X110710D01*
Y106414D01*
X110698D01*
Y106426D01*
X110686D01*
Y106438D01*
X110674D01*
Y106462D01*
X110662D01*
Y106474D01*
X110650D01*
Y106498D01*
X110638D01*
Y106509D01*
X110626D01*
Y106533D01*
X110614D01*
Y106557D01*
X110602D01*
Y106581D01*
X110590D01*
Y106605D01*
X110579D01*
Y106640D01*
X110567D01*
Y106664D01*
X110555D01*
Y106700D01*
X110543D01*
Y106748D01*
X110531D01*
Y106807D01*
X110519D01*
Y108343D01*
Y108355D01*
Y114441D01*
X110531D01*
Y114501D01*
X110543D01*
Y114548D01*
X110555D01*
Y114584D01*
X110567D01*
Y114608D01*
X110579D01*
Y114644D01*
X110590D01*
Y114667D01*
X110602D01*
Y114691D01*
X110614D01*
Y114715D01*
X110626D01*
Y114739D01*
X110638D01*
Y114751D01*
X110650D01*
Y114775D01*
X110662D01*
Y114786D01*
X110674D01*
Y114810D01*
X110686D01*
Y114822D01*
X110698D01*
Y114834D01*
X110710D01*
Y114858D01*
X110721D01*
Y114870D01*
X110733D01*
Y114882D01*
X110745D01*
Y114894D01*
X110757D01*
Y114906D01*
X110769D01*
Y114917D01*
X110781D01*
Y114929D01*
X110805D01*
Y114941D01*
X110817D01*
Y114953D01*
X110829D01*
Y114965D01*
X110840D01*
Y114977D01*
X110852D01*
Y114989D01*
X110876D01*
Y115001D01*
X110888D01*
Y115013D01*
X110900D01*
Y115025D01*
X110924D01*
Y115036D01*
X110948D01*
Y115048D01*
X110971D01*
Y115060D01*
X110995D01*
Y115072D01*
X111019D01*
Y115084D01*
X111043D01*
Y115096D01*
X111079D01*
Y115108D01*
X111114D01*
Y115120D01*
X111162D01*
Y115132D01*
X111210D01*
Y115144D01*
X111329D01*
Y115156D01*
X115009D01*
Y115144D01*
D02*
G37*
%LPC*%
G36*
X113925Y114655D02*
X112401D01*
Y114644D01*
X112341D01*
Y114632D01*
X112317D01*
Y114620D01*
X112294D01*
Y114608D01*
X112258D01*
Y114596D01*
X112246D01*
Y114584D01*
X112234D01*
Y114572D01*
X112210D01*
Y114560D01*
X112198D01*
Y114548D01*
X112186D01*
Y114536D01*
X112174D01*
Y114524D01*
X112162D01*
Y114513D01*
X112151D01*
Y114501D01*
X112139D01*
Y114477D01*
X112127D01*
Y114453D01*
X112115D01*
Y114441D01*
X112103D01*
Y114405D01*
X112091D01*
Y114370D01*
X112079D01*
Y114286D01*
X112067D01*
Y114262D01*
X112079D01*
Y114167D01*
X112091D01*
Y114131D01*
X112103D01*
Y114108D01*
X112115D01*
Y114084D01*
X112127D01*
Y114060D01*
X112139D01*
Y114036D01*
X112151D01*
Y114024D01*
X112162D01*
Y114012D01*
X112174D01*
Y114000D01*
X112186D01*
Y113988D01*
X112198D01*
Y113977D01*
X112210D01*
Y113965D01*
X112222D01*
Y113953D01*
X112246D01*
Y113941D01*
X112270D01*
Y113929D01*
X112282D01*
Y113917D01*
X112317D01*
Y113905D01*
X112341D01*
Y113893D01*
X112389D01*
Y113881D01*
X113937D01*
Y113893D01*
X113973D01*
Y113905D01*
X114008D01*
Y113917D01*
X114032D01*
Y113929D01*
X114056D01*
Y113941D01*
X114068D01*
Y113953D01*
X114092D01*
Y113965D01*
X114104D01*
Y113977D01*
X114116D01*
Y113988D01*
X114128D01*
Y114000D01*
X114139D01*
Y114012D01*
X114151D01*
Y114024D01*
X114163D01*
Y114036D01*
X114175D01*
Y114060D01*
X114187D01*
Y114072D01*
X114199D01*
Y114108D01*
X114211D01*
Y114131D01*
X114223D01*
Y114155D01*
X114235D01*
Y114227D01*
X114247D01*
Y114298D01*
X114235D01*
Y114370D01*
X114223D01*
Y114405D01*
X114211D01*
Y114429D01*
X114199D01*
Y114453D01*
X114187D01*
Y114465D01*
X114175D01*
Y114489D01*
X114163D01*
Y114501D01*
X114151D01*
Y114513D01*
X114139D01*
Y114536D01*
X114128D01*
Y114548D01*
X114116D01*
Y114560D01*
X114092D01*
Y114572D01*
X114080D01*
Y114584D01*
X114068D01*
Y114596D01*
X114044D01*
Y114608D01*
X114032D01*
Y114620D01*
X113997D01*
Y114632D01*
X113973D01*
Y114644D01*
X113925D01*
Y114655D01*
D02*
G37*
G36*
X112020Y113345D02*
X111114D01*
Y107903D01*
X115187D01*
Y108236D01*
Y108248D01*
Y113310D01*
X114259D01*
Y113322D01*
X114247D01*
Y113310D01*
X114187D01*
Y113322D01*
X113139D01*
Y113333D01*
X112020D01*
Y113345D01*
D02*
G37*
G36*
X113246Y107545D02*
X113044D01*
Y107534D01*
X112984D01*
Y107522D01*
X112949D01*
Y107510D01*
X112925D01*
Y107498D01*
X112901D01*
Y107486D01*
X112889D01*
Y107474D01*
X112865D01*
Y107462D01*
X112841D01*
Y107450D01*
X112829D01*
Y107438D01*
X112818D01*
Y107426D01*
X112805D01*
Y107414D01*
X112782D01*
Y107403D01*
X112770D01*
Y107379D01*
X112746D01*
Y107355D01*
X112734D01*
Y107343D01*
X112722D01*
Y107331D01*
X112710D01*
Y107307D01*
X112698D01*
Y107295D01*
X112686D01*
Y107272D01*
X112674D01*
Y107248D01*
X112663D01*
Y107236D01*
X112651D01*
Y107200D01*
X112639D01*
Y107164D01*
X112627D01*
Y107129D01*
X112615D01*
Y107057D01*
X112603D01*
Y106950D01*
X112615D01*
Y106867D01*
X112627D01*
Y106831D01*
X112639D01*
Y106807D01*
X112651D01*
Y106771D01*
X112663D01*
Y106760D01*
X112674D01*
Y106736D01*
X112686D01*
Y106712D01*
X112698D01*
Y106700D01*
X112710D01*
Y106676D01*
X112722D01*
Y106664D01*
X112734D01*
Y106652D01*
X112746D01*
Y106640D01*
X112758D01*
Y106629D01*
X112770D01*
Y106605D01*
X112794D01*
Y106593D01*
X112805D01*
Y106581D01*
X112818D01*
Y106569D01*
X112829D01*
Y106557D01*
X112841D01*
Y106545D01*
X112865D01*
Y106533D01*
X112877D01*
Y106521D01*
X112901D01*
Y106509D01*
X112925D01*
Y106498D01*
X112937D01*
Y106486D01*
X112972D01*
Y106474D01*
X113008D01*
Y106462D01*
X113044D01*
Y106450D01*
X113270D01*
Y106462D01*
X113306D01*
Y106474D01*
X113341D01*
Y106486D01*
X113377D01*
Y106498D01*
X113389D01*
Y106509D01*
X113413D01*
Y106521D01*
X113437D01*
Y106533D01*
X113449D01*
Y106545D01*
X113472D01*
Y106557D01*
X113484D01*
Y106569D01*
X113496D01*
Y106581D01*
X113520D01*
Y106593D01*
X113532D01*
Y106605D01*
X113544D01*
Y106617D01*
X113556D01*
Y106629D01*
X113568D01*
Y106652D01*
X113580D01*
Y106664D01*
X113592D01*
Y106676D01*
X113603D01*
Y106688D01*
X113615D01*
Y106712D01*
X113627D01*
Y106736D01*
X113639D01*
Y106748D01*
X113651D01*
Y106771D01*
X113663D01*
Y106807D01*
X113675D01*
Y106831D01*
X113687D01*
Y106867D01*
X113699D01*
Y106926D01*
X113711D01*
Y107057D01*
X113699D01*
Y107129D01*
X113687D01*
Y107164D01*
X113675D01*
Y107188D01*
X113663D01*
Y107224D01*
X113651D01*
Y107248D01*
X113639D01*
Y107260D01*
X113627D01*
Y107283D01*
X113615D01*
Y107295D01*
X113603D01*
Y107319D01*
X113592D01*
Y107331D01*
X113580D01*
Y107343D01*
X113568D01*
Y107355D01*
X113556D01*
Y107367D01*
X113544D01*
Y107379D01*
X113532D01*
Y107391D01*
X113520D01*
Y107403D01*
X113508D01*
Y107414D01*
X113496D01*
Y107426D01*
X113484D01*
Y107438D01*
X113461D01*
Y107450D01*
X113449D01*
Y107462D01*
X113425D01*
Y107474D01*
X113413D01*
Y107486D01*
X113389D01*
Y107498D01*
X113365D01*
Y107510D01*
X113341D01*
Y107522D01*
X113306D01*
Y107534D01*
X113246D01*
Y107545D01*
D02*
G37*
%LPD*%
M02*
