G04*
G04 #@! TF.GenerationSoftware,Altium Limited,Altium Designer,22.1.2 (22)*
G04*
G04 Layer_Physical_Order=1*
G04 Layer_Color=255*
%FSLAX25Y25*%
%MOIN*%
G70*
G04*
G04 #@! TF.SameCoordinates,9C9567F8-7803-4A2A-AD9E-191CB7A9E8FD*
G04*
G04*
G04 #@! TF.FilePolarity,Positive*
G04*
G01*
G75*
%ADD11C,0.00600*%
%ADD14C,0.01000*%
%ADD15R,0.04400X0.07100*%
G04:AMPARAMS|DCode=16|XSize=48.82mil|YSize=23.23mil|CornerRadius=5.81mil|HoleSize=0mil|Usage=FLASHONLY|Rotation=180.000|XOffset=0mil|YOffset=0mil|HoleType=Round|Shape=RoundedRectangle|*
%AMROUNDEDRECTD16*
21,1,0.04882,0.01161,0,0,180.0*
21,1,0.03720,0.02323,0,0,180.0*
1,1,0.01161,-0.01860,0.00581*
1,1,0.01161,0.01860,0.00581*
1,1,0.01161,0.01860,-0.00581*
1,1,0.01161,-0.01860,-0.00581*
%
%ADD16ROUNDEDRECTD16*%
%ADD17R,0.03150X0.03150*%
%ADD18R,0.02362X0.04331*%
%ADD19R,0.04750X0.06200*%
%ADD20R,0.07100X0.04400*%
%ADD21R,0.02362X0.02756*%
%ADD22R,0.04724X0.05906*%
%ADD23R,0.01181X0.05709*%
%ADD24R,0.01181X0.05787*%
%ADD38C,0.02000*%
%ADD39C,0.07000*%
%ADD40C,0.06000*%
%ADD41C,0.05543*%
%ADD42C,0.03543*%
%ADD43C,0.02500*%
D11*
X148500Y95700D02*
Y106400D01*
X148600Y106500D01*
Y55600D02*
X159900Y44300D01*
X148600Y55600D02*
Y61500D01*
X159900Y40000D02*
Y44300D01*
X160400Y55200D02*
Y61500D01*
Y55200D02*
X164400Y51200D01*
X75100Y129376D02*
X75924Y130200D01*
X77649Y124749D02*
X77794Y124894D01*
X75100Y115500D02*
Y129376D01*
X77649Y124251D02*
X79500Y122400D01*
X77649Y124251D02*
Y124749D01*
X77794Y124894D02*
Y124906D01*
X84937Y131339D02*
X91161D01*
X91200Y131300D02*
X91400D01*
X91161Y131339D02*
X91200Y131300D01*
X244800Y52200D02*
X245600Y53000D01*
X239600Y52200D02*
X244800D01*
X200500Y187300D02*
Y200500D01*
X192900Y179700D02*
X200500Y187300D01*
X17000Y118252D02*
X17849D01*
X15100Y120151D02*
X17000Y118252D01*
X15100Y120151D02*
Y137000D01*
X34300Y79352D02*
Y101800D01*
X17849Y118252D02*
X34300Y101800D01*
X28000Y89500D02*
Y101600D01*
X34651Y79000D02*
X88400D01*
X34300Y79352D02*
X34651Y79000D01*
X27100Y120800D02*
X33600D01*
X26900Y121000D02*
X27100Y120800D01*
X18000Y79500D02*
X28000Y89500D01*
X32600Y109100D02*
X37900D01*
X42900Y114100D01*
Y126100D01*
X18300Y11000D02*
X21531D01*
X13800Y6500D02*
X18300Y11000D01*
X42900Y138500D02*
Y178700D01*
X42600Y179000D02*
X42900Y178700D01*
X71400Y124900D02*
Y134651D01*
X79031Y142282D02*
Y148661D01*
X71400Y134651D02*
X79031Y142282D01*
X79500Y90000D02*
Y122400D01*
X75924Y130200D02*
X76772D01*
X77063Y130490D02*
Y131339D01*
Y138051D01*
X81000Y141988D01*
X76772Y130200D02*
X77063Y130490D01*
X81000Y131339D02*
Y138977D01*
X82968Y140945D01*
Y148661D01*
X99500Y107900D02*
Y115400D01*
X99600Y115500D01*
X87000Y108000D02*
Y115400D01*
X86900Y115500D02*
X87000Y115400D01*
X50100Y118300D02*
X56768Y111632D01*
X62868D01*
X68900Y105600D01*
X79500Y66500D02*
X83600Y70600D01*
X88400D01*
X78453Y28000D02*
X91300Y40847D01*
Y119900D01*
X94100Y61300D02*
Y79100D01*
Y61300D02*
X130500Y24900D01*
X81000Y141988D02*
Y148661D01*
Y157597D01*
X175300Y170200D02*
X190500Y185400D01*
Y200500D01*
X82400Y47850D02*
X86650Y52100D01*
X82400Y46500D02*
Y47850D01*
X86650Y52100D02*
X87800D01*
X80500Y15250D02*
X82400Y13350D01*
X74938Y15250D02*
X80500D01*
X59800Y22500D02*
X67689D01*
X82400Y12000D02*
Y13350D01*
X67689Y22500D02*
X74938Y15250D01*
X50700Y35100D02*
X71353D01*
X78453Y28000D01*
X29500Y35000D02*
X43200D01*
X130500Y10500D02*
Y24900D01*
X13150Y21700D02*
X17300D01*
X17800Y22200D01*
X29400Y34900D02*
X29500Y35000D01*
X25469Y11000D02*
X69600D01*
X70600Y12000D01*
X25569Y48100D02*
X33500D01*
X15100Y147360D02*
X19257Y151517D01*
X15595Y166759D02*
X19257Y163097D01*
X15100Y137000D02*
Y147360D01*
X19257Y151517D02*
Y163097D01*
X15595Y166759D02*
Y180992D01*
X27406D02*
X27598Y180800D01*
X33500D01*
X80000Y158597D02*
X81000Y157597D01*
X77450Y157096D02*
X79031Y155514D01*
Y148661D02*
Y155514D01*
X73958Y156982D02*
Y157329D01*
X77063Y148661D02*
Y153876D01*
X80000Y158597D02*
Y163100D01*
X73958Y156982D02*
X77063Y153876D01*
X82969Y152969D02*
X85600Y155600D01*
X82968Y148661D02*
X82969Y148662D01*
Y152969D01*
X83047Y127906D02*
X84853Y126100D01*
X91300D01*
X82968Y131339D02*
X83047Y131261D01*
Y127906D02*
Y131261D01*
X90800Y206800D02*
X250281D01*
X84500Y200500D02*
X90800Y206800D01*
X250281D02*
X257100Y199981D01*
X250644Y208700D02*
X258700Y200644D01*
Y158744D02*
Y200644D01*
X82700Y208700D02*
X250644D01*
X257100Y157600D02*
Y199981D01*
Y157600D02*
X265800Y148900D01*
Y75100D02*
Y148900D01*
X260100Y69400D02*
X265800Y75100D01*
X251140Y50952D02*
Y56834D01*
X267800Y73494D01*
Y149644D01*
X252740Y55929D02*
X261912Y65100D01*
X252740Y40512D02*
Y55929D01*
X261912Y65100D02*
X264100D01*
X249000Y48812D02*
X251140Y50952D01*
X249000Y40512D02*
Y48812D01*
X258700Y158744D02*
X267800Y149644D01*
X74500Y200500D02*
X82700Y208700D01*
X70500Y46400D02*
X70600Y46500D01*
X54700Y46400D02*
X70500D01*
X25469Y48000D02*
X25569Y48100D01*
X17400Y35100D02*
Y41600D01*
Y35100D02*
X17600Y34900D01*
X21600Y48068D02*
Y53600D01*
X21531Y48000D02*
X21600Y48068D01*
X191827Y16033D02*
X191830Y16037D01*
X191827Y4327D02*
Y16033D01*
X192178Y3976D02*
X203976D01*
X191827Y4327D02*
X192178Y3976D01*
X203976D02*
X210500Y10500D01*
X239400Y40400D02*
X245148D01*
X245260Y40512D01*
Y36430D02*
Y40512D01*
X249000Y29488D02*
Y32689D01*
X245260Y36430D02*
X249000Y32689D01*
X208000Y18000D02*
X215800D01*
X200500Y10500D02*
X208000Y18000D01*
X64100Y163100D02*
X80000D01*
X54400Y172800D02*
X64100Y163100D01*
X54400Y172800D02*
Y179000D01*
D14*
X142249Y105840D02*
X142500Y106092D01*
Y115500D01*
X111800D02*
X142500D01*
X142249Y85651D02*
Y105840D01*
Y85651D02*
X142500Y85400D01*
X111400Y115500D02*
X111800D01*
X159300Y163150D02*
Y171100D01*
Y163150D02*
X159350Y163100D01*
X252800Y162150D02*
Y169700D01*
Y162150D02*
X252850Y162100D01*
X192014Y147414D02*
X206700Y162100D01*
X210150D01*
X190850Y143400D02*
X192014Y144564D01*
Y147414D01*
X222850Y162100D02*
X222900Y162150D01*
Y170000D01*
X190850Y162600D02*
X190900Y162650D01*
Y170000D01*
X39775Y47725D02*
Y56125D01*
X26400Y69500D02*
X39775Y56125D01*
X18000Y69500D02*
X26400D01*
X26900Y137000D02*
X38725D01*
X60225Y115500D01*
X75100D01*
X72547Y24398D02*
X76246Y20700D01*
X82900D01*
X72547Y24398D02*
Y28000D01*
X47033D02*
X72547D01*
X82900Y20700D02*
X97600Y6000D01*
X146000D01*
X150500Y10500D01*
X145164Y42936D02*
X146400D01*
X142500Y45600D02*
Y85400D01*
X146400Y42936D02*
X148100Y41236D01*
X142500Y45600D02*
X145164Y42936D01*
X148100Y22000D02*
Y41236D01*
X39775Y47725D02*
X47033Y40467D01*
Y28000D02*
Y40467D01*
X84950Y123350D02*
X95564D01*
X96900Y124686D01*
X81000Y127300D02*
X84950Y123350D01*
X109153Y135260D02*
X109203D01*
X109859Y126641D02*
Y134605D01*
Y126641D02*
X111800Y124700D01*
X109203Y135260D02*
X109859Y134605D01*
X97486Y139000D02*
X100845D01*
X96900Y124686D02*
Y138414D01*
X97486Y139000D01*
X148100Y22000D02*
X249400D01*
X252740Y25340D01*
Y29488D01*
X148100Y14253D02*
Y22000D01*
X80100Y175000D02*
Y184300D01*
X80000Y174900D02*
X80100Y175000D01*
X93150Y174900D02*
X94500D01*
X91450Y176600D02*
X93150Y174900D01*
X91450Y176600D02*
Y183550D01*
X74500Y200500D02*
X91450Y183550D01*
X201000Y107205D02*
X220705Y87500D01*
X201000Y107205D02*
Y111500D01*
X177807Y119000D02*
X210500D01*
X218500Y43000D02*
X232012Y29488D01*
X245260D01*
X160400Y85500D02*
X177528D01*
X186272Y94244D01*
X160400Y85500D02*
Y106500D01*
X158400Y126500D02*
X158600Y126700D01*
X164800D01*
X190000Y127100D02*
X195700D01*
X189900Y127000D02*
X190000Y127100D01*
X222400Y126500D02*
X228700D01*
X252300D02*
X252600Y126200D01*
X258200D01*
X238275Y159050D02*
Y160225D01*
X240150Y162100D01*
X222850Y142900D02*
Y143625D01*
X238275Y159050D01*
X174725Y160000D02*
X176275D01*
X178150Y161875D01*
Y162600D01*
X159350Y143900D02*
Y144625D01*
X174725Y160000D01*
X133500Y163500D02*
X146250D01*
X146650Y163100D01*
X133500Y179500D02*
X154500Y200500D01*
X133500Y175300D02*
Y179500D01*
X146250Y144300D02*
X146650Y143900D01*
X126800Y144300D02*
X146250D01*
X108000Y163100D02*
X126800Y144300D01*
X94500Y163100D02*
X108000D01*
X47033Y22200D02*
Y28000D01*
X29600Y22200D02*
X47033D01*
X178100Y127000D02*
Y143350D01*
X142500Y115500D02*
Y118700D01*
X142800Y119000D02*
X177807D01*
X178100Y119293D01*
X142500Y118700D02*
X142800Y119000D01*
X178100Y119293D02*
Y127000D01*
X240500Y119486D02*
Y126500D01*
X210500Y119000D02*
Y126400D01*
X239914Y118900D02*
X240500Y119486D01*
X210400Y118900D02*
X210500Y119000D01*
X210400Y118900D02*
X239914D01*
X210500Y126400D02*
X210600Y126500D01*
X142500Y118700D02*
Y121050D01*
X240150Y142900D02*
X240500Y142550D01*
Y126500D02*
Y142550D01*
X210150Y142900D02*
X210600Y142450D01*
Y126500D02*
Y142450D01*
X178100Y143350D02*
X178150Y143400D01*
X146650Y126550D02*
Y143900D01*
X146600Y126500D02*
X146650Y126550D01*
X80000Y163100D02*
X94500D01*
X142500Y121050D02*
X146600Y125150D01*
X142600Y85500D02*
X148600D01*
X142500Y85400D02*
X142600Y85500D01*
X146600Y125150D02*
Y126500D01*
X148100Y14253D02*
X150500Y11853D01*
Y10500D02*
Y11853D01*
X81000Y127300D02*
Y131339D01*
X85259Y148658D02*
X107110D01*
X109153Y146614D01*
Y142740D02*
Y146614D01*
X111800Y115900D02*
Y124700D01*
X111400Y115500D02*
X111800Y115900D01*
X257500Y30800D02*
Y52900D01*
X257400Y53000D02*
X257500Y52900D01*
X256188Y29488D02*
X257500Y30800D01*
X252740Y29488D02*
X256188D01*
D15*
X15100Y137000D02*
D03*
X26900D02*
D03*
X15100Y121000D02*
D03*
X26900D02*
D03*
X257400Y53000D02*
D03*
X245600D02*
D03*
X222400Y126500D02*
D03*
X210600D02*
D03*
X148100Y40000D02*
D03*
X159900D02*
D03*
X160400Y61500D02*
D03*
X148600D02*
D03*
X42600Y179000D02*
D03*
X54400D02*
D03*
X160400Y106500D02*
D03*
X148600D02*
D03*
Y85500D02*
D03*
X160400D02*
D03*
X82400Y12000D02*
D03*
X70600D02*
D03*
X82400Y46500D02*
D03*
X70600D02*
D03*
X17800Y22200D02*
D03*
X29600D02*
D03*
X17600Y34900D02*
D03*
X29400D02*
D03*
X99600Y115500D02*
D03*
X111400D02*
D03*
X252300Y126500D02*
D03*
X240500D02*
D03*
X189900Y127000D02*
D03*
X178100D02*
D03*
X158400Y126500D02*
D03*
X146600D02*
D03*
X75100Y115500D02*
D03*
X86900D02*
D03*
D16*
X100845Y139000D02*
D03*
X109153Y142740D02*
D03*
Y135260D02*
D03*
D17*
X72547Y28000D02*
D03*
X78453D02*
D03*
D18*
X245260Y29488D02*
D03*
D03*
D03*
X249000D02*
D03*
X252740Y40512D02*
D03*
Y29488D02*
D03*
Y40512D02*
D03*
X249000D02*
D03*
X245260D02*
D03*
D19*
X252850Y142900D02*
D03*
Y162100D02*
D03*
X240150Y142900D02*
D03*
Y162100D02*
D03*
X222850Y142900D02*
D03*
Y162100D02*
D03*
X210150Y142900D02*
D03*
Y162100D02*
D03*
X190850Y143400D02*
D03*
Y162600D02*
D03*
X178150Y143400D02*
D03*
Y162600D02*
D03*
X159350Y143900D02*
D03*
Y163100D02*
D03*
X146650Y143900D02*
D03*
Y163100D02*
D03*
D20*
X94500Y174900D02*
D03*
Y163100D02*
D03*
X80000D02*
D03*
Y174900D02*
D03*
X133500Y163500D02*
D03*
Y175300D02*
D03*
D21*
X21531Y48000D02*
D03*
X25469D02*
D03*
X21531Y11000D02*
D03*
X25469D02*
D03*
D22*
X15595Y155008D02*
D03*
X27406Y180992D02*
D03*
X15595D02*
D03*
X27406Y155008D02*
D03*
D23*
X77063Y131339D02*
D03*
D24*
X79031D02*
D03*
X81000D02*
D03*
X82968D02*
D03*
X84937D02*
D03*
Y148661D02*
D03*
X82968D02*
D03*
X81000D02*
D03*
X79031D02*
D03*
X77063D02*
D03*
D38*
X6000Y4422D02*
X7172Y3250D01*
X6000Y4422D02*
Y179541D01*
X7172Y3250D02*
X140450D01*
X6000Y179541D02*
X18713Y192254D01*
X41254D01*
X49500Y200500D01*
D39*
X208500Y43000D02*
D03*
X218500D02*
D03*
X188500D02*
D03*
X198500D02*
D03*
X69500Y66500D02*
D03*
X79500D02*
D03*
X49500D02*
D03*
X59500D02*
D03*
X69500Y90000D02*
D03*
X79500D02*
D03*
X49500D02*
D03*
X59500D02*
D03*
X119500Y76000D02*
D03*
Y66000D02*
D03*
Y96000D02*
D03*
Y86000D02*
D03*
D40*
X180500Y10500D02*
D03*
X170500D02*
D03*
X160500D02*
D03*
X150500D02*
D03*
X140500D02*
D03*
X130500D02*
D03*
X120500D02*
D03*
X110500D02*
D03*
X18000Y99500D02*
D03*
Y89500D02*
D03*
Y79500D02*
D03*
Y69500D02*
D03*
X19500Y200500D02*
D03*
X29500D02*
D03*
X39500D02*
D03*
X49500D02*
D03*
X164500D02*
D03*
X154500D02*
D03*
X144500D02*
D03*
X134500D02*
D03*
X124500D02*
D03*
X114500D02*
D03*
X104500D02*
D03*
X94500D02*
D03*
X84500D02*
D03*
X74500D02*
D03*
X250500D02*
D03*
X240500D02*
D03*
X230500D02*
D03*
X220500D02*
D03*
X210500D02*
D03*
X200500D02*
D03*
X190500D02*
D03*
X180500D02*
D03*
X250500Y10500D02*
D03*
X240500D02*
D03*
X230500D02*
D03*
X220500D02*
D03*
X210500D02*
D03*
X200500D02*
D03*
D41*
X220705Y87500D02*
D03*
X246295D02*
D03*
D42*
X186272Y99756D02*
D03*
Y94244D02*
D03*
D43*
X70000Y184500D02*
D03*
X210600Y27500D02*
D03*
X191900Y25900D02*
D03*
X251200Y64300D02*
D03*
X209000Y111600D02*
D03*
X194500Y175100D02*
D03*
X174000Y176200D02*
D03*
X100100Y128600D02*
D03*
X46400Y122000D02*
D03*
X37500Y105200D02*
D03*
X53000Y21400D02*
D03*
X100000Y79100D02*
D03*
X56800Y40600D02*
D03*
X43500Y28900D02*
D03*
X35700Y40500D02*
D03*
X148500Y95700D02*
D03*
X164400Y51200D02*
D03*
X77794Y124906D02*
D03*
X91400Y131300D02*
D03*
X239600Y52200D02*
D03*
X192900Y179700D02*
D03*
X159300Y171100D02*
D03*
X252800Y169700D02*
D03*
X222900Y170000D02*
D03*
X190900D02*
D03*
X28000Y101600D02*
D03*
X32600Y109100D02*
D03*
X42900Y126100D02*
D03*
X13800Y6500D02*
D03*
X42900Y138500D02*
D03*
X71400Y124900D02*
D03*
X50100Y118300D02*
D03*
X68900Y105600D02*
D03*
X88400Y70600D02*
D03*
X94100Y79100D02*
D03*
X175300Y170200D02*
D03*
X87800Y52100D02*
D03*
X88400Y79000D02*
D03*
X59800Y22500D02*
D03*
X50700Y35100D02*
D03*
X43200Y35000D02*
D03*
X13150Y21700D02*
D03*
X33500Y48100D02*
D03*
Y180800D02*
D03*
X77450Y157096D02*
D03*
X73958Y157329D02*
D03*
X91300Y126100D02*
D03*
Y119900D02*
D03*
X99500Y107900D02*
D03*
X260100Y69400D02*
D03*
X264100Y65100D02*
D03*
X54700Y46400D02*
D03*
X17400Y41600D02*
D03*
X21600Y53600D02*
D03*
X191830Y16037D02*
D03*
X239400Y40400D02*
D03*
X215800Y18000D02*
D03*
X80100Y184300D02*
D03*
X85600Y155600D02*
D03*
X201000Y111500D02*
D03*
X140450Y3250D02*
D03*
X258200Y126200D02*
D03*
X228700Y126500D02*
D03*
X195700Y127100D02*
D03*
X164800Y126700D02*
D03*
X33600Y120800D02*
D03*
X87000Y108000D02*
D03*
M02*
